<svg id="Layer_1" data-name="Layer 1" xmlns="http://www.w3.org/2000/svg" viewBox="0 0 295.66 288"><path d="M99.53,230c0,1.17-1.35,2.11-3,2.11-1.93.17-3.28-.76-3.28-2.11,0-1.17,1.35-2.11,3-2.11C98,227.73,99.53,228.67,99.53,230ZM81.3,227.38c-.41,1.17.76,2.52,2.52,2.87,1.53.59,3.28,0,3.63-1.17s-.76-2.52-2.52-3.05c-1.52-.41-3.22.18-3.63,1.35Zm25.91-1c-1.7.41-2.88,1.53-2.7,2.88.18,1.17,1.7,1.93,3.46,1.52s2.87-1.52,2.69-2.7S108.91,226.21,107.21,226.38ZM145.77,1.8C64.48,1.8,2.3,63.52,2.3,144.8c0,65,40.91,120.62,99.34,140.19,7.5,1.35,10.14-3.28,10.14-7.09,0-3.63-.18-23.68-.18-36,0,0-41,8.79-49.64-17.47,0,0-6.68-17-16.29-21.45,0,0-13.42-9.2.94-9A31,31,0,0,1,69.23,209.1c12.83,22.62,34.34,16.11,42.72,12.24,1.35-9.37,5.16-15.88,9.38-19.75-32.76-3.63-65.82-8.38-65.82-64.76,0-16.11,4.46-24.2,13.84-34.52-1.53-3.81-6.51-19.51,1.52-39.79,12.25-3.81,40.44,15.82,40.44,15.82a138.49,138.49,0,0,1,73.61,0s28.19-19.69,40.44-15.82c8,20.34,3,36,1.52,39.79,9.38,10.38,15.12,18.46,15.12,34.52,0,56.56-34.52,61.07-67.28,64.76,5.39,4.63,10,13.42,10,27.2,0,19.75-.17,44.19-.17,49,0,3.81,2.69,8.44,10.14,7.09C253.25,265.42,293,209.8,293,144.8,293,63.52,227.06,1.8,145.77,1.8ZM59.26,203.94c-.76.58-.58,1.93.42,3.05.93.93,2.28,1.34,3,.58.76-.58.59-1.93-.41-3C61.37,203.59,60,203.18,59.26,203.94Zm-6.32-4.75c-.41.76.17,1.7,1.34,2.29a1.75,1.75,0,0,0,2.52-.41c.41-.77-.17-1.7-1.34-2.29C54.28,198.43,53.35,198.6,52.94,199.19Zm19,20.87c-.93.76-.58,2.52.77,3.63,1.34,1.35,3,1.52,3.81.58.76-.76.41-2.52-.77-3.63C74.44,219.29,72.69,219.12,71.92,220.06Zm-6.68-8.62c-.93.59-.93,2.11,0,3.46s2.52,1.93,3.28,1.35c.94-.77.94-2.29,0-3.64s-2.34-1.93-3.28-1.17Z"/></svg>