<svg xmlns="http://www.w3.org/2000/svg" xmlns:xlink="http://www.w3.org/1999/xlink" x="0" y="0" version="1.1" viewBox="0 0 1920 782" xml:space="preserve" style="enable-background:new 0 0 1920 782"><style type="text/css">.st0{fill:#1c0e3f}.st1{fill:#180f35}.st2{opacity:.27}.st3{fill:#3f3483}.st4{fill:#4d3c8c}.st5{opacity:.41}.st6{fill:#fff}.st7{fill:#ef4a8e}.st8{fill:#a6dff9}.st9{fill:url(#SVGID_1_)}.st10{fill:#fbd879}.st11{fill:#f37b51}.st12{fill:#1d72a3}.st13{fill:url(#SVGID_2_)}.st14{fill:#a8def9}.st15{fill:url(#SVGID_3_)}.st16{fill:#44bde1}.st17{fill:#d9f0f8}.st18{fill:#05a4c6}.st19{fill:url(#SVGID_4_)}</style><g id="Layer_3"><path d="M-1.3,738.5c0,0,33.1,16.5,81.6-63S165,526.8,234.2,507.1c0,0-35.1,76.4-7.2,132.2 c27.9,55.8,95,101.5,204.5,93c158.7-12.4,244.2-89,438.2-105.8c88.7-7.7,186.8-17.2,463.5,77.1s395.6,97.4,587.2-23.6V0.4H-1 L-1.3,738.5z" class="st0"/></g><g id="Layer_9"><path d="M889.5,40.9c-82.4,0-155.4,68.8-211.7,106c-59.4,39.3-135.1,71.1-215.2,73c-1.7,0-3.4,0.1-5.1,0.1 c-32,0-63.8-6.8-95.3-13.5c-31.5-6.8-62.8-13.5-93.9-13.5c-12.8,0-25.6,1.2-38.4,4c-60.4,13.3-127,57.4-112.6,110.9 c2.8,10.4,9.6,19.6,22,25.8c14.1,7.1,31.2,9.2,48.6,9.2c16.1,0,32.4-1.8,46.7-3.1c14.9-1.4,30-2.4,45-2.4c17.9,0,35.6,1.4,53,5.4 c42.6,9.8,76.1,33.4,101.2,60.8c22.2,24.2,51,47.1,87.4,56.9c16.9,4.6,33.7,6.7,50.2,6.7c38,0,74.1-11.7,105.1-32.9 c41.4-28.3,88.3-60.4,142.5-60.4c3.8,0,7.7,0.2,11.5,0.5c35.6,3,69.2,25.7,91.1,47.4c21.9,21.7,28.8,24.5,53.6,53.2 c46.5,53.7,72.7,114.7,151.8,146.2c15.9,6.3,32,9.2,47.9,9.2h0.6c48-0.1,93.2-25.7,120.3-56.7c33.2-37.9,50.6-83.5,91.6-117.5 c43.4-36,105.7-63.7,170.5-63.7c12.5,0,25.1,1,37.7,3.2c37.5,6.6,70.7,9.5,100.1,9.5c228.6,0,220.9-176.9,122.3-178.5 c-0.6,0-1.1,0-1.7,0c-23,0-51,7.1-79.2,14.2c-28.2,7.1-56.5,14.2-80.3,14.2c-2.7,0-5.3-0.1-7.9-0.3c-48.5-3.6-100.5-15.8-127-47.1 c-9.4-11.1-15-24-25.8-34.4c-16.9-16.2-43.6-23.1-71-23.1c-15.9,0-32,2.3-46.7,6.5c-40,11.4-72.7,33.7-108.2,51.8 c-29.6,15.1-64,27.9-98.9,27.9c-7,0-13.9-0.5-20.9-1.6c-52.4-8.3-86.2-46.6-110.3-83.2c-25.8-39.2-52.2-88.1-109.9-105 C916.5,42.7,902.9,40.9,889.5,40.9" class="st1"/></g><g id="Layer_8"><g class="st2"><path d="M123.4,517.3c35.8-15,66.8-33.6,108.5-43.9c41.6-10.3,100.1-8.6,120.9,11.3c18.5,17.7-1.3,40.5-28.4,56.3 c-27.1,15.8-61.9,28.7-81.4,47c-13.8,13-27,35.9-7.3,66.8c0,0,38,50.5,80.6,63.6c70.5,21.7,136.2,31.4,352.9-48.6 c175.5-64.7,340.6-45,340.6-45c46.9-32.5,89.3-69.4,126-104.9c69.6-67.2,118.9-149.9,47.8-213.6c-65.9-59.1-212.9-81.1-349.2-87.2 c-71.3-3.2-155.7-7.1-188.8-38.4c-35.2-33.4,15.5-76.8,80.8-98.4C838.4,45.1,996.4,50,1091.6,93.7c41.4,19,70.6,43.7,107.4,64.9 c36.9,21.2,86,39.8,143.2,40.1c67.3,0.4,125.7-23.8,183.4-42.6s136.3-32.6,188.8-12.5c81.6,31.1,14.1,105.1,73.9,146.9 c26.8,18.7,75.6,27,122.6,25.7l-1.1-110.2c-5.3,0.2-10.7,0.2-16,0c-70.3-2.4-103.6-34.5-107.6-65.8c-3.9-31.3,11.6-64.9-4.1-94.4 c-9.1-17.1-29.7-31.6-57.8-42.6l-330.3,3.4c-35.4,7.6-71,15.1-107.5,19.4c-116.7,13.9-220.2-5.4-329.4-14.9l-206,2.1 C647.1,26.3,545.5,57,477.8,97.9c-32.3,19.5-57.6,41.5-63.7,63.5c-6.1,22,9.2,43.7,46.8,54.2c33.7,9.5,79.6,9.2,121.3,12.2 c130.9,9.3,228.8,55,243.6,113.8c14.8,58.8-54.1,128-171.6,172.3c-21.3,8-46.4,15.7-71.4,15.9c-54.6,0.5-62.3-31.7-45.2-56.2 c17.1-24.5,45.5-52.6,18.8-71.1c-32.5-22.5-120.2-12.2-182,5.4c-61.9,17.6-123.7,41.7-190.5,43.5c-75.8,2-121.1-25.4-180.1-41.8 l1.5,140.7C48,543.1,88.4,531.9,123.4,517.3z" class="st3"/></g></g><g id="Layer_5"><path d="M553.9,237.9c-5.2-3.4-11.2-4.9-17.9-3.4c-14.6,3.3-25.3,17.9-34,28.9c-9.6,12.1-32.8-2.4-46.3,5.1 c-18.1,10-37,37.8-56.6,34.8c-17.3-2.7-35.6,5.4-51.7,13.3c-24.8,12.3-38.4,34.8-40.6,62c-2.2,27.2-4.7,58.1-26.3,75.5 c-13,10.5-33.5,12.2-49.7,10.5c-16.2-1.8-19.6-0.6-39.7-4.3c-37.5-6.8-71.3-23.4-110.5-10.3c-31.8,10.6-41.3,46.3-36.3,75.3 C49,551.9,62,576.4,62.5,604c0.5,34.8-12.7,73.7-44,93.6c-7.4,4.7-14.1,9.4-20.1,14.2l0,26.6c0,0,33.1,16.5,81.6-63 c48.5-79.5,84.7-148.7,153.9-168.4c0,0-30.1,65.6-12.4,119.6c3.1-3.6,6.6-6.8,10.5-9.5c20.7-13.8,47.7-9.2,70.7-2 c24.7,7.7,53.5,19.2,79.6,7.1c44.7-20.7,38.5-85.2,42.3-124.6c3.5-35.8,35.3-69.4,61.1-96.5c25.4-26.8,28.2-17.1,46.5-49 C546.7,326.6,580.7,255.2,553.9,237.9z" class="st4"/></g><g id="Layer_6"><g class="st5"><path d="M322.8,412.8c1.6,1.2,3.9,0.9,5.2-0.7c1.2-1.6,0.9-3.9-0.7-5.2c-1.6-1.2-3.9-0.9-5.2,0.7 C320.9,409.2,321.2,411.5,322.8,412.8z" class="st6"/><path d="M900.8,451.5c1.6,1.2,3.8,0.9,5-0.7c1.2-1.6,0.9-3.8-0.7-5c-1.6-1.2-3.8-0.9-5,0.7 C899,448,899.3,450.3,900.8,451.5z" class="st6"/><path d="M18,263.3c1.6,1.2,3.8,0.9,5-0.7c1.2-1.6,0.9-3.8-0.7-5c-1.6-1.2-3.8-0.9-5,0.7 C16.1,259.9,16.4,262.1,18,263.3z" class="st6"/><path d="M471.4,607.9c1.6,1.2,3.8,0.9,5-0.7c1.2-1.6,0.9-3.8-0.7-5c-1.6-1.2-3.8-0.9-5,0.7 C469.5,604.4,469.8,606.7,471.4,607.9z" class="st6"/><path d="M1793.9,143.8c1,0.8,2.5,0.6,3.2-0.4c0.8-1,0.6-2.5-0.4-3.2c-1-0.8-2.5-0.6-3.2,0.4 C1792.7,141.5,1792.8,143,1793.9,143.8z" class="st6"/><path d="M292.7,67.1c1,0.8,2.5,0.6,3.2-0.4c0.8-1,0.6-2.5-0.4-3.2c-1-0.8-2.5-0.6-3.2,0.4 C291.5,64.9,291.6,66.3,292.7,67.1z" class="st6"/><path d="M1881.9,244.4c1,0.8,2.5,0.6,3.2-0.4c0.8-1,0.6-2.5-0.4-3.2c-1-0.8-2.5-0.6-3.2,0.4 C1880.7,242.1,1880.9,243.6,1881.9,244.4z" class="st6"/><path d="M1488.9,146.8c1,0.8,2.5,0.6,3.2-0.4c0.8-1,0.6-2.5-0.4-3.2c-1-0.8-2.5-0.6-3.2,0.4 C1487.7,144.6,1487.9,146.1,1488.9,146.8z" class="st6"/><path d="M270.4,659c1,0.8,2.5,0.6,3.2-0.4c0.8-1,0.6-2.5-0.4-3.2c-1-0.8-2.5-0.6-3.2,0.4 C269.2,656.7,269.3,658.2,270.4,659z" class="st6"/><path d="M1410.2,102.2c-0.9,0.9-0.9,2.4,0,3.3c0.9,0.9,2.4,0.9,3.3,0c0.9-0.9,0.9-2.4,0-3.3 C1412.5,101.3,1411.1,101.3,1410.2,102.2z" class="st6"/><path d="M951.7,549.9c-0.9,0.9-0.9,2.4,0,3.3c0.9,0.9,2.4,0.9,3.3,0c0.9-0.9,0.9-2.4,0-3.3 C954,549,952.6,549,951.7,549.9z" class="st6"/><path d="M654.7,503c-0.5,0.5-0.5,1.4,0,1.9c0.5,0.5,1.4,0.5,1.9,0c0.5-0.5,0.5-1.4,0-1.9 C656.1,502.5,655.2,502.5,654.7,503z" class="st6"/><path d="M1142.3,22.2c-0.5,0.5-0.5,1.4,0,1.9c0.5,0.5,1.4,0.5,1.9,0c0.5-0.5,0.5-1.4,0-1.9S1142.9,21.7,1142.3,22.2z" class="st6"/><path d="M1498.3,187.6c-0.9,0.9-0.9,2.4,0,3.3c0.9,0.9,2.4,0.9,3.3,0c0.9-0.9,0.9-2.4,0-3.3 C1500.7,186.7,1499.2,186.7,1498.3,187.6z" class="st6"/><path d="M760.8,210.9c-0.9,0.9-0.9,2.4,0,3.3c0.9,0.9,2.4,0.9,3.3,0c0.9-0.9,0.9-2.4,0-3.3 C763.2,210,761.7,210,760.8,210.9z" class="st6"/><path d="M1277.5,150.8c-0.9,0.9-0.9,2.4,0,3.3c0.9,0.9,2.4,0.9,3.3,0c0.9-0.9,0.9-2.4,0-3.3 C1279.8,149.9,1278.4,149.9,1277.5,150.8z" class="st6"/><path d="M1207.7,320c-0.9,0.9-0.9,2.4,0,3.3c0.9,0.9,2.4,0.9,3.3,0c0.9-0.9,0.9-2.4,0-3.3 C1210.1,319.1,1208.6,319.1,1207.7,320z" class="st6"/><path d="M1443.4,582.3c-0.6,0.6-0.6,1.6,0,2.1c0.6,0.6,1.6,0.6,2.1,0c0.6-0.6,0.6-1.6,0-2.1 C1444.9,581.7,1444,581.7,1443.4,582.3z" class="st6"/><path d="M1517.9,470.7c-0.6,0.6-0.6,1.6,0,2.1c0.6,0.6,1.6,0.6,2.1,0c0.6-0.6,0.6-1.6,0-2.1 C1519.5,470.1,1518.5,470.1,1517.9,470.7z" class="st6"/><path d="M1157.1,105.9c-0.6,0.6-0.6,1.6,0,2.1c0.6,0.6,1.6,0.6,2.1,0c0.6-0.6,0.6-1.6,0-2.1 C1158.6,105.3,1157.7,105.3,1157.1,105.9z" class="st6"/><path d="M1076.4,446.4c-0.9,0.9-0.9,2.4,0,3.3c0.9,0.9,2.4,0.9,3.3,0c0.9-0.9,0.9-2.4,0-3.3 C1078.8,445.5,1077.3,445.5,1076.4,446.4z" class="st7"/><path d="M1464.9,729.9c-0.9,0.9-0.9,2.4,0,3.3c0.9,0.9,2.4,0.9,3.3,0c0.9-0.9,0.9-2.4,0-3.3 C1467.3,729,1465.8,729,1464.9,729.9z" class="st6"/><path d="M1344.6,496.9c0.9,0.9,2.4,0.8,3.3-0.1c0.9-0.9,0.8-2.4-0.1-3.3c-0.9-0.9-2.4-0.8-3.3,0.1 C1343.7,494.5,1343.7,496,1344.6,496.9z" class="st7"/><path d="M1909.2,332.5c0.9,0.9,2.4,0.8,3.3-0.1c0.9-0.9,0.8-2.4-0.1-3.3c-0.9-0.9-2.4-0.8-3.3,0.1 C1908.2,330.2,1908.2,331.6,1909.2,332.5z" class="st7"/><path d="M190.2,520.9c0.9,0.9,2.4,0.8,3.3-0.1c0.9-0.9,0.8-2.4-0.1-3.3c-0.9-0.9-2.4-0.8-3.3,0.1 C189.3,518.6,189.3,520,190.2,520.9z" class="st7"/><path d="M656.3,427.5c0.9,0.9,2.4,0.8,3.3-0.1c0.9-0.9,0.8-2.4-0.1-3.3c-0.9-0.9-2.4-0.8-3.3,0.1 C655.3,425.2,655.3,426.6,656.3,427.5z" class="st7"/><path d="M776,365c0.9,0.9,2.4,0.8,3.3-0.1c0.9-0.9,0.8-2.4-0.1-3.3c-0.9-0.9-2.4-0.8-3.3,0.1 C775,362.6,775.1,364.1,776,365z" class="st6"/><path d="M336.8,258.3c1.5,1.4,3.8,1.3,5.2-0.2c1.4-1.5,1.3-3.8-0.2-5.2c-1.5-1.4-3.8-1.3-5.2,0.2 C335.2,254.6,335.3,256.9,336.8,258.3z" class="st7"/><path d="M268.1,720.6c1.4,1.3,3.7,1.2,5-0.2c1.3-1.4,1.2-3.7-0.2-5c-1.4-1.3-3.7-1.2-5,0.2 C266.6,717,266.7,719.2,268.1,720.6z" class="st6"/><path d="M118.3,356.9c0.9,0.9,2.4,0.8,3.3-0.1c0.9-0.9,0.8-2.4-0.1-3.3c-0.9-0.9-2.4-0.8-3.3,0.1 C117.3,354.6,117.4,356,118.3,356.9z" class="st6"/><path d="M1244.3,130.4c0.9,0.9,2.4,0.8,3.3-0.1c0.9-0.9,0.8-2.4-0.1-3.3c-0.9-0.9-2.4-0.8-3.3,0.1 C1243.3,128.1,1243.4,129.6,1244.3,130.4z" class="st6"/><path d="M932.8,103.2c0.9,0.9,2.4,0.8,3.3-0.1c0.9-0.9,0.8-2.4-0.1-3.3c-0.9-0.9-2.4-0.8-3.3,0.1 C931.8,100.9,931.9,102.4,932.8,103.2z" class="st6"/><path d="M133.3,12.9c1.4,1.5,3.7,1.6,5.2,0.3c1.5-1.4,1.6-3.7,0.3-5.2c-1.4-1.5-3.7-1.6-5.2-0.3 C132.1,9,132,11.4,133.3,12.9z" class="st6"/><path d="M1474.3,359.3c2,2.3,5.5,2.5,7.8,0.4c2.3-2,2.5-5.5,0.4-7.8c-2-2.3-5.5-2.5-7.8-0.4 C1472.4,353.5,1472.2,357,1474.3,359.3z" class="st6"/><path d="M1740.4,269.8c1.3,1.5,3.6,1.6,5.1,0.3c1.5-1.3,1.6-3.6,0.3-5.1c-1.3-1.5-3.6-1.6-5.1-0.3 C1739.1,266.1,1739,268.4,1740.4,269.8z" class="st6"/><path d="M671.4,365.6c0.9,1,2.3,1,3.3,0.2c1-0.9,1-2.3,0.2-3.3c-0.9-1-2.3-1-3.3-0.2 C670.6,363.2,670.5,364.7,671.4,365.6z" class="st6"/><path d="M35.1,738.2c0.9,1,2.3,1,3.3,0.2c1-0.9,1-2.3,0.2-3.3c-0.9-1-2.3-1-3.3-0.2C34.3,735.8,34.2,737.3,35.1,738.2 z" class="st6"/><path d="M427.9,465c0.9,1,2.3,1,3.3,0.2c1-0.9,1-2.3,0.2-3.3c-0.9-1-2.3-1-3.3-0.2C427.1,462.6,427,464,427.9,465z" class="st6"/><path d="M656.6,197.1c0.9,1,2.3,1,3.3,0.2c1-0.9,1-2.3,0.2-3.3c-0.9-1-2.3-1-3.3-0.2 C655.8,194.6,655.7,196.1,656.6,197.1z" class="st6"/><path d="M551.8,168.3c0.9,1,2.3,1,3.3,0.2c1-0.9,1-2.3,0.2-3.3c-0.9-1-2.3-1-3.3-0.2 C551,165.8,550.9,167.3,551.8,168.3z" class="st6"/><path d="M745.3,589.1c1-1.8,0.4-4-1.4-5.1c-1.8-1-4-0.4-5.1,1.4c-1,1.8-0.4,4,1.4,5.1 C742,591.5,744.2,590.9,745.3,589.1z" class="st6"/><path d="M1265.7,215.3c1.5-2.7,0.6-6-2-7.6c-2.7-1.5-6-0.6-7.6,2c-1.5,2.7-0.6,6,2,7.6 C1260.8,218.8,1264.2,217.9,1265.7,215.3z" class="st6"/><path d="M291.5,455.9c1.5-2.7,0.6-6-2-7.6c-2.7-1.5-6-0.6-7.6,2c-1.5,2.7-0.6,6,2,7.6 C286.6,459.5,290,458.6,291.5,455.9z" class="st6"/><path d="M1551.3,519.2c1.5-2.7,0.6-6-2-7.6c-2.7-1.5-6-0.6-7.6,2c-1.5,2.7-0.6,6,2,7.6 C1546.3,522.8,1549.7,521.8,1551.3,519.2z" class="st6"/><path d="M1477.6,522.9c1-1.7,0.4-3.9-1.3-4.9c-1.7-1-3.9-0.4-4.9,1.3c-1,1.7-0.4,3.9,1.3,4.9 C1474.4,525.2,1476.6,524.6,1477.6,522.9z" class="st6"/><path d="M986.7,100.8c1-1.7,0.4-3.9-1.3-4.9c-1.7-1-3.9-0.4-4.9,1.3c-1,1.7-0.4,3.9,1.3,4.9 C983.5,103.1,985.7,102.5,986.7,100.8z" class="st6"/><path d="M1157.1,70.2c1-1.7,0.4-3.9-1.3-4.9c-1.7-1-3.9-0.4-4.9,1.3c-1,1.7-0.4,3.9,1.3,4.9 C1154,72.6,1156.2,72,1157.1,70.2z" class="st6"/><path d="M493.2,220.5c1-1.7,0.4-3.9-1.3-4.9c-1.7-1-3.9-0.4-4.9,1.3c-1,1.7-0.4,3.9,1.3,4.9 C490,222.8,492.2,222.2,493.2,220.5z" class="st6"/><path d="M1468.5,609.2c1-1.7,0.4-3.9-1.3-4.9c-1.7-1-3.9-0.4-4.9,1.3c-1,1.7-0.4,3.9,1.3,4.9 C1465.3,611.5,1467.5,610.9,1468.5,609.2z" class="st6"/><path d="M571.1,690.6c1,0.8,2.5,0.6,3.2-0.4c0.8-1,0.6-2.5-0.4-3.2c-1-0.8-2.5-0.6-3.2,0.4 C569.9,688.3,570.1,689.8,571.1,690.6z" class="st7"/><path d="M974,299.7c1,0.8,2.5,0.6,3.2-0.4c0.8-1,0.6-2.5-0.4-3.2c-1-0.8-2.5-0.6-3.2,0.4 C972.8,297.5,973,298.9,974,299.7z" class="st7"/><path d="M1281.1,332.7c-1.1,1.1-1.1,2.8,0,3.9c1.1,1.1,2.8,1.1,3.9,0c1.1-1.1,1.1-2.8,0-3.9 C1283.9,331.6,1282.2,331.6,1281.1,332.7z" class="st7"/><path d="M1481,197.8c-1.4,1.4-1.4,3.7,0,5.1c1.4,1.4,3.7,1.4,5.1,0c1.4-1.4,1.4-3.7,0-5.1 C1484.7,196.4,1482.4,196.4,1481,197.8z" class="st6"/><path d="M1617.6,170.9c-1.4,1.4-1.4,3.7,0,5.1c1.4,1.4,3.7,1.4,5.1,0c1.4-1.4,1.4-3.7,0-5.1 C1621.3,169.5,1619,169.5,1617.6,170.9z" class="st6"/><path d="M354.1,456.7c2,2.3,5.5,2.5,7.8,0.4c2.3-2,2.5-5.5,0.4-7.8c-2-2.3-5.5-2.5-7.8-0.4 C352.2,450.9,352,454.4,354.1,456.7z" class="st6"/><path d="M1769,385.5c2,2.3,5.5,2.5,7.8,0.4c2.3-2,2.5-5.5,0.4-7.8c-2-2.3-5.5-2.5-7.8-0.4 C1767.1,379.7,1766.9,383.2,1769,385.5z" class="st6"/><path d="M1242.1,699.3c2,2.3,5.5,2.5,7.8,0.4c2.3-2,2.5-5.5,0.4-7.8c-2-2.3-5.5-2.5-7.8-0.4 C1240.2,693.5,1240,697,1242.1,699.3z" class="st6"/><path d="M1209.4,483.9c1.3,1.5,3.6,1.6,5.1,0.3c1.5-1.3,1.6-3.6,0.3-5.1s-3.6-1.6-5.1-0.3 C1208.2,480.1,1208.1,482.4,1209.4,483.9z" class="st6"/><path d="M778.3,241.5c1.3,1.5,3.6,1.6,5.1,0.3c1.5-1.3,1.6-3.6,0.3-5.1c-1.3-1.5-3.6-1.6-5.1-0.3 C777.1,237.8,776.9,240,778.3,241.5z" class="st6"/><path d="M226.2,205.6c0.9,1,2.3,1,3.3,0.2c1-0.9,1-2.3,0.2-3.3c-0.9-1-2.3-1-3.3-0.2 C225.4,203.2,225.3,204.6,226.2,205.6z" class="st6"/><path d="M842.8,605.3c0.6-1.1,0.3-2.5-0.9-3.2c-1.1-0.6-2.5-0.3-3.2,0.9c-0.6,1.1-0.3,2.5,0.9,3.2 C840.7,606.8,842.2,606.4,842.8,605.3z" class="st6"/><path d="M1842.5,134.9c0.6-1.1,0.3-2.5-0.9-3.2s-2.5-0.3-3.2,0.9c-0.6,1.1-0.3,2.5,0.9,3.2 C1840.5,136.4,1841.9,136,1842.5,134.9z" class="st6"/><path d="M1458.5,575c0.6-1.1,0.3-2.5-0.9-3.2s-2.5-0.3-3.2,0.9c-0.6,1.1-0.3,2.5,0.9,3.2 C1456.5,576.5,1457.9,576.1,1458.5,575z" class="st6"/><path d="M1284.4,714c0.4-0.7,0.2-1.7-0.6-2.1s-1.7-0.2-2.1,0.6c-0.4,0.7-0.2,1.7,0.6,2.1 C1283,715,1284,714.8,1284.4,714z" class="st6"/><path d="M1095.3,548c0.6-1.1,0.3-2.5-0.9-3.2c-1.1-0.6-2.5-0.3-3.2,0.9c-0.6,1.1-0.3,2.5,0.9,3.2 C1093.3,549.5,1094.7,549.2,1095.3,548z" class="st7"/><path d="M1574.4,366.9c0.6-1.1,0.3-2.5-0.9-3.2c-1.1-0.6-2.5-0.3-3.2,0.9c-0.6,1.1-0.3,2.5,0.9,3.2 C1572.4,368.4,1573.8,368.1,1574.4,366.9z" class="st7"/></g></g><g id="Layer_4"><g><g><g><ellipse cx="568.3" cy="230.9" class="st8" rx="47.9" ry="47.9" transform="matrix(0.986 -0.1667 0.1667 0.986 -30.5433 97.9517)"/><linearGradient id="SVGID_1_" x1="516.071" x2="620.498" y1="230.941" y2="230.941" gradientUnits="userSpaceOnUse"><stop offset=".038" style="stop-color:#201143"/><stop offset=".965" style="stop-color:#16113a"/></linearGradient><path d="M568.3,283.2c-0.9,0-1.8,0-2.7-0.1c-13.9-0.7-26.7-6.8-36.1-17.2c-9.3-10.4-14.1-23.7-13.4-37.6 c0.7-13.9,6.8-26.7,17.2-36.1c10.4-9.3,23.8-14.1,37.6-13.4c13.9,0.7,26.7,6.8,36.1,17.2s14.1,23.7,13.4,37.7 c-0.7,13.9-6.8,26.7-17.2,36.1C593.6,278.4,581.3,283.2,568.3,283.2z M568.2,187.4c-10.8,0-21,3.9-29.1,11.2 c-8.6,7.8-13.7,18.5-14.3,30.1c-0.6,11.6,3.4,22.7,11.2,31.4c7.8,8.6,18.5,13.7,30.1,14.3c11.6,0.6,22.7-3.4,31.4-11.2 c8.6-7.8,13.7-18.5,14.3-30.1c0.6-11.6-3.4-22.7-11.2-31.4c-7.8-8.6-18.5-13.7-30.1-14.3C569.7,187.5,569,187.4,568.2,187.4z" class="st9"/></g><path d="M648.3,277.8c-76.1,71.8-139.3,113.4-139.3,113.4l11.8,49.7c0.6,2.4-0.1,4.9-1.8,6.8l-54.9,60.2 c-1,1.1-2.8,0.6-3.1-0.8c-2.7-13.1-15.6-61.3-67.3-118.5c-51.7-57.3-98.3-75-111.1-79c-1.4-0.4-1.7-2.3-0.5-3.2l65.5-48.5 c2-1.5,4.6-1.9,6.9-1.1l48.3,16.8c0,0,47.8-58.6,127-127.1c54.9-47.4,114.4-44.5,145.6-38.4c14,2.8,24.5,14.4,25.8,28.6 C704.2,168.5,701,228,648.3,277.8z" class="st6"/></g><g><path d="M414.6,432.1c-73.7,66.8-116.5,67.3-132,64.2c-2-0.5-3.9-1.5-5.4-3.1c-1.6-1.8-2.5-4-2.8-6.2 c-1.6-16,3.3-58.4,75.7-125.3c0.9-0.9,2.4-0.8,3.3,0.1l61.3,67C415.6,429.7,415.5,431.2,414.6,432.1z" class="st10"/><path d="M294.1,501.7c-4.2,0-8.4-0.3-12.4-1.1c-3.2-0.8-5.8-2.3-7.8-4.5c-2.2-2.4-3.6-5.4-3.9-8.7 c-2-19.8,5.4-62.8,77.1-129c1.3-1.2,3.1-1.8,4.8-1.8c1.8,0.1,3.4,0.8,4.6,2.2c0,0,16.2,13.1,31.8,29.7 c10.5,11.1,29.5,37.3,29.5,37.3c1.2,1.3,1.8,3,1.7,4.8c-0.1,1.8-0.9,3.5-2.2,4.7l0,0C394.5,456.1,339.4,501.4,294.1,501.7z M351.6,366.2c-70,65.2-74.3,105.8-72.8,120.3c0.1,1.4,0.7,2.7,1.7,3.7c0.8,0.9,1.9,1.5,3.2,1.8c14.1,2.8,55,2.5,126.5-61.8 L351.6,366.2z" class="st11"/></g><g><path d="M401.3,415c-41.8,37.9-66.2,38.2-74.9,36.5c-1.1-0.3-2.2-0.8-3.1-1.8c-0.9-1-1.4-2.3-1.6-3.5 c-0.9-9.1,1.8-33.2,43-71.2c0.5-0.5,1.4-0.5,1.9,0.1l34.8,38.1C401.9,413.6,401.9,414.5,401.3,415z" class="st6"/><path d="M331.8,456.7c-2.9,0-5.3-0.3-7.3-0.7c-2.2-0.5-4.1-1.6-5.4-3.1c-1.5-1.7-2.5-3.8-2.7-6 c-1.2-11.6,3.1-36.7,44.4-74.8c1.1-1,2.6-1.5,4.1-1.5c1.5,0.1,2.9,0.7,4,1.8l34.8,38.1c1,1.1,1.6,2.6,1.5,4.1 c-0.1,1.5-0.7,2.9-1.9,4C368.7,449.9,345.3,456.6,331.8,456.7z M365.3,379.9c-37.8,35.7-41,58.3-40.2,66.2c0,0.4,0.2,0.7,0.5,1 c0.2,0.2,0.5,0.4,0.9,0.5c7.6,1.5,30.6,0.6,69.7-34.1c0,0-7.5-10.4-14.4-17.9C375.1,388.3,365.3,379.9,365.3,379.9z M397.2,416.4 C397.2,416.4,397.2,416.4,397.2,416.4L397.2,416.4z M397.4,412.1C397.4,412.1,397.4,412.1,397.4,412.1L397.4,412.1z M366.7,378.5 C366.7,378.5,366.7,378.5,366.7,378.5C366.7,378.5,366.7,378.5,366.7,378.5z" class="st11"/></g><ellipse cx="568.4" cy="230.6" class="st8" rx="47.9" ry="47.9" transform="matrix(0.986 -0.1667 0.1667 0.986 -30.4921 97.9736)"/><g><ellipse cx="568.4" cy="230.6" class="st12" rx="30.5" ry="30.5" transform="matrix(0.986 -0.1667 0.1667 0.986 -30.492 97.9735)"/><linearGradient id="SVGID_2_" x1="533.62" x2="603.261" y1="230.638" y2="230.638" gradientUnits="userSpaceOnUse"><stop offset=".038" style="stop-color:#201143"/><stop offset=".965" style="stop-color:#16113a"/></linearGradient><path d="M568.5,265.4c-9.5,0-19-3.9-25.9-11.5c-6.2-6.9-9.4-15.8-8.9-25.1c0.5-9.3,4.5-17.8,11.4-24.1 c6.9-6.2,15.8-9.4,25.1-8.9c9.3,0.5,17.8,4.5,24.1,11.4c6.2,6.9,9.4,15.8,8.9,25.1c-0.5,9.3-4.5,17.8-11.4,24.1 C585.1,262.5,576.8,265.4,568.5,265.4z M568.4,204.6c-6.2,0-12.5,2.2-17.5,6.7c-5.2,4.7-8.2,11.1-8.6,18c-0.4,7,2,13.6,6.7,18.8 c9.6,10.7,26.2,11.5,36.9,1.9c5.2-4.7,8.2-11.1,8.6-18c0.4-7-2-13.6-6.7-18.8C582.7,207.5,575.6,204.6,568.4,204.6z" class="st13"/></g><g><ellipse cx="566" cy="217.4" class="st14" rx="11.9" ry="6.5" transform="matrix(0.9664 -0.2572 0.2572 0.9664 -36.8689 152.8862)"/></g><g><path d="M573.1,246.7c-7.2,2.1-14.6-0.1-19.6-5.1c3.1,8.6,12.4,13.4,21.2,10.7s14-11.7,11.9-20.6 C585.4,238.6,580.3,244.5,573.1,246.7z" class="st14"/></g><path d="M696.9,137.2c0.4,4.1,0.7,8.8,0.7,13.8l-40.9-41.1c6.7,0.6,12.7,1.5,17.9,2.6 C686.8,114.9,695.8,124.8,696.9,137.2z" class="st14"/><linearGradient id="SVGID_3_" x1="277.079" x2="706.403" y1="306.664" y2="306.664" gradientUnits="userSpaceOnUse"><stop offset=".038" style="stop-color:#201143"/><stop offset=".965" style="stop-color:#16113a"/></linearGradient><path d="M705.6,136.4c-1.5-16.2-13.3-29.3-29.3-32.4c-31.5-6.2-92.9-9.4-149.3,39.3 c-69.7,60.2-115.7,113.6-125.6,125.2L356,252.7c-3.7-1.3-7.8-0.7-10.9,1.7l-65.5,48.5c-1.9,1.4-2.8,3.7-2.4,6 c0.4,2.3,2,4.2,4.2,4.8c12.8,4,58.3,21.5,109.1,77.8c50.8,56.3,63.5,103.4,66.2,116.5c0.5,2.3,2.1,4.1,4.4,4.7 c0.5,0.2,1.1,0.2,1.6,0.2c1.7,0,3.4-0.7,4.5-2l54.9-60.2c2.6-2.9,3.7-6.9,2.8-10.7l-11.1-46.8c12.6-8.6,70.4-48.9,137.4-112.2 C705.5,229.7,708.6,168.4,705.6,136.4z M591.5,116.7c17.2-5.4,33.7-7.4,48.2-7.5c2.6,0,5.1,1.1,6.9,2.9l19.5,19.6 c0.9,0.9,0.8,2.3-0.1,3.1l-31.1,28.2c-0.9,0.8-2.4,0.8-3.2-0.1l-40.8-43.8C590.1,118.4,590.4,117,591.5,116.7z M516,164.6 c5.4-4.9,11-9.8,16.7-14.7c14.6-12.6,29.5-21.5,44-27.7c2.2-0.9,4.7-0.3,6.3,1.4l42.1,45.1c0.9,1,0.9,2.5-0.1,3.4l-21.7,19.6 c-8.9-8-20.1-12.6-32.2-13.2c-13-0.6-25.5,3.5-35.5,11.7l-19.8-21.8C514.8,167.3,514.9,165.6,516,164.6z M611.9,232.9 c-0.6,11.6-5.7,22.3-14.3,30.1c-8.6,7.8-19.8,11.8-31.4,11.2c-11.6-0.6-22.3-5.7-30.1-14.3c-16.1-17.8-14.7-45.4,3.1-61.4 c8.1-7.3,18.3-11.2,29.1-11.2c0.8,0,1.5,0,2.3,0.1c11.6,0.6,22.3,5.7,30.1,14.3C608.5,210.1,612.5,221.3,611.9,232.9z M410.3,271.6c11.1-13.1,44.6-51.1,94.3-96.6c1.6-1.5,4.2-1.4,5.7,0.3l19,21c-16.5,18.7-17.4,46.7-2,66.5l-68.5,62.5 c-1.1,1-2.7,0.9-3.7-0.2l-44.7-49.6C409.4,274.4,409.3,272.7,410.3,271.6z M350.3,261.4c0.8-0.6,1.9-0.8,2.9-0.4l44.6,15.6 c1.7,0.6,3.2,1.6,4.4,2.9l20.6,22.8c1.8,2,1.6,5-0.3,6.8l-33,30.9c-2.1,2-5.3,1.9-7.4,0c-25.1-23.2-57.6-41.3-72-48.8L350.3,261.4 z M371.6,356.6c-1,1-2.7,1-3.7,0c-32.1-28.4-59.9-42.1-75.1-48.2c-1.8-0.7-2-3.1-0.5-4.2l10-7.4c11.1,5.6,48.9,25.6,75.7,51.1 c0.8,0.7,0.7,1.9,0,2.6L371.6,356.6z M378.3,366.3c-1.2-1.1-1.1-3,0-4.1l49.9-46.6c2-1.9,5.1-1.7,6.9,0.3l14.9,16.5l-53,48.8 c-1.2,1.1-3,1-4-0.1C388.2,376.1,382.7,370.5,378.3,366.3z M416.4,408.8c-4.6-6-8.5-11-13.7-17c-1-1.2-0.9-3,0.2-4l53-48.8 l15.7,17.4c1.8,2,1.6,5-0.3,6.8l-50.8,46C419.2,410.3,417.3,410.1,416.4,408.8z M467.2,498.1c-1.3,1.4-3.6,0.9-4.1-1 c-4.3-15.3-14.7-43.2-38.3-76.8c-0.8-1.1-0.6-2.7,0.4-3.7l7.5-6.8c0.8-0.7,2.1-0.6,2.7,0.3c7.2,10.8,29.6,46.3,38.8,80.2 L467.2,498.1z M516.5,441.9c0.2,1,0,2.1-0.7,2.8L481,482.9c-10-32.8-30-64.9-37.7-76.5c-1.5-2.2-1.1-5.2,0.9-7l32.9-29.8 c2-1.8,5.1-1.6,6.8,0.3l19.2,21.2c1.2,1.3,2,2.9,2.5,4.7L516.5,441.9z M619.8,298c-51.4,45.9-93.6,76.1-108,86 c-1.2,0.8-2.9,0.6-3.9-0.5l-43.4-48.1c-1-1.1-0.9-2.7,0.2-3.7l68.5-62.6c8.9,8.2,20.3,13,32.6,13.7c0.9,0,1.8,0.1,2.7,0.1 c11.8,0,23-4,32.2-11.2l19.3,20.7C621.6,293.9,621.4,296.5,619.8,298z M678.5,231.5c-7.8,14.6-18.5,29.2-33.2,43.1 c-4.8,4.5-9.5,8.8-14.1,13.1c-1.1,1-2.7,0.9-3.7-0.2l-20.4-21.8c8.1-8.9,12.8-20.2,13.4-32.4c0.7-12.9-3.4-25.2-11.4-35.2 l21.7-19.7c1-0.9,2.5-0.8,3.4,0.1l43.3,46.5C679.3,226.8,679.6,229.4,678.5,231.5z M685.2,217.3c-0.4,1-1.7,1.2-2.5,0.5l-42-45 c-0.9-0.9-0.8-2.4,0.1-3.3l31.5-28.5c0.9-0.8,2.2-0.7,3,0.1l18.9,19c2.1,2.1,3.1,4.9,2.8,7.8C695.8,182.7,692.5,199.7,685.2,217.3 z M656.8,109.9c6.7,0.6,12.7,1.5,17.9,2.6c12.2,2.4,21.1,12.3,22.3,24.7c0.4,4.1,0.7,8.8,0.7,13.8L656.8,109.9z" class="st15"/><path d="M591.4,116.7c17.2-5.4,33.7-7.4,48.2-7.5c2.6,0,5.1,1.1,6.9,2.9l19.5,19.6c0.9,0.9,0.8,2.3-0.1,3.1 l-31.1,28.2c-0.9,0.8-2.4,0.8-3.2-0.1l-40.8-43.8C590,118.4,590.4,117.1,591.4,116.7z" class="st16"/><path d="M516,164.6c5.4-4.9,11-9.8,16.7-14.7c14.6-12.6,29.5-21.5,44-27.7c2.2-0.9,4.7-0.3,6.3,1.4l42.1,45.1 c0.9,1,0.9,2.5-0.1,3.4l-21.7,19.6c-8.9-8-20.1-12.6-32.2-13.2c-13-0.6-25.5,3.5-35.5,11.7l-19.8-21.8 C514.8,167.3,514.9,165.6,516,164.6z" class="st16"/><path d="M410.3,271.6c11.1-13.1,44.6-51.1,94.3-96.6c1.6-1.5,4.2-1.4,5.7,0.3l19,21c-16.5,18.7-17.4,46.7-2,66.5 l-68.5,62.5c-1.1,1-2.7,0.9-3.7-0.2l-44.7-49.6C409.4,274.4,409.3,272.7,410.3,271.6z" class="st16"/><path d="M350.2,261.4c0.8-0.6,1.9-0.8,2.9-0.4l44.6,15.6c1.7,0.6,3.2,1.6,4.4,2.9l20.6,22.8c1.8,2,1.6,5-0.3,6.8 l-33,30.9c-2.1,2-5.3,1.9-7.4,0c-25.1-23.2-57.6-41.3-72-48.8L350.2,261.4z" class="st16"/><path d="M371.6,356.6c-1,1-2.7,1-3.7,0c-32.1-28.4-59.9-42.1-75.1-48.2c-1.8-0.7-2-3.1-0.5-4.2l10-7.4 c11.1,5.6,48.9,25.6,75.7,51.1c0.8,0.7,0.7,1.9,0,2.6L371.6,356.6z" class="st17"/><path d="M378.3,366.3c-1.2-1.1-1.1-3,0-4.1l49.9-46.6c2-1.9,5.1-1.7,6.9,0.3l14.9,16.5l-53,48.8c-1.2,1.1-3,1-4-0.1 C388.2,376.1,382.7,370.6,378.3,366.3z" class="st16"/><path d="M416.3,408.8c-4.6-6-8.5-11-13.7-17c-1-1.2-0.9-3,0.2-4l53-48.8l15.7,17.4c1.8,2,1.6,5-0.3,6.8l-50.8,46 C419.2,410.3,417.3,410.1,416.3,408.8z" class="st16"/><path d="M467.1,498.1c-1.3,1.4-3.6,0.9-4.1-1c-4.3-15.3-14.7-43.2-38.3-76.8c-0.8-1.1-0.6-2.7,0.4-3.7l7.5-6.8 c0.8-0.7,2.1-0.6,2.7,0.3c7.2,10.8,29.6,46.3,38.8,80.2L467.1,498.1z" class="st16"/><path d="M516.5,441.9c0.2,1,0,2.1-0.7,2.8L481,482.9c-10-32.8-30-64.9-37.7-76.5c-1.5-2.2-1.1-5.2,0.9-7l32.9-29.8 c2-1.8,5.1-1.6,6.8,0.3l19.2,21.2c1.2,1.3,2,2.9,2.5,4.7L516.5,441.9z" class="st16"/><path d="M619.8,298c-51.4,45.9-93.6,76.1-108,86c-1.2,0.8-2.9,0.6-3.9-0.5l-43.4-48.1c-1-1.1-0.9-2.7,0.2-3.7 l68.5-62.6c8.9,8.2,20.3,13,32.6,13.7c0.9,0,1.8,0.1,2.7,0.1c11.8,0,23-4,32.2-11.2l19.3,20.7C621.5,293.9,621.4,296.5,619.8,298z" class="st16"/><path d="M678.5,231.5c-7.8,14.6-18.5,29.2-33.2,43.1c-4.8,4.5-9.5,8.8-14.1,13.1c-1.1,1-2.7,0.9-3.7-0.2l-20.4-21.8 c8.1-8.9,12.8-20.2,13.4-32.4c0.7-12.9-3.4-25.2-11.4-35.2l21.7-19.7c1-0.9,2.5-0.8,3.4,0.1l43.3,46.5 C679.3,226.8,679.6,229.4,678.5,231.5z" class="st16"/><path d="M685.2,217.3c-0.4,1-1.7,1.2-2.5,0.5l-42-45c-0.9-0.9-0.8-2.4,0.1-3.3l31.5-28.5c0.9-0.8,2.2-0.7,3,0.1 l18.9,19c2.1,2.1,3.1,4.9,2.8,7.8C695.8,182.7,692.4,199.8,685.2,217.3z" class="st16"/><path d="M409.6,271.4c20.5-22.9,62.6-67.5,93.1-95c1.6-1.4,4.4-4.7,8.3-0.4c4.7,5.3,9.8,11.1,9.8,11.1 S473,227,444.6,258c-4.5,5-12.9,17.8-6.7,31.5s17.4,35.8,17.4,35.8s-33.7-37.1-44.3-49.1C409.6,274.8,408.5,272.6,409.6,271.4z" class="st8"/><path d="M511.5,384.4c24.9-18.1,76.2-56.9,106.7-84.5c1.6-1.4,5.2-4.1,1.2-8.4c-4.8-5.2-10-10.6-10-10.6 s-47.2,45.1-81,70.2c-5.4,4-19.1,11-32.1,3.5s-31.6-18.8-31.6-18.8s31.3,35.1,42.1,46.9C508.1,384.1,510.2,385.4,511.5,384.4z" class="st18"/><ellipse cx="628.5" cy="125.8" class="st8" rx="19.8" ry="8.1" transform="matrix(0.9893 -0.1461 0.1461 0.9893 -11.6315 93.1919)"/><ellipse cx="566.3" cy="145.9" class="st8" rx="19.8" ry="8.1" transform="matrix(0.9295 -0.3688 0.3688 0.9295 -13.8729 219.1259)"/><path d="M405.5,283.4c0,0-2-5-8.3-7.2c-6.4-2.2-43.6-15.1-43.6-15.1s-2-0.9-4.6,1.1s-38.8,28.9-38.8,28.9l13.7,7.6 c0,0,17.3-16.5,32-18.5C370.5,278.2,381.1,276.4,405.5,283.4z" class="st8"/><path d="M500.9,388.7c0,0,3.4,2.5,4.6,6.9c1.7,6.5,11.1,46,11.1,46s0.7,1.8-1.7,4.4c-2.2,2.4-33.9,37-33.9,37 l-5.5-15.6c0,0,18.7-15.8,22.1-30.3C501,422.7,505.5,413.6,500.9,388.7z" class="st18"/><circle cx="609.3" cy="174.8" r="3.4" class="st12"/><circle cx="624.1" cy="195" r="3.4" class="st12"/><circle cx="657.9" cy="167.4" r="3.4" class="st12"/><circle cx="669.2" cy="157" r="3.4" class="st12"/><circle cx="640.4" cy="145.6" r="3.4" class="st12"/><circle cx="651.7" cy="135.2" r="3.4" class="st12"/><linearGradient id="SVGID_4_" x1="598.427" x2="605.139" y1="290.096" y2="290.096" gradientUnits="userSpaceOnUse"><stop offset=".038" style="stop-color:#201143"/><stop offset=".965" style="stop-color:#16113a"/></linearGradient><circle cx="601.8" cy="290.1" r="3.4" class="st19"/><circle cx="510.6" cy="193.3" r="3.4" class="st12"/><circle cx="533.6" cy="170.5" r="3.4" class="st12"/><circle cx="510.2" cy="308" r="3.4" class="st12"/><circle cx="528.7" cy="292.8" r="3.4" class="st12"/><circle cx="492.2" cy="324" r="3.4" class="st12"/><circle cx="485.7" cy="278.6" r="3.4" class="st12"/><circle cx="504.2" cy="263.4" r="3.4" class="st12"/><circle cx="467.7" cy="294.6" r="3.4" class="st12"/><circle cx="424.6" cy="341.8" r="3.4" class="st12"/><circle cx="406.5" cy="357.8" r="3.4" class="st12"/><circle cx="444" cy="364.9" r="3.4" class="st12"/><circle cx="425.9" cy="380.9" r="3.4" class="st12"/><circle cx="461" cy="410.6" r="3.4" class="st12"/><circle cx="472.7" cy="430" r="3.4" class="st12"/><circle cx="482.1" cy="453.4" r="3.4" class="st12"/><circle cx="384.1" cy="321.5" r="3.4" class="st12"/><circle cx="364.8" cy="304.5" r="3.4" class="st12"/><circle cx="341.9" cy="291" r="3.4" class="st12"/></g><path d="M666.9,213.6l10.7,11.5c0,0,2.9,2.2,0.7,7.2c-2.9,6.5-18.1,28.8-33,42.3l-14.1,13.1c0,0-1.6,1.4-3.7-0.2 c-2.1-1.6-11.5-11.8-11.5-11.8s28.6-28.6,36.5-39.6C660.6,225,660.9,224.5,666.9,213.6z" class="st18"/><path d="M671.3,205.5c0,0,11.4-24.6,8.7-59.5l14.2,14c0,0,2.9,1.6,3.1,7.9c0.2,5.9-4.9,34-12.2,49.5 c0,0-1.1,1.7-2.6,0.1C677,212.1,671.3,205.5,671.3,205.5z" class="st18"/></g></svg>