<svg xmlns="http://www.w3.org/2000/svg" xmlns:xlink="http://www.w3.org/1999/xlink" x="0" y="0" version="1.1" viewBox="0 0 1921.7 772.3" xml:space="preserve" style="enable-background:new 0 0 1921.7 772.3"><style type="text/css">.st0{fill:#1c0e3f}.st1{fill:#180f35}.st2{opacity:.27}.st3{fill:#3f3483}.st4{opacity:.41}.st5{fill:#fff}.st6{fill:#ef4a8e}.st7{fill:#33276d}</style><g id="Layer_1"><g id="Layer_2_00000021821118108368070010000008928105549638857361_"><g id="Layer_1-2"><g id="Layer_3"><path d="M0,738.1c0,0,33.1,16.5,81.6-63s84.7-148.7,153.9-168.4c0,0-35.1,76.4-7.2,132.2s95,101.5,204.5,93 c158.7-12.4,244.2-89,438.2-105.8c88.7-7.7,186.8-17.2,463.5,77.1s395.6,97.4,587.2-23.6V0H0.3L0,738.1z" class="st0"/></g><g id="Layer_9"><path d="M890.8,40.5c-82.4,0-155.4,68.8-211.7,106c-59.4,39.3-135.1,71.1-215.2,73c-1.7,0-3.4,0.1-5.1,0.1 c-32,0-63.8-6.8-95.3-13.5s-62.8-13.5-93.9-13.5c-12.9-0.1-25.8,1.3-38.4,4c-60.4,13.3-127,57.4-112.6,110.9 c2.8,10.4,9.6,19.6,22,25.8c14.1,7.1,31.2,9.2,48.6,9.2c16.1,0,32.4-1.8,46.7-3.1c14.9-1.4,30-2.4,45-2.4 c17.9,0,35.6,1.4,53,5.4c42.6,9.8,76.1,33.4,101.2,60.8c22.2,24.2,51,47.1,87.4,56.9c16.4,4.5,33.2,6.7,50.2,6.7 c38,0,74.1-11.7,105.1-32.9c41.4-28.3,88.3-60.4,142.5-60.4c3.8,0,7.7,0.2,11.5,0.5c35.6,3,69.2,25.7,91.1,47.4 s28.8,24.5,53.6,53.2c46.5,53.7,72.7,114.7,151.8,146.2c15.2,6.1,31.5,9.2,47.9,9.2h0.6c48-0.1,93.2-25.7,120.3-56.7 c33.2-37.9,50.6-83.5,91.6-117.5c43.4-36,105.7-63.7,170.5-63.7c12.6,0,25.2,1,37.7,3.2c37.5,6.6,70.7,9.5,100.1,9.5 c228.6,0,220.9-176.9,122.3-178.5h-1.7c-23,0-51,7.1-79.2,14.2s-56.5,14.2-80.3,14.2c-2.7,0-5.3-0.1-7.9-0.3 c-48.5-3.6-100.5-15.8-127-47.1c-9.4-11.1-15-24-25.8-34.4c-16.9-16.2-43.6-23.1-71-23.1c-15.8,0-31.5,2.2-46.7,6.5 c-40,11.4-72.7,33.7-108.2,51.8c-29.6,15.1-64,27.9-98.9,27.9c-7,0-14-0.5-20.9-1.6c-52.4-8.3-86.2-46.6-110.3-83.2 c-25.8-39.2-52.2-88.1-109.9-105C918.3,42.4,904.6,40.5,890.8,40.5" class="st1"/></g><g id="Layer_8"><g class="st2"><path d="M124.7,516.9c35.8-15,66.8-33.6,108.5-43.9s100.1-8.6,120.9,11.3c18.5,17.7-1.3,40.5-28.4,56.3 s-61.9,28.7-81.4,47c-13.8,13-27,35.9-7.3,66.8c0,0,38,50.5,80.6,63.6c70.5,21.7,136.2,31.4,352.9-48.6 c175.5-64.7,340.6-45,340.6-45c46.9-32.5,89.3-69.4,126-104.9c69.6-67.2,118.9-149.9,47.8-213.6 c-65.9-59.1-212.9-81.1-349.2-87.2c-71.3-3.2-155.7-7.1-188.8-38.4c-35.2-33.4,15.5-76.8,80.8-98.4 c112-37.2,270-32.3,365.2,11.4c41.4,19,70.6,43.7,107.4,64.9s86,39.8,143.2,40.1c67.3,0.4,125.7-23.8,183.4-42.6 s136.3-32.6,188.8-12.5c81.6,31.1,14.1,105.1,73.9,146.9c26.8,18.7,85.1,27.3,132.1,26l0.3-109.5c-5.3,0.2-21.6-0.8-26.9-1 c-70.3-2.4-103.6-34.5-107.6-65.8s11.6-64.9-4.1-94.4c-9.1-17.1-29.2-39.4-60.8-45.6h-323.9c-35.4,7.6-65.1,16.7-110.9,25.8 C1171.1,39.5,1067,9.5,957.8,0l-206,2.1c-104,13.1-205,54.5-272.7,95.4C446.8,117,421.5,139,415.4,161s9.2,43.7,46.8,54.2 c33.7,9.5,62.9,6.1,104.6,9.1c130.9,9.3,222.8,55.5,224.1,116.1c1.2,55.1-17.9,128.7-135.4,173c-21.3,8-46.4,15.7-71.4,15.9 c-54.6,0.5-62.3-31.7-45.2-56.2s45.5-52.6,18.8-71.1c-32.5-22.5-120.2-12.2-182,5.4S252,449.2,185.2,451 c-75.8,2-126.5-27.9-185.5-44.3l0.4,144.9C42.8,544.4,89.7,531.5,124.7,516.9z" class="st3"/></g></g><g id="Layer_6"><g class="st4"><path d="M324.1,412.4c1.6,1.2,4,0.9,5.2-0.7c1.2-1.6,0.9-4-0.7-5.2c-1.6-1.2-4-0.9-5.2,0.7 C322.2,408.8,322.5,411.1,324.1,412.4z" class="st5"/><path d="M902.1,451.1c1.6,1.2,3.8,0.9,5-0.7c1.2-1.6,0.9-3.8-0.7-5c-1.6-1.2-3.8-0.9-5,0.7 C900.3,447.7,900.6,449.9,902.1,451.1z" class="st5"/><path d="M19.3,262.9c1.6,1.2,3.8,0.9,5-0.7s0.9-3.8-0.7-5c-1.6-1.2-3.8-0.9-5,0.7 C17.4,259.4,17.7,261.7,19.3,262.9C19.3,262.9,19.3,262.9,19.3,262.9z" class="st5"/><path d="M472.7,607.5c1.6,1.2,3.8,0.9,5-0.7c1.2-1.6,0.9-3.8-0.7-5s-3.8-0.9-5,0.7 C470.8,604,471.1,606.3,472.7,607.5C472.7,607.5,472.7,607.5,472.7,607.5z" class="st5"/><path d="M1795.2,143.4c1,0.8,2.4,0.6,3.2-0.4c0.8-1,0.6-2.4-0.4-3.2c-1-0.8-2.4-0.6-3.2,0.4 c-0.8,0.9-0.7,2.3,0.2,3.1C1795.1,143.3,1795.1,143.4,1795.2,143.4z" class="st5"/><path d="M294,66.7c1,0.8,2.4,0.6,3.2-0.4c0.8-1,0.6-2.4-0.4-3.2c-1-0.8-2.4-0.6-3.2,0.4c-0.8,0.9-0.7,2.3,0.2,3.1 C293.9,66.6,293.9,66.7,294,66.7z" class="st5"/><path d="M1883.2,244c1,0.8,2.4,0.6,3.2-0.4c0.8-1,0.6-2.4-0.4-3.2c-1-0.8-2.4-0.6-3.2,0.4 C1882,241.8,1882.2,243.2,1883.2,244C1883.2,244,1883.2,244,1883.2,244z" class="st5"/><path d="M1490.2,146.4c1,0.8,2.4,0.6,3.2-0.4c0.8-1,0.6-2.4-0.4-3.2c-1-0.8-2.4-0.6-3.2,0.4 C1489,144.2,1489.2,145.6,1490.2,146.4C1490.2,146.4,1490.2,146.4,1490.2,146.4z" class="st5"/><path d="M271.7,658.6c1,0.8,2.4,0.6,3.2-0.4c0.8-1,0.6-2.4-0.4-3.2c-1-0.8-2.4-0.6-3.2,0.4 c-0.8,0.9-0.7,2.3,0.2,3.1C271.6,658.5,271.6,658.6,271.7,658.6z" class="st5"/><path d="M1411.5,101.8c-0.9,0.9-0.9,2.4,0,3.3c0.9,0.9,2.4,0.9,3.3,0c0.9-0.9,0.9-2.4,0-3.3 C1413.9,100.9,1412.4,100.9,1411.5,101.8z" class="st5"/><path d="M953,549.5c-0.9,0.9-0.9,2.4,0,3.3s2.4,0.9,3.3,0c0.9-0.9,0.9-2.4,0-3.3 C955.4,548.6,953.9,548.6,953,549.5z" class="st5"/><path d="M656,502.6c-0.5,0.5-0.5,1.4,0,1.9c0.5,0.5,1.4,0.5,1.9,0c0.5-0.5,0.5-1.4,0-1.9 C657.4,502.1,656.5,502.1,656,502.6z" class="st5"/><path d="M1143.6,21.8c-0.5,0.5-0.5,1.4,0,1.9c0.5,0.5,1.4,0.5,1.9,0c0.5-0.5,0.5-1.4,0-1.9 C1145,21.3,1144.1,21.3,1143.6,21.8z" class="st5"/><path d="M1499.6,187.2c-0.9,0.9-0.9,2.4,0,3.3c0.9,0.9,2.4,0.9,3.3,0c0.9-0.9,0.9-2.4,0-3.3 C1502,186.3,1500.5,186.3,1499.6,187.2z" class="st5"/><path d="M762.1,210.5c-0.9,0.9-0.9,2.4,0,3.3c0.9,0.9,2.4,0.9,3.3,0c0.9-0.9,0.9-2.4,0-3.3 C764.5,209.6,763,209.6,762.1,210.5z" class="st5"/><path d="M1278.8,150.4c-0.9,0.9-0.9,2.4,0,3.3c0.9,0.9,2.4,0.9,3.3,0c0.9-0.9,0.9-2.4,0-3.3 C1281.2,149.5,1279.7,149.5,1278.8,150.4z" class="st5"/><path d="M1209,319.6c-0.9,0.9-0.9,2.4,0,3.3c0.9,0.9,2.4,0.9,3.3,0c0.9-0.9,0.9-2.4,0-3.3 C1211.4,318.7,1209.9,318.7,1209,319.6z" class="st5"/><path d="M1444.7,581.9c-0.6,0.6-0.6,1.5,0,2.1c0.6,0.6,1.5,0.6,2.1,0c0.6-0.6,0.6-1.5,0-2.1 C1446.2,581.3,1445.3,581.3,1444.7,581.9C1444.7,581.9,1444.7,581.9,1444.7,581.9z" class="st5"/><path d="M1519.2,470.3c-0.6,0.6-0.6,1.5,0,2.1c0.6,0.6,1.5,0.6,2.1,0c0.6-0.6,0.6-1.5,0-2.1 C1520.7,469.7,1519.8,469.7,1519.2,470.3C1519.2,470.3,1519.2,470.3,1519.2,470.3z" class="st5"/><path d="M1158.4,105.5c-0.6,0.6-0.6,1.5,0,2.1c0.6,0.6,1.5,0.6,2.1,0c0.6-0.6,0.6-1.5,0-2.1 C1159.9,104.9,1159,104.9,1158.4,105.5C1158.4,105.5,1158.4,105.5,1158.4,105.5z" class="st5"/><path d="M1077.7,446c-0.9,0.9-0.9,2.4,0,3.3c0.9,0.9,2.4,0.9,3.3,0c0.9-0.9,0.9-2.4,0-3.3 C1080.1,445.1,1078.6,445.1,1077.7,446z" class="st6"/><path d="M1466.2,729.5c-0.9,0.9-0.9,2.4,0,3.3c0.9,0.9,2.4,0.9,3.3,0c0.9-0.9,0.9-2.4,0-3.3 C1468.6,728.6,1467.1,728.6,1466.2,729.5z" class="st5"/><path d="M1345.9,496.5c0.9,0.9,2.4,0.8,3.3-0.1c0.9-0.9,0.8-2.4-0.1-3.3c-0.9-0.9-2.4-0.8-3.3,0.1 C1345,494.2,1345,495.6,1345.9,496.5z" class="st6"/><path d="M1910.5,332.1c0.9,0.9,2.4,0.8,3.3-0.1c0.9-0.9,0.8-2.4-0.1-3.3c-0.9-0.9-2.4-0.8-3.3,0.1 C1909.5,329.7,1909.5,331.1,1910.5,332.1C1910.4,332,1910.5,332.1,1910.5,332.1z" class="st6"/><path d="M191.5,520.5c0.9,0.9,2.4,0.8,3.3-0.1c0.9-0.9,0.8-2.4-0.1-3.3c-0.9-0.9-2.4-0.8-3.3,0.1 C190.6,518.2,190.6,519.6,191.5,520.5z" class="st6"/><path d="M657.6,427.1c0.9,0.9,2.4,0.8,3.3-0.1c0.9-0.9,0.8-2.4-0.1-3.3c-0.9-0.9-2.4-0.8-3.3,0.1 C656.6,424.7,656.6,426.1,657.6,427.1C657.5,427,657.6,427.1,657.6,427.1z" class="st6"/><path d="M777.3,364.6c0.9,0.9,2.4,0.8,3.3-0.1c0.9-0.9,0.8-2.4-0.1-3.3c-0.9-0.9-2.4-0.8-3.3,0.1 C776.3,362.2,776.4,363.7,777.3,364.6z" class="st5"/><path d="M338.1,257.9c1.5,1.4,3.8,1.3,5.2-0.2c1.4-1.5,1.3-3.8-0.2-5.2c-1.5-1.4-3.8-1.3-5.2,0.2c0,0,0,0,0,0 C336.5,254.2,336.6,256.5,338.1,257.9C338.1,257.9,338.1,257.9,338.1,257.9z" class="st6"/><path d="M269.4,720.2c1.4,1.3,3.7,1.2,5-0.2c1.3-1.4,1.2-3.7-0.2-5c-1.4-1.3-3.7-1.2-5,0.2c0,0,0,0,0,0 C267.9,716.6,268,718.9,269.4,720.2z" class="st5"/><path d="M119.6,356.5c0.9,0.9,2.4,0.8,3.3-0.1c0.9-0.9,0.8-2.4-0.1-3.3c-0.9-0.9-2.4-0.8-3.3,0.1 C118.6,354.1,118.7,355.6,119.6,356.5z" class="st5"/><path d="M1245.6,130c0.9,0.9,2.4,0.8,3.3-0.1s0.8-2.4-0.1-3.3c-0.9-0.9-2.4-0.8-3.3,0.1 C1244.6,127.6,1244.7,129.1,1245.6,130z" class="st5"/><path d="M934.1,102.8c0.9,0.9,2.4,0.8,3.3-0.1c0.9-0.9,0.8-2.4-0.1-3.3c-0.9-0.9-2.4-0.8-3.3,0.1 C933.1,100.4,933.2,101.9,934.1,102.8z" class="st5"/><path d="M134.6,12.5c1.4,1.5,3.7,1.7,5.2,0.3s1.7-3.7,0.3-5.2l0,0c-1.4-1.5-3.7-1.7-5.2-0.3S133.2,11,134.6,12.5z" class="st5"/><path d="M1475.6,358.9c2,2.3,5.5,2.4,7.8,0.4c2.3-2,2.4-5.5,0.4-7.8c-2-2.3-5.5-2.4-7.8-0.4 c-2.3,2-2.5,5.4-0.5,7.7C1475.5,358.8,1475.6,358.9,1475.6,358.9z" class="st5"/><path d="M1741.7,269.4c1.3,1.5,3.6,1.6,5.1,0.3s1.6-3.6,0.3-5.1c-1.3-1.5-3.6-1.6-5.1-0.3 c-1.5,1.2-1.7,3.4-0.5,4.9C1741.6,269.3,1741.6,269.3,1741.7,269.4z" class="st5"/><path d="M672.7,365.2c0.9,1,2.3,1.1,3.3,0.2c1-0.9,1.1-2.3,0.2-3.3c-0.9-1-2.3-1.1-3.3-0.2c0,0,0,0,0,0 C671.9,362.7,671.8,364.1,672.7,365.2C672.6,365.1,672.7,365.2,672.7,365.2z" class="st5"/><path d="M36.4,737.8c0.9,1,2.3,1.1,3.3,0.2c1-0.9,1.1-2.3,0.2-3.3s-2.3-1.1-3.3-0.2c0,0,0,0,0,0 C35.6,735.3,35.5,736.7,36.4,737.8C36.3,737.7,36.4,737.8,36.4,737.8z" class="st5"/><path d="M429.2,464.6c0.9,1,2.3,1.1,3.3,0.2c1-0.9,1.1-2.3,0.2-3.3c-0.9-1-2.3-1.1-3.3-0.2c0,0,0,0,0,0 c-1,0.8-1.1,2.2-0.3,3.2C429.1,464.5,429.2,464.6,429.2,464.6z" class="st5"/><path d="M657.9,196.7c0.9,1,2.3,1.1,3.3,0.2s1.1-2.3,0.2-3.3c-0.9-1-2.3-1.1-3.3-0.2c0,0,0,0,0,0 c-1,0.8-1.1,2.2-0.3,3.2C657.8,196.6,657.9,196.7,657.9,196.7z" class="st5"/><path d="M553.1,167.9c0.9,1,2.3,1.1,3.3,0.2s1.1-2.3,0.2-3.3c-0.9-1-2.3-1.1-3.3-0.2c0,0,0,0,0,0 c-1,0.8-1.1,2.2-0.3,3.2C553,167.8,553.1,167.9,553.1,167.9z" class="st5"/><path d="M746.6,588.7c1-1.8,0.4-4.1-1.4-5.1s-4.1-0.4-5.1,1.4c-1,1.8-0.4,4.1,1.4,5.1c0,0,0,0,0,0 C743.3,591.1,745.6,590.5,746.6,588.7z" class="st5"/><path d="M1267,214.9c1.5-2.7,0.7-6.1-2-7.6s-6.1-0.7-7.6,2s-0.7,6.1,2,7.6c0,0,0,0,0,0 C1262.1,218.4,1265.4,217.5,1267,214.9z" class="st5"/><path d="M292.8,455.5c1.5-2.7,0.7-6.1-2-7.6c-2.7-1.5-6.1-0.7-7.6,2c-1.5,2.7-0.7,6.1,2,7.6c0,0,0,0,0,0 c2.6,1.6,5.9,0.8,7.5-1.8C292.7,455.6,292.8,455.6,292.8,455.5z" class="st5"/><path d="M1552.6,518.8c1.5-2.7,0.7-6.1-2-7.6c-2.7-1.5-6.1-0.7-7.6,2c-1.5,2.7-0.7,6.1,2,7.6c0,0,0,0,0,0 C1547.7,522.3,1551,521.4,1552.6,518.8z" class="st5"/><path d="M1478.9,522.5c1-1.7,0.4-3.9-1.3-4.9c-1.7-1-3.9-0.4-4.9,1.3c-1,1.7-0.4,3.9,1.3,4.9 C1475.7,524.8,1477.9,524.2,1478.9,522.5z" class="st5"/><path d="M988,100.4c1-1.7,0.4-3.9-1.3-4.9c-1.7-1-3.9-0.4-4.9,1.3c-1,1.7-0.4,3.9,1.3,4.9 C984.8,102.7,987,102.1,988,100.4z" class="st5"/><path d="M1158.4,69.8c1-1.7,0.4-3.9-1.3-4.9c-1.7-1-3.9-0.4-4.9,1.3c-1,1.7-0.4,3.9,1.3,4.9c1.6,1,3.7,0.6,4.7-1 C1158.3,70,1158.3,69.9,1158.4,69.8z" class="st5"/><path d="M494.5,220.1c1-1.7,0.4-3.9-1.3-4.9s-3.9-0.4-4.9,1.3c-1,1.7-0.4,3.9,1.3,4.9 C491.3,222.4,493.5,221.8,494.5,220.1z" class="st5"/><path d="M1469.8,608.8c1-1.7,0.4-3.9-1.3-4.9c-1.7-1-3.9-0.4-4.9,1.3c-1,1.7-0.4,3.9,1.3,4.9 C1466.6,611.1,1468.8,610.5,1469.8,608.8z" class="st5"/><path d="M572.4,690.2c1,0.8,2.4,0.6,3.2-0.4c0.8-1,0.6-2.4-0.4-3.2c-1-0.8-2.4-0.6-3.2,0.4 C571.2,688,571.4,689.4,572.4,690.2C572.4,690.2,572.4,690.2,572.4,690.2z" class="st6"/><path d="M975.3,299.3c1,0.8,2.4,0.6,3.2-0.4c0.8-1,0.6-2.4-0.4-3.2c-1-0.8-2.4-0.6-3.2,0.4 C974.1,297.1,974.3,298.5,975.3,299.3C975.3,299.3,975.3,299.3,975.3,299.3z" class="st6"/><path d="M1282.4,332.3c-1.1,1.1-1.1,2.8,0,3.9c1.1,1.1,2.8,1.1,3.9,0s1.1-2.8,0-3.9c0,0,0,0,0,0 C1285.3,331.2,1283.5,331.2,1282.4,332.3C1282.4,332.3,1282.4,332.3,1282.4,332.3z" class="st6"/><path d="M1482.3,197.4c-1.4,1.4-1.4,3.7,0,5.1c1.4,1.4,3.7,1.4,5.1,0s1.4-3.7,0-5.1c0,0,0,0,0,0 C1486,196,1483.7,196,1482.3,197.4z" class="st5"/><path d="M1618.9,170.5c-1.4,1.4-1.4,3.7,0,5.1c1.4,1.4,3.7,1.4,5.1,0s1.4-3.7,0-5.1c0,0,0,0,0,0 C1622.6,169.1,1620.3,169.1,1618.9,170.5z" class="st5"/><path d="M355.4,456.3c2,2.3,5.5,2.4,7.8,0.4c2.3-2,2.4-5.5,0.4-7.8c-2-2.3-5.5-2.4-7.8-0.4c-2.3,2-2.5,5.4-0.5,7.7 C355.3,456.2,355.4,456.3,355.4,456.3z" class="st5"/><path d="M1770.3,385.1c2,2.3,5.5,2.4,7.8,0.4c2.3-2,2.4-5.5,0.4-7.8c-2-2.3-5.5-2.4-7.8-0.4 c-2.3,2-2.5,5.4-0.5,7.7C1770.2,385,1770.3,385.1,1770.3,385.1z" class="st5"/><path d="M1243.4,698.9c2,2.3,5.5,2.4,7.8,0.4c2.3-2,2.4-5.5,0.4-7.8c-2-2.3-5.5-2.4-7.8-0.4 c-2.3,2-2.5,5.4-0.5,7.7C1243.3,698.8,1243.4,698.9,1243.4,698.9z" class="st5"/><path d="M1210.7,483.5c1.3,1.5,3.6,1.6,5.1,0.3s1.6-3.6,0.3-5.1c-1.3-1.5-3.6-1.6-5.1-0.3 C1209.5,479.7,1209.4,482,1210.7,483.5z" class="st5"/><path d="M779.6,241.1c1.3,1.5,3.6,1.6,5.1,0.3c1.5-1.3,1.6-3.6,0.3-5.1c-1.3-1.5-3.6-1.6-5.1-0.3 c-1.5,1.3-1.7,3.5-0.4,5C779.5,241,779.6,241.1,779.6,241.1z" class="st5"/><path d="M227.5,205.2c0.9,1,2.3,1.1,3.3,0.2s1.1-2.3,0.2-3.3c-0.9-1-2.3-1.1-3.3-0.2c0,0,0,0,0,0 c-1,0.8-1.1,2.2-0.3,3.2C227.4,205.1,227.5,205.2,227.5,205.2z" class="st5"/><path d="M844.1,604.9c0.6-1.1,0.2-2.6-0.9-3.2c-1.1-0.6-2.6-0.2-3.2,0.9c-0.6,1.1-0.2,2.6,0.9,3.2 C842,606.4,843.4,606,844.1,604.9z" class="st5"/><path d="M1843.8,134.5c0.6-1.1,0.2-2.6-0.9-3.2c0,0,0,0,0,0c-1-0.7-2.4-0.3-3.1,0.7c0,0.1-0.1,0.1-0.1,0.2 c-0.6,1.1-0.2,2.6,0.9,3.2c0,0,0,0,0,0C1841.7,136,1843.2,135.6,1843.8,134.5z" class="st5"/><path d="M1459.8,574.6c0.6-1.1,0.2-2.6-0.9-3.2c0,0,0,0,0,0c-1-0.7-2.4-0.3-3.1,0.7c0,0.1-0.1,0.1-0.1,0.2 c-0.6,1.1-0.2,2.6,0.9,3.2c0,0,0,0,0,0C1457.7,576.1,1459.2,575.7,1459.8,574.6z" class="st5"/><path d="M1285.7,713.6c0.4-0.7,0.2-1.7-0.6-2.1c0,0,0,0,0,0c-0.7-0.4-1.6-0.2-2,0.5c0,0,0,0.1-0.1,0.1 c-0.4,0.7-0.1,1.7,0.6,2.1S1285.3,714.3,1285.7,713.6z" class="st5"/><path d="M1096.6,547.6c0.6-1.1,0.2-2.6-0.9-3.2c-1.1-0.6-2.6-0.2-3.2,0.9c-0.6,1.1-0.2,2.6,0.9,3.2 C1094.5,549.1,1095.9,548.8,1096.6,547.6C1096.6,547.7,1096.6,547.6,1096.6,547.6z" class="st6"/><path d="M1575.7,366.5c0.6-1.1,0.2-2.6-0.9-3.2c-1.1-0.6-2.6-0.2-3.2,0.9c-0.6,1.1-0.2,2.6,0.9,3.2 C1573.6,368,1575,367.7,1575.7,366.5C1575.7,366.6,1575.7,366.5,1575.7,366.5z" class="st6"/></g></g></g></g><path d="M305.6,712.4c0,0-40.7-166.5,332.8-223.6c276-42.2,351.7-121.9,344-174.7c-7.5-51.5-170.6-65.2-233.3-75.8 c-135.9-23-80.5-50.5,69.3-88.1c238.3-59.8,93.2-118.2,32.1-151.5h-66c0,0,111.8,48.2,28.5,90.9c-33.6,17.2-184.6,68.8-239.7,90 c-140.6,54.3-71.2,107.7,33.9,120.9c207.9,26,145.1,61.8-127.9,77.5c-74,4.2-405.4-74-479.1,167.8l-0.4,193.1 c0,0,17.8,8.4,46.2-17.8c28.4-26.2,68.4-99.5,84.4-123.9s55.8-77.7,104.9-89.6c0,0-19.8,48.3-17.9,79.9 c1.3,28.9,5.1,58.7,38.3,90.7C283.5,704.7,305.6,712.4,305.6,712.4z" class="st7"/></g></svg>