<svg xmlns="http://www.w3.org/2000/svg" viewBox="0 0 1921.7 772.32"><defs><style>.cls-1{fill:#1c0e3f;}.cls-2{fill:#180f35;}.cls-3{opacity:0.27;}.cls-4{fill:#3f3483;}.cls-5{opacity:0.41;}.cls-6{fill:#fff;}.cls-7{fill:#ef4a8e;}</style></defs><g id="Layer_2" data-name="Layer 2"><g id="Layer_1-2" data-name="Layer 1"><g id="Layer_3" data-name="Layer 3"><path class="cls-1" d="M0,738.1s33.1,16.5,81.6-63,84.7-148.7,153.9-168.4c0,0-35.1,76.4-7.2,132.2s95,101.5,204.5,93C591.5,719.5,677,642.9,871,626.1c88.7-7.7,186.8-17.2,463.5,77.1s395.6,97.4,587.2-23.6V0H.3Z"/></g><g id="Layer_9" data-name="Layer 9"><path class="cls-2" d="M890.8,40.5c-82.4,0-155.4,68.8-211.7,106-59.4,39.3-135.1,71.1-215.2,73-1.7,0-3.4.1-5.1.1-32,0-63.8-6.8-95.3-13.5s-62.8-13.5-93.9-13.5a178.92,178.92,0,0,0-38.4,4c-60.4,13.3-127,57.4-112.6,110.9,2.8,10.4,9.6,19.6,22,25.8,14.1,7.1,31.2,9.2,48.6,9.2,16.1,0,32.4-1.8,46.7-3.1,14.9-1.4,30-2.4,45-2.4,17.9,0,35.6,1.4,53,5.4,42.6,9.8,76.1,33.4,101.2,60.8,22.2,24.2,51,47.1,87.4,56.9a190.52,190.52,0,0,0,50.2,6.7c38,0,74.1-11.7,105.1-32.9,41.4-28.3,88.3-60.4,142.5-60.4,3.8,0,7.7.2,11.5.5,35.6,3,69.2,25.7,91.1,47.4s28.8,24.5,53.6,53.2c46.5,53.7,72.7,114.7,151.8,146.2a129.29,129.29,0,0,0,47.9,9.2h.6c48-.1,93.2-25.7,120.3-56.7,33.2-37.9,50.6-83.5,91.6-117.5,43.4-36,105.7-63.7,170.5-63.7a218.92,218.92,0,0,1,37.7,3.2c37.5,6.6,70.7,9.5,100.1,9.5,228.6,0,220.9-176.9,122.3-178.5h-1.7c-23,0-51,7.1-79.2,14.2s-56.5,14.2-80.3,14.2c-2.7,0-5.3-.1-7.9-.3-48.5-3.6-100.5-15.8-127-47.1-9.4-11.1-15-24-25.8-34.4-16.9-16.2-43.6-23.1-71-23.1a172.12,172.12,0,0,0-46.7,6.5c-40,11.4-72.7,33.7-108.2,51.8-29.6,15.1-64,27.9-98.9,27.9a133.74,133.74,0,0,1-20.9-1.6c-52.4-8.3-86.2-46.6-110.3-83.2-25.8-39.2-52.2-88.1-109.9-105a148,148,0,0,0-40.7-5.7"/></g><g id="Layer_8" data-name="Layer 8"><g class="cls-3"><path class="cls-4" d="M124.7,516.9c35.8-15,66.8-33.6,108.5-43.9s100.1-8.6,120.9,11.3c18.5,17.7-1.3,40.5-28.4,56.3s-61.9,28.7-81.4,47c-13.8,13-27,35.9-7.3,66.8,0,0,38,50.5,80.6,63.6,70.5,21.7,136.2,31.4,352.9-48.6,175.5-64.7,340.6-45,340.6-45,46.9-32.5,89.3-69.4,126-104.9,69.6-67.2,118.9-149.9,47.8-213.6C1119,246.8,972,224.8,835.7,218.7c-71.3-3.2-155.7-7.1-188.8-38.4-35.2-33.4,15.5-76.8,80.8-98.4,112-37.2,270-32.3,365.2,11.4,41.4,19,70.6,43.7,107.4,64.9s86,39.8,143.2,40.1c67.3.4,125.7-23.8,183.4-42.6s136.3-32.6,188.8-12.5c81.6,31.1,14.1,105.1,73.9,146.9,26.8,18.7,75.6,27,122.6,25.7l-1.1-110.2c-5.3.2-10.7.2-16,0-70.3-2.4-103.6-34.5-107.6-65.8s11.6-64.9-4.1-94.4c-9.1-17.1-29.7-31.6-57.8-42.6L1395.3,6.2c-35.4,7.6-71,15.1-107.5,19.4-116.7,13.9-220.2-5.4-329.4-14.9l-206,2.1c-104,13.1-205.6,43.8-273.3,84.7C446.8,117,421.5,139,415.4,161s9.2,43.7,46.8,54.2c33.7,9.5,79.6,9.2,121.3,12.2,130.9,9.3,228.8,55,243.6,113.8S773,469.2,655.5,513.5c-21.3,8-46.4,15.7-71.4,15.9-54.6.5-62.3-31.7-45.2-56.2s45.5-52.6,18.8-71.1c-32.5-22.5-120.2-12.2-182,5.4S252,449.2,185.2,451c-75.8,2-121.1-25.4-180.1-41.8L6.6,549.9C49.3,542.7,89.7,531.5,124.7,516.9Z"/></g></g><g id="Layer_6" data-name="Layer 6"><g class="cls-5"><path class="cls-6" d="M324.1,412.4a3.71,3.71,0,1,0-.7-5.2A3.79,3.79,0,0,0,324.1,412.4Z"/><path class="cls-6" d="M902.1,451.1a3.57,3.57,0,1,0-.7-5A3.74,3.74,0,0,0,902.1,451.1Z"/><path class="cls-6" d="M19.3,262.9a3.57,3.57,0,1,0-.7-5A3.53,3.53,0,0,0,19.3,262.9Z"/><path class="cls-6" d="M472.7,607.5a3.57,3.57,0,1,0-.7-5A3.53,3.53,0,0,0,472.7,607.5Z"/><path class="cls-6" d="M1795.2,143.4a2.28,2.28,0,1,0-.4-3.2A2.18,2.18,0,0,0,1795.2,143.4Z"/><path class="cls-6" d="M294,66.7a2.28,2.28,0,1,0-.4-3.2A2.17,2.17,0,0,0,294,66.7Z"/><path class="cls-6" d="M1883.2,244a2.28,2.28,0,1,0-.4-3.2A2.24,2.24,0,0,0,1883.2,244Z"/><path class="cls-6" d="M1490.2,146.4a2.28,2.28,0,1,0-.4-3.2A2.24,2.24,0,0,0,1490.2,146.4Z"/><path class="cls-6" d="M271.7,658.6a2.28,2.28,0,1,0-.4-3.2A2.18,2.18,0,0,0,271.7,658.6Z"/><path class="cls-6" d="M1411.5,101.8a2.33,2.33,0,1,0,3.3,0A2.35,2.35,0,0,0,1411.5,101.8Z"/><path class="cls-6" d="M953,549.5a2.33,2.33,0,1,0,3.3,0A2.35,2.35,0,0,0,953,549.5Z"/><path class="cls-6" d="M656,502.6a1.34,1.34,0,1,0,1.9,0A1.39,1.39,0,0,0,656,502.6Z"/><path class="cls-6" d="M1143.6,21.8a1.34,1.34,0,1,0,1.9,0A1.39,1.39,0,0,0,1143.6,21.8Z"/><path class="cls-6" d="M1499.6,187.2a2.33,2.33,0,1,0,3.3,0A2.35,2.35,0,0,0,1499.6,187.2Z"/><path class="cls-6" d="M762.1,210.5a2.33,2.33,0,1,0,3.3,0A2.35,2.35,0,0,0,762.1,210.5Z"/><path class="cls-6" d="M1278.8,150.4a2.33,2.33,0,1,0,3.3,0A2.35,2.35,0,0,0,1278.8,150.4Z"/><path class="cls-6" d="M1209,319.6a2.33,2.33,0,1,0,3.3,0A2.35,2.35,0,0,0,1209,319.6Z"/><path class="cls-6" d="M1444.7,581.9a1.48,1.48,0,1,0,2.1,0A1.45,1.45,0,0,0,1444.7,581.9Z"/><path class="cls-6" d="M1519.2,470.3a1.48,1.48,0,1,0,2.1,0A1.45,1.45,0,0,0,1519.2,470.3Z"/><path class="cls-6" d="M1158.4,105.5a1.48,1.48,0,1,0,2.1,0A1.45,1.45,0,0,0,1158.4,105.5Z"/><path class="cls-7" d="M1077.7,446a2.33,2.33,0,1,0,3.3,0A2.35,2.35,0,0,0,1077.7,446Z"/><path class="cls-6" d="M1466.2,729.5a2.33,2.33,0,1,0,3.3,0A2.35,2.35,0,0,0,1466.2,729.5Z"/><path class="cls-7" d="M1345.9,496.5a2.33,2.33,0,1,0-.1-3.3A2.46,2.46,0,0,0,1345.9,496.5Z"/><path class="cls-7" d="M1910.5,332.1a2.33,2.33,0,1,0-.1-3.3A2.27,2.27,0,0,0,1910.5,332.1Z"/><path class="cls-7" d="M191.5,520.5a2.33,2.33,0,1,0-.1-3.3A2.45,2.45,0,0,0,191.5,520.5Z"/><path class="cls-7" d="M657.6,427.1a2.33,2.33,0,1,0-.1-3.3A2.27,2.27,0,0,0,657.6,427.1Z"/><path class="cls-6" d="M777.3,364.6a2.33,2.33,0,1,0-.1-3.3A2.36,2.36,0,0,0,777.3,364.6Z"/><path class="cls-7" d="M338.1,257.9a3.68,3.68,0,1,0-.2-5.2A3.65,3.65,0,0,0,338.1,257.9Z"/><path class="cls-6" d="M269.4,720.2a3.54,3.54,0,1,0-.2-5A3.6,3.6,0,0,0,269.4,720.2Z"/><path class="cls-6" d="M119.6,356.5a2.33,2.33,0,1,0-.1-3.3A2.36,2.36,0,0,0,119.6,356.5Z"/><path class="cls-6" d="M1245.6,130a2.33,2.33,0,1,0-.1-3.3A2.36,2.36,0,0,0,1245.6,130Z"/><path class="cls-6" d="M934.1,102.8a2.33,2.33,0,1,0-.1-3.3A2.36,2.36,0,0,0,934.1,102.8Z"/><path class="cls-6" d="M134.6,12.5a3.68,3.68,0,0,0,5.5-4.9,3.68,3.68,0,1,0-5.5,4.9Z"/><path class="cls-6" d="M1475.6,358.9a5.52,5.52,0,1,0,.4-7.8A5.44,5.44,0,0,0,1475.6,358.9Z"/><path class="cls-6" d="M1741.7,269.4a3.61,3.61,0,1,0,.3-5.1A3.47,3.47,0,0,0,1741.7,269.4Z"/><path class="cls-6" d="M672.7,365.2a2.34,2.34,0,1,0,.2-3.3A2.28,2.28,0,0,0,672.7,365.2Z"/><path class="cls-6" d="M36.4,737.8a2.34,2.34,0,1,0,.2-3.3A2.28,2.28,0,0,0,36.4,737.8Z"/><path class="cls-6" d="M429.2,464.6a2.34,2.34,0,1,0,.2-3.3A2.27,2.27,0,0,0,429.2,464.6Z"/><path class="cls-6" d="M657.9,196.7a2.34,2.34,0,1,0,.2-3.3A2.27,2.27,0,0,0,657.9,196.7Z"/><path class="cls-6" d="M553.1,167.9a2.34,2.34,0,1,0,.2-3.3A2.27,2.27,0,0,0,553.1,167.9Z"/><path class="cls-6" d="M746.6,588.7a3.74,3.74,0,1,0-5.1,1.4A3.77,3.77,0,0,0,746.6,588.7Z"/><path class="cls-6" d="M1267,214.9a5.56,5.56,0,1,0-7.6,2A5.65,5.65,0,0,0,1267,214.9Z"/><path class="cls-6" d="M292.8,455.5a5.56,5.56,0,1,0-7.6,2A5.45,5.45,0,0,0,292.8,455.5Z"/><path class="cls-6" d="M1552.6,518.8a5.56,5.56,0,1,0-7.6,2A5.58,5.58,0,0,0,1552.6,518.8Z"/><path class="cls-6" d="M1478.9,522.5a3.58,3.58,0,1,0-4.9,1.3A3.59,3.59,0,0,0,1478.9,522.5Z"/><path class="cls-6" d="M988,100.4a3.58,3.58,0,1,0-4.9,1.3A3.59,3.59,0,0,0,988,100.4Z"/><path class="cls-6" d="M1158.4,69.8a3.58,3.58,0,1,0-4.9,1.3A3.39,3.39,0,0,0,1158.4,69.8Z"/><path class="cls-6" d="M494.5,220.1a3.58,3.58,0,1,0-4.9,1.3A3.59,3.59,0,0,0,494.5,220.1Z"/><path class="cls-6" d="M1469.8,608.8a3.58,3.58,0,1,0-4.9,1.3A3.59,3.59,0,0,0,1469.8,608.8Z"/><path class="cls-7" d="M572.4,690.2a2.28,2.28,0,1,0-.4-3.2A2.24,2.24,0,0,0,572.4,690.2Z"/><path class="cls-7" d="M975.3,299.3a2.28,2.28,0,1,0-.4-3.2A2.24,2.24,0,0,0,975.3,299.3Z"/><path class="cls-7" d="M1282.4,332.3a2.76,2.76,0,1,0,3.9,0A2.72,2.72,0,0,0,1282.4,332.3Z"/><path class="cls-6" d="M1482.3,197.4a3.61,3.61,0,1,0,5.1,0A3.62,3.62,0,0,0,1482.3,197.4Z"/><path class="cls-6" d="M1618.9,170.5a3.61,3.61,0,1,0,5.1,0A3.62,3.62,0,0,0,1618.9,170.5Z"/><path class="cls-6" d="M355.4,456.3a5.52,5.52,0,1,0,.4-7.8A5.44,5.44,0,0,0,355.4,456.3Z"/><path class="cls-6" d="M1770.3,385.1a5.52,5.52,0,1,0,.4-7.8A5.44,5.44,0,0,0,1770.3,385.1Z"/><path class="cls-6" d="M1243.4,698.9a5.52,5.52,0,1,0,.4-7.8A5.44,5.44,0,0,0,1243.4,698.9Z"/><path class="cls-6" d="M1210.7,483.5a3.61,3.61,0,1,0,.3-5.1A3.63,3.63,0,0,0,1210.7,483.5Z"/><path class="cls-6" d="M779.6,241.1a3.61,3.61,0,1,0,.3-5.1A3.54,3.54,0,0,0,779.6,241.1Z"/><path class="cls-6" d="M227.5,205.2a2.34,2.34,0,1,0,.2-3.3A2.27,2.27,0,0,0,227.5,205.2Z"/><path class="cls-6" d="M844.1,604.9a2.35,2.35,0,1,0-3.2.9A2.41,2.41,0,0,0,844.1,604.9Z"/><path class="cls-6" d="M1843.8,134.5a2.35,2.35,0,0,0-.9-3.2,2.24,2.24,0,0,0-3.2.9,2.35,2.35,0,0,0,.9,3.2A2.38,2.38,0,0,0,1843.8,134.5Z"/><path class="cls-6" d="M1459.8,574.6a2.35,2.35,0,0,0-.9-3.2,2.24,2.24,0,0,0-3.2.9,2.35,2.35,0,0,0,.9,3.2A2.38,2.38,0,0,0,1459.8,574.6Z"/><path class="cls-6" d="M1285.7,713.6a1.52,1.52,0,0,0-.6-2.1,1.49,1.49,0,0,0-2.1.6,1.54,1.54,0,0,0,2.7,1.5Z"/><path class="cls-7" d="M1096.6,547.6a2.35,2.35,0,1,0-3.2.9A2.3,2.3,0,0,0,1096.6,547.6Z"/><path class="cls-7" d="M1575.7,366.5a2.35,2.35,0,1,0-3.2.9A2.3,2.3,0,0,0,1575.7,366.5Z"/></g></g></g></g></svg>