<?xml version="1.0" encoding="utf-8"?>
<!-- Generator: Adobe Illustrator 25.4.1, SVG Export Plug-In . SVG Version: 6.00 Build 0)  -->
<svg version="1.1" id="Layer_1" xmlns="http://www.w3.org/2000/svg" xmlns:xlink="http://www.w3.org/1999/xlink" x="0px" y="0px"
	 viewBox="0 0 708.1 639.3" style="enable-background:new 0 0 708.1 639.3;" xml:space="preserve">
<style type="text/css">
	.st0{fill:#A5DEF8;}
	.st1{fill:url(#SVGID_1_);}
	.st2{fill:#FFFFFF;}
	.st3{fill:#FAD779;}
	.st4{fill:#F27A51;}
	.st5{fill:#1B72A2;}
	.st6{fill:url(#SVGID_00000101815082533259033830000012279544060867213696_);}
	.st7{fill:#A6DDF8;}
	.st8{fill:url(#SVGID_00000111190667404518425700000017161835971532471210_);}
	.st9{fill:#42BBE0;}
	.st10{fill:#D8EFF7;}
	.st11{fill:#00A2C5;}
	.st12{fill:url(#SVGID_00000156569483388193714350000008293039597008446605_);}
</style>
<g>
	
		<ellipse transform="matrix(0.986 -0.1666 0.1666 0.986 -13.4988 82.2417)" class="st0" cx="483.5" cy="121.6" rx="44.2" ry="44.2"/>
	
		<linearGradient id="SVGID_1_" gradientUnits="userSpaceOnUse" x1="435.2207" y1="520.3575" x2="531.7111" y2="520.3575" gradientTransform="matrix(1 0 0 -1 0 642)">
		<stop  offset="4.000000e-02" style="stop-color:#1F1143"/>
		<stop  offset="0.96" style="stop-color:#15103A"/>
	</linearGradient>
	<path class="st1" d="M483.5,169.8c-0.8,0-1.7,0-2.5-0.1c-26.6-1.4-47-24-45.6-50.6c1.4-26.6,24-47,50.6-45.6s47,24,45.6,50.6
		C530.2,149.7,509.1,169.8,483.5,169.8z M483.4,81.4c-22.3,0-40.4,18.1-40.4,40.3c0,22.3,18.1,40.4,40.3,40.4s40.4-18.1,40.4-40.3
		c0-21.5-16.8-39.2-38.2-40.3C484.8,81.4,484.1,81.4,483.4,81.4z"/>
	<path class="st2" d="M557.4,164.8c-70.4,66.4-128.7,104.8-128.7,104.8l10.9,45.9c0.5,2.2-0.1,4.6-1.6,6.3l-50.8,55.6
		c-0.6,0.7-1.7,0.7-2.3,0.1c-0.3-0.2-0.4-0.5-0.5-0.9c-2.5-12.1-14.4-56.6-62.2-109.5s-90.8-69.3-102.6-73c-0.9-0.3-1.4-1.2-1.1-2.1
		c0.1-0.3,0.3-0.6,0.6-0.8l60.5-44.8c1.8-1.4,4.2-1.7,6.4-1l44.6,15.5c0,0,44.1-54.2,117.3-117.4C498.7-0.2,553.7,2.5,582.5,8.2
		c12.9,2.5,22.7,13.3,23.9,26.4C609.1,63.8,606.1,118.8,557.4,164.8z"/>
	<path class="st3" d="M341.4,307.4c-68.1,61.7-107.6,62.2-121.9,59.3c-4.1-0.9-7.2-4.4-7.6-8.6c-1.5-14.8,3-54,69.9-115.8
		c0.9-0.8,2.2-0.8,3.1,0.1c0,0,0,0,0,0l56.7,61.9C342.4,305.2,342.3,306.5,341.4,307.4C341.5,307.3,341.4,307.4,341.4,307.4z"/>
	<path class="st4" d="M230.1,371.7c-3.8,0-7.7-0.3-11.4-1.1c-2.8-0.6-5.3-2.1-7.2-4.1c-2-2.2-3.3-5.1-3.6-8.1
		c-1.8-18.3,5-58,71.2-119.2c1.2-1.1,2.8-1.7,4.5-1.6c1.6,0.1,3.2,0.8,4.3,2c10.3,8.6,20.1,17.7,29.4,27.5
		c9.7,10.3,27.3,34.5,27.3,34.5c2.3,2.5,2.1,6.5-0.4,8.8l0,0C322.9,329.6,272,371.4,230.1,371.7z M283.2,246.5
		c-64.7,60.2-68.6,97.8-67.3,111.2c0.1,1.3,0.7,2.5,1.5,3.4c0.8,0.9,1.8,1.5,3,1.7c13.1,2.6,50.8,2.3,116.9-57.1L283.2,246.5z"/>
	<path class="st2" d="M329.2,291.6c-38.7,35.1-61.1,35.3-69.3,33.7c-1.1-0.2-2.1-0.8-2.8-1.6c-0.8-0.9-1.3-2-1.5-3.3
		c-0.8-8.4,1.7-30.7,39.7-65.8c0.5-0.5,1.3-0.4,1.7,0.1c0,0,0,0,0,0l32.2,35.2C329.8,290.4,329.7,291.1,329.2,291.6z"/>
	<path class="st4" d="M265,330.2c-2.3,0-4.5-0.2-6.7-0.6c-1.9-0.4-3.7-1.4-5-2.9c-1.4-1.5-2.3-3.5-2.5-5.5
		c-1.1-10.7,2.8-33.9,41-69.1c1-0.9,2.4-1.4,3.8-1.4c1.4,0,2.7,0.7,3.7,1.7l32.1,35.1c2,2.1,1.8,5.5-0.3,7.4c0,0,0,0,0,0
		C299,323.9,277.5,330.1,265,330.2z M295.9,259.2c-35,33-37.9,53.9-37.2,61.1c0,0.3,0.2,0.7,0.4,0.9c0.2,0.2,0.5,0.4,0.8,0.5
		c7,1.4,28.2,0.6,64.4-31.5c0,0-7-9.7-13.3-16.5C305,266.9,295.9,259.2,295.9,259.2z M325.6,288.9L325.6,288.9z M297.2,257.9
		L297.2,257.9z"/>
	
		<ellipse transform="matrix(0.986 -0.1666 0.1666 0.986 -13.4517 82.2625)" class="st0" cx="483.6" cy="121.3" rx="44.2" ry="44.2"/>
	
		<ellipse transform="matrix(0.986 -0.1666 0.1666 0.986 -13.4517 82.2625)" class="st5" cx="483.6" cy="121.3" rx="28.1" ry="28.1"/>
	
		<linearGradient id="SVGID_00000153672320335449253160000013962420142133244554_" gradientUnits="userSpaceOnUse" x1="451.4201" y1="520.708" x2="515.747" y2="520.708" gradientTransform="matrix(1 0 0 -1 0 642)">
		<stop  offset="4.000000e-02" style="stop-color:#1F1143"/>
		<stop  offset="0.96" style="stop-color:#15103A"/>
	</linearGradient>
	<path style="fill:url(#SVGID_00000153672320335449253160000013962420142133244554_);" d="M483.6,153.5c-17.8,0-32.2-14.4-32.2-32.1
		c0-17.8,14.4-32.2,32.1-32.2c17.8,0,32.2,14.4,32.2,32.1c0,9.1-3.8,17.8-10.6,23.9C499.3,150.5,491.6,153.5,483.6,153.5z
		 M483.6,97.2c-13.3,0-24.1,10.8-24.1,24.1s10.8,24.1,24.1,24.1c13.3,0,24.1-10.8,24.1-24.1c0-6-2.2-11.7-6.2-16.2
		C497,100,490.4,97.1,483.6,97.2L483.6,97.2z"/>
	<ellipse transform="matrix(0.9664 -0.2571 0.2571 0.9664 -11.8547 127.4337)" class="st7" cx="481.3" cy="109" rx="11" ry="6"/>
	<path class="st7" d="M488,136.1c-6.4,1.9-13.4,0.1-18.1-4.7c3,8.3,12.2,12.6,20.5,9.6c7.6-2.8,12-10.8,10.2-18.7
		C499.2,128.8,494.4,134.1,488,136.1z"/>
	<path class="st7" d="M602.3,34.9c0.4,3.8,0.6,8.1,0.7,12.8l-37.8-38c5.5,0.5,11.1,1.3,16.5,2.4C592.9,14.2,601.3,23.5,602.3,34.9z"
		/>
	
		<linearGradient id="SVGID_00000181060331261177863340000008166353318298246822_" gradientUnits="userSpaceOnUse" x1="214.4006" y1="450.5" x2="611.0845" y2="450.5" gradientTransform="matrix(1 0 0 -1 0 642)">
		<stop  offset="4.000000e-02" style="stop-color:#1F1143"/>
		<stop  offset="0.96" style="stop-color:#15103A"/>
	</linearGradient>
	<path style="fill:url(#SVGID_00000181060331261177863340000008166353318298246822_);" d="M610.4,34.2C609,19.3,598,7,583.3,4.2
		c-29.2-5.8-85.8-8.7-138,36.3c-64.4,55.7-106.9,104.9-116,115.7l-42-14.6c-3.4-1.2-7.2-0.6-10.1,1.5L216.7,188
		c-2.5,1.9-3.1,5.4-1.2,8c0.7,1,1.7,1.7,2.9,2c11.8,3.7,53.9,19.8,100.9,71.8s58.7,95.5,61.2,107.6c0.4,2.1,2,3.8,4.1,4.3
		c0.5,0.1,1,0.2,1.5,0.2c1.6,0,3.1-0.7,4.2-1.8l50.7-55.6c2.4-2.7,3.4-6.4,2.6-9.9l-10.3-43.2c11.6-8,65-45.2,127-103.7
		C610.3,120.4,613.1,63.8,610.4,34.2z M504.9,16c14.4-4.5,29.4-6.8,44.5-6.9c2.4,0,4.7,1,6.4,2.7l18,18.1c0.8,0.8,0.8,2.1,0,2.8
		c0,0,0,0-0.1,0.1L545,58.8c-0.9,0.8-2.2,0.7-3-0.1l-37.7-40.5c-0.5-0.6-0.5-1.4,0.1-2C504.5,16.2,504.7,16,504.9,16z M435.1,60.3
		c5-4.5,10.2-9,15.5-13.6c12.1-10.6,25.9-19.2,40.7-25.6c2-0.8,4.3-0.3,5.8,1.3L535.9,64c0.8,0.9,0.8,2.3-0.1,3.2c0,0,0,0,0,0
		l-20,18.1c-17.6-15.8-44.2-16.5-62.5-1.5L435,63.7C434.1,62.7,434.1,61.2,435.1,60.3C435.1,60.3,435.1,60.3,435.1,60.3z
		 M523.7,123.3c-1.1,22.2-20,39.2-42.2,38.1c-22.2-1.1-39.2-20-38.1-42.2c1.1-21.3,18.7-38.1,40.1-38.1c0.7,0,1.4,0,2.1,0.1
		C507.8,82.3,524.9,101.1,523.7,123.3L523.7,123.3z M337.5,159.1c10.3-12.1,41.2-47.2,87.1-89.3c1.5-1.4,3.8-1.3,5.2,0.2
		c0,0,0,0,0,0l17.6,19.4c-15.3,17.4-16,43.2-1.8,61.5l-63.3,57.8c-1,0.9-2.5,0.8-3.4-0.1c0,0,0,0,0,0l-41.3-45.8
		C336.6,161.7,336.6,160.1,337.5,159.1z M282.1,149.7c0.8-0.6,1.8-0.7,2.7-0.4l41.2,14.4c1.6,0.5,3,1.5,4.1,2.7l19,21.1
		c1.6,1.8,1.5,4.6-0.3,6.3l-30.5,28.5c-1.9,1.8-4.9,1.8-6.9,0c-23.2-21.5-53.2-38.2-66.5-45.1L282.1,149.7z M301.8,237.7
		c-1,0.9-2.5,0.9-3.5,0c-29.8-26.3-55.4-38.9-69.4-44.5c-1.1-0.5-1.7-1.8-1.2-2.9c0.2-0.4,0.4-0.7,0.7-1l9.2-6.9
		c10.2,5.2,45.2,23.7,70,47.2c0.7,0.6,0.7,1.7,0.1,2.4c0,0-0.1,0.1-0.1,0.1L301.8,237.7z M308,246.6c-1-1-1.1-2.6-0.1-3.7
		c0,0,0.1-0.1,0.1-0.1l46.1-43.1c1.8-1.7,4.6-1.6,6.3,0.2c0,0,0,0,0.1,0.1l13.8,15.3l-49,45.1c-1.1,1-2.7,0.9-3.7-0.1
		C317.1,255.6,312,250.5,308,246.6L308,246.6z M343.1,285.9c-4.2-5.5-7.8-10.2-12.6-15.7c-0.9-1.1-0.9-2.7,0.2-3.7l49-45.1
		l14.5,16.1c1.7,1.8,1.5,4.7-0.3,6.3l-47,42.5c-1.1,0.9-2.7,0.8-3.7-0.2C343.1,286,343.1,285.9,343.1,285.9L343.1,285.9z
		 M390.1,368.4c-0.8,0.9-2.2,1-3.1,0.2c-0.3-0.3-0.5-0.6-0.7-1c-4-14.2-13.5-39.9-35.4-71c-0.8-1.1-0.6-2.5,0.4-3.4l6.9-6.3
		c0.7-0.6,1.7-0.6,2.3,0.1c0.1,0.1,0.1,0.1,0.1,0.2c6.6,10,27.3,42.8,35.8,74.1L390.1,368.4z M435.7,316.5c0.2,0.9,0,1.9-0.7,2.6
		l-32.2,35.3c-9.2-30.3-27.7-59.9-34.8-70.7c-1.4-2.1-1-4.8,0.8-6.5l30.4-27.5c1.8-1.7,4.7-1.5,6.3,0.3l17.7,19.6
		c1.1,1.2,1.9,2.7,2.3,4.3L435.7,316.5z M531,183.5c-47.5,42.4-86.5,70.3-99.8,79.5c-1.1,0.8-2.7,0.6-3.6-0.4L387.5,218
		c-0.9-1-0.8-2.5,0.2-3.4c0,0,0,0,0,0l63.3-57.8c8.3,7.6,18.9,12.1,30.1,12.6c0.8,0,1.7,0.1,2.5,0.1c10.8,0,21.3-3.7,29.8-10.4
		l17.8,19.1C532.7,179.7,532.6,182.1,531,183.5C531.1,183.5,531,183.5,531,183.5L531,183.5z M585.3,122c-8,14.9-18.3,28.3-30.7,39.8
		c-4.4,4.2-8.7,8.2-13,12.1c-1,0.9-2.5,0.8-3.4-0.1l-18.8-20.2c15.9-17.5,16.7-44,1.9-62.4l20-18.1c0.9-0.8,2.3-0.8,3.1,0.1l40,43
		C586,117.7,586.3,120.1,585.3,122z M591.5,108.9c-0.3,0.7-1.1,1-1.8,0.7c-0.2-0.1-0.3-0.2-0.5-0.3l-38.8-41.6
		c-0.8-0.9-0.8-2.2,0.1-3c0,0,0,0,0,0l29.1-26.3c0.8-0.7,2-0.7,2.8,0.1L599.8,56c1.9,1.9,2.9,4.6,2.6,7.3
		C601.2,78.9,597.5,94.3,591.5,108.9z M565.2,9.7c5.5,0.5,11.1,1.3,16.5,2.3c11.2,2.2,19.6,11.5,20.6,22.8c0.4,3.8,0.6,8.1,0.7,12.8
		L565.2,9.7z"/>
	<path class="st9" d="M504.9,16c14.4-4.5,29.4-6.8,44.5-6.9c2.4,0,4.7,1,6.4,2.7l18,18.1c0.8,0.8,0.8,2.1,0,2.8c0,0,0,0-0.1,0.1
		L545,58.8c-0.9,0.8-2.2,0.7-3-0.1l-37.7-40.5c-0.5-0.6-0.5-1.5,0.1-2C504.5,16.2,504.7,16.1,504.9,16z"/>
	<path class="st9" d="M435.1,60.3c5-4.5,10.2-9,15.5-13.6c12.1-10.6,25.9-19.2,40.7-25.6c2-0.8,4.3-0.3,5.8,1.3L535.9,64
		c0.8,0.9,0.8,2.3-0.1,3.2c0,0,0,0,0,0l-20,18.1c-17.6-15.8-44.2-16.4-62.5-1.5L435,63.7C434.1,62.7,434.1,61.2,435.1,60.3
		C435.1,60.3,435.1,60.3,435.1,60.3z"/>
	<path class="st9" d="M337.5,159.1c10.3-12.1,41.2-47.2,87.1-89.3c1.5-1.4,3.8-1.3,5.2,0.2c0,0,0,0,0,0l17.6,19.4
		c-15.3,17.4-16,43.2-1.8,61.5l-63.2,57.7c-1,0.9-2.5,0.8-3.4-0.2c0,0,0,0,0,0l-41.3-45.8C336.6,161.7,336.6,160.1,337.5,159.1z"/>
	<path class="st9" d="M282,149.7c0.8-0.6,1.8-0.7,2.7-0.4l41.3,14.4c1.6,0.5,3,1.5,4.1,2.7l19,21.1c1.6,1.8,1.5,4.6-0.3,6.3
		l-30.5,28.5c-1.9,1.8-4.9,1.8-6.8,0c-23.2-21.5-53.2-38.2-66.5-45.1L282,149.7z"/>
	<path class="st10" d="M301.7,237.7c-1,0.9-2.5,0.9-3.5,0c-29.7-26.3-55.3-38.9-69.4-44.5c-1.1-0.5-1.7-1.8-1.2-2.9
		c0.2-0.4,0.4-0.7,0.7-1l9.2-6.9c10.2,5.2,45.2,23.7,70,47.2c0.7,0.6,0.7,1.7,0.1,2.4c0,0,0,0-0.1,0.1L301.7,237.7z"/>
	<path class="st9" d="M307.9,246.6c-1-1-1.1-2.6-0.1-3.6c0,0,0.1-0.1,0.1-0.1l46.1-43.1c1.8-1.7,4.6-1.6,6.3,0.2c0,0,0,0,0.1,0.1
		l13.8,15.3l-49,45.1c-1.1,1-2.7,0.9-3.7-0.1C317.1,255.6,312,250.5,307.9,246.6z"/>
	<path class="st9" d="M343.1,285.9c-4.2-5.5-7.8-10.2-12.6-15.7c-0.9-1.1-0.9-2.7,0.2-3.7l49-45.1l14.5,16.1
		c1.7,1.8,1.5,4.7-0.3,6.3l-47,42.5c-1.1,0.9-2.7,0.8-3.6-0.3C343.1,286,343.1,285.9,343.1,285.9z"/>
	<path class="st9" d="M390,368.4c-0.8,0.9-2.2,1-3.1,0.1c-0.3-0.3-0.5-0.7-0.7-1.1c-4-14.2-13.5-39.9-35.4-71
		c-0.8-1.1-0.6-2.5,0.4-3.4l6.9-6.3c0.7-0.6,1.7-0.6,2.3,0.1c0.1,0.1,0.1,0.1,0.1,0.2c6.6,10,27.3,42.8,35.8,74.1L390,368.4z"/>
	<path class="st9" d="M435.6,316.5c0.2,0.9,0,1.9-0.7,2.6l-32.1,35.3c-9.2-30.3-27.7-59.9-34.8-70.7c-1.4-2.1-1-4.8,0.8-6.5
		l30.4-27.5c1.8-1.7,4.6-1.5,6.3,0.3c0,0,0,0,0,0l17.7,19.6c1.1,1.2,1.9,2.7,2.3,4.3L435.6,316.5z"/>
	<path class="st9" d="M531,183.5c-47.5,42.4-86.5,70.2-99.8,79.5c-1.1,0.8-2.7,0.6-3.6-0.4L387.5,218c-0.9-1-0.8-2.5,0.2-3.4
		l63.3-57.8c8.3,7.6,18.9,12.1,30.1,12.6c0.8,0,1.7,0.1,2.5,0.1c10.8,0,21.3-3.7,29.8-10.4l17.8,19.1
		C532.7,179.7,532.6,182,531,183.5C531.1,183.5,531,183.5,531,183.5z"/>
	<path class="st9" d="M585.3,122c-8,14.9-18.3,28.3-30.7,39.8c-4.4,4.2-8.7,8.2-13,12.1c-1,0.9-2.5,0.8-3.4-0.1l-18.8-20.2
		c15.9-17.5,16.7-44,1.9-62.4l20-18.1c0.9-0.8,2.3-0.8,3.1,0.1l40,43C586,117.7,586.3,120.1,585.3,122z"/>
	<path class="st9" d="M591.5,108.9c-0.3,0.7-1.1,1-1.8,0.7c-0.2-0.1-0.3-0.2-0.5-0.3l-38.8-41.6c-0.8-0.9-0.8-2.2,0.1-3c0,0,0,0,0,0
		l29.1-26.4c0.8-0.7,2-0.7,2.8,0.1L599.8,56c1.9,1.9,2.8,4.6,2.6,7.3C601.2,79,597.5,94.4,591.5,108.9z"/>
	<path class="st0" d="M336.9,158.9c19-21.2,57.8-62.4,86-87.8c1.5-1.3,4.1-4.4,7.7-0.3c4.4,4.9,9.1,10.2,9.1,10.2
		s-44.4,36.9-70.6,65.5c-4.2,4.6-11.9,16.5-6.2,29.1c5.7,12.6,16.1,33.1,16.1,33.1s-31.1-34.3-41-45.4
		C336.9,162,335.8,160,336.9,158.9z"/>
	<path class="st11" d="M431,263.4c23-16.7,70.4-52.6,98.6-78.1c1.4-1.3,4.8-3.8,1.1-7.8c-4.4-4.8-9.2-9.8-9.2-9.8
		s-43.6,41.7-74.8,64.8c-5,3.7-17.6,10.2-29.6,3.2c-12-6.9-29.2-17.3-29.2-17.3s28.9,32.4,38.9,43.4
		C427.9,263,429.8,264.3,431,263.4z"/>
	<ellipse transform="matrix(0.9887 -0.1498 0.1498 0.9887 2.7766 81.0931)" class="st0" cx="539.7" cy="22.1" rx="18.3" ry="7.5"/>
	
		<ellipse transform="matrix(0.9295 -0.3688 0.3688 0.9295 18.1175 180.6414)" class="st0" cx="481.6" cy="42.9" rx="18.3" ry="7.5"/>
	<path class="st0" d="M333,170c-1.5-3.2-4.3-5.6-7.7-6.7c-5.9-2-40.3-14-40.3-14s-1.8-0.8-4.3,1l-35.9,26.7l12.7,7
		c0,0,16-15.2,29.6-17.1C300.7,165.2,310.5,163.5,333,170z"/>
	<path class="st11" d="M421.2,267.3c2.1,1.6,3.5,3.8,4.3,6.4c1.6,6,10.2,42.5,10.2,42.5s0.6,1.7-1.6,4.1l-31.3,34.2l-5-14.4
		c0,0,17.3-14.6,20.4-28C421.3,298.7,425.5,290.3,421.2,267.3z"/>
	<circle class="st5" cx="521.4" cy="69.7" r="3.1"/>
	<circle class="st5" cx="535.1" cy="88.4" r="3.1"/>
	<circle class="st5" cx="566.3" cy="62.9" r="3.1"/>
	<circle class="st5" cx="576.7" cy="53.2" r="3.1"/>
	<circle class="st5" cx="550.1" cy="42.7" r="3.1"/>
	<circle class="st5" cx="560.5" cy="33" r="3.1"/>
	
		<linearGradient id="SVGID_00000084519806048372463940000011606508635751740315_" gradientUnits="userSpaceOnUse" x1="511.319" y1="465.8056" x2="517.5189" y2="465.8056" gradientTransform="matrix(1 0 0 -1 0 642)">
		<stop  offset="4.000000e-02" style="stop-color:#1F1143"/>
		<stop  offset="0.96" style="stop-color:#15103A"/>
	</linearGradient>
	<circle style="fill:url(#SVGID_00000084519806048372463940000011606508635751740315_);" cx="514.4" cy="176.2" r="3.1"/>
	<circle class="st5" cx="430.2" cy="86.8" r="3.1"/>
	<circle class="st5" cx="451.4" cy="65.7" r="3.1"/>
	
		<ellipse transform="matrix(0.3827 -0.9239 0.9239 0.3827 87.3065 516.0751)" class="st5" cx="429.8" cy="192.7" rx="3.1" ry="3.1"/>
	<circle class="st5" cx="446.9" cy="178.7" r="3.1"/>
	<circle class="st5" cx="413.1" cy="207.5" r="3.1"/>
	<circle class="st5" cx="407.2" cy="165.5" r="3.1"/>
	<circle class="st5" cx="424.3" cy="151.5" r="3.1"/>
	<circle class="st5" cx="390.5" cy="180.3" r="3.1"/>
	<circle class="st5" cx="350.7" cy="224" r="3.1"/>
	<circle class="st5" cx="334" cy="238.8" r="3.1"/>
	<circle class="st5" cx="368.6" cy="245.3" r="3.1"/>
	<circle class="st5" cx="351.9" cy="260" r="3.1"/>
	<circle class="st5" cx="384.3" cy="287.6" r="3.1"/>
	<circle class="st5" cx="395.1" cy="305.4" r="3.1"/>
	<circle class="st5" cx="403.8" cy="327.1" r="3.1"/>
	<circle class="st5" cx="313.3" cy="205.2" r="3.1"/>
	<circle class="st5" cx="295.4" cy="189.5" r="3.1"/>
	<circle class="st5" cx="274.3" cy="177" r="3.1"/>
	<path class="st11" d="M574.6,105.5l9.9,10.6c0,0,2.6,2.1,0.6,6.6c-2.7,6.1-16.7,26.6-30.5,39.1l-13,12.1c-1,0.8-2.5,0.7-3.4-0.1
		c-1.9-1.5-10.6-10.9-10.6-10.9s26.4-26.4,33.7-36.6C568.8,116,569,115.6,574.6,105.5z"/>
	<path class="st11" d="M578.7,98c0,0,10.5-22.8,8-55L599.8,56c0,0,2.7,1.5,2.9,7.3c0.2,5.5-4.6,31.4-11.3,45.8
		c-0.4,0.7-1.3,0.9-2,0.5c-0.2-0.1-0.3-0.2-0.4-0.4C584,104.1,578.7,98,578.7,98z"/>
</g>
</svg>
