<svg id="Layer_1" data-name="Layer 1" xmlns="http://www.w3.org/2000/svg" xmlns:xlink="http://www.w3.org/1999/xlink" viewBox="0 0 708.08 639.35"><defs><style>.cls-1{fill:#4d3c8b;}.cls-2{fill:#a5def8;}.cls-3{fill:url(#New_Gradient_Swatch_1);}.cls-4{fill:#fff;}.cls-5{fill:#fad779;}.cls-6{fill:#f27a51;}.cls-7{fill:#1b72a2;}.cls-8{fill:url(#New_Gradient_Swatch_1-2);}.cls-9{fill:#a6ddf8;}.cls-10{fill:url(#New_Gradient_Swatch_1-3);}.cls-11{fill:#42bbe0;}.cls-12{fill:#d8eff7;}.cls-13{fill:#00a2c5;}.cls-14{fill:url(#New_Gradient_Swatch_1-4);}</style><linearGradient id="New_Gradient_Swatch_1" x1="517.75" y1="130.45" x2="622.18" y2="130.45" gradientUnits="userSpaceOnUse"><stop offset="0.04" stop-color="#1f1143"/><stop offset="0.96" stop-color="#15103a"/></linearGradient><linearGradient id="New_Gradient_Swatch_1-2" x1="535.3" y1="130.15" x2="604.94" y2="130.15" xlink:href="#New_Gradient_Swatch_1"/><linearGradient id="New_Gradient_Swatch_1-3" x1="278.76" y1="206.17" x2="708.08" y2="206.17" xlink:href="#New_Gradient_Swatch_1"/><linearGradient id="New_Gradient_Swatch_1-4" x1="600.11" y1="189.61" x2="606.82" y2="189.61" xlink:href="#New_Gradient_Swatch_1"/></defs><path class="cls-1" d="M555.58,137.38A22.87,22.87,0,0,0,537.66,134c-14.55,3.27-25.31,17.91-34,28.93-9.55,12.06-32.76-2.45-46.35,5.07-18.12,10-36.95,37.81-56.56,34.77-17.33-2.69-35.61,5.37-51.72,13.35-24.77,12.26-38.41,34.84-40.59,62s-4.66,58.12-26.27,75.54c-13,10.48-33.49,12.22-49.66,10.47s-19.63-.65-39.66-4.3c-37.5-6.84-71.26-23.39-110.46-10.33-31.8,10.6-41.3,46.29-36.27,75.28,4.62,26.64,17.64,51.15,18.06,78.73.54,34.83-12.68,73.66-44,93.65C12.74,601.84,6.06,606.58,0,611.32v26.6s33.05,16.53,81.59-63,84.7-148.73,153.89-168.35c0,0-30.12,65.59-12.39,119.58a51.4,51.4,0,0,1,10.54-9.45c20.74-13.85,47.73-9.18,70.75-2,24.68,7.69,53.54,19.18,79.59,7.12,44.73-20.71,38.47-85.21,42.29-124.65,3.46-35.81,35.34-69.35,61.11-96.54,25.39-26.8,28.23-17.11,46.49-49.05C548.39,226.15,582.35,154.71,555.58,137.38Z"/><circle class="cls-2" cx="569.96" cy="130.45" r="47.85" transform="translate(-13.77 96.83) rotate(-9.59)"/><path class="cls-3" d="M570,182.67c-.91,0-1.82,0-2.73-.07a52.1,52.1,0,1,1,2.73.07ZM569.91,87a43.68,43.68,0,1,0,2.27.06C571.42,87,570.67,87,569.91,87Z"/><path class="cls-4" d="M650,177.27c-76.14,71.85-139.33,113.41-139.33,113.41l11.82,49.73a7.48,7.48,0,0,1-1.75,6.77L465.81,407.4a1.8,1.8,0,0,1-3.09-.84C460,393.44,447.16,345.29,395.45,288s-98.29-75-111.08-79a1.8,1.8,0,0,1-.52-3.16l65.5-48.47a7.47,7.47,0,0,1,6.91-1.05l48.27,16.82s47.78-58.63,127-127.06C586.42-1.31,645.93,1.57,677.16,7.74A32.15,32.15,0,0,1,703,36.32C705.92,68,702.71,127.5,650,177.27Z"/><path class="cls-5" d="M416.25,331.57c-73.67,66.81-116.48,67.32-131.95,64.2a10.57,10.57,0,0,1-8.2-9.35c-1.61-16,3.25-58.44,75.68-125.31a2.34,2.34,0,0,1,3.31.13l61.32,67A2.34,2.34,0,0,1,416.25,331.57Z"/><path class="cls-6" d="M295.8,401.19a60.17,60.17,0,0,1-12.36-1.14,15.32,15.32,0,0,1-7.79-4.47,15.09,15.09,0,0,1-3.89-8.72c-2-19.77,5.4-62.79,77.06-129a6.9,6.9,0,0,1,4.84-1.77,6.67,6.67,0,0,1,4.65,2.17A362.38,362.38,0,0,1,390.09,288c10.47,11.15,29.54,37.33,29.54,37.33a6.72,6.72,0,0,1-.45,9.49h0C396.2,355.63,341.1,400.89,295.8,401.19Zm57.45-135.51c-70,65.17-74.27,105.8-72.81,120.31a6.43,6.43,0,0,0,1.65,3.71,6.26,6.26,0,0,0,3.24,1.84c14.14,2.85,55,2.51,126.49-61.85Z"/><path class="cls-4" d="M403,314.5c-41.84,37.94-66.16,38.23-74.95,36.46a6,6,0,0,1-3.08-1.78,6.17,6.17,0,0,1-1.57-3.53c-.91-9.1,1.85-33.19,43-71.17a1.33,1.33,0,0,1,1.88.07l34.83,38.06A1.34,1.34,0,0,1,403,314.5Z"/><path class="cls-6" d="M333.49,356.24a35.55,35.55,0,0,1-7.26-.66,10.63,10.63,0,0,1-5.44-3.12,10.36,10.36,0,0,1-2.69-6c-1.17-11.57,3.06-36.68,44.36-74.81a5.81,5.81,0,0,1,4.09-1.51,5.62,5.62,0,0,1,4,1.84L405.34,310a5.7,5.7,0,0,1-.38,8.06C370.37,349.44,347,356.15,333.49,356.24ZM367,279.4c-37.83,35.67-41,58.29-40.23,66.16a1.71,1.71,0,0,0,.46,1,1.79,1.79,0,0,0,.89.49c7.59,1.53,30.55.62,69.65-34.1,0,0-7.54-10.45-14.36-17.91C376.79,287.82,367,279.4,367,279.4Zm31.91,36.5Zm.2-4.3h0ZM368.38,278h0Z"/><circle class="cls-2" cx="570.12" cy="130.16" r="47.85" transform="translate(-13.72 96.85) rotate(-9.59)"/><circle class="cls-7" cx="570.12" cy="130.16" r="30.46" transform="translate(-13.72 96.85) rotate(-9.59)"/><path class="cls-8" d="M570.14,165a34.81,34.81,0,1,1,23.31-9A34.73,34.73,0,0,1,570.14,165Zm0-60.89a26.1,26.1,0,1,0,19.38,8.6A26,26,0,0,0,570.11,104.07Z"/><ellipse class="cls-9" cx="567.66" cy="116.89" rx="11.91" ry="6.45" transform="translate(-10.97 149.94) rotate(-14.9)"/><path class="cls-9" d="M574.82,146.17a19.58,19.58,0,0,1-19.56-5.08,17.34,17.34,0,0,0,33.19-9.85A19.6,19.6,0,0,1,574.82,146.17Z"/><path class="cls-9" d="M698.6,36.68c.39,4.13.66,8.78.73,13.84L658.42,9.41A171.6,171.6,0,0,1,676.3,12,27.61,27.61,0,0,1,698.6,36.68Z"/><path class="cls-10" d="M707.3,35.91A36.29,36.29,0,0,0,678,3.47c-31.55-6.24-92.88-9.42-149.33,39.34-69.74,60.24-115.75,113.58-125.56,125.25L357.7,152.23a11.85,11.85,0,0,0-10.95,1.66l-65.49,48.47a6.16,6.16,0,0,0,1.81,10.83c12.75,4,58.32,21.45,109.15,77.75s63.54,103.4,66.23,116.49a6.14,6.14,0,0,0,4.39,4.7,6.24,6.24,0,0,0,1.65.22,6.13,6.13,0,0,0,4.55-2l54.88-60.21a11.84,11.84,0,0,0,2.77-10.72l-11.12-46.79C528.17,284,585.92,243.69,653,180.44,707.2,129.25,710.29,67.92,707.3,35.91ZM593.17,16.22a164,164,0,0,1,48.2-7.49,9.74,9.74,0,0,1,6.93,2.9l19.49,19.59a2.18,2.18,0,0,1-.08,3.15L636.57,62.59a2.31,2.31,0,0,1-3.25-.14l-40.8-43.78A1.5,1.5,0,0,1,593.17,16.22ZM517.64,64.14q8.11-7.28,16.74-14.73a168.3,168.3,0,0,1,44-27.73,5.59,5.59,0,0,1,6.26,1.37l42.06,45.13a2.42,2.42,0,0,1-.14,3.44L604.93,91.26a52,52,0,0,0-67.68-1.59L517.46,67.84A2.6,2.6,0,0,1,517.64,64.14Zm95.92,68.23a43.49,43.49,0,1,1-43.49-45.71c.75,0,1.51,0,2.27.06a43.5,43.5,0,0,1,41.22,45.65ZM412,171.08C423.12,158,456.63,120,506.25,74.47a4,4,0,0,1,5.67.25l19,21a52.23,52.23,0,0,0-2,66.51l-68.48,62.52a2.6,2.6,0,0,1-3.7-.18L412.05,175A3,3,0,0,1,412,171.08Zm-60-10.18a3.12,3.12,0,0,1,2.89-.44L399.47,176a10.74,10.74,0,0,1,4.4,2.92l20.59,22.81a4.84,4.84,0,0,1-.28,6.78l-33,30.89a5.45,5.45,0,0,1-7.42,0c-25.1-23.22-57.62-41.35-71.95-48.78Zm21.35,95.24a2.79,2.79,0,0,1-3.75,0C337.4,227.72,309.69,214,294.47,208a2.41,2.41,0,0,1-.53-4.18l10-7.42c11.06,5.59,48.9,25.65,75.72,51.13a1.8,1.8,0,0,1,0,2.63Zm6.71,9.68a2.8,2.8,0,0,1,0-4.06l49.86-46.64a4.84,4.84,0,0,1,6.9.29L451.74,232l-53,48.79a2.89,2.89,0,0,1-4.05-.13C389.93,275.57,384.4,270,380,265.82Zm38,42.5c-4.57-6-8.47-11-13.68-17a2.9,2.9,0,0,1,.2-4l53-48.82,15.72,17.42a4.85,4.85,0,0,1-.34,6.84l-50.84,46A2.81,2.81,0,0,1,418,308.32Zm50.84,89.26a2.41,2.41,0,0,1-4.11-.95c-4.32-15.33-14.65-43.18-38.27-76.81a2.78,2.78,0,0,1,.39-3.66l7.47-6.77a1.8,1.8,0,0,1,2.7.33c7.16,10.8,29.59,46.3,38.76,80.24Zm49.34-56.16a3.12,3.12,0,0,1-.73,2.82L482.7,382.4c-10-32.78-30-64.86-37.7-76.48a5.39,5.39,0,0,1,.9-7l32.9-29.78a4.85,4.85,0,0,1,6.85.34l19.17,21.24a10.53,10.53,0,0,1,2.45,4.67Zm103.22-143.9c-51.37,45.86-93.64,76.06-108,86a3,3,0,0,1-3.88-.46L466.14,234.9a2.61,2.61,0,0,1,.18-3.69l68.52-62.57a51.78,51.78,0,0,0,32.62,13.66c.91,0,1.82.07,2.72.07a51.69,51.69,0,0,0,32.24-11.25l19.29,20.68A4,4,0,0,1,621.43,197.52ZM680.19,131A167.75,167.75,0,0,1,647,174.1q-7.14,6.74-14.11,13.09a2.6,2.6,0,0,1-3.67-.15l-20.37-21.83a52.08,52.08,0,0,0,2.07-67.58L632.59,78a2.42,2.42,0,0,1,3.4.14l43.32,46.49A5.57,5.57,0,0,1,680.19,131Zm6.7-14.19a1.51,1.51,0,0,1-2.49.45l-42-45.05a2.31,2.31,0,0,1,.14-3.29L674,40.41a2.19,2.19,0,0,1,3,.08l18.9,19a9.9,9.9,0,0,1,2.83,7.85A165.23,165.23,0,0,1,686.89,116.81ZM658.44,9.46A174.93,174.93,0,0,1,676.32,12a27.65,27.65,0,0,1,22.3,24.7c.38,4.13.66,8.79.72,13.85Z"/><path class="cls-11" d="M593.12,16.24a164,164,0,0,1,48.2-7.49,9.72,9.72,0,0,1,6.93,2.9l19.49,19.59a2.18,2.18,0,0,1-.08,3.15L636.52,62.61a2.3,2.3,0,0,1-3.24-.14L592.47,18.69A1.51,1.51,0,0,1,593.12,16.24Z"/><path class="cls-11" d="M517.64,64.14q8.11-7.29,16.74-14.74a168.35,168.35,0,0,1,44-27.72,5.58,5.58,0,0,1,6.26,1.37l42.06,45.12a2.43,2.43,0,0,1-.15,3.45L604.93,91.25a52.08,52.08,0,0,0-67.68-1.59L517.46,67.84A2.6,2.6,0,0,1,517.64,64.14Z"/><path class="cls-11" d="M412,171.08C423.13,158,456.63,120,506.25,74.47a4,4,0,0,1,5.68.25l19,21a52.26,52.26,0,0,0-2,66.51L460.5,224.71a2.62,2.62,0,0,1-3.71-.18L412.05,175A3,3,0,0,1,412,171.08Z"/><path class="cls-11" d="M351.9,160.92a3.12,3.12,0,0,1,2.88-.44l44.65,15.57a10.61,10.61,0,0,1,4.4,2.92l20.59,22.8a4.84,4.84,0,0,1-.29,6.78l-33,30.89a5.43,5.43,0,0,1-7.41,0c-25.1-23.22-57.63-41.34-71.95-48.78Z"/><path class="cls-12" d="M373.24,256.16a2.78,2.78,0,0,1-3.74,0c-32.14-28.45-59.86-42.13-75.08-48.16a2.41,2.41,0,0,1-.53-4.18l10-7.42c11.07,5.59,48.9,25.65,75.73,51.13a1.82,1.82,0,0,1,0,2.63Z"/><path class="cls-11" d="M380,265.84a2.79,2.79,0,0,1,0-4.06l49.85-46.64a4.84,4.84,0,0,1,6.9.29L451.7,232l-53,48.79a2.87,2.87,0,0,1-4-.13C389.88,275.59,384.36,270.06,380,265.84Z"/><path class="cls-11" d="M418,308.34c-4.57-6-8.48-11-13.69-17a2.89,2.89,0,0,1,.21-4l53-48.81,15.73,17.41a4.85,4.85,0,0,1-.35,6.84l-50.84,46A2.79,2.79,0,0,1,418,308.34Z"/><path class="cls-11" d="M468.82,397.6a2.41,2.41,0,0,1-4.11-1c-4.32-15.33-14.65-43.18-38.27-76.8a2.79,2.79,0,0,1,.39-3.67l7.48-6.77a1.79,1.79,0,0,1,2.69.33c7.16,10.8,29.59,46.3,38.76,80.24Z"/><path class="cls-11" d="M518.16,341.44a3.1,3.1,0,0,1-.73,2.82l-34.78,38.17c-10-32.79-30-64.87-37.69-76.49a5.37,5.37,0,0,1,.89-7l32.91-29.78a4.83,4.83,0,0,1,6.84.35l19.17,21.23a10.65,10.65,0,0,1,2.46,4.67Z"/><path class="cls-11" d="M621.43,197.53c-51.38,45.85-93.64,76-108,86a3,3,0,0,1-3.88-.46L466.13,234.9a2.63,2.63,0,0,1,.18-3.69l68.53-62.57a51.78,51.78,0,0,0,32.62,13.66c.91,0,1.82.08,2.72.08a51.77,51.77,0,0,0,32.24-11.25L621.7,191.8A4,4,0,0,1,621.43,197.53Z"/><path class="cls-11" d="M680.19,131A167.75,167.75,0,0,1,647,174.1q-7.14,6.74-14.1,13.09a2.62,2.62,0,0,1-3.68-.15l-20.36-21.83a52.1,52.1,0,0,0,2.06-67.58L632.59,78a2.42,2.42,0,0,1,3.4.14l43.33,46.49A5.58,5.58,0,0,1,680.19,131Z"/><path class="cls-11" d="M686.84,116.83a1.5,1.5,0,0,1-2.48.45l-42-45a2.32,2.32,0,0,1,.14-3.29L674,40.43a2.18,2.18,0,0,1,3,.08l18.91,19a9.94,9.94,0,0,1,2.83,7.85A165,165,0,0,1,686.84,116.83Z"/><path class="cls-2" d="M411.31,170.87c20.52-22.93,62.57-67.51,93.13-95,1.57-1.4,4.42-4.73,8.34-.35,4.72,5.27,9.81,11.05,9.81,11.05s-48,39.95-76.36,70.93c-4.53,4.95-12.88,17.84-6.74,31.53s17.4,35.77,17.4,35.77-33.68-37.11-44.34-49.09C411.31,174.29,410.19,172.12,411.31,170.87Z"/><path class="cls-13" d="M513.23,284c24.9-18.07,76.18-56.92,106.67-84.51,1.56-1.41,5.17-4.08,1.22-8.42-4.77-5.23-10-10.61-10-10.61s-47.23,45.08-81,70.16c-5.39,4-19.07,11-32.06,3.49s-31.64-18.76-31.64-18.76,31.31,35.1,42.14,46.93C509.83,283.6,511.87,284.93,513.23,284Z"/><ellipse class="cls-2" cx="630.22" cy="25.28" rx="19.81" ry="8.13" transform="matrix(0.99, -0.15, 0.15, 0.99, 3.07, 92.36)"/><ellipse class="cls-2" cx="567.99" cy="45.37" rx="19.81" ry="8.13" transform="translate(23.3 212.66) rotate(-21.64)"/><path class="cls-2" d="M407.15,182.89a13.92,13.92,0,0,0-8.33-7.24c-6.36-2.19-43.63-15.13-43.63-15.13s-2-.87-4.61,1.1l-38.81,28.94,13.74,7.6s17.31-16.49,32-18.47S382.81,175.87,407.15,182.89Z"/><path class="cls-13" d="M502.55,288.22a13.48,13.48,0,0,1,4.61,6.89c1.73,6.5,11.09,46,11.09,46s.66,1.83-1.7,4.4l-33.89,37-5.46-15.59s18.73-15.83,22.11-30.26S507.18,313.12,502.55,288.22Z"/><circle class="cls-7" cx="611.01" cy="74.36" r="3.36"/><circle class="cls-7" cx="625.81" cy="94.54" r="3.36"/><circle class="cls-7" cx="659.6" cy="66.96" r="3.36"/><circle class="cls-7" cx="670.87" cy="56.54" r="3.36"/><circle class="cls-7" cx="642.11" cy="45.1" r="3.36"/><circle class="cls-7" cx="653.38" cy="34.68" r="3.36"/><circle class="cls-14" cx="603.46" cy="189.61" r="3.36"/><circle class="cls-7" cx="512.31" cy="92.83" r="3.36"/><circle class="cls-7" cx="535.3" cy="69.97" r="3.36"/><circle class="cls-7" cx="511.92" cy="207.48" r="3.36"/><circle class="cls-7" cx="530.4" cy="192.28" r="3.36"/><circle class="cls-7" cx="493.86" cy="223.47" r="3.36"/><circle class="cls-7" cx="487.42" cy="178.08" r="3.36"/><circle class="cls-7" cx="505.89" cy="162.88" r="3.36"/><circle class="cls-7" cx="469.36" cy="194.06" r="3.36"/><circle class="cls-7" cx="426.29" cy="241.34" r="3.36"/><circle class="cls-7" cx="408.23" cy="257.32" r="3.36"/><circle class="cls-7" cx="445.64" cy="264.38" r="3.36"/><circle class="cls-7" cx="427.58" cy="280.36" r="3.36"/><circle class="cls-7" cx="462.65" cy="310.13" r="3.36"/><circle class="cls-7" cx="474.38" cy="329.48" r="3.36"/><circle class="cls-7" cx="483.77" cy="352.95" r="3.36"/><circle class="cls-7" cx="385.81" cy="220.97" r="3.36"/><circle class="cls-7" cx="366.46" cy="203.96" r="3.36"/><circle class="cls-7" cx="343.58" cy="190.47" r="3.36"/><path class="cls-13" d="M668.58,113.13l10.74,11.46s2.86,2.23.65,7.16c-2.94,6.55-18.1,28.78-33,42.35l-14.1,13.09a2.83,2.83,0,0,1-3.68-.15c-2.08-1.6-11.5-11.76-11.5-11.76s28.56-28.61,36.51-39.58C662.32,124.48,662.53,124,668.58,113.13Z"/><path class="cls-13" d="M673,105s11.36-24.63,8.68-59.49l14.24,14s2.93,1.64,3.12,7.93c.18,5.91-4.93,34-12.22,49.54a1.56,1.56,0,0,1-2.61.13C678.73,111.58,673,105,673,105Z"/></svg>