<svg xmlns="http://www.w3.org/2000/svg" xmlns:xlink="http://www.w3.org/1999/xlink" x="0" y="0" version="1.1" viewBox="0 0 1600 960" xml:space="preserve" style="enable-background:new 0 0 1600 960"><style type="text/css">.st0{fill:#170f35}.st1{opacity:.27}.st2{fill:#3f3482}.st3{opacity:.41}.st4{fill:#fff}.st5{fill:#ee498d}.st6{fill:#6456a3}.st7{fill:#4d3c8b}.st8{fill:#6d62ab}.st9{fill:#31225b}.st10{fill:#675761}.st11{fill:#a48a71}.st12{fill:#fad779}.st13{fill:#f27a51}.st14{fill:#e06e4a}.st15{fill:#f5b572}</style><g id="space"><g><path d="M121.1,289.8c0,0,283.5-392.3,678.4-179.2s659.3-61.8,758,207S1290,981.7,786.8,953.9 C283.5,926.1-143.7,690.5,121.1,289.8z" class="st0"/><g class="st1"><path d="M169.8,662.2c29.9-9.3,54.9-26.8,87.5-36.3c32.6-9.5,78.4-7.8,94.7,10.7c14.5,16.4-1,37.5-22.2,52 c-21.2,14.5-48.5,26.4-63.7,43.3c-10.8,12-21.1,33.1-5.6,61.8c0,0,29.9,46.8,63.2,59c55.3,20.2,235.9,22.1,414.1-29.2 c118.7-34.2,142.8-43.2,211.5-68.4c44.9-16.5,102-45,153.7-69.6c75.4-35.9,92.8-138.5,37-197.6c-51.7-54.8-304.6-90.5-411.4-96.4 c-55.9-3.1-122-6.8-147.9-35.8c-27.7-31,12-71,63.1-90.9c87.8-34.2,211.6-29.3,286.2,11.2c32.5,17.6,55.3,40.6,84.3,60.3 c28.9,19.7,67.4,37,112.3,37.4c52.7,0.5,98.4-21.8,143.5-39.1c45.2-17.2,106.7-29.9,147.8-11.3c63.9,29,11.2,97.3,58.2,136.1 c21,17.4,52.4,25.1,89.1,24c0,0,7.3-30.3,8.4-51.7c1.2-24.7-1.3-50.7-1.3-50.7c-4.2,0.1-9.6,0.5-13.7,0.3 c-55.1-2.3-81.2-32.1-84.4-61c-3.1-28.9,9-60.1-3.4-87.4c-7.1-15.8-24.3-28.5-46.3-38.8c0,0-44.7-6.6-79.8-4.2 c-113.2,7.7-178.2,9.2-178.2,9.2c-27.7,7-55.2,10.7-83.8,14.7c-91.4,12.6-172.5-5.4-258-14.3L663.3,201 c-81.6,11.9-161.1,40.2-214.1,77.9c-25.3,18-45,38.3-49.8,58.7c-4.8,20.3,7.3,40.4,36.8,50.3c26.4,8.8,62.4,8.7,95,11.5 c102.6,8.8,179.3,51.3,191,105.7c11.7,54.4-42.2,118.4-134.1,159.1c-16.7,7.4-36.3,14.4-55.9,14.6c-42.7,0.4-48.9-29.4-35.5-52.1 c13.4-22.6,35.6-48.6,14.6-65.8c-25.5-20.9-94.1-11.5-142.6,4.7c-48.4,16.2-96.8,38.4-149.1,39.9c-59.4,1.7-133.2-69.8-179.4-85 c0,0-4,34.1,12.8,83.8c14.8,43.8,37,76,37,76C123.7,673.6,146.6,669.4,169.8,662.2z" class="st2"/></g><g class="st3"><path d="M371.9,493.9c1.2,0.9,2.9,0.7,3.8-0.5c0.9-1.2,0.7-2.8-0.5-3.7c-1.2-0.9-2.9-0.7-3.8,0.5 C370.5,491.4,370.7,493,371.9,493.9z" class="st4"/><path d="M799.9,521.7c1.2,0.9,2.8,0.7,3.7-0.5c0.9-1.1,0.7-2.8-0.5-3.6c-1.2-0.9-2.8-0.7-3.7,0.5 C798.5,519.2,798.7,520.9,799.9,521.7z" class="st4"/><path d="M146.2,386.6c1.2,0.9,2.8,0.7,3.7-0.5c0.9-1.1,0.7-2.8-0.5-3.6c-1.2-0.9-2.8-0.7-3.7,0.5 C144.8,384.1,145,385.8,146.2,386.6z" class="st4"/><path d="M481.9,634c1.2,0.9,2.8,0.7,3.7-0.5c0.9-1.1,0.7-2.8-0.5-3.6c-1.2-0.9-2.8-0.7-3.7,0.5 C480.6,631.5,480.8,633.2,481.9,634z" class="st4"/><path d="M1461.1,300.8c0.8,0.6,1.8,0.4,2.4-0.3c0.6-0.7,0.4-1.8-0.3-2.3c-0.8-0.6-1.8-0.4-2.4,0.3 C1460.2,299.2,1460.4,300.2,1461.1,300.8z" class="st4"/><path d="M349.6,245.7c0.8,0.6,1.8,0.4,2.4-0.3c0.6-0.7,0.4-1.8-0.3-2.3c-0.8-0.6-1.8-0.4-2.4,0.3 C348.7,244.1,348.8,245.2,349.6,245.7z" class="st4"/><path d="M1526.3,373c0.8,0.6,1.8,0.4,2.4-0.3c0.6-0.7,0.4-1.8-0.3-2.3c-0.8-0.6-1.8-0.4-2.4,0.3 C1525.4,371.4,1525.6,372.5,1526.3,373z" class="st4"/><path d="M1235.3,303c0.8,0.6,1.8,0.4,2.4-0.3c0.6-0.7,0.4-1.8-0.3-2.3s-1.8-0.4-2.4,0.3 C1234.4,301.4,1234.6,302.4,1235.3,303z" class="st4"/><path d="M333.1,670.7c0.8,0.6,1.8,0.4,2.4-0.3c0.6-0.7,0.4-1.8-0.3-2.3c-0.8-0.6-1.8-0.4-2.4,0.3 C332.2,669.1,332.3,670.2,333.1,670.7z" class="st4"/><path d="M1177,270.9c-0.7,0.6-0.7,1.7,0,2.4c0.7,0.7,1.8,0.7,2.4,0c0.7-0.6,0.7-1.7,0-2.4 C1178.8,270.3,1177.7,270.3,1177,270.9z" class="st4"/><path d="M837.5,592.4c-0.7,0.6-0.7,1.7,0,2.4c0.7,0.7,1.8,0.7,2.4,0c0.7-0.6,0.7-1.7,0-2.4 C839.3,591.7,838.2,591.7,837.5,592.4z" class="st4"/><path d="M617.6,558.7c-0.4,0.4-0.4,1,0,1.4c0.4,0.4,1,0.4,1.4,0c0.4-0.4,0.4-1,0-1.4 C618.7,558.4,618,558.4,617.6,558.7z" class="st4"/><path d="M978.7,213.5c-0.4,0.4-0.4,1,0,1.4c0.4,0.4,1,0.4,1.4,0c0.4-0.4,0.4-1,0-1.4S979.1,213.1,978.7,213.5z" class="st4"/><path d="M1242.3,332.3c-0.7,0.6-0.7,1.7,0,2.4c0.7,0.7,1.8,0.7,2.4,0c0.7-0.6,0.7-1.7,0-2.4 C1244.1,331.6,1243,331.6,1242.3,332.3z" class="st4"/><path d="M696.2,348.9c-0.7,0.6-0.7,1.7,0,2.4c0.7,0.7,1.8,0.7,2.4,0c0.7-0.6,0.7-1.7,0-2.4 C698,348.3,696.9,348.3,696.2,348.9z" class="st4"/><path d="M1078.8,305.8c-0.7,0.6-0.7,1.7,0,2.4c0.7,0.7,1.8,0.7,2.4,0c0.7-0.6,0.7-1.7,0-2.4 C1080.5,305.2,1079.4,305.2,1078.8,305.8z" class="st4"/><path d="M1027.1,427.3c-0.7,0.6-0.7,1.7,0,2.4c0.7,0.7,1.8,0.7,2.4,0c0.7-0.6,0.7-1.7,0-2.4 C1028.9,426.7,1027.8,426.7,1027.1,427.3z" class="st4"/><path d="M1201.6,615.7c-0.4,0.4-0.4,1.1,0,1.5c0.4,0.4,1.1,0.4,1.6,0c0.4-0.4,0.4-1.1,0-1.5 C1202.8,615.3,1202,615.3,1201.6,615.7z" class="st4"/><path d="M1256.8,535.5c-0.4,0.4-0.4,1.1,0,1.5c0.4,0.4,1.1,0.4,1.6,0c0.4-0.4,0.4-1.1,0-1.5 C1258,535.1,1257.2,535.1,1256.8,535.5z" class="st4"/><path d="M989.6,273.6c-0.4,0.4-0.4,1.1,0,1.5c0.4,0.4,1.1,0.4,1.6,0c0.4-0.4,0.4-1.1,0-1.5 C990.8,273.1,990.1,273.1,989.6,273.6z" class="st4"/><path d="M929.9,518.1c-0.7,0.6-0.7,1.7,0,2.4c0.7,0.7,1.8,0.7,2.4,0c0.7-0.6,0.7-1.7,0-2.4 C931.7,517.5,930.6,517.5,929.9,518.1z" class="st5"/><path d="M1217.6,721.7c-0.7,0.6-0.7,1.7,0,2.4c0.7,0.7,1.8,0.7,2.4,0c0.7-0.6,0.7-1.7,0-2.4 C1219.3,721,1218.2,721,1217.6,721.7z" class="st4"/><path d="M1128.5,554.3c0.7,0.6,1.8,0.6,2.4-0.1c0.6-0.7,0.6-1.7-0.1-2.4c-0.7-0.6-1.8-0.6-2.4,0.1 C1127.8,552.7,1127.8,553.7,1128.5,554.3z" class="st5"/><path d="M1546.5,436.3c0.7,0.6,1.8,0.6,2.4-0.1c0.6-0.7,0.6-1.7-0.1-2.4c-0.7-0.6-1.8-0.6-2.4,0.1 S1545.8,435.7,1546.5,436.3z" class="st5"/><path d="M273.8,571.6c0.7,0.6,1.8,0.6,2.4-0.1c0.6-0.7,0.6-1.7-0.1-2.4c-0.7-0.6-1.8-0.6-2.4,0.1 C273,569.9,273.1,571,273.8,571.6z" class="st5"/><path d="M618.8,504.5c0.7,0.6,1.8,0.6,2.4-0.1c0.6-0.7,0.6-1.7-0.1-2.4c-0.7-0.6-1.8-0.6-2.4,0.1 C618.1,502.8,618.1,503.9,618.8,504.5z" class="st5"/><path d="M707.5,459.6c0.7,0.6,1.8,0.6,2.4-0.1s0.6-1.7-0.1-2.4c-0.7-0.6-1.8-0.6-2.4,0.1 C706.7,457.9,706.8,459,707.5,459.6z" class="st4"/><path d="M382.3,383c1.1,1,2.8,0.9,3.9-0.1c1-1.1,1-2.7-0.1-3.7c-1.1-1-2.8-0.9-3.9,0.1 C381.1,380.3,381.2,382,382.3,383z" class="st5"/><path d="M331.4,715c1.1,1,2.7,0.9,3.7-0.1c1-1,0.9-2.6-0.1-3.6c-1.1-1-2.7-0.9-3.7,0.1 C330.3,712.4,330.4,714,331.4,715z" class="st4"/><path d="M220.5,453.8c0.7,0.6,1.8,0.6,2.4-0.1c0.6-0.7,0.6-1.7-0.1-2.4c-0.7-0.6-1.8-0.6-2.4,0.1 C219.8,452.1,219.8,453.2,220.5,453.8z" class="st4"/><path d="M1054.2,291.2c0.7,0.6,1.8,0.6,2.4-0.1c0.6-0.7,0.6-1.7-0.1-2.4s-1.8-0.6-2.4,0.1 C1053.5,289.5,1053.5,290.6,1054.2,291.2z" class="st4"/><path d="M823.6,271.7c0.7,0.6,1.8,0.6,2.4-0.1c0.6-0.7,0.6-1.7-0.1-2.4c-0.7-0.6-1.8-0.6-2.4,0.1 C822.8,270,822.9,271,823.6,271.7z" class="st4"/><path d="M231.6,206.8c1,1.1,2.7,1.2,3.9,0.2c1.1-1,1.2-2.7,0.2-3.8c-1-1.1-2.7-1.2-3.9-0.2 C230.7,204,230.6,205.7,231.6,206.8z" class="st4"/><path d="M1224.5,455.5c1.5,1.6,4.1,1.8,5.8,0.3c1.7-1.5,1.8-4,0.3-5.6c-1.5-1.6-4.1-1.8-5.8-0.3 C1223.1,451.4,1223,453.9,1224.5,455.5z" class="st4"/><path d="M1421.5,391.3c1,1.1,2.7,1.2,3.8,0.2c1.1-1,1.2-2.6,0.2-3.7c-1-1.1-2.7-1.2-3.8-0.2 C1420.6,388.6,1420.5,390.2,1421.5,391.3z" class="st4"/><path d="M630,460.1c0.6,0.7,1.7,0.7,2.4,0.1c0.7-0.6,0.8-1.7,0.1-2.3c-0.6-0.7-1.7-0.7-2.4-0.1 C629.4,458.4,629.4,459.4,630,460.1z" class="st4"/><path d="M158.9,727.6c0.6,0.7,1.7,0.7,2.4,0.1c0.7-0.6,0.8-1.7,0.1-2.3c-0.6-0.7-1.7-0.7-2.4-0.1 C158.3,725.9,158.2,726.9,158.9,727.6z" class="st4"/><path d="M449.7,531.4c0.6,0.7,1.7,0.7,2.4,0.1c0.7-0.6,0.8-1.7,0.1-2.3c-0.6-0.7-1.7-0.7-2.4-0.1 C449.1,529.7,449.1,530.7,449.7,531.4z" class="st4"/><path d="M619.1,339c0.6,0.7,1.7,0.7,2.4,0.1c0.7-0.6,0.8-1.7,0.1-2.3c-0.6-0.7-1.7-0.7-2.4-0.1 C618.5,337.3,618.4,338.4,619.1,339z" class="st4"/><path d="M541.4,318.4c0.6,0.7,1.7,0.7,2.4,0.1c0.7-0.6,0.8-1.7,0.1-2.3c-0.6-0.7-1.7-0.7-2.4-0.1 C540.9,316.6,540.8,317.7,541.4,318.4z" class="st4"/><path d="M684.7,620.6c0.8-1.3,0.3-2.9-1-3.6c-1.3-0.7-3-0.3-3.7,1c-0.8,1.3-0.3,2.9,1,3.6 C682.3,622.3,684,621.9,684.7,620.6z" class="st4"/><path d="M1070.1,352.1c1.1-1.9,0.4-4.3-1.5-5.4s-4.5-0.4-5.6,1.5c-1.1,1.9-0.4,4.3,1.5,5.4 C1066.4,354.7,1068.9,354,1070.1,352.1z" class="st4"/><path d="M348.7,524.9c1.1-1.9,0.4-4.3-1.5-5.4c-2-1.1-4.5-0.4-5.6,1.5c-1.1,1.9-0.4,4.3,1.5,5.4 C345.1,527.5,347.6,526.8,348.7,524.9z" class="st4"/><path d="M1281.5,570.3c1.1-1.9,0.4-4.3-1.5-5.4c-2-1.1-4.5-0.4-5.6,1.5c-1.1,1.9-0.4,4.3,1.5,5.4 C1277.9,572.9,1280.4,572.3,1281.5,570.3z" class="st4"/><path d="M1226.9,573c0.7-1.2,0.3-2.8-1-3.5c-1.3-0.7-2.9-0.3-3.6,1c-0.7,1.2-0.3,2.8,1,3.5 C1224.6,574.6,1226.2,574.2,1226.9,573z" class="st4"/><path d="M863.5,269.9c0.7-1.2,0.3-2.8-1-3.5c-1.3-0.7-2.9-0.3-3.6,1c-0.7,1.2-0.3,2.8,1,3.5 C861.1,271.6,862.7,271.2,863.5,269.9z" class="st4"/><path d="M989.7,248c0.7-1.2,0.3-2.8-1-3.5c-1.3-0.7-2.9-0.3-3.6,1c-0.7,1.2-0.3,2.8,1,3.5 C987.3,249.6,988.9,249.2,989.7,248z" class="st4"/><path d="M498.1,355.9c0.7-1.2,0.3-2.8-1-3.5c-1.3-0.7-2.9-0.3-3.6,1c-0.7,1.2-0.3,2.8,1,3.5 C495.7,357.5,497.4,357.1,498.1,355.9z" class="st4"/><path d="M1220.2,635c0.7-1.2,0.3-2.8-1-3.5c-1.3-0.7-2.9-0.3-3.6,1c-0.7,1.2-0.3,2.8,1,3.5 C1217.8,636.6,1219.5,636.2,1220.2,635z" class="st4"/><path d="M555.8,693.4c0.8,0.6,1.8,0.4,2.4-0.3c0.6-0.7,0.4-1.8-0.3-2.3c-0.8-0.6-1.8-0.4-2.4,0.3 C554.9,691.8,555,692.8,555.8,693.4z" class="st5"/><path d="M854.1,412.8c0.8,0.6,1.8,0.4,2.4-0.3c0.6-0.7,0.4-1.8-0.3-2.3c-0.8-0.6-1.8-0.4-2.4,0.3 C853.2,411.2,853.3,412.2,854.1,412.8z" class="st5"/><path d="M1081.5,436.4c-0.8,0.8-0.8,2,0,2.8c0.8,0.8,2.1,0.8,2.9,0c0.8-0.8,0.8-2,0-2.8S1082.3,435.7,1081.5,436.4z" class="st5"/><path d="M1229.5,339.5c-1,1-1.1,2.6,0,3.7c1,1,2.7,1,3.8,0c1-1,1.1-2.6,0-3.7 C1232.2,338.5,1230.5,338.5,1229.5,339.5z" class="st4"/><path d="M1330.6,320.3c-1,1-1.1,2.6,0,3.7c1,1,2.7,1,3.8,0c1-1,1.1-2.6,0-3.7 C1333.3,319.3,1331.6,319.3,1330.6,320.3z" class="st4"/><path d="M395,525.4c1.5,1.6,4.1,1.8,5.8,0.3c1.7-1.5,1.8-4,0.3-5.6c-1.5-1.6-4.1-1.8-5.8-0.3 C393.7,521.3,393.5,523.8,395,525.4z" class="st4"/><path d="M1442.7,474.3c1.5,1.6,4.1,1.8,5.8,0.3c1.7-1.5,1.8-4,0.3-5.6c-1.5-1.6-4.1-1.8-5.8-0.3 C1441.3,470.2,1441.2,472.7,1442.7,474.3z" class="st4"/><path d="M1052.5,699.7c1.5,1.6,4.1,1.8,5.8,0.3c1.7-1.5,1.8-4,0.3-5.6c-1.5-1.6-4.1-1.8-5.8-0.3 C1051.2,695.5,1051,698.1,1052.5,699.7z" class="st4"/><path d="M1028.4,545c1,1.1,2.7,1.2,3.8,0.2c1.1-1,1.2-2.6,0.2-3.7c-1-1.1-2.7-1.2-3.8-0.2 C1027.5,542.3,1027.4,543.9,1028.4,545z" class="st4"/><path d="M709.1,371c1,1.1,2.7,1.2,3.8,0.2c1.1-1,1.2-2.6,0.2-3.7c-1-1.1-2.7-1.2-3.8-0.2 C708.3,368.3,708.2,369.9,709.1,371z" class="st4"/><path d="M300.4,345.2c0.6,0.7,1.7,0.7,2.4,0.1c0.7-0.6,0.8-1.7,0.1-2.3c-0.6-0.7-1.7-0.7-2.4-0.1 C299.8,343.4,299.7,344.5,300.4,345.2z" class="st4"/><path d="M756.9,632.2c0.5-0.8,0.2-1.8-0.6-2.3c-0.8-0.5-1.9-0.2-2.3,0.6c-0.5,0.8-0.2,1.8,0.6,2.3 C755.4,633.2,756.5,633,756.9,632.2z" class="st4"/><path d="M1497.1,294.4c0.5-0.8,0.2-1.8-0.6-2.3c-0.8-0.5-1.9-0.2-2.3,0.6c-0.5,0.8-0.2,1.8,0.6,2.3 C1495.6,295.5,1496.7,295.2,1497.1,294.4z" class="st4"/><path d="M1212.8,610.4c0.5-0.8,0.2-1.8-0.6-2.3c-0.8-0.5-1.9-0.2-2.3,0.6c-0.5,0.8-0.2,1.8,0.6,2.3 C1211.3,611.5,1212.4,611.2,1212.8,610.4z" class="st4"/><path d="M1083.9,710.3c0.3-0.5,0.1-1.2-0.4-1.5c-0.5-0.3-1.2-0.1-1.6,0.4c-0.3,0.5-0.1,1.2,0.4,1.5 C1082.9,711,1083.6,710.8,1083.9,710.3z" class="st4"/><path d="M943.9,591.1c0.5-0.8,0.2-1.8-0.6-2.3c-0.8-0.5-1.9-0.2-2.3,0.6c-0.5,0.8-0.2,1.8,0.6,2.3 C942.4,592.1,943.4,591.9,943.9,591.1z" class="st5"/><path d="M1298.6,461c0.5-0.8,0.2-1.8-0.6-2.3c-0.8-0.5-1.9-0.2-2.3,0.6c-0.5,0.8-0.2,1.8,0.6,2.3 C1297.1,462.1,1298.2,461.8,1298.6,461z" class="st5"/></g><path d="M600.5,779.8c1.2,0.9,2.8,0.7,3.7-0.5c0.9-1.1,0.7-2.8-0.5-3.6c-1.2-0.9-2.8-0.7-3.7,0.5 C599.1,777.3,599.3,778.9,600.5,779.8z" class="st4"/><path d="M638.1,850.4c-0.7,0.6-0.7,1.7,0,2.4c0.7,0.7,1.8,0.7,2.4,0c0.7-0.6,0.7-1.7,0-2.4 C639.9,849.8,638.8,849.7,638.1,850.4z" class="st4"/><path d="M418.2,816.8c-0.4,0.4-0.4,1,0,1.4c0.4,0.4,1,0.4,1.4,0c0.4-0.4,0.4-1,0-1.4 C419.3,816.4,418.6,816.4,418.2,816.8z" class="st4"/><path d="M1057.4,793.5c-0.4,0.4-0.4,1.1,0,1.5c0.4,0.4,1.1,0.4,1.6,0c0.4-0.4,0.4-1.1,0-1.5 C1058.6,793.1,1057.8,793.1,1057.4,793.5z" class="st4"/><path d="M730.5,776.1c-0.7,0.6-0.7,1.7,0,2.4c0.7,0.7,1.8,0.7,2.4,0c0.7-0.6,0.7-1.7,0-2.4 C732.3,775.5,731.2,775.5,730.5,776.1z" class="st5"/><path d="M929.1,812.4c0.7,0.6,1.8,0.6,2.4-0.1c0.6-0.7,0.6-1.7-0.1-2.4c-0.7-0.6-1.8-0.6-2.4,0.1 C928.4,810.7,928.4,811.7,929.1,812.4z" class="st5"/><path d="M419.4,762.5c0.7,0.6,1.8,0.6,2.4-0.1c0.6-0.7,0.6-1.7-0.1-2.4c-0.7-0.6-1.8-0.6-2.4,0.1 C418.7,760.9,418.7,761.9,419.4,762.5z" class="st5"/><path d="M887.9,882.3c1.5,1.6,4.1,1.8,5.8,0.3c1.7-1.5,1.8-4,0.3-5.6c-1.5-1.6-4.1-1.8-5.8-0.3 C886.5,878.2,886.4,880.7,887.9,882.3z" class="st4"/><path d="M485.3,878.6c0.8-1.3,0.3-2.9-1-3.6c-1.3-0.7-3-0.3-3.7,1c-0.8,1.3-0.3,2.9,1,3.6 C482.9,880.3,484.5,879.9,485.3,878.6z" class="st4"/><path d="M1082.1,828.4c1.1-1.9,0.4-4.3-1.5-5.4c-2-1.1-4.5-0.4-5.6,1.5c-1.1,1.9-0.4,4.3,1.5,5.4 C1078.4,830.9,1081,830.3,1082.1,828.4z" class="st4"/><path d="M1027.5,831c0.7-1.2,0.3-2.8-1-3.5c-1.3-0.7-2.9-0.3-3.6,1c-0.7,1.2-0.3,2.8,1,3.5 C1025.2,832.7,1026.8,832.2,1027.5,831z" class="st4"/><path d="M1020.8,893c0.7-1.2,0.3-2.8-1-3.5c-1.3-0.7-2.9-0.3-3.6,1c-0.7,1.2-0.3,2.8,1,3.5 C1018.4,894.6,1020.1,894.2,1020.8,893z" class="st4"/><path d="M829,803c1,1.1,2.7,1.2,3.8,0.2c1.1-1,1.2-2.6,0.2-3.7c-1-1.1-2.7-1.2-3.8-0.2C828.1,800.3,828,802,829,803z" class="st4"/><path d="M557.5,890.2c0.5-0.8,0.2-1.8-0.6-2.3c-0.8-0.5-1.9-0.2-2.3,0.6c-0.5,0.8-0.2,1.8,0.6,2.3 C556,891.3,557,891,557.5,890.2z" class="st4"/><path d="M1013.4,868.4c0.5-0.8,0.2-1.8-0.6-2.3c-0.8-0.5-1.9-0.2-2.3,0.6c-0.5,0.8-0.2,1.8,0.6,2.3 C1011.9,869.5,1013,869.2,1013.4,868.4z" class="st4"/><path d="M744.5,849.1c0.5-0.8,0.2-1.8-0.6-2.3c-0.8-0.5-1.9-0.2-2.3,0.6c-0.5,0.8-0.2,1.8,0.6,2.3 C743,850.2,744,849.9,744.5,849.1z" class="st5"/><path d="M1099.2,719.1c0.5-0.8,0.2-1.8-0.6-2.3c-0.8-0.5-1.9-0.2-2.3,0.6c-0.5,0.8-0.2,1.8,0.6,2.3 C1097.7,720.1,1098.7,719.8,1099.2,719.1z" class="st5"/><path d="M839.2,873c-0.4,0.4-0.4,1.1,0,1.5c0.4,0.4,1.1,0.4,1.6,0c0.4-0.4,0.4-1.1,0-1.5 C840.3,872.6,839.6,872.6,839.2,873z" class="st4"/><path d="M848.1,723.1c0.7,0.6,1.8,0.6,2.4-0.1c0.6-0.7,0.6-1.7-0.1-2.4c-0.7-0.6-1.8-0.6-2.4,0.1 C847.3,721.4,847.4,722.4,848.1,723.1z" class="st5"/><path d="M944.1,624.3c1.5,1.6,4.1,1.8,5.8,0.3c1.7-1.5,1.8-4,0.3-5.6c-1.5-1.6-4.1-1.8-5.8-0.3 C942.7,620.1,942.5,622.6,944.1,624.3z" class="st4"/><path d="M863.9,907.9c1.1-1.9,0.4-4.3-1.5-5.4c-2-1.1-4.5-0.4-5.6,1.5c-1.1,1.9-0.4,4.3,1.5,5.4 C860.2,910.4,862.7,909.8,863.9,907.9z" class="st4"/><path d="M946.5,741.7c0.7-1.2,0.3-2.8-1-3.5c-1.3-0.7-2.9-0.3-3.6,1c-0.7,1.2-0.3,2.8,1,3.5 C944.1,743.4,945.7,742.9,946.5,741.7z" class="st4"/><path d="M747.9,713.7c1,1.1,2.7,1.2,3.8,0.2c1.1-1,1.2-2.6,0.2-3.7c-1-1.1-2.7-1.2-3.8-0.2 C747,711,746.9,712.7,747.9,713.7z" class="st4"/><path d="M932.4,779.1c0.5-0.8,0.2-1.8-0.6-2.3c-0.8-0.5-1.9-0.2-2.3,0.6c-0.5,0.8-0.2,1.8,0.6,2.3 C930.9,780.2,931.9,779.9,932.4,779.1z" class="st4"/><path d="M1400.6,658.2c-0.4,0.4-0.4,1.1,0,1.5c0.4,0.4,1.1,0.4,1.6,0c0.4-0.4,0.4-1.1,0-1.5S1401,657.8,1400.6,658.2z" class="st4"/><path d="M1272.3,677c0.7,0.6,1.8,0.6,2.4-0.1c0.6-0.7,0.6-1.7-0.1-2.4c-0.7-0.6-1.8-0.6-2.4,0.1 C1271.5,675.4,1271.6,676.4,1272.3,677z" class="st5"/><path d="M1368.2,578.2c1.5,1.6,4.1,1.8,5.8,0.3c1.7-1.5,1.8-4,0.3-5.6c-1.5-1.6-4.1-1.8-5.8-0.3 C1366.9,574.1,1366.7,576.6,1368.2,578.2z" class="st4"/><path d="M1425.2,693.1c1.1-1.9,0.4-4.3-1.5-5.4c-2-1.1-4.5-0.4-5.6,1.5c-1.1,1.9-0.4,4.3,1.5,5.4 C1421.6,695.6,1424.1,695,1425.2,693.1z" class="st4"/><path d="M1370.7,695.7c0.7-1.2,0.3-2.8-1-3.5c-1.3-0.7-2.9-0.3-3.6,1c-0.7,1.2-0.3,2.8,1,3.5 C1368.3,697.4,1369.9,696.9,1370.7,695.7z" class="st4"/><path d="M1172.1,667.7c1,1.1,2.7,1.2,3.8,0.2c1.1-1,1.2-2.6,0.2-3.7c-1-1.1-2.7-1.2-3.8-0.2 C1171.2,665,1171.1,666.7,1172.1,667.7z" class="st4"/><path d="M1356.6,733.1c0.5-0.8,0.2-1.8-0.6-2.3s-1.9-0.2-2.3,0.6c-0.5,0.8-0.2,1.8,0.6,2.3 C1355.1,734.2,1356.1,733.9,1356.6,733.1z" class="st4"/><path d="M317.2,216c1.2,0.9,2.8,0.7,3.7-0.5c0.9-1.1,0.7-2.8-0.5-3.6c-1.2-0.9-2.8-0.7-3.7,0.5 C315.9,213.5,316.1,215.2,317.2,216z" class="st4"/><path d="M867.3,178.4c-0.7,0.6-0.7,1.7,0,2.4c0.7,0.7,1.8,0.7,2.4,0c0.7-0.6,0.7-1.7,0-2.4 C869,177.7,868,177.7,867.3,178.4z" class="st4"/><path d="M553.3,212.4c1.1,1,2.8,0.9,3.9-0.1c1-1.1,1-2.7-0.1-3.7c-1.1-1-2.8-0.9-3.9,0.1 C552.2,209.7,552.2,211.4,553.3,212.4z" class="st5"/><path d="M422.7,133.7c1,1.1,2.7,1.2,3.9,0.2c1.1-1,1.2-2.7,0.2-3.8c-1-1.1-2.7-1.2-3.9-0.2 C421.8,130.9,421.7,132.6,422.7,133.7z" class="st4"/><path d="M790.1,168.5c0.6,0.7,1.7,0.7,2.4,0.1c0.7-0.6,0.8-1.7,0.1-2.3c-0.6-0.7-1.7-0.7-2.4-0.1 C789.5,166.7,789.5,167.8,790.1,168.5z" class="st4"/><path d="M712.5,147.8c0.6,0.7,1.7,0.7,2.4,0.1c0.7-0.6,0.8-1.7,0.1-2.3c-0.6-0.7-1.7-0.7-2.4-0.1 C711.9,146,711.9,147.1,712.5,147.8z" class="st4"/><path d="M669.1,185.3c0.7-1.2,0.3-2.8-1-3.5c-1.3-0.7-2.9-0.3-3.6,1c-0.7,1.2-0.3,2.8,1,3.5 C666.8,186.9,668.4,186.5,669.1,185.3z" class="st4"/><path d="M880.2,200.4c1,1.1,2.7,1.2,3.8,0.2c1.1-1,1.2-2.6,0.2-3.7c-1-1.1-2.7-1.2-3.8-0.2 C879.3,197.7,879.2,199.3,880.2,200.4z" class="st4"/><path d="M471.4,174.6c0.6,0.7,1.7,0.7,2.4,0.1c0.7-0.6,0.8-1.7,0.1-2.3c-0.6-0.7-1.7-0.7-2.4-0.1 C470.8,172.8,470.8,173.9,471.4,174.6z" class="st4"/></g></g><g id="numbers"><g><g><path d="M1337.8,636.7V708h-85.4v-71.2h-204.7v-69.3L1266,233.7h71.9v326.7h50.1v76.4H1337.8z M1252.5,377.4 l-118.1,182.9h118.1V377.4z" class="st6"/></g><g><path d="M1357,670v71.2h-85.4V670H1067v-69.3l218.2-333.7h71.9v326.7h50.1V670H1357z M1271.7,410.7l-118.1,182.9 h118.1V410.7z" class="st7"/></g><polygon points="1337.8 233.7 1357 266.9 1285.2 266.9 1266 233.7" class="st8"/><polygon points="1047.7 567.4 1067 600.7 1067 670 1047.7 636.7" class="st8"/><polygon points="1252.5 708 1271.7 741.2 1271.7 670 1252.1 670" class="st9"/><polygon points="1407.1 593.6 1387.9 560.3 1357 560.3 1357 593.6" class="st8"/><polygon points="1252.5 560.3 1271.7 593.6 1153.6 593.6 1175.8 560.1" class="st9"/><polygon points="1271.7 410.7 1271.7 593.6 1252.5 560.3 1252.5 438.1" class="st9"/></g><g><g><path d="M479.3,636.7V708H394v-71.2H189.2v-69.3l218.2-333.7h71.9v326.7h50.1v76.4H479.3z M394,377.4L275.9,560.3 H394V377.4z" class="st6"/></g><g><path d="M498.5,670v71.2h-85.4V670H208.4v-69.3l218.2-333.7h71.9v326.7h50.1V670H498.5z M413.2,410.7L295.1,593.6 h118.1V410.7z" class="st7"/></g><polygon points="479.3 233.7 498.5 266.9 426.6 266.9 407.4 233.7" class="st8"/><polygon points="189.2 567.4 208.4 600.7 208.4 670 189.2 636.7" class="st8"/><polygon points="394 708 413.2 741.2 413.2 670 393.5 670" class="st9"/><polygon points="548.6 593.6 529.4 560.3 498.5 560.3 498.5 593.6" class="st8"/><polygon points="394 560.3 413.2 593.6 295.1 593.6 317.2 560.1" class="st9"/><polygon points="413.2 410.7 413.2 593.6 394 560.3 394 438.1" class="st9"/></g><g><g><circle cx="794.4" cy="487.4" r="251.9" class="st10"/><circle cx="794.4" cy="487.4" r="212.4" class="st11"/><circle cx="794.4" cy="487.4" r="169.8" class="st12"/><g><g><circle cx="728.7" cy="452.6" r="29.6" class="st13"/><circle cx="876.7" cy="412.6" r="21.7" class="st13"/><circle cx="748.5" cy="586.4" r="38.3" class="st13"/><circle cx="873" cy="516.4" r="24.6" class="st13"/><circle cx="796.5" cy="483.2" r="5.8" class="st13"/><circle cx="926.5" cy="466.2" r="5.8" class="st13"/><circle cx="851.6" cy="620.1" r="6.6" class="st13"/><circle cx="662.3" cy="523" r="4.9" class="st13"/></g><path d="M757.6,612.3c-21.1,0-38.3-17.1-38.3-38.3c0-5.9,1.3-11.5,3.7-16.5c-7.9,7-12.8,17.2-12.8,28.6 c0,21.1,17.1,38.3,38.3,38.3c15.2,0,28.4-8.9,34.5-21.8C776.3,608.7,767.4,612.3,757.6,612.3z" class="st14"/><path d="M735.7,472.7c-16.3,0-29.5-13.2-29.5-29.5c0-4.6,1-8.9,2.9-12.7c-6.1,5.4-9.9,13.3-9.9,22.1 c0,16.3,13.2,29.5,29.5,29.5c11.8,0,21.9-6.9,26.7-16.8C750.1,469.9,743.2,472.7,735.7,472.7z" class="st14"/><path d="M881.7,427.5c-12,0-21.7-9.7-21.7-21.7c0-3.4,0.8-6.5,2.1-9.4c-4.5,4-7.3,9.8-7.3,16.2 c0,12,9.7,21.7,21.7,21.7c8.6,0,16.1-5,19.6-12.4C892.3,425.4,887.3,427.5,881.7,427.5z" class="st14"/><path d="M878.7,533.7c-13.6,0-24.7-11-24.7-24.7c0-3.8,0.9-7.4,2.4-10.6c-5.1,4.5-8.3,11.1-8.3,18.4 c0,13.6,11,24.7,24.7,24.7c9.8,0,18.3-5.7,22.3-14C890.7,531.3,885,533.7,878.7,533.7z" class="st14"/><path d="M797.9,487.2c-3.2,0-5.8-2.6-5.8-5.8c0-0.9,0.2-1.7,0.6-2.5c-1.2,1.1-1.9,2.6-1.9,4.3 c0,3.2,2.6,5.8,5.8,5.8c2.3,0,4.3-1.3,5.2-3.3C800.7,486.6,799.4,487.2,797.9,487.2z" class="st14"/><path d="M663.5,526.3c-2.7,0-4.9-2.2-4.9-4.9c0-0.8,0.2-1.5,0.5-2.1c-1,0.9-1.7,2.2-1.7,3.7c0,2.7,2.2,4.9,4.9,4.9 c2,0,3.7-1.1,4.5-2.8C665.9,525.8,664.7,526.3,663.5,526.3z" class="st14"/><path d="M853.1,624.7c-3.6,0-6.6-2.9-6.6-6.6c0-1,0.2-2,0.6-2.8c-1.4,1.2-2.2,3-2.2,4.9c0,3.6,2.9,6.6,6.6,6.6 c2.6,0,4.9-1.5,5.9-3.7C856.4,624.1,854.8,624.7,853.1,624.7z" class="st14"/><path d="M927.9,470.1c-3.2,0-5.8-2.6-5.8-5.8c0-0.9,0.2-1.7,0.6-2.5c-1.2,1.1-1.9,2.6-1.9,4.3 c0,3.2,2.6,5.8,5.8,5.8c2.3,0,4.3-1.3,5.2-3.3C930.8,469.5,929.4,470.1,927.9,470.1z" class="st14"/></g></g><path d="M882.1,341.3c0,0,13.7,28.6-35.2,44.9c-33.8,11.2-57.6,0.2-82.6-3.3c-14-1.9-25,2.7-40.7,17.7 c-11.8,11.3-26,30.4-63.1,33.6c0,0-19.9,2.9-21.8-14.4c0,0,8.2-24.9,39.2-55.9c31-31,75.4-43.9,99.6-45.5S836.6,316.7,882.1,341.3 z" class="st15"/></g></g></svg>