<svg xmlns="http://www.w3.org/2000/svg" xmlns:xlink="http://www.w3.org/1999/xlink" x="0" y="0" version="1.1" viewBox="0 0 1600 960" xml:space="preserve" style="enable-background:new 0 0 1600 960"><style type="text/css">.st4{fill:#fff}.st16{fill:#42bbe0}.st17{fill:#00a2c5}.st18{fill:#a5def8}.st19{fill:url(#SVGID_1_)}.st20{fill:url(#SVGID_2_)}.st21{fill:url(#SVGID_3_)}.st22{fill:url(#SVGID_4_)}.st23{fill:url(#SVGID_5_)}.st24{fill:url(#SVGID_6_)}.st25{fill:url(#SVGID_7_)}.st26{fill:url(#SVGID_8_)}.st27{fill:url(#SVGID_9_)}.st28{fill:url(#SVGID_10_)}.st29{fill:url(#SVGID_11_)}.st30{fill:url(#SVGID_12_)}.st31{fill:url(#SVGID_13_)}.st32{fill:url(#SVGID_14_)}.st33{fill:url(#SVGID_15_)}.st34{fill:url(#SVGID_16_)}.st35{fill:url(#SVGID_17_)}.st36{fill:url(#SVGID_18_)}.st37{fill:url(#SVGID_19_)}.st38{fill:url(#SVGID_20_)}.st39{fill:url(#SVGID_21_)}.st40{fill:url(#SVGID_22_)}.st41{fill:url(#SVGID_23_)}.st42{fill:url(#SVGID_24_)}.st43{fill:url(#SVGID_25_)}.st44{fill:url(#SVGID_26_)}.st45{fill:url(#SVGID_27_)}.st46{fill:url(#SVGID_28_)}.st47{fill:url(#SVGID_29_)}.st48{fill:url(#SVGID_30_)}.st49{fill:#1b72a2}.st50{fill:url(#SVGID_31_)}.st51{fill:url(#SVGID_32_)}.st52{fill:url(#SVGID_33_)}.st53{fill:url(#SVGID_34_)}.st54{fill:url(#SVGID_35_)}.st55{fill:url(#SVGID_36_)}.st56{fill:url(#SVGID_37_)}.st57{fill:url(#SVGID_38_)}.st58{fill:url(#SVGID_39_)}.st59{fill:url(#SVGID_40_)}.st60{fill:url(#SVGID_41_)}.st61{fill:url(#SVGID_42_)}.st62{fill:url(#SVGID_43_)}.st63{fill:url(#SVGID_44_)}.st64{fill:url(#SVGID_45_)}.st65{fill:url(#SVGID_46_)}.st66{fill:url(#SVGID_47_)}.st67{fill:url(#SVGID_48_)}.st68{fill:url(#SVGID_49_)}.st69{fill:url(#SVGID_50_)}.st70{fill:url(#SVGID_51_)}.st71{fill:url(#SVGID_52_)}.st72{fill:url(#SVGID_53_)}.st73{fill:url(#SVGID_54_)}.st74{fill:url(#SVGID_55_)}.st75{fill:url(#SVGID_56_)}.st76{fill:url(#SVGID_57_)}.st77{fill:url(#SVGID_58_)}.st78{fill:url(#SVGID_59_)}.st79{fill:url(#SVGID_60_)}.st80{fill:url(#SVGID_61_)}.st81{fill:url(#SVGID_62_)}.st82{fill:url(#SVGID_63_)}.st83{fill:url(#SVGID_64_)}.st84{fill:url(#SVGID_65_)}.st85{fill:url(#SVGID_66_)}.st86{fill:url(#SVGID_67_)}.st87{fill:url(#SVGID_68_)}.st88{fill:url(#SVGID_69_)}</style><g id="astronaut"><g><path d="M910.2,248.2c-0.2-1-0.3-2-0.5-3c-0.4-2-0.8-3.9-1.2-5.9c-3.4-15.5-8.2-28.9-12.8-39.9 c-1.1-2.8-2.3-5.3-3.4-7.8c-1.1-2.4-2.1-4.8-3.2-6.9c-1.1-2.1-2-4.1-2.9-5.9c-0.9-1.8-1.7-3.4-2.6-4.9c-0.1-0.1-0.1-0.2-0.2-0.3 c0.5-0.2,0.9-0.4,1.4-0.5c1.4-0.6,2.8-1.3,3.7-2c0.4-0.4,0.7-0.7,0.9-1.1c0.2-0.4,0.3-0.7,0.3-1.3c-0.1-0.5-0.4-0.8-0.7-1.1 c-0.3-0.3-0.6-0.5-1-0.6c-0.6-0.3-1.3-0.4-2.1-0.5c0.4-0.1,0.8-0.3,1.3-0.4c0.5-0.2,1.1-0.4,1.6-0.6c1.7-0.6,3.4-1.3,4.5-2.1 c0.5-0.4,0.9-0.8,1.1-1.1c0.3-0.4,0.4-0.8,0.4-1.4c-0.2-0.5-0.4-0.8-0.7-1.1c-0.3-0.2-0.7-0.4-1.1-0.6c-0.9-0.4-2.1-0.5-3.3-0.6 c-0.6,0-1.2-0.1-1.8-0.1c-0.2,0-0.4,0-0.7,0l-0.6,0c-0.4,0-0.7,0-1,0c0.1-0.1,0.2-0.2,0.3-0.2c0.4-0.3,0.6-0.7,0.8-1 c0.2-0.3,0.3-0.7,0.3-1.2c-0.2-0.8-0.7-1.1-1.3-1.4c-0.6-0.3-1.3-0.5-2.1-0.7c-0.8-0.1-1.7-0.2-2.5-0.2l-0.6,0l-0.4,0 c-0.3,0-0.5,0-0.8,0c-1.6,0-2.9,0.1-4.1,0.2c21.8-18.7,33.5-46.2,30.1-74.3C899.7,32.4,853.9-1,803.3,5.1 c-29.5,3.5-54.7,19.7-69.2,42.8c-5.1,8.2-8.9,17.2-11,26.8c-1.9,8.9-2.4,18-1.3,27c1.7,14.2,7.1,27.3,15.3,38.5 c9.7,13.2,23.3,23.8,39.4,30.1c-0.4,0.2-0.9,0.5-1.3,0.7c-0.4,0.3-0.8,0.6-1,1c-0.1,0.2-0.2,0.5-0.1,0.8c0.1,0.3,0.2,0.5,0.4,0.7 c0.3,0.4,0.8,0.6,1.4,0.9c0,0,0,0,0,0c-0.4,0.1-0.7,0.2-1.1,0.3c-0.6,0.2-1.1,0.3-1.8,0.5c-0.9,0.3-1.9,0.6-2.8,1 c-0.9,0.4-1.7,0.8-2.3,1.3c-0.3,0.2-0.5,0.5-0.7,0.8c-0.2,0.3-0.3,0.6-0.3,1.1c0.2,0.6,0.4,0.9,0.8,1.2c0.4,0.3,0.8,0.5,1.4,0.8 c1.2,0.4,3.1,0.6,4.9,0.7c2,0.1,4.1,0.1,6.3,0.1c-0.7,0.3-1.5,0.6-2.1,1c-0.6,0.4-1.1,0.8-1.4,1.3c-0.2,0.3-0.3,0.5-0.3,0.9 c0.1,0.4,0.2,0.7,0.5,0.9c0.4,0.4,1,0.8,1.9,1.1c0.4,0.1,0.9,0.2,1.4,0.3c-1.1,1.4-2.8,4.1-4.6,8c-0.3,0.8-0.7,1.5-1.1,2.4 c-0.4,0.8-0.7,1.7-1.1,2.6c-0.5,1.3-1,2.6-1.5,4c-0.2,0.2-0.4,0.4-0.7,0.6c-1.1,1-2.4,2.2-3.8,3.7c-1.4,1.5-2.8,3.4-4.1,5.4 c-3.3,5.4-5.2,10.6-5.8,13.6c-0.5-0.2-1-0.4-1.5-0.5c-2.5-0.8-5-0.8-6.7-0.4c-0.9,0.2-1.5,0.4-2,0.7c-1.3-1.2-2.7-2.1-4-2.7 c-3.2-1.5-5.4-1.3-5.5-0.7c0,0,0,0,0,0c-1.3-1.2-2.7-2.1-4.2-2.8c-3.1-1.3-6.2-1.3-8.5-0.9c-2.3,0.5-4,1.2-5.1,1.9 c-0.5,0.3-0.9,0.6-1.2,0.9c-0.8,0-1.5,0.1-2.1,0.3c-1,0.2-1.8,0.6-2.5,0.8c-0.7,0.4-1.3,0.7-1.7,1c-0.3,0.2-0.5,0.5-0.7,0.7 c-0.5-0.1-0.9-0.2-1.4-0.4c-1.4-0.4-2.8-0.9-4.2-1.6c-1.5-0.7-3.1-1.6-5.2-2.1c-2.1-0.5-4.3-0.5-6.5,0.4c-1,0.5-2,1.3-2.7,2.2 c-0.7,0.9-1.1,2-1.2,3.2c-0.1,1.1,0.1,2.4,0.8,3.4c0.3,0.5,0.6,0.9,1,1.2c-0.2,0-0.4-0.1-0.6-0.1c-1-0.2-2.1-0.3-3.4-0.2 c-1.2,0.1-2.6,0.4-3.9,1.2c-1.2,0.8-2.2,1.9-2.9,3c-1.3,2.3-1.7,4.8-1.7,7.1c0,2.3,0.5,4.4,1.2,6.4c0.7,1.9,1.7,3.6,2.8,5.1 c0.9,1.3,2,2.4,3,3.2c-1.3,0.6-3.7,2.2-6.6,4.9c-2.1,1.9-4.4,4.3-6.9,7.1c-2.4,2.8-4.9,6-7.3,9.6c-2.4,3.6-4.4,7.1-6.1,10.4 c-0.7,1.4-1.4,2.8-1.9,4.1c0-0.1,0-0.2-0.1-0.3c-0.2-0.3-0.9-0.4-2.1,0.1c-1.1,0.5-2.6,1.9-3.4,4c-0.2,0.4-0.3,0.8-0.4,1.3 c-0.9,0-2,0.1-3,0.7c-1.4,0.7-2.4,2-3.1,3.4c-0.7,1.4-1,2.9-1.1,4.5c0,0.8-0.1,1.6,0,2.5c0,0.4,0.1,0.9,0.2,1.3 c0,0.2,0.1,0.4,0.1,0.6c-0.8,0.2-1.7,0.8-2.5,1.5c-0.5,0.5-1,1.2-1.3,1.9c-1.8-1.6-5.1-3.8-9.8-5.5c-2.1-0.8-4.4-1.5-7.2-1.7 c-0.7-0.1-1.4-0.1-2.2-0.1c-0.8,0-1.4,0.1-2.2,0.2c-1.4,0.2-2.9,0.5-4.4,1c-2.9,0.9-5.8,2.5-8.5,4.6c-1.3,1.1-2.5,2.3-3.7,3.6 c-1.1,1.4-2.2,3-2.9,5c-0.6,2-0.7,4.1-0.4,5.9c0.2,1.8,0.7,3.5,1.2,5c1,3,2.1,5.8,3.5,8.4c2.7,5.2,5.9,9.4,8.9,12.4 c3,3.1,5.9,5.2,7.9,6.5c0.2,0.2,0.5,0.3,0.7,0.4c-0.5,0.3-1,0.6-1.5,1c-1.1,0.8-2.2,1.7-3.1,2.9c-0.9,1.1-1.7,2.4-2.4,3.6 c-0.7,1.3-1.2,2.5-1.7,3.9c-0.5,1.4-0.9,2.8-1.2,4.2c-0.6,2.9-1,5.9-0.9,9.1c0.1,3.2,0.8,6.6,2.3,9.7c0.7,1.6,1.7,3.1,2.9,4.5 c0.1,0.2,0.3,0.4,0.4,0.5l0.5,0.5l1,0.9c0.3,0.3,0.7,0.6,1,0.9l1,0.8c2.7,2,5.6,3.7,8.6,5.3c3,1.6,6,3.1,9.2,4.4 c12.6,5.4,25.5,8.9,37.6,9.6c6,0.3,12.1-0.1,17.4-2.5c2.6-1.2,5-2.7,6.9-4.5c1.9-1.8,3.5-3.8,4.8-5.7c2.5-3.9,4.1-7.8,5.3-11.1 c1.2-3.4,2-6.3,2.5-8.8c0.6-2.7,0.9-4.7,1-6.1c0.5-0.2,1.1-0.4,1.6-0.6c0.6-0.3,1.2-0.5,1.8-0.8c2.3-1.2,4.1-2.6,5.5-4.1 c0.7-0.8,1.3-1.6,1.7-2.5c0.4-0.9,0.6-1.7,0.6-2.5c0.1-0.8,0-1.4-0.1-2c0.5-0.6,0.9-1.2,1.3-1.8c0.8-1.4,1.2-2.8,1.4-4.1 c0.8-0.5,1.6-1,2.2-1.6c1.3-1.2,2.3-2.5,2.9-3.9c0.3-0.6,0.6-1.6,0.7-2.3c0.1-0.8,0-1.5-0.5-2c-0.1-0.1-0.2-0.2-0.3-0.3 c0.8-1.2,1.7-2.4,2.5-3.6c1.9-2.9,3.8-6,5.8-9.1c1.6-1.3,3.7-2.9,6.2-4.8c0.6-0.4,1.2-0.8,1.8-1.2c1.5,2,5,5.9,10.6,10.5 c7.8,6.5,19.8,14.5,34.7,19.7c5.1,1.8,10.2,3.1,15.2,3.8c0.1,0.2,0.4,0.3,0.9,0.5c0.7,0.3,1.7,0.8,3.2,1c2.1,0.4,5.1,0.5,8.6-0.2 c-0.1,0.1-0.2,0.1-0.2,0.2c0,0.2,1,0.3,2.7,0.2c0.9,0,2-0.1,3.2-0.2c0.6-0.1,1.3-0.1,2.1-0.2c0.7-0.1,1.5-0.2,2.3-0.3 c1.6-0.3,3.5-0.5,5.5-0.9c2-0.5,4.1-1,6.5-1.5c2.3-0.6,4.7-1.4,7.3-2.2c1.3-0.4,2.6-1,3.9-1.5c0.7-0.3,1.3-0.5,2-0.8 c0.3-0.1,0.7-0.3,1-0.4c0.3-0.2,0.7-0.3,1-0.5c1.4-0.6,2.8-1.3,4.2-2c0.4-0.2,0.7-0.3,1.1-0.5c0.3-0.2,0.7-0.4,1.1-0.6 c0.7-0.4,1.4-0.8,2.1-1.2c2.9-1.5,5.7-3.6,8.7-5.6c5.7-4.3,11.4-9.6,16.3-15.9c5-6.4,9.2-13.8,12.4-22c0.7-2.1,1.5-4.1,2.2-6.3 c0.6-2.1,1.2-4.3,1.8-6.5c0.4-2.2,0.9-4.4,1.3-6.7c0.4-2.3,0.6-4.5,0.9-6.8c1-9.2,0.9-18.2,0.3-26.8c-0.5-4.3-0.8-8.5-1.6-12.6 C910.5,250.2,910.3,249.2,910.2,248.2z" class="st16"/><path d="M887.1,104.2c-0.5,1.7-1.1,3.4-1.8,5c-0.7,1.6-1.6,3.2-2.7,4.7c-1,1.5-2.3,2.8-3.7,3.9 c-1.4,1.1-3,1.8-4.6,1.9c-1.6,0.1-3.1-0.3-4.5-1.2c-1.3-0.9-2.5-2.3-3.3-3.8c-0.9-1.5-1.6-3.2-2-4.9c-0.3-0.8-0.4-1.7-0.6-2.6 c-0.1-0.9-0.3-1.7-0.4-2.6c-0.7-6.9,0.5-13.3,2.3-18.2c1.9-5,4.6-8.4,6.8-10.3c1.6-1.4,3-1.9,3.6-2.3l2.3-0.2 c0.2,0.1,0.5,0.2,0.9,0.3c0.4,0.2,0.8,0.3,1.3,0.5c0.5,0.3,1.1,0.5,1.6,1c1.1,0.8,2.3,2.1,3.4,3.9c1,1.8,1.9,4,2.4,6.6 C889.1,90.9,889,97.5,887.1,104.2z" class="st16"/><path d="M906.7,290.1c-1.7,17.5-8,33.6-17.1,45.7c-4.5,6.1-9.7,11.2-15,15.3c-2.7,2-5.3,4-8.1,5.5 c-0.7,0.4-1.3,0.8-2,1.2c-0.3,0.2-0.7,0.4-1,0.6c-0.3,0.2-0.7,0.4-1,0.5c-1.3,0.7-2.7,1.4-3.9,2.1c-0.3,0.2-0.6,0.3-1,0.5 c-0.3,0.1-0.7,0.3-1,0.4c-0.6,0.3-1.3,0.6-1.9,0.8c-1.3,0.5-2.5,1.1-3.7,1.6c-0.6,0.2-1.2,0.4-1.7,0.6c2-1.2,4-2.6,6-4.3 c2.3-1.9,4.2-4.1,5.8-6.1c0.8-1.1,1.4-2.1,2-3.1c0.5-1,1-2,1.4-2.9c0.3-0.9,0.6-1.8,0.9-2.5c0.2-0.7,0.3-1.4,0.4-2 c0.2-1.1,0.2-1.7,0-1.7c-0.2-0.1-0.6,0.5-1.1,1.4c-0.3,0.5-0.5,1.1-0.9,1.7c-0.4,0.6-0.8,1.4-1.2,2.2c-0.5,0.8-1.1,1.6-1.6,2.5 c-0.6,0.9-1.3,1.8-2.1,2.7c-1.6,1.8-3.4,3.8-5.6,5.6c-4,3.4-8.1,5.9-11.3,7.6c0.7-0.6,1.3-1.1,1.8-1.7c0.3-0.4,0.6-0.7,0.8-1 c0.2-0.4,0.4-0.7,0.7-1c0.4-0.6,0.6-1.3,0.9-1.8c0.2-0.5,0.3-1,0.4-1.4c0.1-0.8,0.1-1.2-0.1-1.3c-0.2-0.1-0.5,0.2-1,0.8 c-0.2,0.3-0.4,0.7-0.8,1c-0.4,0.4-0.7,0.9-1.2,1.3c-0.2,0.2-0.5,0.5-0.7,0.7c-0.2,0.3-0.6,0.5-0.9,0.7c-0.6,0.5-1.3,0.9-2.1,1.4 c-0.9,0.5-1.8,0.9-2.8,1.3c1.5-1.3,2.9-2.8,4.3-4.4c2.3-2.6,4.2-5.7,6-9c1.8-3.3,3.1-6.9,4.1-10.8c2-7.7,2-15.5,0.3-22.2 c-1.5-6.8-4.8-12.3-8-16.3c-0.9-1-1.6-1.9-2.4-2.7c-0.8-0.8-1.6-1.5-2.4-2.2c-0.7-0.7-1.5-1.2-2.2-1.7c-0.7-0.5-1.3-1-1.9-1.4 c-1.7-1-2.9-1.5-3.6-1.7c0.7-0.5,1.4-1.1,2-1.6c1.2,0.3,3,0.7,5.3,1.4c3.9,1.3,9.2,3.9,13.3,8.5c4.1,4.7,6,10.2,6.7,14.3 c0.8,4.1,0.6,6.8,1.3,6.9c0.5,0.1,1.8-2.5,1.8-7.2c0-2.3-0.4-5.1-1.4-8.1c-1-2.9-2.7-6-5.1-8.8c-2.4-2.7-5.2-4.8-8-6.2 c-2.8-1.4-5.5-2.2-7.8-2.5c-1.5-0.2-2.8-0.2-3.9-0.2c0.8-0.7,1.5-1.3,2.2-2c0.5,0.4,2,0.3,4,0.4c2.4,0.1,5.6,0.6,8.7,2 c3.2,1.4,5.8,3.5,7.6,5.1c1.8,1.6,3,2.7,3.6,2.4c0.5-0.3,0.2-2-1.2-4.4c-1.4-2.3-4.2-5.3-8.2-7.1c-4-1.8-8.1-1.8-10.8-1.1 c-0.5,0.1-0.9,0.3-1.3,0.4c1.6-1.6,3.2-3.2,4.7-4.9c2.4-2.6,4.6-5.3,6.7-8c0.4,0,0.9,0.1,1.5,0.1c0.8,0,1.8-0.2,2.9-0.3 c1.1-0.3,2.4-0.5,3.8-1c2.7-1,5.9-2.6,8.8-5.2c2.9-2.6,5.5-6,7.5-10c2-3.9,3.2-8,4-11.6c0.8-3.7,1.1-7,1.2-9.8c0.2-5.6-0.5-9-1-9 c-0.6,0-1.1,3.4-2,8.7c-1,5.3-2.4,12.7-6,19.8c-1.8,3.6-4,6.6-6.4,9c-2.4,2.4-5,4.1-7.3,5.3c-1.1,0.6-2.3,1.1-3.2,1.5 c-1,0.4-1.8,0.7-2.5,1c0.3-0.4,0.7-0.9,1-1.3c0.3-0.5,0.6-0.9,0.9-1.4c3.5-2.5,7.6-6.2,11.4-11.4c2.5-3.5,4.9-7.6,6.6-12.4 c1.7-4.8,2.7-10.3,2.5-16.1c-0.1-5.8-1.4-11.9-4.3-17.7c-2.9-5.8-7.5-10.9-13.2-14.5c-5.7-3.7-12.4-5.7-18.9-5.6 c-6.6,0.1-12.7,2.3-17.6,5.4c-4.9,3.2-8.8,7.2-11.7,11.4c-2.9,4.2-4.8,8.6-6.1,12.7c-2.5,8.2-2.8,15.1-2.7,19.8c0,0.3,0,0.7,0,1 c-0.4,1.4-0.7,2.8-1,4c-0.3,1.4-0.6,2.7-0.8,3.8c0.1-1.8,0.2-4,0.2-6.4c0.1-5.8,0-10.6-1.2-10.8c-1.2-0.2-3.1,4.5-3.1,10.7 c-0.1,4.6,0.9,8.4,1.8,10c-2.3,0.3-4.8,0.5-7.4,0.8c-3.3,0.3-6.5,0.6-9.4,0.9c0.4-1.7,0.8-4.8,1.2-9.1c0.7-6.4,1.5-15.3,3.2-24.9 c0.8-4.8,1.9-9.3,2.9-13.4c0.6-2,1.1-4,1.6-5.7c0.3-0.9,0.5-1.8,0.8-2.6c0.3-0.8,0.6-1.6,0.8-2.4c1.1-3.1,2-5.6,2.6-7.4 c5.4-0.1,11.5-0.5,18-1.1c8.7-0.8,18.2-2,28.1-3.5c10.2-1.6,19.9-3.4,28.6-5.4c4.3-1,8.5-2.1,12.3-3.2c0.8-0.2,1.5-0.5,2.2-0.7 c0.1,0.2,0.1,0.4,0.2,0.5c0.7,1.5,1.4,3.2,2.1,5.1c0.8,1.9,1.6,3.9,2.5,6c0.9,2.1,1.8,4.5,2.7,7c0.9,2.5,2,5.1,3,7.9 c4,11,8.3,24.4,11.4,39.5c0.4,1.9,0.7,3.8,1.1,5.8c0.2,1,0.4,1.9,0.5,2.9c0.1,1,0.3,2,0.4,3c0.7,4,1,8.1,1.4,12.2 C907.6,272.6,907.7,281.3,906.7,290.1z" class="st16"/><path d="M729.9,275.1c-0.9,5.6-0.7,11.1,0.8,15.9c0,0.1,0.1,0.2,0.1,0.3c-0.1,0-0.3,0-0.4-0.1 c-2.1-0.3-5.3-0.6-8.9-1.3c-3.7-0.7-7.9-2-11.9-4.4c-1-0.6-2-1.3-3-2c-1-0.8-2-1.5-2.8-2.4c-1.7-1.7-3-3.8-3.7-6.1 c-0.6-2.3-0.7-4.9-0.2-7.2c0.2-1.2,0.6-2.3,1-3.3c0.4-1,1-1.9,1.7-2.8c2.6-3.4,6.6-4.8,10.1-4.9c3.5-0.2,6.6,0.4,8.7,0.8 c2.1,0.4,3.4,0.5,3.5,0.1c0.1-0.4-0.8-1.2-2.8-2.2c-0.6-0.3-1.3-0.7-2.1-1c-0.2-0.3-0.5-0.7-0.9-1.1c-0.5-0.6-1.1-1.4-1.7-2.3 c-0.1-0.2-0.3-0.5-0.4-0.7l-0.1-0.3c0-0.1,0-0.1,0-0.1c0-0.1,0.1-0.3,0.2-0.3c0.1,0,0.1,0,0.2,0c0.1,0,0.2-0.1,0.3-0.1l0.4-0.1 c0.5-0.1,1.1-0.1,1.8-0.1c1.4,0.1,2.9,0.3,4.5,0.7c4.9,1.2,9.5,2.8,12.8,3.8c0.9,0.3,1.8,0.5,2.5,0.7c-0.1,0.1-0.1,0.1-0.2,0.2 c-0.8,0.8-1.5,1.8-2.1,2.8c-0.6,0.9-1.2,1.9-1.9,3C732.9,264.5,730.9,269.6,729.9,275.1z" class="st16"/><path d="M685.1,248.8c-0.5-1.6-0.8-3.3-0.7-5.1c0-1.7,0.4-3.5,1.2-4.9c0.4-0.7,0.9-1.2,1.4-1.5 c0.5-0.4,1.2-0.5,1.9-0.6c0.8-0.1,1.6,0,2.5,0.1c0.9,0.1,1.8,0.2,2.6,0.4c3.4,0.7,6.3,2,8.5,3.3c4.6,2.7,6.8,5.4,7.4,5 c0.2-0.2,0-1.1-0.9-2.5c-0.9-1.4-2.4-3.3-4.7-5.1c-0.5-0.4-1-0.8-1.6-1.1c1.3,0.3,2.1,0.3,2.2,0.1c0.2-0.5-2.2-2.2-6.2-4.5 c-1-0.6-2.2-1.2-3-1.8c-0.4-0.3-0.7-0.6-0.8-0.9c-0.1-0.3-0.2-0.6-0.1-1c0.1-0.4,0.3-0.8,0.6-1.2c0.3-0.4,0.6-0.6,1.1-0.8 c1-0.4,2.3-0.4,3.7-0.1c1.4,0.3,2.9,1,4.4,1.7c1.7,0.8,3.4,1.2,4.9,1.6c3.1,0.7,6,1,8.3,1.1c3.8,0.2,6.4-0.2,7.3-0.6 c0.7,0.7,1.3,1.4,1.8,2.2c1.3,2,2,4.1,2.3,6.2c0.3,2.1,0.2,4,0,5.7c-0.1,0.9-0.3,1.7-0.4,2.4c-1.2-0.4-2.4-0.8-3.7-1.1 c-1.6-0.4-3.3-0.6-5-0.6c-0.8-0.9-1.8-1.9-3.1-2.8c-3.1-2.1-6.1-3-6.8-2c-0.7,1,1.3,3.5,4.3,5.6c0.2,0.1,0.4,0.3,0.6,0.4 c-0.4,0.3-0.9,0.7-1.2,1c-0.2,0.3-0.3,0.6-0.5,0.8c-0.2,0.3-0.2,0.6-0.2,0.9c0,0.3,0,0.6,0.1,0.9c0.1,0.3,0.2,0.6,0.3,0.9 c0.1,0.3,0.3,0.6,0.4,0.8c0.1,0.2,0.2,0.3,0.3,0.5c0.2,0.3,0.5,0.6,0.7,0.8c0,0,0,0,0,0c-0.7-0.1-1.5-0.2-2.2-0.3 c-2.1-0.2-4.6,0-7.1,0.9c-2.5,0.9-5,2.4-7.1,4.7c-0.9,1-1.6,2.1-2.3,3.3c-0.1-0.1-0.1-0.1-0.2-0.2c-0.3-0.2-0.9-0.5-1.5-0.9 c-1.3-0.8-3.1-2-4.9-3.9c-0.9-0.9-1.8-2-2.5-3.3C686.3,251.9,685.6,250.4,685.1,248.8z" class="st16"/><path d="M862.4,179.5c0,0,15.1-3.4,18.7-5c0,0,14.2,31.3,19.3,53.6c5,22.3,8.4,40.5,5.9,61.4 c-2.5,20.9-9.2,39.4-23.5,54.2s-33.2,21.5-33.2,21.5s-7.4,3.2-12.8,0.6l0.3-1c0,0,7.2-5.5,10.7-14.3s7.1-19.2,3.5-33 c0,0,5,25.3,16.6,22.7c11.6-2.6,22.1-23.3,25.8-42.6c3.7-19.4,1-59.1-9.4-89.9S862.4,179.5,862.4,179.5z" class="st17"/><path d="M812.3,245.8l-12,6.2c0,0,17-50.9,25.4-53.9c8.5-3,22.4-6.1,32.1,6.7c0,0-17.6-6-29.1,9.1 C817.2,229,812.3,245.8,812.3,245.8z" class="st18"/><path d="M846.2,323.7c0,0,3,28.4-19.9,43.2c0,0-19.5,7.2-76.7-29.7l-5.1-2.1l22-20.3c0,0-5.9,15.3,13.6,22 s31.8,11.4,42,10.2S842.8,339.4,846.2,323.7z" class="st17"/><path d="M772,164.2c0,0,17.4,9.6,42.7,7.8s46.2-8.3,57.9-19.6c11.8-11.3,36.6-41.8,30.9-73.2l-8.3-26.6 c0,0,11.3,32.7,0.9,53.6s-34.4,38.3-64,44.9c0,0-4.8,1.3-10,1.3C816.9,152.5,786,166.9,772,164.2z" class="st17"/><path d="M763.7,316.1c-39,47.8-42.2,48.3-42.2,48.3c-35.8,2.7-53.9-24.8-53.9-24.8s18.7,13,43.1,4.8 C735,336.1,763.7,316.1,763.7,316.1z" class="st17"/><path d="M713.3,385l-4.5,11.7c0,0-10.8,12.3-44.6,5.8c0,0-19.8-3.4-31.8-14.5c-12-11.1-13.2-14.5-11.1-20 c0,0,8,13.2,22.8,17.2c14.8,4,39.1,2.6,43.8,0.9C687.9,386.2,708.5,388.2,713.3,385z" class="st17"/><path d="M874.5,232.5c0,0-6.8,27.6-20,34.4l-24.8,26c0,0,15.6,8.8,17.2,17.2c1.6,8.4,2.8,12,2.8,12s-5.6-18.4,4-31.2 C863.3,278,874.5,232.5,874.5,232.5z" class="st17"/><path d="M697.2,262.2l-8.8-4.2l-32.6,47c0,0,4.9,15,12.8,20.6c0,0-6.6-14.5-3.5-21.3s22.3-37,22.3-37 S689.6,263.3,697.2,262.2z" class="st18"/><path d="M731.3,292.7c0,0-20.5-1.4-29.3-8l-2.7,1.9c0,0-18.1,18.7-32.9,52.6c0,0,6.8,10.1,19.3,16.8 c0,0-13.7-13.2-4.6-27.2c9.1-14,14-22.6,14-22.6S710.1,288.7,731.3,292.7z" class="st18"/><path d="M641.8,317.4c0,0-11.7-6.1-17.8-5.8s-13.7,5.8-13.7,5.8l6.4,17.5c0,0-0.8-9.7,3.8-12.5 C625,319.7,626.5,317.4,641.8,317.4z" class="st18"/><path d="M619.6,370.3c0,0,6.9-14.2,37.4-13c0,0,2.8,6.9,5.8,9.7C662.9,367,643.8,358.1,619.6,370.3z" class="st18"/><path d="M741.4,254.3c0,0-17.6-8.1-25.2-6.2c0,0-1.7,5.8,3.1,7.5C719.4,255.7,725.8,250.1,741.4,254.3z" class="st18"/><path d="M723.4,257c0,0-14.3-5.6-19.7,1.5c0,0-7.9,5-6.2,13.2c0,0,1.7,11.6,13.4,16.1c0,0-8.1-11-7-16.4 C705.1,265.9,709.9,259.2,723.4,257z" class="st18"/><path d="M722.3,230.1l-24.9-6.2c0,0-5.9,4.3-4.5,6.4c1.4,2.1,10,5.7,10,5.7S698.1,228.7,722.3,230.1z" class="st18"/><path d="M707.8,242.7c0,0-13.1-12.6-23.3-5.9c-10.2,6.7,3.8,21.3,3.8,21.3s-1.4-8.7,0-12S693.6,238.4,707.8,242.7z" class="st18"/><path d="M765.6,21c0,0,54.9-32.3,99.8,0.4c0,0,12.6,9.6,19.6,17.9c0,0-33.6-23.5-71-11.8 C814,27.6,803.1,15.8,765.6,21z" class="st18"/><path d="M874.6,72.2c0,0-16.6,1.1-19.1,21c-2.5,19.9,6.2,27.8,7.9,28.1s3.9,0,3.9,0s-7.9-17.4-7.3-21 C860.6,96.6,860.9,81.7,874.6,72.2z" class="st18"/><ellipse cx="876.1" cy="97.3" class="st17" rx="23.7" ry="14.2" transform="matrix(7.257992e-02 -0.9974 0.9974 7.257992e-02 715.5438 964.0326)"/><g><g><g><g><g><linearGradient id="SVGID_1_" x1="807.225" x2="909.294" y1="73.895" y2="73.895" gradientTransform="matrix(0.9933 -0.1158 0.1158 0.9933 0.5701 294.2891)" gradientUnits="userSpaceOnUse"><stop offset=".038" style="stop-color:#1f1143"/><stop offset=".965" style="stop-color:#15103a"/></linearGradient><path d="M822.5,373.1c0-0.2,0.9-0.5,2.5-1c0.8-0.2,1.9-0.5,3.1-0.7c0.6-0.1,1.3-0.3,2-0.4 c0.7-0.2,1.5-0.4,2.2-0.6c1.6-0.4,3.4-0.9,5.3-1.4c1.9-0.6,4-1.2,6.2-1.9c2.2-0.7,4.5-1.7,7-2.5c1.2-0.5,2.4-1.1,3.7-1.6 c0.6-0.3,1.3-0.6,1.9-0.8c0.3-0.1,0.6-0.3,1-0.4c0.3-0.2,0.6-0.3,1-0.5c1.3-0.7,2.6-1.4,3.9-2.1c0.3-0.2,0.7-0.4,1-0.5 c0.3-0.2,0.7-0.4,1-0.6c0.7-0.4,1.3-0.8,2-1.2c2.7-1.6,5.3-3.6,8.1-5.5c5.3-4.2,10.5-9.3,15-15.3 c9.1-12.1,15.3-28.1,17.1-45.7c0.9-8.8,0.9-17.4,0.4-25.8c-0.4-4.2-0.7-8.3-1.4-12.2c-0.1-1-0.3-2-0.4-3 c-0.1-1-0.3-2-0.5-2.9c-0.4-1.9-0.7-3.9-1.1-5.8c-3-15.1-7.3-28.5-11.4-39.5c-0.9-2.8-2-5.4-3-7.9c-1-2.5-1.8-4.8-2.7-7 c-0.9-2.2-1.7-4.2-2.5-6c-0.7-1.9-1.4-3.6-2.1-5.1c-2.6-6.1-3.9-9.5-3.5-9.7c0.4-0.2,2.3,2.9,5.6,8.7 c0.8,1.4,1.7,3.1,2.6,4.9c0.9,1.8,1.9,3.8,2.9,5.9c1.1,2.1,2.1,4.4,3.2,6.9c1.1,2.5,2.3,5,3.4,7.8c4.6,11,9.3,24.4,12.8,39.9 c0.4,1.9,0.8,3.9,1.2,5.9c0.2,1,0.4,2,0.5,3c0.2,1,0.3,2,0.5,3.1c0.7,4.1,1.1,8.3,1.6,12.6c0.7,8.6,0.7,17.7-0.3,26.8 c-0.3,2.3-0.6,4.6-0.9,6.8c-0.4,2.2-0.9,4.5-1.3,6.7c-0.6,2.2-1.2,4.3-1.8,6.5c-0.7,2.1-1.5,4.2-2.2,6.3 c-3.2,8.2-7.4,15.6-12.4,22c-5,6.4-10.6,11.7-16.3,15.9c-3,2-5.8,4-8.7,5.6c-0.7,0.4-1.4,0.8-2.1,1.2 c-0.4,0.2-0.7,0.4-1.1,0.6c-0.4,0.2-0.7,0.3-1.1,0.5c-1.4,0.7-2.8,1.3-4.2,2c-0.3,0.2-0.7,0.3-1,0.5c-0.3,0.1-0.7,0.3-1,0.4 c-0.7,0.3-1.4,0.5-2,0.8c-1.3,0.5-2.6,1-3.9,1.5c-2.6,0.8-5,1.6-7.3,2.2c-2.3,0.5-4.5,1-6.5,1.5c-2,0.4-3.8,0.6-5.5,0.9 c-0.8,0.1-1.6,0.2-2.3,0.3c-0.7,0.1-1.4,0.1-2.1,0.2c-1.3,0.1-2.4,0.2-3.2,0.2C823.4,373.3,822.5,373.3,822.5,373.1z" class="st19"/></g></g></g></g><g><g><g><g><linearGradient id="SVGID_2_" x1="794.977" x2="842.566" y1="134.078" y2="134.078" gradientTransform="matrix(0.9933 -0.1158 0.1158 0.9933 0.5701 294.2891)" gradientUnits="userSpaceOnUse"><stop offset=".038" style="stop-color:#1f1143"/><stop offset=".965" style="stop-color:#15103a"/></linearGradient><path d="M809.9,371.3c0.1-0.2,0.5-0.3,1.2-0.4c0.7-0.1,1.8,0,3.1-0.1c2.6-0.1,6.4-0.8,10.4-2.8 c1-0.4,2-1.2,3.1-1.8c0.5-0.3,1-0.8,1.5-1.1c0.3-0.2,0.5-0.4,0.8-0.6c0.3-0.2,0.5-0.4,0.8-0.7c2.1-1.7,4.1-3.9,5.9-6.3 c1.9-2.4,3.6-5.2,5.1-8.2c1.5-3,2.7-6.2,3.6-9.7c0.9-3.4,1.4-6.8,1.5-10.2c0.1-3.3-0.1-6.5-0.7-9.5c-1.1-6-3.6-11.1-6.1-15 c-0.7-1-1.3-1.9-1.9-2.7c-0.7-0.8-1.3-1.6-1.9-2.4c-0.6-0.7-1.2-1.3-1.8-2c-0.6-0.6-1-1.2-1.5-1.7c-1.9-1.9-2.9-3.1-2.7-3.4 c0.2-0.3,1.7,0.3,4.1,1.7c0.6,0.4,1.2,0.8,1.9,1.4c0.7,0.5,1.5,1,2.2,1.7c0.7,0.7,1.5,1.4,2.4,2.2c0.8,0.8,1.6,1.8,2.4,2.7 c3.3,4,6.5,9.5,8,16.3c1.7,6.7,1.7,14.6-0.3,22.2c-1,3.9-2.4,7.5-4.1,10.8c-1.7,3.3-3.7,6.4-6,9c-2.3,2.6-4.6,4.9-7.1,6.7 c-0.3,0.2-0.6,0.5-0.9,0.7c-0.3,0.2-0.6,0.4-1,0.6c-0.6,0.4-1.2,0.8-1.9,1.1c-1.3,0.6-2.5,1.3-3.8,1.7 c-5,1.9-9.4,1.9-12.2,1.3c-1.4-0.2-2.5-0.7-3.2-1C810.2,371.8,809.9,371.5,809.9,371.3z" class="st20"/></g></g></g></g><g><g><g><g><linearGradient id="SVGID_3_" x1="738.352" x2="832.698" y1="150.554" y2="150.554" gradientTransform="matrix(0.9933 -0.1158 0.1158 0.9933 0.5701 294.2891)" gradientUnits="userSpaceOnUse"><stop offset=".038" style="stop-color:#1f1143"/><stop offset=".965" style="stop-color:#15103a"/></linearGradient><path d="M846.2,358.1c0.2,0.1,0.2,0.5,0.1,1.3c-0.1,0.4-0.1,0.9-0.4,1.4c-0.2,0.5-0.4,1.2-0.9,1.8 c-0.2,0.3-0.4,0.7-0.7,1c-0.2,0.4-0.5,0.7-0.8,1c-0.6,0.7-1.4,1.4-2.2,2.1c-1.7,1.3-3.9,2.6-6.4,3.5 c-2.5,0.9-5.4,1.6-8.5,1.9c-3.1,0.4-6.4,0.4-9.8,0.2c-6.9-0.4-14.3-2-21.8-4.6c-14.9-5.2-26.9-13.2-34.7-19.7 c-7.9-6.5-11.8-11.5-11.3-12c0.6-0.6,5.5,3.2,13.7,8.7c8.2,5.5,20,12.6,34.2,17.5c7,2.4,14,4.1,20.3,4.8 c3.2,0.3,6.2,0.5,9,0.3c2.8-0.1,5.4-0.5,7.7-1.1c2.3-0.6,4.2-1.4,5.8-2.3c0.8-0.5,1.5-0.9,2.1-1.4c0.3-0.2,0.6-0.5,0.9-0.7 c0.3-0.3,0.5-0.5,0.7-0.7c0.5-0.4,0.8-0.9,1.2-1.3c0.4-0.4,0.6-0.7,0.8-1C845.7,358.3,846,358,846.2,358.1z" class="st21"/></g></g></g></g><g><g><g><g><linearGradient id="SVGID_4_" x1="820.77" x2="853.718" y1="160.061" y2="160.061" gradientTransform="matrix(0.9933 -0.1158 0.1158 0.9933 0.5701 294.2891)" gradientUnits="userSpaceOnUse"><stop offset=".038" style="stop-color:#1f1143"/><stop offset=".965" style="stop-color:#15103a"/></linearGradient><path d="M835.7,369.7c-0.1-0.4,2.1-1.2,5.4-2.9c3.3-1.7,7.7-4.4,12-8c2.2-1.8,4-3.8,5.6-5.6 c0.8-0.9,1.5-1.9,2.1-2.7c0.6-0.9,1.2-1.7,1.6-2.5c0.4-0.8,0.8-1.5,1.2-2.2s0.6-1.2,0.9-1.7c0.5-0.9,0.9-1.4,1.1-1.4 c0.2,0.1,0.2,0.7,0,1.7c-0.1,0.5-0.2,1.2-0.4,2c-0.2,0.7-0.5,1.6-0.9,2.5c-0.4,0.9-0.9,1.8-1.4,2.9c-0.6,1-1.3,2-2,3.1 c-1.6,2.1-3.5,4.2-5.8,6.1c-4.6,3.9-9.4,6.4-13.1,7.7c-1.8,0.7-3.4,1-4.5,1.2C836.4,369.9,835.7,369.8,835.7,369.7z" class="st22"/></g></g></g></g><g><g><g><g><linearGradient id="SVGID_5_" x1="749.031" x2="774.315" y1="72.276" y2="72.276" gradientTransform="matrix(0.9933 -0.1158 0.1158 0.9933 0.5701 294.2891)" gradientUnits="userSpaceOnUse"><stop offset=".038" style="stop-color:#1f1143"/><stop offset=".965" style="stop-color:#15103a"/></linearGradient><path d="M769.7,300.7c0.1,0.2-0.6,1.2-2.7,1.3c-1,0.1-2.3-0.3-3.5-0.9c-1.2-0.7-2.4-1.7-3.5-3 c-2.1-2.5-3.9-6-5.2-10c-1.3-4-2.2-8.6-2.2-13.6c0-4.9,0.9-9.8,3.2-13.7c0.6-1,1.2-1.9,1.9-2.7c0.7-0.8,1.5-1.5,2.4-2.1 c1.7-1.2,3.5-1.9,5.1-2.3c3.3-0.7,6-0.3,7.7,0.2c0.9,0.2,1.5,0.5,1.9,0.7c0.4,0.2,0.6,0.4,0.6,0.6c0,0.1-0.3,0.2-0.8,0.3 c-0.5,0-1.1,0.1-2,0.1c-1.7,0.1-4.1,0.1-6.7,1.1c-2.6,0.9-5.2,2.9-6.8,6.1c-1.6,3.2-2.4,7.4-2.4,11.8c0,4.4,0.7,8.7,1.6,12.4 c1,3.7,2.3,7,3.9,9.3c1.5,2.4,3.2,3.7,4.6,4.1C768.6,300.7,769.6,300.4,769.7,300.7z" class="st23"/></g></g></g></g><g><g><g><g><linearGradient id="SVGID_6_" x1="800.221" x2="875.997" y1="35.372" y2="35.372" gradientTransform="matrix(0.9933 -0.1158 0.1158 0.9933 0.5701 294.2891)" gradientUnits="userSpaceOnUse"><stop offset=".038" style="stop-color:#1f1143"/><stop offset=".965" style="stop-color:#15103a"/></linearGradient><path d="M844.1,273.3c-0.2-0.4,1.9-1.9,5.4-4.8c3.4-2.9,8.3-7.4,12.6-14.1c2.1-3.3,4.1-7.2,5.4-11.6 c1.3-4.4,2.1-9.3,1.8-14.4c-0.3-5.1-1.5-10.4-4-15.3c-2.5-4.8-6.4-9.1-11.3-12.2c-4.9-3.1-10.4-4.8-15.8-4.8 c-5.3,0-10.5,1.7-14.8,4.3c-4.3,2.6-7.9,6-10.6,9.7c-2.8,3.6-4.7,7.5-6.1,11.2c-2.8,7.4-3.7,14-4.3,18.5 c-0.5,4.5-0.8,7.1-1.2,7.1c-0.4,0-0.9-2.5-1.1-7.2c-0.1-4.7,0.1-11.6,2.7-19.8c1.3-4.1,3.2-8.5,6.1-12.7 c2.9-4.2,6.8-8.3,11.7-11.4c4.9-3.2,11-5.4,17.6-5.4c6.5-0.1,13.2,1.9,18.9,5.6c5.7,3.6,10.4,8.8,13.2,14.5 c2.9,5.7,4.2,11.9,4.3,17.7c0.2,5.8-0.9,11.3-2.5,16.1c-1.7,4.8-4.1,9-6.6,12.4c-5.1,6.9-10.7,11.1-14.7,13.6 C846.8,272.8,844.3,273.6,844.1,273.3z" class="st24"/></g></g></g></g><g><g><g><g><linearGradient id="SVGID_7_" x1="796.432" x2="833.3" y1="25.665" y2="25.665" gradientTransform="matrix(0.9933 -0.1158 0.1158 0.9933 0.5701 294.2891)" gradientUnits="userSpaceOnUse"><stop offset=".038" style="stop-color:#1f1143"/><stop offset=".965" style="stop-color:#15103a"/></linearGradient><path d="M798,254.8c-0.8-0.2-0.3-4,1.1-10c1.4-5.9,3.5-14.1,7.1-22.8c1.8-4.4,3.9-8.4,6.1-11.9 c2.3-3.5,4.7-6.4,6.9-8.6c4.6-4.4,8.3-5.9,8.7-5.3c0.5,0.7-2.2,3.3-5.6,8c-1.7,2.4-3.6,5.3-5.4,8.7 c-1.8,3.4-3.7,7.3-5.4,11.4c-3.4,8.4-6.1,16.3-8.5,21.9C800.7,251.7,798.8,255.1,798,254.8z" class="st25"/></g></g></g></g><g><g><g><g><linearGradient id="SVGID_8_" x1="759.805" x2="813.395" y1="50.856" y2="50.856" gradientTransform="matrix(0.9933 -0.1158 0.1158 0.9933 0.5701 294.2891)" gradientUnits="userSpaceOnUse"><stop offset=".038" style="stop-color:#1f1143"/><stop offset=".965" style="stop-color:#15103a"/></linearGradient><path d="M813.7,245.6c0.3,0.3-0.1,1.1-0.9,2.3c-0.9,1.2-2.2,2.8-4.3,4.4c-1,0.8-2.2,1.7-3.6,2.5 c-0.7,0.4-1.4,0.8-2.2,1.2c-0.4,0.2-0.9,0.3-1.3,0.5c-0.4,0.1-0.9,0.3-1.3,0.4c-3.5,1-7.2,1.4-11,1.8 c-7.7,0.6-14.6,0.7-19.5,0.7c-5,0-8.1-0.2-8.2-1c-0.1-0.8,2.8-2.1,7.8-3.1c5-1,11.9-1.7,19.4-2.4c3.7-0.3,7.3-0.6,10.3-1.2 c2.8-0.5,5.3-1.7,7.4-2.8c2.1-1.1,3.8-2.1,5.1-2.8C812.6,245.5,813.5,245.3,813.7,245.6z" class="st26"/></g></g></g></g><g><g><g><g><linearGradient id="SVGID_9_" x1="755.997" x2="871.588" y1="69.175" y2="69.175" gradientTransform="matrix(0.9933 -0.1158 0.1158 0.9933 0.5701 294.2891)" gradientUnits="userSpaceOnUse"><stop offset=".038" style="stop-color:#1f1143"/><stop offset=".965" style="stop-color:#15103a"/></linearGradient><path d="M870.2,227.9c0.7,0.1-0.2,8.5-5.5,21c-2.6,6.2-6.4,13.4-11.6,20.7c-2.6,3.6-5.5,7.4-8.9,10.9 c-3.3,3.6-6.9,7.1-10.9,10.4c-4,3.3-8,6.4-12.4,8.9c-2.2,1.2-4.5,2.3-6.8,3.1c-2.4,0.8-4.7,1.3-7,1.7 c-4.6,0.6-8.9,0.6-12.9,0.4c-3.9-0.2-7.6-0.5-10.9-0.9c-6.7-0.8-12-1.9-15.6-2.9c-3.6-1-5.5-1.8-5.5-2.2 c0.1-0.4,2.2-0.3,5.8,0c3.7,0.3,9,0.8,15.5,1.1c3.3,0.1,6.9,0.2,10.7,0.2c3.8,0,7.9-0.2,12-0.9c2-0.4,4-0.9,6-1.6 c2-0.7,3.9-1.7,5.9-2.8c3.9-2.3,7.7-5.3,11.5-8.4c3.8-3.1,7.3-6.5,10.5-9.8c3.2-3.3,6.1-6.8,8.7-10.2 c5.2-6.8,9.2-13.5,12.2-19.3C867,235.5,869.3,227.6,870.2,227.9z" class="st27"/></g></g></g></g><g><g><g><g><linearGradient id="SVGID_10_" x1="713.033" x2="741.869" y1="40.55" y2="40.55" gradientTransform="matrix(0.9933 -0.1158 0.1158 0.9933 0.5701 294.2891)" gradientUnits="userSpaceOnUse"><stop offset=".038" style="stop-color:#1f1143"/><stop offset=".965" style="stop-color:#15103a"/></linearGradient><path d="M720.7,255.7c-0.1,0.4-1.4,0.3-3-0.6c-0.8-0.5-1.7-1.1-2.7-2.1c-0.2-0.3-0.5-0.5-0.7-0.8 c-0.1-0.2-0.2-0.3-0.3-0.5c-0.1-0.1-0.3-0.5-0.4-0.8c-0.1-0.3-0.2-0.6-0.3-0.9c0-0.3,0-0.6-0.1-0.9c0.1-0.3,0.1-0.6,0.2-0.9 c0.2-0.3,0.3-0.6,0.5-0.8c0.4-0.5,1-0.9,1.5-1.2c0.3-0.1,0.5-0.2,0.7-0.3c0.2-0.1,0.5-0.2,0.7-0.2c1-0.3,1.9-0.4,2.8-0.4 c1.8,0,3.6,0.2,5.4,0.7c5.5,1.3,9.9,3.5,13,5.2c3.1,1.7,4.8,3.1,4.6,3.7c-0.2,0.6-2.5,0.2-5.8-0.8c-3.4-1-7.9-2.6-12.8-3.8 c-1.6-0.4-3.1-0.6-4.5-0.7c-0.7,0-1.3,0-1.8,0.1l-0.4,0.1c-0.1,0-0.2,0.1-0.3,0.1c-0.1,0-0.1,0-0.2,0c-0.1,0-0.2,0.2-0.2,0.3 c0,0.1,0,0,0,0.1l0.1,0.3c0.1,0.2,0.2,0.5,0.4,0.7c0.5,0.9,1.2,1.7,1.7,2.3C720.1,254.6,720.8,255.3,720.7,255.7z" class="st28"/></g></g></g></g><g><g><g><g><linearGradient id="SVGID_11_" x1="691.174" x2="728.599" y1="62.36" y2="62.36" gradientTransform="matrix(0.9933 -0.1158 0.1158 0.9933 0.5701 294.2891)" gradientUnits="userSpaceOnUse"><stop offset=".038" style="stop-color:#1f1143"/><stop offset=".965" style="stop-color:#15103a"/></linearGradient><path d="M733.9,292.3c0,0.4-1.2,0.9-3.4,1.3c-2.2,0.4-5.4,0.7-9.5,0.5c-4-0.2-9-1.2-14-3.8 c-1.2-0.6-2.5-1.4-3.7-2.2c-1.2-0.8-2.4-1.7-3.5-2.9c-2.3-2.2-4.3-5.1-5.3-8.6c-0.9-3.4-0.9-6.8-0.2-9.9 c0.4-1.6,0.9-3.1,1.6-4.5c0.7-1.4,1.6-2.7,2.6-3.9c2-2.3,4.6-3.8,7.1-4.7c2.5-0.9,5-1.1,7.1-0.9c2.1,0.2,4,0.6,5.5,1.1 c1.6,0.5,2.8,1.1,3.8,1.6c2,1,3,1.9,2.8,2.2c-0.1,0.4-1.4,0.3-3.5-0.1c-2.1-0.3-5.2-1-8.7-0.8c-3.4,0.2-7.5,1.6-10.1,4.9 c-0.7,0.8-1.2,1.7-1.7,2.8c-0.4,1-0.8,2.1-1,3.3c-0.5,2.3-0.4,4.9,0.2,7.2c0.6,2.3,1.9,4.3,3.7,6.1c0.8,0.9,1.8,1.7,2.8,2.4 c1,0.7,2,1.4,3,2c4.1,2.4,8.3,3.7,11.9,4.4c3.7,0.8,6.8,1,8.9,1.3C732.6,291.6,733.9,291.9,733.9,292.3z" class="st29"/></g></g></g></g><g><g><g><g><linearGradient id="SVGID_12_" x1="705.247" x2="758.954" y1="132.754" y2="132.754" gradientTransform="matrix(0.9933 -0.1158 0.1158 0.9933 0.5701 294.2891)" gradientUnits="userSpaceOnUse"><stop offset=".038" style="stop-color:#1f1143"/><stop offset=".965" style="stop-color:#15103a"/></linearGradient><path d="M719.2,367.9c-0.5-0.7,2.6-3.3,6.2-8.5c1.8-2.6,3.7-5.8,5.8-9.6c2.1-3.7,4.4-7.9,7.3-12.2 c5.9-8.5,13-14.8,18.5-18.5c5.6-3.7,9.6-5.1,10-4.4c0.4,0.7-2.7,3.3-7.4,7.7c-4.7,4.4-10.8,10.7-16.3,18.6 c-2.7,4-5.1,8-7.6,11.7c-2.4,3.7-4.8,6.9-7.2,9.4c-2.4,2.5-4.6,4.2-6.3,5.1C720.5,368.1,719.4,368.3,719.2,367.9z" class="st30"/></g></g></g></g><g><g><g><g><linearGradient id="SVGID_13_" x1="726.192" x2="767.406" y1="126.041" y2="126.041" gradientTransform="matrix(0.9933 -0.1158 0.1158 0.9933 0.5701 294.2891)" gradientUnits="userSpaceOnUse"><stop offset=".038" style="stop-color:#1f1143"/><stop offset=".965" style="stop-color:#15103a"/></linearGradient><path d="M737.8,346.4c-0.2-0.2,2.7-4.1,8.8-9.1c3-2.5,6.9-5.2,11.6-7.6c2.3-1.2,4.9-2.3,7.6-3.2 c1.3-0.5,2.7-0.9,4.1-1.3c0.7-0.2,1.4-0.4,2-0.6c0.6-0.2,1.3-0.5,1.6-0.7c0.1-0.1,0.1-0.1,0.1-0.1c0.1-0.2,0.1-0.4,0.1-0.5 c0-0.1,0-0.1,0-0.1c0,0-0.4-0.2-0.9-0.2c-0.5,0-1.1,0.1-1.6,0.3c-0.6,0.2-1.3,0.5-1.9,0.7c-2.5,0.9-4.9,1.9-7.1,3 c-4.4,2.1-8.2,4.5-11.3,6.6c-6.1,4.3-9.5,7.5-9.8,7.2c-0.1-0.1,0.5-1.1,2-2.7c1.4-1.6,3.6-3.8,6.6-6.1c3-2.4,6.8-5,11.3-7.3 c2.3-1.2,4.7-2.3,7.3-3.3c0.7-0.2,1.3-0.5,2-0.7c0.8-0.3,1.6-0.4,2.5-0.5c0.4,0,0.9,0,1.5,0.2c0.5,0.1,1.1,0.4,1.6,0.9 c0.5,0.5,0.8,1.2,0.8,1.8c0.1,0.7-0.1,1.1-0.2,1.6c-0.2,0.3-0.2,0.7-0.5,0.9c-0.2,0.3-0.4,0.4-0.7,0.6 c-0.9,0.6-1.7,0.8-2.4,1.1c-0.7,0.2-1.4,0.4-2.1,0.6c-1.4,0.4-2.7,0.8-4,1.2c-2.6,0.9-5,1.8-7.3,2.9 c-4.5,2.2-8.4,4.6-11.5,6.9C741.6,343.3,738.1,346.7,737.8,346.4z" class="st31"/></g></g></g></g><g><g><g><g><linearGradient id="SVGID_14_" x1="654.404" x2="696.231" y1="99.01" y2="99.01" gradientTransform="matrix(0.9933 -0.1158 0.1158 0.9933 0.5701 294.2891)" gradientUnits="userSpaceOnUse"><stop offset=".038" style="stop-color:#1f1143"/><stop offset=".965" style="stop-color:#15103a"/></linearGradient><path d="M665.4,343.4c-0.7-0.3-0.2-4.1,1.5-10.2c1.7-6,4.7-14.3,9.4-22.8c2.4-4.2,4.9-8.1,7.5-11.5 c1.4-1.6,2.6-3.2,3.9-4.5c0.7-0.7,1.3-1.3,1.9-2c0.6-0.6,1.3-1.2,1.9-1.7c1.2-1.1,2.4-1.9,3.4-2.7c0.5-0.4,1-0.7,1.4-1 c0.5-0.3,0.9-0.5,1.3-0.7c1.6-0.9,2.6-1.2,2.8-0.9c0.5,0.7-2.1,3.5-6,8.2c-0.5,0.6-1,1.2-1.5,1.8c-0.5,0.6-1,1.4-1.5,2.1 c-1.1,1.4-2.1,3-3.3,4.6c-2.2,3.3-4.5,7.1-6.8,11.1c-4.5,8.1-7.9,15.9-10.6,21.4C668,340.3,666.1,343.7,665.4,343.4z" class="st32"/></g></g></g></g><g><g><g><g><linearGradient id="SVGID_15_" x1="647.86" x2="687.332" y1="66.827" y2="66.827" gradientTransform="matrix(0.9933 -0.1158 0.1158 0.9933 0.5701 294.2891)" gradientUnits="userSpaceOnUse"><stop offset=".038" style="stop-color:#1f1143"/><stop offset=".965" style="stop-color:#15103a"/></linearGradient><path d="M654.7,308.4c-0.7-0.3-0.2-3.8,1.7-9c0.9-2.6,2.3-5.7,3.9-9c1.7-3.3,3.7-6.8,6.1-10.4 c2.4-3.6,4.9-6.8,7.3-9.6c2.4-2.8,4.8-5.2,6.9-7.1c4.2-3.8,7.2-5.5,7.7-5c1.1,1.2-8,11.2-17.1,24.9 C662,296.8,656.3,309,654.7,308.4z" class="st33"/></g></g></g></g><g><g><g><g><linearGradient id="SVGID_16_" x1="652.836" x2="721.148" y1="134.017" y2="134.017" gradientTransform="matrix(0.9933 -0.1158 0.1158 0.9933 0.5701 294.2891)" gradientUnits="userSpaceOnUse"><stop offset=".038" style="stop-color:#1f1143"/><stop offset=".965" style="stop-color:#15103a"/></linearGradient><path d="M729.2,355.2c0-0.2,0.4-0.3,1.1-0.2c0.4,0,0.8,0.1,1.3,0.3c0.6,0.2,1.2,0.6,1.8,1.3 c0.5,0.5,0.6,1.2,0.5,2c-0.1,0.8-0.4,1.7-0.7,2.3c-0.6,1.4-1.6,2.7-2.9,3.9c-2.7,2.4-6.6,3.9-10.9,4.4 c-4.3,0.5-9.1,0.2-13.9-0.6c-1.2-0.2-2.4-0.5-3.7-0.7c-1.2-0.3-2.4-0.6-3.7-1c-2.6-0.7-5.1-1.7-7.6-2.9 c-6.5-3.1-12.3-6.9-17-11.1c-2.3-2.1-4.4-4.3-6.2-6.5c-1.8-2.2-3.3-4.6-4.1-7.1c-0.8-2.5-0.9-5.1-0.2-7.1 c0.2-0.5,0.4-1,0.6-1.4c0.1-0.2,0.2-0.4,0.3-0.6c0.1-0.2,0.3-0.5,0.4-0.7c0.6-0.8,1.5-1.4,2.3-1.6c1.5-0.5,2.5-0.3,3.2-0.2 c0.7,0.1,1.1,0.2,1.1,0.4c0,0.2-0.3,0.4-0.9,0.7c-0.6,0.3-1.6,0.6-2.5,1.1c-0.4,0.3-0.7,0.6-0.9,1.1 c-0.1,0.1-0.1,0.2-0.1,0.4c0,0.2-0.1,0.3-0.2,0.5c-0.1,0.3-0.2,0.7-0.2,1.1c-0.2,1.5,0.1,3.1,0.9,4.9 c0.8,1.8,2.2,3.6,3.9,5.4c1.7,1.9,3.8,3.7,6,5.6c4.5,3.6,9.9,7.1,16,9.9c2.3,1.1,4.5,2,6.8,2.6c1.1,0.3,2.3,0.6,3.5,1 c1.2,0.3,2.3,0.6,3.4,0.8c4.5,1,8.7,1.4,12.4,1.3c3.7-0.2,6.9-1.1,9.1-2.5c1.1-0.7,2-1.6,2.6-2.4c0.3-0.5,0.5-0.7,0.6-1 c0.1-0.3,0.3-0.6,0.1-0.9c-0.2-0.3-0.4-0.6-0.6-0.9c-0.2-0.3-0.6-0.5-0.8-0.7C729.5,355.7,729.2,355.4,729.2,355.2z" class="st34"/></g></g></g></g><g><g><g><g><linearGradient id="SVGID_17_" x1="644.014" x2="714.806" y1="139.332" y2="139.332" gradientTransform="matrix(0.9933 -0.1158 0.1158 0.9933 0.5701 294.2891)" gradientUnits="userSpaceOnUse"><stop offset=".038" style="stop-color:#1f1143"/><stop offset=".965" style="stop-color:#15103a"/></linearGradient><path d="M726.7,360.4c0,0,0.1-0.1,0.2-0.1c0.1,0,0.2,0.1,0.3,0.1c0.2,0.2,0.4,0.4,0.6,0.8 c0.3,0.8,0.7,2,0.6,3.5c0,1.6-0.4,3.5-1.6,5.6c-1.1,2-3.1,4-5.6,5.4c-2.5,1.4-5.5,2.3-8.6,2.8c-3.2,0.5-6.6,0.6-10,0.4 c-7-0.4-14.7-2-22.1-5.5c-7.4-3.4-13.7-8.5-18.2-13.9c-2.3-2.7-4.2-5.5-5.6-8.5c-1.4-3-2.1-6.2-1.8-9.2c0.3-3,1.5-5.5,3-7.2 c1.5-1.8,3.1-2.8,4.4-3.6c2.7-1.4,4.4-1.5,4.6-1.1c0.1,0.4-1.2,1.2-3.3,3c-1,0.9-2.1,2.1-3,3.6c-0.9,1.5-1.6,3.4-1.5,5.5 c0,2.1,0.7,4.5,2,6.9c1.3,2.4,3.1,4.8,5.3,7.1c4.3,4.7,10,9.1,16.7,12.2c6.7,3.1,13.6,4.8,20.1,5.4c3.2,0.3,6.3,0.4,9,0.2 c2.8-0.2,5.3-0.8,7.3-1.7c2.1-0.9,3.6-2.1,4.7-3.5c1.1-1.4,1.7-2.8,2-4.1c0.3-1.3,0.4-2.3,0.5-3c0-0.3,0-0.6,0-0.8 c0-0.1,0-0.2,0-0.2C726.7,360.5,726.7,360.5,726.7,360.4z" class="st35"/></g></g></g></g><g><g><g><g><linearGradient id="SVGID_18_" x1="642.397" x2="711.053" y1="147.511" y2="147.511" gradientTransform="matrix(0.9933 -0.1158 0.1158 0.9933 0.5701 294.2891)" gradientUnits="userSpaceOnUse"><stop offset=".038" style="stop-color:#1f1143"/><stop offset=".965" style="stop-color:#15103a"/></linearGradient><path d="M724.2,370.1c0.1-0.1,0.6,0.1,1,0.8c0.3,0.8,0.6,1.9,0.4,3.4c-0.1,0.7-0.2,1.6-0.6,2.5 c-0.4,0.9-1,1.8-1.7,2.5c-1.4,1.6-3.3,2.9-5.5,4.1c-0.6,0.3-1.2,0.6-1.8,0.8c-0.6,0.2-1.2,0.5-1.9,0.7 c-1.3,0.4-2.6,0.8-4,1.2c-2.8,0.7-5.9,1.1-9.2,1.3c-6.5,0.3-13.9-0.9-20.8-4c-7-3.1-12.7-7.9-16.8-12.9 c-2.1-2.6-3.8-5.1-5.2-7.6c-1.4-2.5-2.5-5.1-3.2-7.5c-1.4-4.9-1-9.2-0.2-11.8c0.8-2.7,1.8-3.9,2.1-3.7 c0.4,0.1,0.2,1.6,0.1,4.1c-0.1,2.5,0.2,6.1,1.8,10.1c0.8,2,2,4.1,3.4,6.3c1.4,2.2,3.2,4.5,5.1,6.6c3.9,4.3,9.1,8.4,15.2,11.1 c12.2,5.6,25.5,4.5,33.6,1.6c2-0.8,3.7-1.8,5-2.8c0.6-0.5,1.1-1,1.5-1.5c0.4-0.5,0.7-1.1,0.9-1.6c0.4-1.1,0.6-2.1,0.6-2.6 C724.1,370.6,724,370.2,724.2,370.1z" class="st36"/></g></g></g></g><g><g><g><g><linearGradient id="SVGID_19_" x1="638.293" x2="656.851" y1="97.267" y2="97.267" gradientTransform="matrix(0.9933 -0.1158 0.1158 0.9933 0.5701 294.2891)" gradientUnits="userSpaceOnUse"><stop offset=".038" style="stop-color:#1f1143"/><stop offset=".965" style="stop-color:#15103a"/></linearGradient><path d="M666.1,330.4c0.1,0.4-0.6,0.9-1.9,1c-1.3,0.1-3.2-0.2-5.3-1.1c-2.1-0.9-4.3-2.5-6.3-4.6 c-2-2.1-3.8-4.9-5.2-7.9c-0.3-0.8-0.7-1.5-0.9-2.3c-0.3-0.8-0.5-1.5-0.8-2.2c-0.1-0.3-0.2-0.8-0.3-1.3 c-0.1-0.4-0.2-0.9-0.2-1.3c-0.1-0.9-0.1-1.7,0-2.5c0.1-1.6,0.5-3.1,1.1-4.5c0.7-1.4,1.7-2.7,3.1-3.4c1.4-0.7,2.7-0.8,3.7-0.6 c1,0.2,1.8,0.5,2.3,0.9c1.1,0.7,1.5,1.3,1.3,1.7c-0.1,0.4-0.9,0.5-2,0.5c-1.1,0-2.5,0.2-3.2,1c-0.7,0.7-1.2,2.5-1.1,4.6 c0,0.5,0.1,1.1,0.2,1.6c0,0.3,0.1,0.5,0.2,0.8c0.1,0.2,0.1,0.4,0.3,0.8c0.2,0.6,0.5,1.3,0.7,1.9c0.3,0.7,0.6,1.3,0.8,1.9 c1.2,2.6,2.5,4.9,4,6.8c1.4,1.9,3,3.4,4.4,4.6c1.4,1.1,2.7,1.9,3.6,2.4C665.4,329.7,666,330,666.1,330.4z" class="st37"/></g></g></g></g><g><g><g><g><linearGradient id="SVGID_20_" x1="632.365" x2="647.964" y1="107.423" y2="107.423" gradientTransform="matrix(0.9933 -0.1158 0.1158 0.9933 0.5701 294.2891)" gradientUnits="userSpaceOnUse"><stop offset=".038" style="stop-color:#1f1143"/><stop offset=".965" style="stop-color:#15103a"/></linearGradient><path d="M658.2,339.8c0,0.4-0.6,0.7-1.7,0.8c-1.1,0.1-2.7-0.1-4.4-0.9c-1.8-0.7-3.7-2.1-5.4-3.9 c-1.7-1.8-3.2-4.2-4.3-6.7c-0.3-0.6-0.5-1.2-0.8-1.9c-0.3-0.7-0.5-1.4-0.6-2.1c-0.3-1.4-0.5-2.7-0.5-4c0-1.3,0.2-2.6,0.6-3.8 c0.4-1.2,1.1-2.3,1.9-3.2c0.8-0.8,1.8-1.4,2.6-1.6c0.8-0.3,1.6-0.3,2.1-0.2c1.1,0.2,1.7,0.6,1.7,0.9c0,0.4-0.5,0.8-1.2,1.3 c-0.7,0.5-1.5,1.2-2,2.1c-0.9,1.9-0.6,6,1.5,10.1c1,2.2,2,4.1,3.2,5.7c1.1,1.6,2.3,2.8,3.4,3.8 C656.4,338.2,658.3,339,658.2,339.8z" class="st38"/></g></g></g></g><g><g><g><g><linearGradient id="SVGID_21_" x1="645.673" x2="662.524" y1="93.207" y2="93.207" gradientTransform="matrix(0.9933 -0.1158 0.1158 0.9933 0.5701 294.2891)" gradientUnits="userSpaceOnUse"><stop offset=".038" style="stop-color:#1f1143"/><stop offset=".965" style="stop-color:#15103a"/></linearGradient><path d="M671.4,326.8c0,0.4-0.6,0.8-1.9,0.9c-1.2,0.1-3.1-0.3-4.9-1.4c-1.9-1.1-3.6-2.7-5.4-4.7 c-1.7-2-3.4-4.5-4.7-7.3c-1.3-2.8-2.2-5.7-2.5-8.4c-0.3-2.7-0.1-5.4,0.8-7.5c0.8-2.1,2.3-3.5,3.4-4c1.2-0.5,1.9-0.4,2.1-0.1 c0.2,0.4-0.1,0.9-0.6,1.8c-0.4,0.8-0.9,2-1,3.5c-0.3,3,0.7,7.6,3,12.4c1.1,2.4,2.4,4.5,3.7,6.4c1.3,1.9,2.6,3.6,3.7,4.7 c1.1,1.2,2.2,1.9,3,2.5C670.8,326,671.4,326.3,671.4,326.8z" class="st39"/></g></g></g></g><g><g><g><g><linearGradient id="SVGID_22_" x1="596.497" x2="698.624" y1="171.474" y2="171.474" gradientTransform="matrix(0.9933 -0.1158 0.1158 0.9933 0.5701 294.2891)" gradientUnits="userSpaceOnUse"><stop offset=".038" style="stop-color:#1f1143"/><stop offset=".965" style="stop-color:#15103a"/></linearGradient><path d="M714.2,383.2c0.4,0.1,0.2,2.9-0.8,7.8c-0.5,2.4-1.3,5.4-2.5,8.8c-1.2,3.4-2.7,7.2-5.3,11.1 c-1.3,2-2.8,3.9-4.8,5.7c-1.9,1.8-4.3,3.4-6.9,4.5c-5.3,2.3-11.4,2.8-17.4,2.5c-12.1-0.7-25-4.2-37.6-9.6 c-3.2-1.4-6.2-2.8-9.2-4.4c-3-1.6-5.8-3.3-8.6-5.3l-1-0.8c-0.3-0.3-0.7-0.5-1-0.9l-1-0.9l-0.5-0.5c-0.2-0.2-0.3-0.3-0.4-0.5 c-1.2-1.4-2.2-2.9-2.9-4.5c-1.5-3.2-2.2-6.5-2.3-9.7c-0.1-3.2,0.2-6.3,0.9-9.1c0.3-1.5,0.7-2.8,1.2-4.2 c0.5-1.4,1-2.6,1.7-3.9c0.7-1.3,1.4-2.5,2.4-3.6c1-1.1,2-2.1,3.1-2.9c2.2-1.6,4.5-2.6,6.6-3.4c8.6-3.4,16.1-3.8,21.1-3.5 c5.1,0.3,7.7,1.2,7.7,1.6c-0.1,0.4-2.8,0.3-7.6,0.7c-4.8,0.4-11.8,1.5-19.6,5.1c-1.9,0.9-3.9,1.9-5.5,3.2 c-1.7,1.3-2.9,2.9-3.9,5c-0.5,1-0.9,2.2-1.3,3.4c-0.4,1.1-0.7,2.4-0.9,3.6c-0.5,2.5-0.7,5.2-0.5,7.8c0.2,2.6,0.8,5.2,2,7.6 c0.6,1.2,1.3,2.2,2.2,3.2c0.9,1,1.9,1.8,3.1,2.7c2.4,1.7,5.1,3.3,7.9,4.8c2.8,1.5,5.8,2.9,8.8,4.2 c12.1,5.2,24.4,8.7,35.6,9.6c5.6,0.4,10.9,0.1,15.2-1.6c4.3-1.7,7.6-4.8,10.1-8.2c2.5-3.4,4.2-6.9,5.6-10 c1.4-3.2,2.5-5.9,3.4-8.2C712.9,385.7,713.8,383.1,714.2,383.2z" class="st40"/></g></g></g></g><g><g><g><g><linearGradient id="SVGID_23_" x1="601.992" x2="630.622" y1="159.656" y2="159.656" gradientTransform="matrix(0.9933 -0.1158 0.1158 0.9933 0.5701 294.2891)" gradientUnits="userSpaceOnUse"><stop offset=".038" style="stop-color:#1f1143"/><stop offset=".965" style="stop-color:#15103a"/></linearGradient><path d="M647.6,398.5c0,0.4-0.9,0.7-2.4,0.6c-1.5-0.1-3.4-0.6-5.8-1.5c-2.3-0.9-5-2.1-7.8-3.8 c-2.8-1.7-5.8-3.8-8.6-6.5c-1.4-1.4-2.7-2.8-3.8-4.4c-1.1-1.6-2-3.2-2.6-5.1c-0.2-0.4-0.3-0.9-0.4-1.4 c-0.1-0.5-0.2-0.9-0.3-1.4c-0.1-0.9-0.1-1.8,0-2.7c0-0.9,0.3-1.7,0.5-2.5c0.3-0.8,0.6-1.4,1-2.1c1.5-2.5,3.4-3.6,4.6-4.3 c1.3-0.6,2.1-0.8,2.4-0.4c0.2,0.3-0.1,1.1-0.9,2.1c-0.7,1.1-1.8,2.5-2.4,4.4c-0.1,0.5-0.3,0.9-0.3,1.4c0,0.5-0.1,1-0.1,1.5 c0,0.5,0.1,1.1,0.2,1.6c0.1,0.3,0.2,0.6,0.3,0.8c0.1,0.3,0.2,0.6,0.3,0.9c0.5,1.2,1.3,2.4,2.2,3.6c0.9,1.2,2,2.4,3.2,3.6 c2.4,2.4,5,4.4,7.5,6.2c2.5,1.8,4.8,3.3,6.7,4.6c1.9,1.3,3.5,2.3,4.6,3C647,397.7,647.6,398.1,647.6,398.5z" class="st41"/></g></g></g></g><g><g><g><g><linearGradient id="SVGID_24_" x1="641.682" x2="695.149" y1="187.797" y2="187.797" gradientTransform="matrix(0.9933 -0.1158 0.1158 0.9933 0.5701 294.2891)" gradientUnits="userSpaceOnUse"><stop offset=".038" style="stop-color:#1f1143"/><stop offset=".965" style="stop-color:#15103a"/></linearGradient><path d="M711.8,393.7c0.4,0.1,0.5,1.1,0,2.6c-0.5,1.6-1.7,3.7-3.8,5.6c-2.1,2-5,3.9-8.5,5.2 c-3.5,1.4-7.5,2.3-11.7,2.7c-8.5,0.7-16-1-21.1-2.9c-5.1-1.9-7.8-3.9-7.5-4.6c0.3-0.8,3.5-0.1,8.6,0.7c5,0.8,12,1.7,19.5,1.1 c7.5-0.6,14.1-2.8,18.1-5.3c2-1.3,3.4-2.6,4.4-3.6C710.8,394.2,711.4,393.6,711.8,393.7z" class="st42"/></g></g></g></g><g><g><g><g><linearGradient id="SVGID_25_" x1="591.893" x2="635.738" y1="113.365" y2="113.365" gradientTransform="matrix(0.9933 -0.1158 0.1158 0.9933 0.5701 294.2891)" gradientUnits="userSpaceOnUse"><stop offset=".038" style="stop-color:#1f1143"/><stop offset=".965" style="stop-color:#15103a"/></linearGradient><path d="M625.6,362.7c-0.2,0.3-1.5-0.2-3.6-1.4c-2-1.3-4.8-3.4-7.9-6.5c-3.1-3.1-6.3-7.3-8.9-12.4 c-1.3-2.6-2.5-5.4-3.5-8.4c-0.5-1.5-1-3.2-1.2-5c-0.2-1.8-0.2-3.8,0.4-5.9c0.6-2.1,1.8-3.7,2.9-5c1.1-1.3,2.4-2.5,3.7-3.6 c2.6-2.1,5.5-3.6,8.5-4.6c1.5-0.5,2.9-0.8,4.4-1c0.7-0.1,1.4-0.2,2.2-0.2c0.8,0,1.5,0,2.2,0.1c2.8,0.3,5.1,1,7.2,1.7 c8.3,3.2,12,7.4,11.5,7.9c-0.3,0.3-1.5-0.2-3.6-1c-2.1-0.8-5.2-2-9.1-3c-1.9-0.4-4.1-0.8-6.2-0.9c-2,0-4.4,0.5-6.7,1.4 c-2.3,0.9-4.6,2.2-6.6,3.9c-2,1.7-4,4-4.6,6c-0.7,2.1-0.2,4.7,0.6,7.4c0.8,2.8,1.8,5.4,2.8,7.8c2.2,4.8,4.7,8.8,7.2,12 c2.5,3.2,4.7,5.7,6.3,7.4C625,361.3,625.8,362.4,625.6,362.7z" class="st43"/></g></g></g></g><g><g><g><g><linearGradient id="SVGID_26_" x1="600.945" x2="624.216" y1="113.073" y2="113.073" gradientTransform="matrix(0.9933 -0.1158 0.1158 0.9933 0.5701 294.2891)" gradientUnits="userSpaceOnUse"><stop offset=".038" style="stop-color:#1f1143"/><stop offset=".965" style="stop-color:#15103a"/></linearGradient><path d="M636.3,357.6c-0.4,0.6-3.5-0.4-7.8-3.3c-4.3-2.9-9.6-7.8-13.9-14.7c-2.1-3.4-3.7-7-4.7-10.4 c-0.9-3.4-1.2-6.8-0.7-9.6c0.5-2.8,2-5,3.3-6c0.7-0.5,1.2-0.7,1.7-0.8c0.4-0.1,0.7,0,0.8,0.1c0.2,0.4-0.3,1-0.8,2.1 c-0.5,1.1-1,2.7-0.9,4.9c0.1,4.3,2.3,10.5,6.2,16.6c3.8,6.1,8.3,11.1,11.6,14.6C634.6,354.7,636.8,356.9,636.3,357.6z" class="st44"/></g></g></g></g><g><g><g><g><linearGradient id="SVGID_27_" x1="725.218" x2="755.313" y1="68.133" y2="68.133" gradientTransform="matrix(0.9933 -0.1158 0.1158 0.9933 0.5701 294.2891)" gradientUnits="userSpaceOnUse"><stop offset=".038" style="stop-color:#1f1143"/><stop offset=".965" style="stop-color:#15103a"/></linearGradient><path d="M750.3,298.7c0.2,0.1,0.2,0.4,0,1c-0.2,0.5-0.7,1.3-1.8,2c-1,0.6-2.5,1-4.1,1c-1.6,0-3.3-0.3-5.1-0.9 c-2.1-0.8-4-2.3-5.4-4.2c-1.4-1.9-2.5-4.1-3.2-6.5c-1.5-4.8-1.7-10.4-0.8-15.9c0.9-5.6,2.9-10.6,5.3-14.8c0.6-1,1.2-2,1.9-3 c0.6-0.9,1.3-1.9,2.1-2.8c1.5-1.7,3.2-3,4.9-4c1.7-0.9,3.4-1.5,5-1.8c1.5-0.2,2.9-0.1,4,0.1c1.1,0.2,1.8,0.7,2.3,1 c0.5,0.4,0.6,0.7,0.5,0.9c-0.2,0.4-1.2,0.1-3,0.4c-1.7,0.2-4.1,1-6.5,2.8c-1.2,0.9-2.4,2.1-3.4,3.6c-0.5,0.7-1,1.5-1.5,2.4 c-0.5,0.9-1,1.8-1.5,2.8c-1.9,3.9-3.5,8.4-4.3,13.2c-0.8,4.8-0.7,9.6,0.2,13.5c0.9,4,2.8,7.2,5,8.4c1.4,0.7,2.7,1.2,3.8,1.5 c1.1,0.3,2.1,0.3,2.8,0.1C749.2,299.3,750,298.5,750.3,298.7z" class="st45"/></g></g></g></g><g><g><g><g><linearGradient id="SVGID_28_" x1="737.774" x2="764.021" y1="69.389" y2="69.389" gradientTransform="matrix(0.9933 -0.1158 0.1158 0.9933 0.5701 294.2891)" gradientUnits="userSpaceOnUse"><stop offset=".038" style="stop-color:#1f1143"/><stop offset=".965" style="stop-color:#15103a"/></linearGradient><path d="M762.8,296.9c0.1,0,0.3,0.3,0.2,0.9c0,0.6-0.2,1.5-0.9,2.5c-0.6,1-1.7,2.1-3.4,2.8 c-1.7,0.7-3.9,0.6-5.9-0.3c-2-0.9-3.9-2.5-5.3-4.4c-1.5-2-2.5-4.3-3.4-6.7c-1.7-4.9-2.7-10.6-2.5-16.6 c0.2-6,1.5-11.6,3.8-16.4c1.1-2.4,2.6-4.5,4.3-6.3c1.7-1.8,3.7-3.1,5.7-3.7c1-0.3,2.1-0.5,3.1-0.5c1,0,2,0.3,2.8,0.6 c1.6,0.6,2.8,1.8,3.3,3c0.5,1.1,0.5,2,0.5,2.6c0,0.6-0.1,0.9-0.2,0.9c-0.1,0-0.4-0.2-0.6-0.7c-0.3-0.5-0.6-1.2-1.1-1.9 c-0.5-0.7-1.4-1.2-2.6-1.6c-1.2-0.3-2.5-0.2-4,0.5c-2.9,1.3-5.7,4.5-7.4,8.8c-1.8,4.3-2.9,9.5-3.1,14.9 c-0.2,5.5,0.6,10.7,2,15.2c0.7,2.3,1.5,4.3,2.6,6c1,1.7,2.3,2.9,3.7,3.7c1.3,0.8,2.7,1,3.9,0.8c1.2-0.2,2.1-0.9,2.8-1.5 C762.2,298,762.5,296.8,762.8,296.9z" class="st46"/></g></g></g></g><g><g><g><g><linearGradient id="SVGID_29_" x1="776.824" x2="799.591" y1="17.617" y2="17.617" gradientTransform="matrix(0.9933 -0.1158 0.1158 0.9933 0.5701 294.2891)" gradientUnits="userSpaceOnUse"><stop offset=".038" style="stop-color:#1f1143"/><stop offset=".965" style="stop-color:#15103a"/></linearGradient><path d="M778.6,255.2c-0.6,0-1.1-4-1.2-10.5c-0.1-6.5,0.3-15.6,2-25.5c0.9-4.9,2-9.6,3.3-13.8 c0.7-2.1,1.3-4,2.1-5.8c0.4-0.9,0.7-1.8,1.1-2.6c0.4-0.8,0.7-1.6,1.1-2.3c2.9-5.9,5.5-9.1,5.9-8.9c0.6,0.3-1,4-3.1,10 c-0.3,0.8-0.5,1.5-0.8,2.4c-0.3,0.8-0.5,1.7-0.8,2.6c-0.6,1.8-1.1,3.7-1.6,5.7c-1,4.1-2,8.6-2.9,13.4 c-1.7,9.6-2.5,18.4-3.2,24.9C779.7,251.2,779.2,255.2,778.6,255.2z" class="st47"/></g></g></g></g><g><g><g><g><linearGradient id="SVGID_30_" x1="767.435" x2="788.297" y1="17.96" y2="17.96" gradientTransform="matrix(0.9933 -0.1158 0.1158 0.9933 0.5701 294.2891)" gradientUnits="userSpaceOnUse"><stop offset=".038" style="stop-color:#1f1143"/><stop offset=".965" style="stop-color:#15103a"/></linearGradient><path d="M770.4,257.1c-0.5,0.1-1.9-3.8-2.8-10.4c-0.1-0.8-0.2-1.7-0.3-2.6c-0.1-0.9-0.1-1.8-0.2-2.8 c-0.2-2-0.2-4-0.2-6.2c0.1-4.4,0.4-9.3,1.2-14.3c0.8-5,2-9.7,3.3-13.9c0.7-2.1,1.4-4.1,2.1-5.9c0.4-0.9,0.7-1.8,1.1-2.6 c0.4-0.8,0.7-1.6,1.1-2.4c2.9-6,5.4-9.3,5.9-9c0.6,0.3-0.9,4.1-3,10.2c-0.3,0.8-0.5,1.6-0.8,2.4c-0.3,0.8-0.5,1.7-0.8,2.6 c-0.6,1.8-1.1,3.8-1.7,5.8c-1.1,4.1-2.1,8.7-2.9,13.5c-0.8,4.8-1.2,9.5-1.5,13.7c-0.1,2.1-0.2,4.1-0.2,6c0,0.9-0.1,1.9,0,2.7 c0,0.9,0,1.7,0,2.5C770.8,252.9,771.1,256.9,770.4,257.1z" class="st48"/></g></g></g></g><g><g><g><g><path d="M788.4,214.3c-1.1-0.3-0.8-5.1,1.2-10.4c2-5.4,5-9.1,6-8.6c1.1,0.5,0,5-2,10.2 C791.7,210.6,789.5,214.7,788.4,214.3z" class="st49"/></g></g></g></g><g><g><g><g><path d="M784.5,232.5c-1.2-0.2-1.8-2.3-1.3-4.8c0.4-2.5,1.8-4.3,2.9-4.1c1.2,0.3,1.8,2.4,1.3,4.8 C787,230.8,785.7,232.7,784.5,232.5z" class="st49"/></g></g></g></g><g><g><g><g><path d="M783.2,248.3c-1.2,0-2.1-1.8-2-3.9c0.1-2.1,1.2-3.8,2.4-3.7c1.2,0.1,2.1,1.9,2,3.9 C785.5,246.6,784.4,248.3,783.2,248.3z" class="st49"/></g></g></g></g><g><g><g><g><linearGradient id="SVGID_31_" x1="825.688" x2="852.495" y1="109.691" y2="109.691" gradientTransform="matrix(0.9933 -0.1158 0.1158 0.9933 0.5701 294.2891)" gradientUnits="userSpaceOnUse"><stop offset=".038" style="stop-color:#1f1143"/><stop offset=".965" style="stop-color:#15103a"/></linearGradient><path d="M859.3,322.5c-0.6-0.1-0.5-2.8-1.3-6.9c-0.7-4.1-2.6-9.6-6.7-14.3c-4.1-4.6-9.3-7.3-13.3-8.5 c-4-1.3-6.7-1.5-6.7-2.2c-0.1-0.5,2.8-1.5,7.4-0.8c2.3,0.3,5,1.1,7.8,2.5c2.8,1.4,5.6,3.5,8,6.2c2.4,2.8,4.1,5.8,5.1,8.8 c1,2.9,1.4,5.7,1.4,8.1C861.1,319.9,859.9,322.6,859.3,322.5z" class="st50"/></g></g></g></g><g><g><g><g><linearGradient id="SVGID_32_" x1="831.595" x2="854.716" y1="95.38" y2="95.38" gradientTransform="matrix(0.9933 -0.1158 0.1158 0.9933 0.5701 294.2891)" gradientUnits="userSpaceOnUse"><stop offset=".038" style="stop-color:#1f1143"/><stop offset=".965" style="stop-color:#15103a"/></linearGradient><path d="M861.1,297.5c-0.5,0.3-1.7-0.8-3.6-2.4c-1.8-1.6-4.4-3.6-7.6-5.1c-3.2-1.4-6.4-1.9-8.7-2 c-2.4-0.1-4,0-4.2-0.6c-0.2-0.5,1.1-1.7,3.9-2.4c2.7-0.7,6.8-0.7,10.8,1.1c4,1.8,6.8,4.7,8.2,7.1 C861.4,295.4,861.6,297.2,861.1,297.5z" class="st51"/></g></g></g></g><g><g><g><g><linearGradient id="SVGID_33_" x1="665.943" x2="678.395" y1="197.847" y2="197.847" gradientTransform="matrix(0.9933 -0.1158 0.1158 0.9933 0.5701 294.2891)" gradientUnits="userSpaceOnUse"><stop offset=".038" style="stop-color:#1f1143"/><stop offset=".965" style="stop-color:#15103a"/></linearGradient><path d="M685.7,420c-0.5-0.6,2-3.6,4.9-7.4c2.9-3.8,5-7.1,5.8-6.7c0.7,0.3-0.4,4.4-3.5,8.5 C689.9,418.4,686.2,420.6,685.7,420z" class="st52"/></g></g></g></g><g><g><g><g><linearGradient id="SVGID_34_" x1="658.873" x2="669.115" y1="198.106" y2="198.106" gradientTransform="matrix(0.9933 -0.1158 0.1158 0.9933 0.5701 294.2891)" gradientUnits="userSpaceOnUse"><stop offset=".038" style="stop-color:#1f1143"/><stop offset=".965" style="stop-color:#15103a"/></linearGradient><path d="M678.8,420.8c-0.6-0.5,0.9-3.7,3.2-7.3c2.3-3.6,4.6-6.4,5.3-6c0.7,0.4-0.4,3.8-2.8,7.6 C682.1,418.8,679.4,421.3,678.8,420.8z" class="st53"/></g></g></g></g><g><g><g><g><linearGradient id="SVGID_35_" x1="652.068" x2="660.391" y1="196.092" y2="196.092" gradientTransform="matrix(0.9933 -0.1158 0.1158 0.9933 0.5701 294.2891)" gradientUnits="userSpaceOnUse"><stop offset=".038" style="stop-color:#1f1143"/><stop offset=".965" style="stop-color:#15103a"/></linearGradient><path d="M671.8,419.9c-0.3-0.3-0.1-1.1,0.4-2.4c0.5-1.3,1.1-3,1.9-4.9c0.8-1.9,1.6-3.6,2.4-4.8 c0.8-1.2,1.5-1.8,1.8-1.7c0.4,0.2,0.4,1.1,0.1,2.4c-0.3,1.4-0.8,3.2-1.6,5.2c-0.8,2-1.8,3.7-2.8,4.8 C673,419.7,672.1,420.1,671.8,419.9z" class="st54"/></g></g></g></g><g><g><g><g><linearGradient id="SVGID_36_" x1="605.298" x2="608.811" y1="168.942" y2="168.942" gradientTransform="matrix(0.9933 -0.1158 0.1158 0.9933 0.5701 294.2891)" gradientUnits="userSpaceOnUse"><stop offset=".038" style="stop-color:#1f1143"/><stop offset=".965" style="stop-color:#15103a"/></linearGradient><path d="M623.6,402c-0.8,0.1-1.9-4.5-2-10.2c-0.1-5.7,0.7-10.3,1.5-10.3c0.8,0,1.2,4.6,1.4,10.2 C624.6,397.3,624.4,401.9,623.6,402z" class="st55"/></g></g></g></g><g><g><g><g><linearGradient id="SVGID_37_" x1="611.377" x2="614.667" y1="175.279" y2="175.279" gradientTransform="matrix(0.9933 -0.1158 0.1158 0.9933 0.5701 294.2891)" gradientUnits="userSpaceOnUse"><stop offset=".038" style="stop-color:#1f1143"/><stop offset=".965" style="stop-color:#15103a"/></linearGradient><path d="M629.5,404.2c-0.8-0.1-1.1-3.1-1.2-6.8c0-3.7,0.3-6.7,1.1-6.8c0.8-0.1,1.8,2.9,1.8,6.8 C631.3,401.2,630.3,404.3,629.5,404.2z" class="st56"/></g></g></g></g><g><g><g><g><linearGradient id="SVGID_38_" x1="616.195" x2="621.024" y1="179.991" y2="179.991" gradientTransform="matrix(0.9933 -0.1158 0.1158 0.9933 0.5701 294.2891)" gradientUnits="userSpaceOnUse"><stop offset=".038" style="stop-color:#1f1143"/><stop offset=".965" style="stop-color:#15103a"/></linearGradient><path d="M634.9,408.7c-0.4,0-0.8-0.9-0.9-2.3c-0.1-1.4,0-3.3,0.4-5.3c0.4-2,0.8-3.8,1.3-5.1 c0.4-1.3,0.8-2,1.3-2c0.4,0,0.7,0.9,0.8,2.3c0.1,1.4-0.1,3.3-0.5,5.3c-0.4,2-0.8,3.8-1.2,5 C635.7,407.9,635.3,408.7,634.9,408.7z" class="st57"/></g></g></g></g><g><g><g><g><linearGradient id="SVGID_39_" x1="623.514" x2="628.2" y1="185.35" y2="185.35" gradientTransform="matrix(0.9933 -0.1158 0.1158 0.9933 0.5701 294.2891)" gradientUnits="userSpaceOnUse"><stop offset=".038" style="stop-color:#1f1143"/><stop offset=".965" style="stop-color:#15103a"/></linearGradient><path d="M642.5,411.4c-0.4-0.1-0.7-0.8-0.7-1.9c0-1.1,0.2-2.5,0.5-4c0.4-1.5,0.8-2.8,1.2-3.7 c0.4-0.9,0.8-1.5,1.2-1.5c0.4,0,0.7,0.7,0.8,1.8c0.1,1.1-0.1,2.6-0.5,4.1c-0.4,1.5-0.9,2.8-1.4,3.8 C643.3,410.9,642.9,411.5,642.5,411.4z" class="st58"/></g></g></g></g><g><g><g><g><linearGradient id="SVGID_40_" x1="630.704" x2="634.914" y1="188.552" y2="188.552" gradientTransform="matrix(0.9933 -0.1158 0.1158 0.9933 0.5701 294.2891)" gradientUnits="userSpaceOnUse"><stop offset=".038" style="stop-color:#1f1143"/><stop offset=".965" style="stop-color:#15103a"/></linearGradient><path d="M649.9,413.1c-0.8-0.2-0.9-2.5-0.4-5.1c0.6-2.7,1.7-4.7,2.5-4.5c0.8,0.2,0.9,2.5,0.4,5.1 C651.8,411.2,650.7,413.3,649.9,413.1z" class="st59"/></g></g></g></g><g><g><g><g><linearGradient id="SVGID_41_" x1="638.9" x2="643.677" y1="191.928" y2="191.928" gradientTransform="matrix(0.9933 -0.1158 0.1158 0.9933 0.5701 294.2891)" gradientUnits="userSpaceOnUse"><stop offset=".038" style="stop-color:#1f1143"/><stop offset=".965" style="stop-color:#15103a"/></linearGradient><path d="M658.3,415.7c-0.8-0.3-0.6-2.7,0.2-5.4c0.8-2.7,1.8-4.8,2.6-4.7c0.8,0.1,1,2.6,0.2,5.5 C660.5,413.9,659.1,415.9,658.3,415.7z" class="st60"/></g></g></g></g><g><g><g><g><linearGradient id="SVGID_42_" x1="645.529" x2="650.016" y1="194.95" y2="194.95" gradientTransform="matrix(0.9933 -0.1158 0.1158 0.9933 0.5701 294.2891)" gradientUnits="userSpaceOnUse"><stop offset=".038" style="stop-color:#1f1143"/><stop offset=".965" style="stop-color:#15103a"/></linearGradient><path d="M665.3,418.1c-0.8-0.3-0.6-2.7,0-5.5c0.6-2.8,1.6-5,2.4-4.9c0.8,0.1,1.1,2.6,0.5,5.6 C667.4,416.2,666,418.3,665.3,418.1z" class="st61"/></g></g></g></g><g><g><g><g><linearGradient id="SVGID_43_" x1="670.025" x2="683.054" y1="198.541" y2="198.541" gradientTransform="matrix(0.9933 -0.1158 0.1158 0.9933 0.5701 294.2891)" gradientUnits="userSpaceOnUse"><stop offset=".038" style="stop-color:#1f1143"/><stop offset=".965" style="stop-color:#15103a"/></linearGradient><path d="M689.9,420.7c-0.2-0.3,0.4-1.2,1.3-2.6c1-1.3,2.2-3.2,3.6-5.4c1.4-2.2,2.7-4.2,3.9-5.5 c1.2-1.3,2.1-2,2.4-1.8c0.3,0.2,0,1.3-0.7,2.9c-0.7,1.6-1.7,3.7-3.2,6c-1.4,2.3-3.1,4.2-4.6,5.3 C691.3,420.7,690.1,421,689.9,420.7z" class="st62"/></g></g></g></g><g><g><g><g><linearGradient id="SVGID_44_" x1="600.491" x2="605.841" y1="166.878" y2="166.878" gradientTransform="matrix(0.9933 -0.1158 0.1158 0.9933 0.5701 294.2891)" gradientUnits="userSpaceOnUse"><stop offset=".038" style="stop-color:#1f1143"/><stop offset=".965" style="stop-color:#15103a"/></linearGradient><path d="M618.5,401.2c-0.8,0.1-2-4.9-1.5-11.2c0.5-6.3,2.4-11.1,3.2-10.8c0.8,0.2,0.2,5.1-0.3,11.1 C619.4,396.2,619.3,401.1,618.5,401.2z" class="st63"/></g></g></g></g><g><g><g><g><linearGradient id="SVGID_45_" x1="596.811" x2="603.681" y1="104.7" y2="104.7" gradientTransform="matrix(0.9933 -0.1158 0.1158 0.9933 0.5701 294.2891)" gradientUnits="userSpaceOnUse"><stop offset=".038" style="stop-color:#1f1143"/><stop offset=".965" style="stop-color:#15103a"/></linearGradient><path d="M612,326.5c0.5,0.6-0.5,2.2-2.2,3.5c-1.8,1.3-3.6,1.7-4,1c-0.4-0.7,0.6-2.1,2.3-3.4 C609.8,326.4,611.5,325.8,612,326.5z" class="st64"/></g></g></g></g><g><g><g><g><linearGradient id="SVGID_46_" x1="597.479" x2="605.102" y1="108.998" y2="108.998" gradientTransform="matrix(0.9933 -0.1158 0.1158 0.9933 0.5701 294.2891)" gradientUnits="userSpaceOnUse"><stop offset=".038" style="stop-color:#1f1143"/><stop offset=".965" style="stop-color:#15103a"/></linearGradient><path d="M614,330.6c0.4,0.7-0.9,2.1-2.8,3.4c-1.9,1.2-3.7,1.9-4.2,1.3c-0.5-0.6,0.6-2.3,2.6-3.7 C611.6,330.3,613.6,329.9,614,330.6z" class="st65"/></g></g></g></g><g><g><g><g><linearGradient id="SVGID_47_" x1="599.541" x2="605.708" y1="113.929" y2="113.929" gradientTransform="matrix(0.9933 -0.1158 0.1158 0.9933 0.5701 294.2891)" gradientUnits="userSpaceOnUse"><stop offset=".038" style="stop-color:#1f1143"/><stop offset=".965" style="stop-color:#15103a"/></linearGradient><path d="M615.1,335.8c0.5,0.7-0.4,2-2,3c-1.6,1-3.2,1.3-3.6,0.6c-0.4-0.7,0.5-2.1,2-3 C613.1,335.4,614.7,335.1,615.1,335.8z" class="st66"/></g></g></g></g><g><g><g><g><linearGradient id="SVGID_48_" x1="600.781" x2="609.879" y1="119.503" y2="119.503" gradientTransform="matrix(0.9933 -0.1158 0.1158 0.9933 0.5701 294.2891)" gradientUnits="userSpaceOnUse"><stop offset=".038" style="stop-color:#1f1143"/><stop offset=".965" style="stop-color:#15103a"/></linearGradient><path d="M619.9,340.4c0.4,0.7-1.2,2.3-3.5,3.7c-2.4,1.3-4.6,1.9-5,1.2c-0.4-0.7,1.2-2.3,3.5-3.7 C617.3,340.3,619.5,339.7,619.9,340.4z" class="st67"/></g></g></g></g><g><g><g><g><linearGradient id="SVGID_49_" x1="603.366" x2="611.609" y1="124.184" y2="124.184" gradientTransform="matrix(0.9933 -0.1158 0.1158 0.9933 0.5701 294.2891)" gradientUnits="userSpaceOnUse"><stop offset=".038" style="stop-color:#1f1143"/><stop offset=".965" style="stop-color:#15103a"/></linearGradient><path d="M622.2,345.2c0.3,0.7-1.1,2.2-3.2,3.3c-2.1,1.1-4.1,1.4-4.6,0.7c-0.4-0.7,1-2.2,3.2-3.3 C619.9,344.8,621.9,344.5,622.2,345.2z" class="st68"/></g></g></g></g><g><g><g><g><linearGradient id="SVGID_50_" x1="606.876" x2="615.246" y1="129.127" y2="129.127" gradientTransform="matrix(0.9933 -0.1158 0.1158 0.9933 0.5701 294.2891)" gradientUnits="userSpaceOnUse"><stop offset=".038" style="stop-color:#1f1143"/><stop offset=".965" style="stop-color:#15103a"/></linearGradient><path d="M626.4,349.6c0.4,0.7-1.1,2.3-3.2,3.5c-2.1,1.2-4.2,1.6-4.6,0.9c-0.4-0.7,1-2.2,3.2-3.5 C624,349.3,626,348.9,626.4,349.6z" class="st69"/></g></g></g></g><g><g><g><g><linearGradient id="SVGID_51_" x1="610.532" x2="618.214" y1="133.749" y2="133.749" gradientTransform="matrix(0.9933 -0.1158 0.1158 0.9933 0.5701 294.2891)" gradientUnits="userSpaceOnUse"><stop offset=".038" style="stop-color:#1f1143"/><stop offset=".965" style="stop-color:#15103a"/></linearGradient><path d="M630,354.6c0.3,0.7-1.1,2-3.2,2.7c-2,0.8-3.9,0.8-4.2,0c-0.3-0.7,1.1-2,3.2-2.7 C627.8,353.8,629.7,353.8,630,354.6z" class="st70"/></g></g></g></g><g><g><g><g><linearGradient id="SVGID_52_" x1="680.823" x2="710.483" y1="33.463" y2="33.463" gradientTransform="matrix(0.9933 -0.1158 0.1158 0.9933 0.5701 294.2891)" gradientUnits="userSpaceOnUse"><stop offset=".038" style="stop-color:#1f1143"/><stop offset=".965" style="stop-color:#15103a"/></linearGradient><path d="M696.6,261.9c0,0.1-0.3,0.2-0.7,0.2c-0.4,0-1.1,0-1.9-0.2c-1.6-0.4-3.9-1.3-6.3-3.2 c-1.2-0.9-2.4-2.1-3.4-3.6c-1.1-1.4-2.1-3.1-2.8-5.1c-0.7-1.9-1.2-4.1-1.2-6.4c-0.1-2.3,0.4-4.8,1.7-7.1 c0.7-1.2,1.6-2.3,2.9-3c1.2-0.8,2.7-1.1,3.9-1.2c1.2-0.1,2.4,0,3.4,0.2c1,0.1,2.1,0.3,3,0.6c3.9,1,7,2.8,9.4,4.7 c2.3,1.8,3.9,3.7,4.7,5.1c0.9,1.4,1.1,2.3,0.9,2.5c-0.5,0.4-2.8-2.3-7.4-5c-2.3-1.3-5.2-2.6-8.5-3.3 c-0.8-0.2-1.7-0.3-2.6-0.4c-0.9-0.1-1.8-0.1-2.5-0.1c-0.8,0.1-1.4,0.3-1.9,0.6c-0.5,0.3-1,0.9-1.4,1.5 c-0.8,1.4-1.2,3.2-1.2,4.9c0,1.8,0.2,3.5,0.7,5.1c0.5,1.6,1.2,3,2,4.3c0.8,1.3,1.7,2.4,2.5,3.3c1.8,1.9,3.6,3.1,4.9,3.9 c0.6,0.4,1.2,0.7,1.5,0.9C696.4,261.6,696.6,261.8,696.6,261.9z" class="st71"/></g></g></g></g><g><g><g><g><linearGradient id="SVGID_53_" x1="693.217" x2="727.67" y1="16.848" y2="16.848" gradientTransform="matrix(0.9933 -0.1158 0.1158 0.9933 0.5701 294.2891)" gradientUnits="userSpaceOnUse"><stop offset=".038" style="stop-color:#1f1143"/><stop offset=".965" style="stop-color:#15103a"/></linearGradient><path d="M705.1,236.8c-0.2,0.5-3.1-0.1-7.5-1.7c-0.6-0.2-1.1-0.4-1.7-0.6c-0.6-0.2-1.3-0.5-2-0.9 c-0.7-0.4-1.5-1.1-2.1-2c-0.6-1-0.9-2.2-0.8-3.4c0.1-1.2,0.5-2.2,1.2-3.2c0.7-0.9,1.7-1.7,2.7-2.2c2.1-1,4.4-0.9,6.5-0.4 c2,0.5,3.7,1.4,5.2,2.1c1.3,0.7,2.8,1.1,4.2,1.6c2.8,0.8,5.5,1.4,7.7,1.9c4.5,1,7.3,1.5,7.3,2.1c0,0.6-2.9,1.2-7.7,1 c-2.4-0.1-5.2-0.4-8.3-1.1c-1.6-0.3-3.3-0.8-4.9-1.6c-1.6-0.7-3-1.4-4.4-1.7c-1.4-0.3-2.7-0.3-3.7,0.1 c-0.5,0.2-0.8,0.5-1.1,0.8c-0.3,0.4-0.5,0.8-0.6,1.2c-0.1,0.4,0,0.7,0.1,1c0.1,0.3,0.4,0.6,0.8,0.9c0.8,0.6,2,1.2,3,1.8 C702.9,234.6,705.3,236.3,705.1,236.8z" class="st72"/></g></g></g></g><g><g><g><g><linearGradient id="SVGID_54_" x1="714.067" x2="734.367" y1="26.712" y2="26.712" gradientTransform="matrix(0.9933 -0.1158 0.1158 0.9933 0.5701 294.2891)" gradientUnits="userSpaceOnUse"><stop offset=".038" style="stop-color:#1f1143"/><stop offset=".965" style="stop-color:#15103a"/></linearGradient><path d="M728.5,250.1c-0.6-0.3,0.3-2.4,0.8-5.7c0.2-1.6,0.3-3.6,0-5.7c-0.3-2.1-1-4.2-2.3-6.2 c-0.6-1-1.4-1.9-2.2-2.6c-0.8-0.7-1.6-1.4-2.5-1.8c-1.7-1-3.5-1.2-5.1-1.3c-0.8,0-1.5,0.1-2.2,0.1c-0.6,0.1-1.2,0.2-1.7,0.3 c-1,0.2-1.6,0.2-1.7-0.1s0.2-0.8,1.1-1.5c0.4-0.3,1-0.7,1.7-1c0.7-0.3,1.5-0.7,2.5-0.8c1.9-0.4,4.6-0.4,7.1,0.7 c2.6,1,5,3.1,6.7,5.7c1.7,2.6,2.5,5.6,2.6,8.2c0.1,2.6-0.4,5-1.1,6.8c-0.7,1.8-1.5,3.1-2.2,3.9 C729.3,249.9,728.8,250.2,728.5,250.1z" class="st73"/></g></g></g></g><g><g><g><g><linearGradient id="SVGID_55_" x1="721.458" x2="745.371" y1="27.857" y2="27.857" gradientTransform="matrix(0.9933 -0.1158 0.1158 0.9933 0.5701 294.2891)" gradientUnits="userSpaceOnUse"><stop offset=".038" style="stop-color:#1f1143"/><stop offset=".965" style="stop-color:#15103a"/></linearGradient><path d="M740.5,253c-0.2-0.2,0.1-0.8,0.3-1.9c0.2-1.1,0.5-2.7,0.5-4.8c0-2-0.2-4.5-0.7-7.2 c-0.5-2.6-1.4-5.5-2.8-8.1c-0.7-1.3-1.6-2.4-2.5-3.4c-0.9-1-2-1.7-3-2.3c-2.2-1.1-4.5-1.5-6.5-1.4c-2,0-3.7,0.3-4.9,0.4 c-1.2,0.2-1.9,0.1-2-0.1c-0.1-0.3,0.4-0.8,1.5-1.5c1.1-0.6,2.8-1.4,5.1-1.9c2.3-0.5,5.4-0.4,8.5,0.9c1.5,0.7,3,1.6,4.3,2.9 c1.3,1.2,2.4,2.7,3.3,4.3c1.8,3.2,2.6,6.6,3,9.6c0.3,3,0.2,5.8-0.2,8.1c-0.4,2.3-1.2,4.1-2,5.2 C741.4,252.9,740.6,253.2,740.5,253z" class="st74"/></g></g></g></g><g><g><g><g><linearGradient id="SVGID_56_" x1="740.593" x2="754" y1="30.596" y2="30.596" gradientTransform="matrix(0.9933 -0.1158 0.1158 0.9933 0.5701 294.2891)" gradientUnits="userSpaceOnUse"><stop offset=".038" style="stop-color:#1f1143"/><stop offset=".965" style="stop-color:#15103a"/></linearGradient><path d="M747.2,252.8c-0.5-0.4,0.5-2.2,1.2-5c0.8-2.8,1.2-6.9-0.1-11c-1.3-4.1-4.1-7.1-6.4-9 c-2.3-1.9-4.1-2.7-3.9-3.4c0.1-0.5,2.3-0.8,5.5,0.7c1.6,0.7,3.3,1.9,5,3.6c1.6,1.7,3.1,4,3.9,6.6c0.8,2.6,1,5.3,0.7,7.6 c-0.3,2.3-1,4.3-1.9,5.9C749.6,252,747.6,253.2,747.2,252.8z" class="st75"/></g></g></g></g><g><g><g><g><linearGradient id="SVGID_57_" x1="748.948" x2="764.923" y1="24.297" y2="24.297" gradientTransform="matrix(0.9933 -0.1158 0.1158 0.9933 0.5701 294.2891)" gradientUnits="userSpaceOnUse"><stop offset=".038" style="stop-color:#1f1143"/><stop offset=".965" style="stop-color:#15103a"/></linearGradient><path d="M763.4,233.8c-0.4,0.5-1.5,0.3-2.9-0.2c-1.5-0.5-3.4-1.1-5.5-1.8c-2.1-0.6-4.1-1.1-5.5-1.5 c-1.5-0.4-2.5-0.9-2.5-1.5c-0.1-0.6,0.9-1.2,2.6-1.6c1.7-0.4,4.2-0.3,6.7,0.4c2.5,0.8,4.6,2.1,5.8,3.3 C763.4,232.2,763.8,233.3,763.4,233.8z" class="st76"/></g></g></g></g><g><g><g><g><linearGradient id="SVGID_58_" x1="759.388" x2="780.363" y1="11.55" y2="11.55" gradientTransform="matrix(0.9933 -0.1158 0.1158 0.9933 0.5701 294.2891)" gradientUnits="userSpaceOnUse"><stop offset=".038" style="stop-color:#1f1143"/><stop offset=".965" style="stop-color:#15103a"/></linearGradient><path d="M775.3,202.4c0.5,0.2,0.2,2.3-1.5,5c-0.8,1.3-1.9,2.8-3.1,4.4c-1.1,1.5-2.3,3.3-3.5,5.2 c-4.7,7.6-8.2,14.2-9.3,13.8c-1.1-0.4,0.6-8,5.6-16.1c1.3-2,2.7-3.9,4.1-5.4c1.4-1.5,2.7-2.7,3.8-3.7 C773.6,203.5,774.8,202.1,775.3,202.4z" class="st77"/></g></g></g></g><g><g><g><g><linearGradient id="SVGID_59_" x1="710.93" x2="721.404" y1="33.067" y2="33.067" gradientTransform="matrix(0.9933 -0.1158 0.1158 0.9933 0.5701 294.2891)" gradientUnits="userSpaceOnUse"><stop offset=".038" style="stop-color:#1f1143"/><stop offset=".965" style="stop-color:#15103a"/></linearGradient><path d="M721.2,248.1c-0.8,0.9-3.6-0.1-6.7-2.2c-3-2.1-5-4.6-4.3-5.6c0.7-1,3.7-0.1,6.8,2 C720.1,244.4,722,247.1,721.2,248.1z" class="st78"/></g></g></g></g><g><g><g><g><linearGradient id="SVGID_60_" x1="774.646" x2="903.885" y1="-25.942" y2="-25.942" gradientTransform="matrix(0.9933 -0.1158 0.1158 0.9933 0.5701 294.2891)" gradientUnits="userSpaceOnUse"><stop offset=".038" style="stop-color:#1f1143"/><stop offset=".965" style="stop-color:#15103a"/></linearGradient><path d="M785.9,173.1c0.1,0.3-1.6,0.9-4.7,1.9c-1.5,0.5-3.4,1.1-5.6,1.9c-0.5,0.2-1.1,0.4-1.6,0.6 c-0.3,0.1-0.5,0.2-0.8,0.4c-0.2,0.1-0.5,0.2-0.7,0.4c-0.2,0.1-0.4,0.3-0.4,0.5c0.1,0.2,0.3,0.2,0.5,0.3 c0.2,0,0.4,0.1,0.6,0.1c0.4,0,0.7,0,1,0c2.1,0,4.4-0.1,6.8-0.2c4.8-0.3,9.9-0.7,15.5-1.3c11-1.1,23.4-2.7,36.5-4.6 c12.2-1.8,23.7-3.7,34-5.7c5.2-1,10-2,14.5-3.1c1.1-0.3,2.2-0.5,3.3-0.8c0.5-0.1,1-0.3,1.6-0.4c0.5-0.1,1-0.3,1.4-0.4 c0.3-0.1,0.6-0.1,0.9-0.3c0.2-0.1,0.3-0.1,0.5-0.2c0.1-0.1,0.3-0.2,0.4-0.3c-0.1-0.3-0.4-0.3-0.6-0.4 c-0.2-0.1-0.5-0.1-0.8-0.2c-0.2,0-0.3,0-0.4-0.1c0,0-0.3,0-0.4,0l-0.5,0c-0.7,0-1.4-0.1-2.1-0.1c-2.7-0.1-5-0.1-6.9-0.1 c-3.8-0.1-5.9-0.2-5.9-0.4c0-0.3,2-0.7,5.8-1.2c1.9-0.2,4.2-0.4,7-0.6c0.7,0,1.4-0.1,2.1-0.1l0.6,0c0.2,0,0.4,0,0.7,0 c0.6,0,1.2,0,1.8,0.1c1.2,0.1,2.4,0.3,3.3,0.6c0.4,0.2,0.8,0.4,1.1,0.6c0.3,0.3,0.5,0.5,0.7,1.1c0,0.6-0.1,1-0.4,1.4 c-0.3,0.4-0.6,0.8-1.1,1.1c-1,0.8-2.8,1.5-4.5,2.1c-0.5,0.2-1.1,0.4-1.6,0.6c-0.5,0.2-1.1,0.3-1.6,0.5 c-1.1,0.3-2.2,0.7-3.3,1c-4.5,1.3-9.4,2.4-14.6,3.6c-10.4,2.2-22,4.3-34.2,6.1c-13.1,1.9-25.6,3.4-36.8,4.2 c-5.6,0.4-10.8,0.7-15.7,0.8c-2.4,0-4.7,0-7-0.1c-1.8-0.1-3.7-0.3-4.9-0.7c-0.6-0.2-1.1-0.5-1.4-0.8 c-0.4-0.3-0.6-0.6-0.8-1.2c0-0.5,0.1-0.8,0.3-1.1c0.2-0.3,0.4-0.5,0.7-0.8c0.6-0.5,1.4-1,2.3-1.3c0.9-0.4,1.9-0.7,2.8-1 c0.7-0.2,1.2-0.3,1.8-0.5c2.3-0.6,4.2-1,5.8-1.3C784,173,785.8,172.9,785.9,173.1z" class="st79"/></g></g></g></g><g><g><g><g><linearGradient id="SVGID_61_" x1="783.453" x2="897.875" y1="-18.808" y2="-18.808" gradientTransform="matrix(0.9933 -0.1158 0.1158 0.9933 0.5701 294.2891)" gradientUnits="userSpaceOnUse"><stop offset=".038" style="stop-color:#1f1143"/><stop offset=".965" style="stop-color:#15103a"/></linearGradient><path d="M868.8,168c0-0.3,1.9-0.7,5.3-1.1c1.7-0.2,3.9-0.4,6.4-0.5c0.6,0,1.3,0,1.9,0c0.4,0,0.7,0,1.1,0 c0.5,0,1.1,0,1.7,0.1c1.1,0.1,2.2,0.3,3.1,0.7c0.4,0.2,0.8,0.4,1,0.6c0.3,0.3,0.5,0.6,0.7,1.1c0,0.5-0.1,0.9-0.3,1.3 c-0.2,0.4-0.5,0.7-0.9,1.1c-0.8,0.7-2.2,1.4-3.7,2c-0.5,0.2-1,0.4-1.6,0.6c-0.4,0.2-0.9,0.3-1.4,0.5 c-0.9,0.3-1.8,0.6-2.8,0.9c-3.8,1.2-7.9,2.2-12.3,3.2c-8.7,2-18.4,3.8-28.6,5.4c-9.9,1.5-19.4,2.7-28.1,3.5 c-8.7,0.8-16.5,1.2-23.2,1.1c-0.8,0-1.6,0-2.4-0.1c-0.4,0-0.8-0.1-1.2-0.1c-0.5,0-1-0.1-1.4-0.1c-1.2-0.1-2.3-0.3-3.2-0.6 c-0.9-0.3-1.5-0.6-1.9-1.1c-0.2-0.2-0.4-0.5-0.5-0.9c0-0.4,0.1-0.7,0.3-0.9c0.3-0.5,0.8-0.9,1.4-1.3c1.2-0.7,2.8-1.3,3.9-1.6 c3.6-1,5.6-1.2,5.7-0.9c0.1,0.3-1.8,1.1-5.1,2.5c-0.2,0.1-0.3,0.1-0.4,0.2c-0.1,0.1-0.2,0.1-0.4,0.2 c-0.2,0.1-0.5,0.3-0.7,0.4c-0.2,0.1-0.4,0.3-0.6,0.5c-0.1,0.1-0.1,0.2-0.1,0.4c0.1,0.1,0.2,0.2,0.4,0.3 c0.7,0.2,1.3,0.2,1.8,0.2c0.6,0,1.3,0,1.9,0c0.8,0,1.6,0,2.4-0.1c6.5-0.3,14.2-1,22.8-2c8.6-1,18-2.3,27.8-3.8 c10.1-1.6,19.8-3.3,28.4-5c4.3-0.9,8.4-1.8,12.1-2.8c0.9-0.2,1.8-0.5,2.7-0.8c0.4-0.1,0.9-0.3,1.3-0.4l0.6-0.2l0.3-0.1l0.1,0 c0.2-0.1,0.5-0.1,0.7-0.2c0.2-0.1,0.6-0.2,0.7-0.5c0-0.2-0.3-0.3-0.5-0.4c-0.2-0.1-0.4-0.1-0.7-0.2c-0.1,0-0.3,0-0.4-0.1 c-0.3,0-0.6-0.1-0.9-0.1c-0.6,0-1.3-0.1-1.9-0.1c-2.4-0.1-4.5-0.2-6.3-0.2C870.7,168.4,868.8,168.3,868.8,168z" class="st80"/></g></g></g></g><g><g><g><g><linearGradient id="SVGID_62_" x1="782.525" x2="896.643" y1="-31.54" y2="-31.54" gradientTransform="matrix(0.9933 -0.1158 0.1158 0.9933 0.5701 294.2891)" gradientUnits="userSpaceOnUse"><stop offset=".038" style="stop-color:#1f1143"/><stop offset=".965" style="stop-color:#15103a"/></linearGradient><path d="M870.4,155.1c0-0.3,1.5-0.6,4.2-0.9c1.4-0.1,3-0.3,5-0.3c0.2,0,0.5,0,0.8,0l0.4,0l0.6,0 c0.8,0,1.6,0.1,2.5,0.2c0.8,0.1,1.5,0.4,2.1,0.7c0.5,0.3,1,0.6,1.3,1.4c0,0.5-0.1,0.9-0.3,1.2c-0.2,0.3-0.5,0.7-0.8,1 c-0.7,0.7-2,1.3-3.4,1.9c-0.5,0.2-1.1,0.4-1.6,0.6c-0.4,0.2-0.9,0.3-1.3,0.5c-0.9,0.3-1.8,0.6-2.7,0.9 c-3.7,1.2-7.8,2.3-12.2,3.3c-8.7,2.1-18.6,3.9-29,5.6c-18.7,2.9-35.8,4.5-48.3,4.5c-1.6,0-3.1,0-4.5-0.1 c-0.7,0-1.4-0.1-2.1-0.1c-0.5,0-1.7-0.1-2.6-0.3c-0.9-0.1-1.7-0.3-2.3-0.6c-0.6-0.3-1.1-0.5-1.4-0.9 c-0.2-0.2-0.3-0.4-0.4-0.7c-0.1-0.3,0-0.6,0.1-0.8c0.2-0.4,0.6-0.7,1-1c0.8-0.6,1.8-1,2.6-1.3c0.8-0.3,1.6-0.5,2-0.5 c0.9-0.2,1.4-0.2,1.5,0c0,0.1-0.4,0.4-1.2,0.9c-0.5,0.2-0.8,0.4-1.1,0.7c-0.4,0.2-0.8,0.5-1.1,0.7c-0.2,0.1-0.3,0.3-0.4,0.5 c0,0.1-0.1,0.2,0,0.4c0.1,0.1,0.3,0.2,0.4,0.2c0.6,0.2,1.3,0.2,1.9,0.2c1,0,2.1,0,3.2,0c1.4,0,2.8-0.1,4.3-0.2 c12.2-0.8,29.1-2.9,47.7-5.7c10.4-1.6,20.2-3.3,28.9-5.1c4.3-0.9,8.4-1.8,12.1-2.7c0.9-0.2,1.8-0.5,2.7-0.7 c0.4-0.1,0.9-0.3,1.3-0.4l0.6-0.2l0.3-0.1c0.2-0.1,0.5-0.1,0.8-0.3c0.3-0.1,0.6-0.2,0.8-0.5c0-0.2-0.2-0.3-0.4-0.4 c-0.2-0.1-0.4-0.1-0.6-0.2c-0.2-0.1-0.4-0.1-0.7-0.1l-0.2,0l-0.3,0c-0.2,0-0.5,0-0.7-0.1c-1.9-0.2-3.6-0.3-4.9-0.4 C871.9,155.5,870.4,155.3,870.4,155.1z" class="st81"/></g></g></g></g><g><g><linearGradient id="SVGID_63_" x1="738.886" x2="923.731" y1="-109.296" y2="-109.296" gradientTransform="matrix(0.9933 -0.1158 0.1158 0.9933 0.5701 294.2891)" gradientUnits="userSpaceOnUse"><stop offset=".038" style="stop-color:#1f1143"/><stop offset=".965" style="stop-color:#15103a"/></linearGradient><path d="M803.5,5.2C774,8.7,748.8,24.9,734.3,48c-5.1,8.2-8.9,17.2-11,26.8c-1.9,8.9-2.4,18-1.3,27 c1.7,14.2,7.1,27.3,15.3,38.5c14.2,19.3,36.7,32.8,62.9,36.1l0.6-4.8c-9.7-1.2-18.9-3.9-27.3-7.8c2.7,0.5,5.7,0.8,9.1,1 c2.4,0.1,5,0.1,7.8-0.1c2.8-0.2,5.7-0.6,8.7-1.3c6-1.4,12.5-3.6,18.7-7.4c6.3-3.8,12.1-9.4,16.5-16.3c4.5-6.9,7.7-15,9.7-23.6 c0.2-1.1,0.5-2.2,0.7-3.3c0.2-1.1,0.5-2.2,0.6-3.3c0.3-2.2,0.6-4.5,1-6.7c0.2-1.1,0.2-2.3,0.3-3.4c0.1-1.1,0.2-2.3,0.3-3.4 c0.1-1.1,0.2-2.3,0.2-3.5c0-1.2,0.1-2.3,0.1-3.5c0.2-9.4-1.1-18.6-3.7-27.1c-1.3-4.2-3-8.3-5-12.1c-2.1-3.8-4.4-7.3-7-10.5 c-2.7-3.1-5.5-6-8.6-8.4c-0.7-0.6-1.6-1.2-2.3-1.7l-1.2-0.8l-1.2-0.8c-0.8-0.5-1.6-1-2.4-1.5c-0.8-0.4-1.6-0.9-2.4-1.3 c-0.8-0.4-1.6-0.8-2.5-1.2c-0.8-0.3-1.6-0.7-2.5-1c-1.7-0.6-3.3-1.2-4.9-1.6c-0.8-0.2-1.6-0.5-2.4-0.7 c-0.8-0.2-1.6-0.3-2.4-0.5c-1.6-0.4-3.2-0.5-4.7-0.8c-6.1-0.7-11.7-0.4-16.6,0.3c-1.2,0.1-2.4,0.4-3.5,0.6 c-0.6,0.1-1.1,0.2-1.6,0.3c-0.5,0.1-1,0.3-1.5,0.4c-0.2,0.1-0.4,0.1-0.6,0.1c10.1-5.5,21.5-9.3,33.7-10.7 c48-5.8,91.3,25.8,96.7,70.4c4.1,34.2-15.5,67.7-48.9,83.2l2,4.4c35.3-16.4,56-51.9,51.7-88.2C899.9,32.6,854.1-0.9,803.5,5.2z M777.9,21.6L777.9,21.6c4.7-0.5,10-0.5,15.8,0.3c1.4,0.3,2.9,0.4,4.4,0.9c0.8,0.2,1.5,0.4,2.3,0.5c0.7,0.2,1.5,0.5,2.3,0.7 c1.5,0.4,3,1.1,4.6,1.7c0.8,0.3,1.5,0.7,2.3,1c0.8,0.4,1.5,0.7,2.3,1.1c0.7,0.4,1.5,0.8,2.3,1.3c0.7,0.5,1.5,0.9,2.2,1.4 l1.1,0.7l1.1,0.8c0.7,0.6,1.5,1.1,2.1,1.7c2.8,2.3,5.4,5,7.9,8c2.4,3,4.5,6.3,6.4,9.9c1.8,3.6,3.4,7.4,4.6,11.4 c2.4,8.1,3.6,16.8,3.4,25.8c0,1.1,0,2.2-0.1,3.4c-0.1,1.1-0.2,2.2-0.2,3.4c-0.1,1.1-0.2,2.2-0.2,3.3c-0.1,1.1-0.1,2.2-0.3,3.3 c-0.3,2.2-0.6,4.3-0.9,6.5c-0.1,1.1-0.4,2.1-0.6,3.2c-0.2,1-0.4,2.1-0.7,3.1c-1.9,8.2-4.8,15.9-8.9,22.4 c-4.1,6.5-9.3,11.8-15.1,15.4c-5.8,3.7-11.8,6-17.5,7.5c-2.8,0.7-5.6,1.2-8.2,1.5c-2.6,0.3-5.1,0.4-7.5,0.5c-0.6,0-1.2,0-1.7,0 c-0.6,0-1.1,0-1.7-0.1c-0.5,0-1,0-1.6-0.1c0,0,0,0,0,0c-0.5,0-1-0.1-1.5-0.1c-1.5-0.1-2.9-0.3-4.2-0.4 c-0.4-0.1-0.9-0.1-1.3-0.2l0,0c0,0-0.1,0-0.1,0c-0.8-0.1-1.6-0.2-2.3-0.4c-22.6-12.5-38.4-34.3-41.5-59.9 c-1-8.5-0.6-17.1,1.2-25.4c4.7-21.4,18.1-39.7,36.5-51.7c0.5-0.1,1-0.3,1.5-0.4c0.8-0.2,1.7-0.4,2.6-0.6 c0.9-0.2,1.9-0.4,2.8-0.6c0.5-0.1,1-0.2,1.5-0.3c0.5-0.1,1.1-0.2,1.6-0.2C775.6,21.9,776.7,21.7,777.9,21.6 C777.9,21.6,777.9,21.6,777.9,21.6z" class="st82"/></g></g><g><g><path d="M842.9,88.9c0,1.1,0,2.2-0.1,3.4c-0.1,1.1-0.2,2.2-0.2,3.4c-0.1,1.1-0.2,2.2-0.2,3.3 c-0.1,1.1-0.1,2.2-0.3,3.3c-0.3,2.2-0.6,4.3-0.9,6.5c-0.1,1.1-0.4,2.1-0.6,3.2c-0.2,1-0.4,2.1-0.7,3.1 c-1.9,8.2-4.8,15.9-8.9,22.4c-4.1,6.5-9.3,11.8-15.1,15.4c-5.8,3.7-11.8,6-17.5,7.5c-2.8,0.7-5.6,1.2-8.2,1.5 c-2.6,0.3-5.1,0.4-7.5,0.5c-4.7,0-8.8-0.4-12.1-0.9c-0.8-0.1-1.6-0.2-2.3-0.4c-22.6-12.5-38.4-34.3-41.5-59.9 c-1-8.5-0.6-17.1,1.2-25.4c4.7-21.4,18.1-39.7,36.5-51.7c0.5-0.1,1-0.3,1.5-0.4c0.8-0.2,1.7-0.4,2.6-0.6 c0.9-0.2,1.9-0.4,2.8-0.6c0.5-0.1,1-0.2,1.5-0.3c0.5-0.1,1.1-0.2,1.6-0.2c1.1-0.1,2.2-0.4,3.4-0.4c4.7-0.5,10-0.5,15.9,0.3 c1.4,0.3,2.9,0.4,4.4,0.9c0.8,0.2,1.5,0.4,2.3,0.5c0.7,0.2,1.5,0.5,2.3,0.7c1.5,0.4,3,1.1,4.6,1.7c0.8,0.3,1.5,0.7,2.3,1 c0.8,0.4,1.5,0.7,2.3,1.1c0.7,0.4,1.5,0.8,2.3,1.3c0.7,0.5,1.5,0.9,2.2,1.4l1.1,0.7l1.1,0.8c0.7,0.6,1.5,1.1,2.1,1.7 c2.8,2.3,5.4,5,7.9,8c2.4,3,4.5,6.3,6.4,9.9c1.8,3.6,3.4,7.4,4.6,11.4C841.9,71.2,843.1,79.9,842.9,88.9z" class="st4"/></g></g><g><g><linearGradient id="SVGID_64_" x1="738.886" x2="856.445" y1="-111.271" y2="-111.271" gradientTransform="matrix(0.9933 -0.1158 0.1158 0.9933 0.5701 294.2891)" gradientUnits="userSpaceOnUse"><stop offset=".038" style="stop-color:#1f1143"/><stop offset=".965" style="stop-color:#15103a"/></linearGradient><path d="M837.9,88.2c0,1.2-0.1,2.3-0.1,3.4c-0.1,1.1-0.2,2.2-0.3,3.3l-0.3,3.7c0,0.4-0.1,0.8-0.1,1.2 c0,0.7-0.1,1.3-0.2,1.8l-1.1,7.2c-0.1,0.5-0.2,1.1-0.4,1.7c-0.1,0.4-0.2,0.8-0.3,1.2c0,0-0.6,2.6-0.7,3.2 c-2.1,8.6-5.2,16.2-9.3,22.3c-4.1,6.3-9.3,11.4-15,14.9c-5.2,3.2-11.2,5.7-17.9,7.4c-2.6,0.7-5.5,1.2-8.4,1.6 c-2.4,0.3-4.8,0.4-7.7,0.5c-1.9,0-3.7,0-5.6-0.1l0,0c-2.3-0.1-4.6-0.4-6.9-0.7c-0.5-0.1-1-0.2-1.5-0.2 c-9.9-5.4-18.3-12.3-25-20.3c-8.2-11.2-13.6-24.3-15.3-38.5c-1.1-9-0.7-18.1,1.3-27c2.1-9.6,5.9-18.7,11-26.8 c6.4-9.1,14.9-17.1,24.9-23.6c0.2,0,0.7-0.2,0.7-0.2l2.8-0.7c0.5-0.1,1-0.2,1.6-0.3c0.4-0.1,0.9-0.2,1.4-0.3l1.6-0.3 c0.3-0.1,0.6-0.1,1-0.1c0,0,0.5-0.1,0.5-0.1c0.4,0,0.9-0.1,1.4-0.2c0.4-0.1,0.8-0.1,1.3-0.2c0.2,0,0.5-0.1,0.7-0.1l0.2,0 c1.9-0.2,3.7-0.3,5.6-0.3c0,0,0,0,0,0l0,0c3.6-0.1,7,0.1,10.4,0.6c0.5,0.1,1.1,0.2,1.6,0.3c1,0.2,1.9,0.3,2.7,0.5l2.6,0.6 c0.5,0.1,1,0.3,1.5,0.5l0.8,0.2l0.1,0c0.9,0.2,1.9,0.6,3,1c0.5,0.2,1,0.4,1.6,0.6c0.4,0.2,0.8,0.3,1.2,0.5 c0.3,0.2,0.7,0.3,1,0.5l0.5,0.2c0.6,0.3,1.1,0.5,1.5,0.7l2.5,1.4c0.4,0.3,0.9,0.5,1.3,0.8c0.3,0.2,0.7,0.4,1,0.6l1,0.6l1,0.7 c0.3,0.2,0.6,0.5,1,0.7c0.4,0.3,0.8,0.6,1.2,0.9l0.1,0.1c2.7,2.1,5.3,4.7,7.9,7.8c2.2,2.7,4.4,6,6.5,9.7 c1.8,3.4,3.4,7.2,4.7,11.3C837,70.5,838.1,79.3,837.9,88.2z" class="st83"/></g></g><g><g><g><g><linearGradient id="SVGID_65_" x1="868.452" x2="905.611" y1="-95.592" y2="-95.592" gradientTransform="matrix(0.9933 -0.1158 0.1158 0.9933 0.5701 294.2891)" gradientUnits="userSpaceOnUse"><stop offset=".038" style="stop-color:#1f1143"/><stop offset=".965" style="stop-color:#15103a"/></linearGradient><path d="M887.1,79.2c-0.1,0.1-0.4-0.1-0.9-0.5c-0.2-0.2-0.5-0.4-0.7-0.7c-0.3-0.2-0.7-0.5-1.1-0.9 c-0.4-0.3-0.9-0.6-1.4-1c-0.5-0.3-1.1-0.6-1.7-0.9c-1.3-0.6-2.8-1-4.5-1.2c-1.7-0.2-3.7-0.1-5.6,0.4c-1,0.2-1.9,0.6-2.8,1.1 c-0.2,0.1-0.4,0.2-0.7,0.4l-0.6,0.4c-0.4,0.3-0.9,0.7-1.3,1.1c-3.4,3.2-6.1,7.8-7.6,13.1c-0.4,1.3-0.7,2.6-0.9,4 c-0.2,1.3-0.4,2.6-0.5,3.9c-0.2,2.6-0.1,5.1,0.1,7.5c0.3,2.4,0.8,4.6,1.5,6.5c0.7,1.9,1.7,3.6,2.8,4.9 c1.1,1.3,2.3,2.2,3.5,2.7c0.6,0.2,1.2,0.4,1.8,0.5c0.6,0.1,1.1,0.1,1.6,0.1c2,0,3.1-0.5,3.3-0.2c0.1,0.1-0.1,0.4-0.6,0.8 c-0.5,0.3-1.3,0.8-2.4,1.1c-0.6,0.1-1.2,0.2-2,0.3c-0.7,0-1.5-0.1-2.4-0.3c-1.7-0.4-3.5-1.4-5-2.9c-1.5-1.5-2.9-3.4-3.9-5.6 c-1-2.2-1.7-4.7-2.2-7.3c-0.4-2.6-0.6-5.5-0.4-8.4c0.1-1.4,0.2-2.9,0.5-4.4c0.3-1.5,0.6-3,1-4.5c1.8-5.9,4.9-11.2,9.1-14.9 c0.5-0.4,1-0.9,1.6-1.3c0.3-0.2,0.6-0.4,0.9-0.6c0.3-0.2,0.6-0.3,0.9-0.5c1.3-0.6,2.5-1,3.8-1.2c2.5-0.4,4.8-0.4,6.9,0.1 c2.1,0.4,3.8,1.2,5.2,2.1c0.7,0.5,1.3,0.9,1.8,1.4c0.5,0.5,1,0.9,1.3,1.4c0.3,0.5,0.6,0.9,0.9,1.2c0.2,0.4,0.3,0.7,0.5,1 C887.2,78.8,887.3,79.1,887.1,79.2z" class="st84"/></g></g></g></g><g><g><g><g><linearGradient id="SVGID_66_" x1="874.748" x2="908.863" y1="-93.099" y2="-93.099" gradientTransform="matrix(0.9933 -0.1158 0.1158 0.9933 0.5701 294.2891)" gradientUnits="userSpaceOnUse"><stop offset=".038" style="stop-color:#1f1143"/><stop offset=".965" style="stop-color:#15103a"/></linearGradient><path d="M876.2,73.4c0.1,0.4-1.6,0.7-3.9,2.6c-2.3,1.8-5,5.3-6.8,10.3c-1.9,4.9-3,11.3-2.3,18.2 c0.1,0.9,0.2,1.7,0.4,2.6c0.2,0.8,0.3,1.7,0.6,2.6c0.5,1.7,1.2,3.4,2,4.9c0.9,1.5,2,2.9,3.3,3.8c1.3,0.9,2.9,1.4,4.5,1.2 c1.6-0.1,3.2-0.9,4.6-1.9c1.4-1,2.7-2.4,3.7-3.9c1.1-1.5,2-3.1,2.7-4.7c0.8-1.6,1.3-3.3,1.8-5c1.9-6.7,2-13.2,0.9-18.3 c-0.5-2.6-1.4-4.8-2.4-6.6c-1-1.8-2.2-3.1-3.4-3.9c-0.5-0.5-1.1-0.7-1.6-1c-0.5-0.2-1-0.4-1.3-0.5c-0.7-0.2-1.2-0.4-1.2-0.5 c0-0.1,0.4-0.3,1.3-0.3c0.4,0,1,0,1.6,0.2c0.6,0.2,1.4,0.4,2.1,0.8c1.5,0.8,3.1,2.1,4.5,4c1.4,1.9,2.5,4.3,3.4,7.1 c1.6,5.6,1.9,12.7,0,20.1c-0.5,1.9-1.1,3.8-1.9,5.6c-0.8,1.9-1.8,3.7-3,5.5c-1.2,1.8-2.7,3.5-4.6,4.9 c-1.9,1.4-4.2,2.6-6.8,2.8c-2.6,0.3-5.3-0.6-7.3-2c-2-1.4-3.5-3.3-4.6-5.3c-1.1-1.9-1.9-3.9-2.4-5.9c-0.3-1-0.4-2-0.6-3 c-0.1-1-0.3-2-0.3-2.9c-0.5-7.7,1.1-14.6,3.5-19.8c2.4-5.3,5.8-8.8,8.7-10.5c0.7-0.4,1.4-0.7,2-0.9c0.6-0.2,1.1-0.3,1.5-0.4 C875.8,73.2,876.2,73.2,876.2,73.4z" class="st85"/></g></g></g></g><g><g><g><g><linearGradient id="SVGID_67_" x1="801.936" x2="850.534" y1="-38.4" y2="-38.4" gradientTransform="matrix(0.9933 -0.1158 0.1158 0.9933 0.5701 294.2891)" gradientUnits="userSpaceOnUse"><stop offset=".038" style="stop-color:#1f1143"/><stop offset=".965" style="stop-color:#15103a"/></linearGradient><path d="M808.1,171.7c-0.1-0.5,4.9-1.3,12.2-4.6c3.6-1.7,7.8-4,11.8-7.4c1-0.8,1.9-1.8,2.8-2.8 c0.9-1,1.7-2.1,2.2-3.2c0.2-0.5,0.4-1.1,0.3-1.4c0-0.1,0-0.1,0-0.2c0-0.1-0.1-0.2-0.1-0.3c-0.1-0.2-0.2-0.3-0.4-0.4 c-0.3-0.3-0.8-0.4-1.4-0.5c-0.6-0.1-1.3-0.1-1.8,0c-1.1,0.2-2.1,1-3.2,2c-1.1,1-2.2,2.1-3.4,3c-2.3,1.9-4.7,3.6-7.1,4.9 c-4.8,2.7-9.5,4.4-13.6,5.3c-4,1-7.4,1.2-9.7,1.2c-2.3,0-3.6-0.2-3.6-0.4c0-0.2,1.3-0.4,3.5-0.7c2.2-0.3,5.4-0.9,9.3-2 c3.8-1.1,8.3-2.9,12.7-5.7c2.2-1.4,4.5-3,6.7-4.8c1.1-0.9,2.1-1.9,3.3-3c1.2-1,2.6-2.3,4.6-2.7c0.2-0.1,0.5-0.1,0.8-0.1 c0.2,0,0.5,0,0.7,0c0.4,0,0.9,0,1.4,0.1c0.9,0.2,1.9,0.4,2.8,1.1c0.4,0.3,0.8,0.8,1.1,1.3c0.2,0.2,0.2,0.5,0.3,0.8 c0.1,0.3,0.2,0.6,0.2,0.9c0.1,1.2-0.3,2.1-0.6,2.8c-0.7,1.6-1.7,2.8-2.7,3.9c-1,1.1-2.1,2.1-3.2,3c-4.3,3.5-8.8,5.7-12.7,7.2 c-3.9,1.5-7.2,2.2-9.4,2.6C809.4,171.9,808.1,171.8,808.1,171.7z" class="st86"/></g></g></g></g><g><g><g><g><linearGradient id="SVGID_68_" x1="775.912" x2="799.322" y1="-37.733" y2="-37.733" gradientTransform="matrix(0.9933 -0.1158 0.1158 0.9933 0.5701 294.2891)" gradientUnits="userSpaceOnUse"><stop offset=".038" style="stop-color:#1f1143"/><stop offset=".965" style="stop-color:#15103a"/></linearGradient><path d="M790.5,167.5c0,0.4-1.4,0.8-3.6,1c-2.3,0.2-5.4,0.3-8.9-0.3c-3.5-0.6-6.5-1.7-8.5-2.8 c-2-1.1-3.1-2-3-2.3c0.4-0.8,5.5,1.2,12,2.3c3.2,0.6,6.2,0.8,8.5,1.1C789.1,166.8,790.5,167.1,790.5,167.5z" class="st87"/></g></g></g></g><g><g><g><g><linearGradient id="SVGID_69_" x1="811.56" x2="844.246" y1="-37.06" y2="-37.06" gradientTransform="matrix(0.9933 -0.1158 0.1158 0.9933 0.5701 294.2891)" gradientUnits="userSpaceOnUse"><stop offset=".038" style="stop-color:#1f1143"/><stop offset=".965" style="stop-color:#15103a"/></linearGradient><path d="M834,152.8c0.3,0.3-0.8,2-3.1,4.5c-2.2,2.4-5.7,5.6-10.1,8.2c-4.4,2.6-9,4-12.3,4.4 c-3.4,0.4-5.4,0-5.4-0.4c0-0.4,2-0.7,5-1.6c3-0.9,7.1-2.4,11.3-4.9c4.2-2.4,7.6-5.2,10.2-7.2 C832.1,153.7,833.7,152.5,834,152.8z" class="st88"/></g></g></g></g><g><g><g><path d="M765.5,160c-0.1,0.1-2-1.1-5.2-3.4c-3.3-2.3-7.7-6.1-12.8-11.2c-4.9-5.3-10.2-12.1-14.4-20.8 c-0.3-0.5-0.5-1.1-0.8-1.6c-0.2-0.6-0.5-1.1-0.7-1.7c-0.4-1.1-1-2.3-1.4-3.5c-0.7-2.4-1.6-4.8-2.2-7.4c-1.3-5.1-1.9-10.5-2-16 c0-1.4-0.1-2.8,0-4.1c0.1-1.4,0.2-2.7,0.3-4.1c0.1-1.3,0.3-2.7,0.5-4c0.1-1.3,0.4-2.6,0.7-3.9c0.4-2.6,1.2-5,1.8-7.5 c0.8-2.4,1.5-4.7,2.4-6.9c0.8-2.3,1.8-4.4,2.7-6.4c0.5-1,1-2,1.5-3c0.3-0.5,0.5-1,0.7-1.5c0.3-0.5,0.5-0.9,0.8-1.4 c2.1-3.7,4.3-7,6.5-9.8c4.4-5.7,8.8-9.7,12.3-11.9c1.7-1.1,3.2-1.7,4.2-2c1-0.3,1.6-0.4,1.6-0.3c0,0.1-0.5,0.3-1.4,0.8 c-0.9,0.5-2.3,1.2-3.8,2.4c-3.2,2.3-7.2,6.4-11.4,12.1c-2,2.9-4.2,6.1-6.1,9.8c-0.2,0.5-0.5,0.9-0.8,1.4 c-0.2,0.5-0.5,1-0.7,1.4c-0.5,1-1,1.9-1.4,2.9c-0.9,2-1.8,4.1-2.6,6.3c-0.9,2.2-1.5,4.5-2.2,6.8c-0.6,2.4-1.3,4.8-1.7,7.3 c-0.2,1.2-0.5,2.5-0.6,3.8c-0.2,1.3-0.4,2.6-0.5,3.9c-0.1,1.3-0.2,2.6-0.3,3.9c-0.1,1.3,0,2.7,0,4c0.1,5.3,0.6,10.6,1.8,15.5 c0.5,2.5,1.3,4.8,2,7.1c0.4,1.2,0.9,2.3,1.3,3.4c0.2,0.6,0.4,1.1,0.7,1.6c0.2,0.6,0.4,1.1,0.7,1.6c3.9,8.4,9,15.3,13.6,20.6 c4.8,5.2,9,9.1,12.1,11.7C764,158.4,765.6,159.9,765.5,160z" class="st4"/></g></g></g><g><g><path d="M774.8,31.5c-5.8,0.1-11.4,1-16.8,3.4c-8.5,9.2-23.9,29.2-24.5,53.1c-0.6,25.7,11.5,51.2,33.2,65.6 c0.1,0,0.2,0,0.4,0c6.1,0.2,11.7-0.4,16.8-2.2C768.4,135,732.4,96.9,774.8,31.5z" class="st18"/></g></g><g><g><circle cx="800.3" cy="59.5" r="1" class="st4"/></g><g><circle cx="801.9" cy="83" r="1" class="st4"/></g><g><circle cx="783.5" cy="62.1" r="1" class="st4"/></g><g><circle cx="788.6" cy="83.1" r="1" class="st4"/></g><g><path d="M780.8,55.3c-0.5,0.1-0.9,0.5-0.8,1.1c0.1,0.5,0.5,0.9,1.1,0.8s0.9-0.5,0.8-1.1 C781.8,55.6,781.3,55.3,780.8,55.3z" class="st4"/></g><g><circle cx="769.6" cy="87.8" r="1" class="st4"/></g><g><circle cx="763.9" cy="64.8" r="1" class="st4"/></g><g><path d="M750.5,100.8c-0.5,0.1-0.9,0.5-0.8,1.1c0.1,0.5,0.5,0.9,1.1,0.8c0.5-0.1,0.9-0.5,0.8-1.1 C751.5,101.1,751,100.7,750.5,100.8z" class="st4"/></g><g><circle cx="763.6" cy="71.1" r="1" class="st4"/></g><g><path d="M745.9,85.3c-0.5,0.1-0.9,0.5-0.8,1.1c0.1,0.5,0.5,0.9,1.1,0.8c0.5-0.1,0.9-0.5,0.8-1.1 C746.9,85.6,746.4,85.2,745.9,85.3z" class="st4"/></g><g><path d="M761,57.3c-0.5,0.1-0.9,0.5-0.8,1.1c0.1,0.5,0.5,0.9,1.1,0.8c0.5-0.1,0.9-0.5,0.8-1.1 C762,57.6,761.5,57.2,761,57.3z" class="st4"/></g><g><circle cx="755.8" cy="60.1" r="1" class="st4"/></g><g><circle cx="746.8" cy="80.1" r="1" class="st4"/></g><g><path d="M753,53.1c-0.5,0.1-0.9,0.5-0.8,1.1c0.1,0.5,0.5,0.9,1.1,0.8c0.5-0.1,0.9-0.5,0.8-1.1 C754,53.4,753.5,53,753,53.1z" class="st4"/></g><g><path d="M738.3,85.6c-0.5,0.1-0.9,0.5-0.8,1.1c0.1,0.5,0.5,0.9,1.1,0.8c0.5-0.1,0.9-0.5,0.8-1.1 C739.3,85.9,738.8,85.6,738.3,85.6z" class="st4"/></g><g><circle cx="755.8" cy="67.7" r="1" class="st4"/></g><g><circle cx="745.6" cy="95" r="1" class="st4"/></g><g><path d="M760.5,75.1c-0.5,0.1-0.9,0.5-0.8,1.1c0.1,0.5,0.5,0.9,1.1,0.8c0.5-0.1,0.9-0.5,0.8-1.1 C761.5,75.4,761.1,75,760.5,75.1z" class="st4"/></g><g><path d="M764.8,90.7c-0.5,0.1-0.9,0.5-0.8,1.1c0.1,0.5,0.5,0.9,1.1,0.8s0.9-0.5,0.8-1.1 C765.8,91,765.3,90.7,764.8,90.7z" class="st4"/></g><g><circle cx="754.3" cy="93.1" r="1" class="st4"/></g><g><circle cx="775.6" cy="105.3" r="1" class="st4"/></g><g><path d="M777.5,94.9c-0.5,0.1-0.9,0.5-0.8,1.1c0.1,0.5,0.5,0.9,1.1,0.8c0.5-0.1,0.9-0.5,0.8-1.1 C778.5,95.2,778,94.8,777.5,94.9z" class="st4"/></g><g><path d="M771.1,107.3c-0.5,0.1-0.9,0.5-0.8,1.1c0.1,0.5,0.5,0.9,1.1,0.8c0.5-0.1,0.9-0.5,0.8-1.1 S771.6,107.3,771.1,107.3z" class="st4"/></g><g><path d="M782,117.2c-0.5,0.1-0.9,0.5-0.8,1.1c0.1,0.5,0.5,0.9,1.1,0.8c0.5-0.1,0.9-0.5,0.8-1.1 C783,117.5,782.5,117.1,782,117.2z" class="st4"/></g><g><path d="M761.3,117.5c-0.5,0.1-0.9,0.5-0.8,1.1c0.1,0.5,0.5,0.9,1.1,0.8c0.5-0.1,0.9-0.5,0.8-1.1 C762.3,117.8,761.8,117.5,761.3,117.5z" class="st4"/></g><g><path d="M755.2,123.2c-0.5,0.1-0.9,0.5-0.8,1.1c0.1,0.5,0.5,0.9,1.1,0.8c0.5-0.1,0.9-0.5,0.8-1.1 C756.2,123.5,755.7,123.1,755.2,123.2z" class="st4"/></g><g><path d="M768.8,120.5c-0.5,0.1-0.9,0.5-0.8,1.1c0.1,0.5,0.5,0.9,1.1,0.8c0.5-0.1,0.9-0.5,0.8-1.1 C769.8,120.8,769.4,120.4,768.8,120.5z" class="st4"/></g><g><circle cx="753" cy="115.8" r="1" class="st4"/></g><g><circle cx="754.9" cy="110.7" r="1" class="st4"/></g><g><circle cx="748.8" cy="106.7" r="1" class="st4"/></g><g><ellipse cx="761.4" cy="108.8" class="st4" rx="1" ry="1" transform="matrix(0.961 -0.2766 0.2766 0.961 -0.3829 214.8899)"/></g><g><circle cx="757.7" cy="103.1" r="1" class="st4"/></g><g><circle cx="752.7" cy="78.5" r="1" class="st4"/></g><g><circle cx="771.2" cy="54.2" r="1" class="st4"/></g><g><circle cx="748.6" cy="64" r="1" class="st4"/></g><g><circle cx="767.4" cy="43.9" r="1" class="st4"/></g><g><circle cx="759.5" cy="44.4" r="1" class="st4"/></g><g><circle cx="772.3" cy="34.5" r="1" class="st4"/></g><g><circle cx="764.4" cy="37.8" r="1" class="st4"/></g><g><circle cx="782.8" cy="35.8" r="1" class="st4"/></g><g><circle cx="777.1" cy="36" r="1" class="st4"/></g><g><path d="M790.7,37.9c-0.5,0.1-0.9,0.5-0.8,1.1c0.1,0.5,0.5,0.9,1.1,0.8c0.5-0.1,0.9-0.5,0.8-1.1 C791.7,38.2,791.3,37.8,790.7,37.9z" class="st4"/></g><g><path d="M779.4,44.6c-0.5,0.1-0.9,0.5-0.8,1.1c0.1,0.5,0.5,0.9,1.1,0.8c0.5-0.1,0.9-0.5,0.8-1.1 S779.9,44.5,779.4,44.6z" class="st4"/></g><g><circle cx="747.9" cy="56.1" r="1" class="st4"/></g><g><path d="M765.2,50.4c-0.5,0.1-0.9,0.5-0.8,1.1c0.1,0.5,0.5,0.9,1.1,0.8c0.5-0.1,0.9-0.5,0.8-1.1 C766.2,50.7,765.7,50.4,765.2,50.4z" class="st4"/></g><g><circle cx="744" cy="72.6" r="1" class="st4"/></g><g><path d="M775,58.8c-0.5,0.1-0.9,0.5-0.8,1.1c0.1,0.5,0.5,0.9,1.1,0.8c0.5-0.1,0.9-0.5,0.8-1.1 C776,59.1,775.5,58.8,775,58.8z" class="st4"/></g><g><circle cx="771.1" cy="74" r="1" class="st4"/></g><g><path d="M785.1,68.1c-0.5,0.1-0.9,0.5-0.8,1.1c0.1,0.5,0.5,0.9,1.1,0.8c0.5-0.1,0.9-0.5,0.8-1.1 C786.1,68.4,785.6,68,785.1,68.1z" class="st4"/></g><g><circle cx="783" cy="79.9" r="1" class="st4"/></g><g><path d="M793.2,76.9c-0.5,0.1-0.9,0.5-0.8,1.1c0.1,0.5,0.5,0.9,1.1,0.8c0.5-0.1,0.9-0.5,0.8-1.1 C794.2,77.2,793.7,76.9,793.2,76.9z" class="st4"/></g><g><path d="M796.3,83.6c-0.5,0.1-0.9,0.5-0.8,1.1c0.1,0.5,0.5,0.9,1.1,0.8c0.5-0.1,0.9-0.5,0.8-1.1 C797.4,84,796.9,83.6,796.3,83.6z" class="st4"/></g><g><path d="M764.5,100.2c-0.5,0.1-0.9,0.5-0.8,1.1c0.1,0.5,0.5,0.9,1.1,0.8c0.5-0.1,0.9-0.5,0.8-1.1 C765.6,100.5,765.1,100.2,764.5,100.2z" class="st4"/></g><g><path d="M787.5,114.1c-0.5,0.1-0.9,0.5-0.8,1.1c0.1,0.5,0.5,0.9,1.1,0.8c0.5-0.1,0.9-0.5,0.8-1.1 C788.6,114.4,788.1,114.1,787.5,114.1z" class="st4"/></g><g><path d="M775,118.4c-0.5,0.1-0.9,0.5-0.8,1.1s0.5,0.9,1.1,0.8c0.5-0.1,0.9-0.5,0.8-1.1 C776.1,118.7,775.6,118.4,775,118.4z" class="st4"/></g><g><circle cx="782.7" cy="127.5" r="1" class="st4"/></g><g><circle cx="772.2" cy="131.5" r="1" class="st4"/></g><g><circle cx="781.1" cy="134.9" r="1" class="st4"/></g><g><path d="M773.2,137.8c-0.5,0.1-0.9,0.5-0.8,1.1c0.1,0.5,0.5,0.9,1.1,0.8c0.5-0.1,0.9-0.5,0.8-1.1 C774.2,138.1,773.7,137.8,773.2,137.8z" class="st4"/></g><g><circle cx="763.5" cy="133.6" r="1" class="st4"/></g><g><path d="M773.5,112.7c-0.5,0.1-0.9,0.5-0.8,1.1s0.5,0.9,1.1,0.8c0.5-0.1,0.9-0.5,0.8-1.1S774,112.7,773.5,112.7z" class="st4"/></g><g><circle cx="782.5" cy="109.6" r="1" class="st4"/></g><g><circle cx="786.5" cy="95.7" r="1" class="st4"/></g><g><path d="M789.1,102c-0.5,0.1-0.9,0.5-0.8,1.1c0.1,0.5,0.5,0.9,1.1,0.8c0.5-0.1,0.9-0.5,0.8-1.1 C790.1,102.3,789.6,101.9,789.1,102z" class="st4"/></g><g><circle cx="799.9" cy="96.6" r="1" class="st4"/></g><g><circle cx="800.2" cy="103.1" r="1" class="st4"/></g><g><path d="M792.7,93.5c-0.5,0.1-0.9,0.5-0.8,1.1c0.1,0.5,0.5,0.9,1.1,0.8c0.5-0.1,0.9-0.5,0.8-1.1 C793.7,93.9,793.3,93.5,792.7,93.5z" class="st4"/></g><g><circle cx="791.7" cy="66" r="1" class="st4"/></g><g><path d="M791.3,53.4c-0.5,0.1-0.9,0.5-0.8,1.1c0.1,0.5,0.5,0.9,1.1,0.8c0.5-0.1,0.9-0.5,0.8-1.1 C792.3,53.8,791.8,53.4,791.3,53.4z" class="st4"/></g><g><circle cx="804.6" cy="65.6" r="1" class="st4"/></g><g><path d="M809.4,75.4c-0.5,0.1-0.9,0.5-0.8,1.1c0.1,0.5,0.5,0.9,1.1,0.8c0.5-0.1,0.9-0.5,0.8-1.1 C810.4,75.7,809.9,75.3,809.4,75.4z" class="st4"/></g><g><circle cx="812.7" cy="95.6" r="1" class="st4"/></g><g><circle cx="795.3" cy="115.9" r="1" class="st4"/></g><g><path d="M771.3,94.3c-0.5,0.1-0.9,0.5-0.8,1.1c0.1,0.5,0.5,0.9,1.1,0.8c0.5-0.1,0.9-0.5,0.8-1.1 C772.4,94.7,771.9,94.3,771.3,94.3z" class="st4"/></g><g><circle cx="761.7" cy="86" r="1" class="st4"/></g><g><path d="M766,75.5c-0.5,0.1-0.9,0.5-0.8,1.1c0.1,0.5,0.5,0.9,1.1,0.8c0.5-0.1,0.9-0.5,0.8-1.1 C767,75.8,766.6,75.4,766,75.5z" class="st4"/></g><g><circle cx="756" cy="81.5" r="1" class="st4"/></g><g><path d="M771.9,64.2c-0.5,0.1-0.9,0.5-0.8,1.1c0.1,0.5,0.5,0.9,1.1,0.8c0.5-0.1,0.9-0.5,0.8-1.1 C772.9,64.5,772.4,64.1,771.9,64.2z" class="st4"/></g><g><circle cx="771.4" cy="81.4" r="1" class="st4"/></g><g><circle cx="777.2" cy="76" r="1" class="st4"/></g></g><g><g><circle cx="772.6" cy="58" r="1" class="st4"/></g><g><circle cx="754.4" cy="80.8" r="1" class="st4"/></g><g><circle cx="753.7" cy="69.3" r="1" class="st4"/></g><g><path d="M747.2,80.5c-0.5,0.1-0.9,0.5-0.8,1.1c0.1,0.5,0.5,0.9,1.1,0.8c0.5-0.1,0.9-0.5,0.8-1.1 C748.3,80.8,747.8,80.5,747.2,80.5z" class="st4"/></g><g><circle cx="747" cy="75.3" r="1" class="st4"/></g><g><circle cx="754.4" cy="85.9" r="1" class="st4"/></g><g><path d="M771,70.7c-0.5,0.1-0.9,0.5-0.8,1.1s0.5,0.9,1.1,0.8c0.5-0.1,0.9-0.5,0.8-1.1C772,71,771.5,70.6,771,70.7z" class="st4"/></g><g><path d="M767.7,81.8c-0.5,0.1-0.9,0.5-0.8,1.1c0.1,0.5,0.5,0.9,1.1,0.8c0.5-0.1,0.9-0.5,0.8-1.1 C768.7,82.1,768.2,81.8,767.7,81.8z" class="st4"/></g><g><circle cx="774.3" cy="83.6" r="1" class="st4"/></g><g><path d="M780,75.8c-0.5,0.1-0.9,0.5-0.8,1.1c0.1,0.5,0.5,0.9,1.1,0.8c0.5-0.1,0.9-0.5,0.8-1.1 C781,76.1,780.5,75.7,780,75.8z" class="st4"/></g><g><circle cx="777.5" cy="91" r="1" class="st4"/></g><g><circle cx="785.1" cy="83.6" r="1" class="st4"/></g><g><path d="M781.7,100.1c-0.5,0.1-0.9,0.5-0.8,1.1c0.1,0.5,0.5,0.9,1.1,0.8c0.5-0.1,0.9-0.5,0.8-1.1 C782.7,100.4,782.2,100,781.7,100.1z" class="st4"/></g><g><path d="M763.8,106.9c-0.5,0.1-0.9,0.5-0.8,1.1c0.1,0.5,0.5,0.9,1.1,0.8c0.5-0.1,0.9-0.5,0.8-1.1 C764.8,107.2,764.3,106.8,763.8,106.9z" class="st4"/></g><g><ellipse cx="760.6" cy="117.1" class="st4" rx="1" ry="1" transform="matrix(0.961 -0.2766 0.2766 0.961 -2.7014 214.9936)"/></g><g><path d="M754.5,100.8c-0.5,0.1-0.9,0.5-0.8,1.1c0.1,0.5,0.5,0.9,1.1,0.8c0.5-0.1,0.9-0.5,0.8-1.1 C755.5,101.1,755,100.8,754.5,100.8z" class="st4"/></g><g><path d="M752.5,108.6c-0.5,0.1-0.9,0.5-0.8,1.1c0.1,0.5,0.5,0.9,1.1,0.8c0.5-0.1,0.9-0.5,0.8-1.1 C753.5,108.9,753.1,108.6,752.5,108.6z" class="st4"/></g><g><circle cx="757.4" cy="95.5" r="1" class="st4"/></g><g><circle cx="746.7" cy="98.2" r="1" class="st4"/></g><g><path d="M767.4,90.8c-0.5,0.1-0.9,0.5-0.8,1.1c0.1,0.5,0.5,0.9,1.1,0.8c0.5-0.1,0.9-0.5,0.8-1.1 C768.4,91.2,767.9,90.8,767.4,90.8z" class="st4"/></g><g><circle cx="776.4" cy="96.2" r="1" class="st4"/></g><g><path d="M760.4,80.7c-0.5,0.1-0.9,0.5-0.8,1.1c0.1,0.5,0.5,0.9,1.1,0.8c0.5-0.1,0.9-0.5,0.8-1.1 C761.4,81,760.9,80.6,760.4,80.7z" class="st4"/></g><g><circle cx="768.9" cy="64.7" r="1" class="st4"/></g><g><path d="M761.3,69.9c-0.5,0.1-0.9,0.5-0.8,1.1s0.5,0.9,1.1,0.8c0.5-0.1,0.9-0.5,0.8-1.1S761.9,69.9,761.3,69.9z" class="st4"/></g><g><circle cx="768.9" cy="53.5" r="1" class="st4"/></g><g><circle cx="761.9" cy="54.8" r="1" class="st4"/></g><g><circle cx="763.5" cy="60.9" r="1" class="st4"/></g><g><path d="M768,75.4c-0.5,0.1-0.9,0.5-0.8,1.1c0.1,0.5,0.5,0.9,1.1,0.8c0.5-0.1,0.9-0.5,0.8-1.1 C769,75.8,768.5,75.4,768,75.4z" class="st4"/></g><g><circle cx="751.4" cy="93.5" r="1" class="st4"/></g><g><circle cx="771.1" cy="110.8" r="1" class="st4"/></g><g><circle cx="769.4" cy="116.1" r="1" class="st4"/></g><g><path d="M768.9,103.2c-0.5,0.1-0.9,0.5-0.8,1.1c0.1,0.5,0.5,0.9,1.1,0.8c0.5-0.1,0.9-0.5,0.8-1.1 C769.9,103.5,769.5,103.2,768.9,103.2z" class="st4"/></g><g><path d="M759.1,105.4c-0.5,0.1-0.9,0.5-0.8,1.1c0.1,0.5,0.5,0.9,1.1,0.8c0.5-0.1,0.9-0.5,0.8-1.1 C760.1,105.8,759.6,105.4,759.1,105.4z" class="st4"/></g><g><circle cx="766.3" cy="99.6" r="1" class="st4"/></g></g><g><g><circle cx="759.6" cy="37.3" r="1" class="st4"/></g><g><circle cx="768.1" cy="35.1" r="1" class="st4"/></g><g><path d="M770.6,39.6c-0.5,0.1-0.9,0.5-0.8,1.1c0.1,0.5,0.5,0.9,1.1,0.8c0.5-0.1,0.9-0.5,0.8-1.1 C771.6,39.9,771.1,39.5,770.6,39.6z" class="st4"/></g><g><path d="M774.7,35c-0.5,0.1-0.9,0.5-0.8,1.1c0.1,0.5,0.5,0.9,1.1,0.8c0.5-0.1,0.9-0.5,0.8-1.1 C775.7,35.3,775.2,34.9,774.7,35z" class="st4"/></g><g><circle cx="778.5" cy="41.5" r="1" class="st4"/></g><g><path d="M781.3,36c-0.5,0.1-0.9,0.5-0.8,1.1c0.1,0.5,0.5,0.9,1.1,0.8c0.5-0.1,0.9-0.5,0.8-1.1 C782.3,36.3,781.8,35.9,781.3,36z" class="st4"/></g><g><circle cx="758.9" cy="44.9" r="1" class="st4"/></g><g><path d="M756.9,55.1c-0.5,0.1-0.9,0.5-0.8,1.1c0.1,0.5,0.5,0.9,1.1,0.8c0.5-0.1,0.9-0.5,0.8-1.1 C757.9,55.4,757.4,55,756.9,55.1z" class="st4"/></g><g><circle cx="749.7" cy="59" r="1" class="st4"/></g><g><path d="M741.9,88.3c-0.5,0.1-0.9,0.5-0.8,1.1c0.1,0.5,0.5,0.9,1.1,0.8c0.5-0.1,0.9-0.5,0.8-1.1 C742.9,88.6,742.5,88.2,741.9,88.3z" class="st4"/></g><g><circle cx="748.5" cy="90.5" r="1" class="st4"/></g><g><path d="M741.3,100.5c-0.5,0.1-0.9,0.5-0.8,1.1c0.1,0.5,0.5,0.9,1.1,0.8c0.5-0.1,0.9-0.5,0.8-1.1 C742.3,100.8,741.8,100.4,741.3,100.5z" class="st4"/></g><g><path d="M747.5,108.4c-0.5,0.1-0.9,0.5-0.8,1.1c0.1,0.5,0.5,0.9,1.1,0.8c0.5-0.1,0.9-0.5,0.8-1.1 C748.5,108.7,748,108.4,747.5,108.4z" class="st4"/></g><g><ellipse cx="737.3" cy="96.3" class="st4" rx="1" ry="1" transform="matrix(0.961 -0.2766 0.2766 0.961 2.1441 207.7183)"/></g><g><circle cx="739.7" cy="109.1" r="1" class="st4"/></g><g><path d="M742.7,75.5c-0.5,0.1-0.9,0.5-0.8,1.1c0.1,0.5,0.5,0.9,1.1,0.8c0.5-0.1,0.9-0.5,0.8-1.1 C743.7,75.8,743.2,75.4,742.7,75.5z" class="st4"/></g><g><circle cx="746" cy="115.6" r="1" class="st4"/></g><g><circle cx="756.9" cy="117.6" r="1" class="st4"/></g><g><ellipse cx="761.3" cy="113.2" class="st4" rx="1" ry="1" transform="matrix(0.961 -0.2766 0.2766 0.961 -1.593 215.0222)"/></g><g><circle cx="766.4" cy="111" r="1" class="st4"/></g><g><circle cx="760.3" cy="126.1" r="1" class="st4"/></g><g><path d="M766,117.5c-0.5,0.1-0.9,0.5-0.8,1.1c0.1,0.5,0.5,0.9,1.1,0.8c0.5-0.1,0.9-0.5,0.8-1.1 C767,117.8,766.5,117.5,766,117.5z" class="st4"/></g><g><circle cx="771" cy="133" r="1" class="st4"/></g><g><path d="M777.9,114.1c-0.5,0.1-0.9,0.5-0.8,1.1c0.1,0.5,0.5,0.9,1.1,0.8c0.5-0.1,0.9-0.5,0.8-1.1 C778.9,114.5,778.4,114.1,777.9,114.1z" class="st4"/></g><g><path d="M790.7,99.2c-0.5,0.1-0.9,0.5-0.8,1.1c0.1,0.5,0.5,0.9,1.1,0.8c0.5-0.1,0.9-0.5,0.8-1.1 C791.7,99.5,791.2,99.2,790.7,99.2z" class="st4"/></g><g><path d="M784.2,128.5c-0.5,0.1-0.9,0.5-0.8,1.1c0.1,0.5,0.5,0.9,1.1,0.8c0.5-0.1,0.9-0.5,0.8-1.1 C785.2,128.8,784.7,128.4,784.2,128.5z" class="st4"/></g><g><circle cx="801.2" cy="101.2" r="1" class="st4"/></g><g><path d="M799.2,122.9c-0.5,0.1-0.9,0.5-0.8,1.1c0.1,0.5,0.5,0.9,1.1,0.8c0.5-0.1,0.9-0.5,0.8-1.1 C800.2,123.2,799.7,122.8,799.2,122.9z" class="st4"/></g><g><circle cx="804" cy="114.6" r="1" class="st4"/></g><g><path d="M811.3,118.6c-0.5,0.1-0.9,0.5-0.8,1.1c0.1,0.5,0.5,0.9,1.1,0.8c0.5-0.1,0.9-0.5,0.8-1.1 C812.3,118.9,811.8,118.5,811.3,118.6z" class="st4"/></g><g><path d="M804.8,134.3c-0.5,0.1-0.9,0.5-0.8,1.1c0.1,0.5,0.5,0.9,1.1,0.8c0.5-0.1,0.9-0.5,0.8-1.1 C805.8,134.7,805.3,134.3,804.8,134.3z" class="st4"/></g><g><circle cx="815.1" cy="127.4" r="1" class="st4"/></g><g><circle cx="799.5" cy="146.6" r="1" class="st4"/></g><g><path d="M788.8,148.9c-0.5,0.1-0.9,0.5-0.8,1.1s0.5,0.9,1.1,0.8s0.9-0.5,0.8-1.1S789.3,148.9,788.8,148.9z" class="st4"/></g><g><circle cx="820.9" cy="118" r="1" class="st4"/></g><g><path d="M829.3,90.4c-0.5,0.1-0.9,0.5-0.8,1.1c0.1,0.5,0.5,0.9,1.1,0.8c0.5-0.1,0.9-0.5,0.8-1.1 C830.3,90.7,829.8,90.3,829.3,90.4z" class="st4"/></g><g><path d="M830.1,73.2c-0.5,0.1-0.9,0.5-0.8,1.1c0.1,0.5,0.5,0.9,1.1,0.8c0.5-0.1,0.9-0.5,0.8-1.1 C831.1,73.6,830.6,73.2,830.1,73.2z" class="st4"/></g><g><path d="M819.7,52.7c-0.5,0.1-0.9,0.5-0.8,1.1s0.5,0.9,1.1,0.8c0.5-0.1,0.9-0.5,0.8-1.1 C820.7,53,820.3,52.6,819.7,52.7z" class="st4"/></g><g><path d="M803,36.6c-0.5,0.1-0.9,0.5-0.8,1.1c0.1,0.5,0.5,0.9,1.1,0.8c0.5-0.1,0.9-0.5,0.8-1.1 C804,37,803.5,36.6,803,36.6z" class="st4"/></g><g><circle cx="807" cy="42.6" r="1" class="st4"/></g><g><path d="M809.2,69.6c-0.5,0.1-0.9,0.5-0.8,1.1c0.1,0.5,0.5,0.9,1.1,0.8c0.5-0.1,0.9-0.5,0.8-1.1 C810.2,69.9,809.7,69.5,809.2,69.6z" class="st4"/></g><g><path d="M796.6,79.1c-0.5,0.1-0.9,0.5-0.8,1.1c0.1,0.5,0.5,0.9,1.1,0.8c0.5-0.1,0.9-0.5,0.8-1.1 C797.6,79.4,797.1,79.1,796.6,79.1z" class="st4"/></g><g><path d="M778.9,77.1c-0.5,0.1-0.9,0.5-0.8,1.1c0.1,0.5,0.5,0.9,1.1,0.8c0.5-0.1,0.9-0.5,0.8-1.1 C779.9,77.4,779.4,77,778.9,77.1z" class="st4"/></g><g><path d="M780.4,83.1c-0.5,0.1-0.9,0.5-0.8,1.1c0.1,0.5,0.5,0.9,1.1,0.8c0.5-0.1,0.9-0.5,0.8-1.1 C781.4,83.4,781,83,780.4,83.1z" class="st4"/></g><g><path d="M772.1,94.8c-0.5,0.1-0.9,0.5-0.8,1.1c0.1,0.5,0.5,0.9,1.1,0.8c0.5-0.1,0.9-0.5,0.8-1.1 C773.1,95.1,772.6,94.7,772.1,94.8z" class="st4"/></g><g><path d="M784.5,75.8c-0.5,0.1-0.9,0.5-0.8,1.1c0.1,0.5,0.5,0.9,1.1,0.8c0.5-0.1,0.9-0.5,0.8-1.1 C785.5,76.1,785,75.7,784.5,75.8z" class="st4"/></g><g><circle cx="771.9" cy="75" r="1" class="st4"/></g><g><path d="M781.3,60.8c-0.5,0.1-0.9,0.5-0.8,1.1c0.1,0.5,0.5,0.9,1.1,0.8c0.5-0.1,0.9-0.5,0.8-1.1 C782.4,61.1,781.9,60.7,781.3,60.8z" class="st4"/></g><g><circle cx="772.2" cy="68.9" r="1" class="st4"/></g><g><circle cx="774.9" cy="57.4" r="1" class="st4"/></g><g><path d="M790.3,61.4c-0.5,0.1-0.9,0.5-0.8,1.1c0.1,0.5,0.5,0.9,1.1,0.8c0.5-0.1,0.9-0.5,0.8-1.1 C791.3,61.7,790.9,61.3,790.3,61.4z" class="st4"/></g><g><path d="M776.1,63.8c-0.5,0.1-0.9,0.5-0.8,1.1c0.1,0.5,0.5,0.9,1.1,0.8c0.5-0.1,0.9-0.5,0.8-1.1 C777.1,64.1,776.7,63.8,776.1,63.8z" class="st4"/></g><g><circle cx="762.1" cy="70.7" r="1" class="st4"/></g><g><path d="M764.4,61.8c-0.5,0.1-0.9,0.5-0.8,1.1c0.1,0.5,0.5,0.9,1.1,0.8c0.5-0.1,0.9-0.5,0.8-1.1 C765.5,62.1,765,61.7,764.4,61.8z" class="st4"/></g><g><circle cx="754.4" cy="70" r="1" class="st4"/></g><g><ellipse cx="752.2" cy="65.4" class="st4" rx="1" ry="1" transform="matrix(0.961 -0.2766 0.2766 0.961 11.2667 210.6437)"/></g><g><circle cx="757.2" cy="78" r="1" class="st4"/></g><g><circle cx="760.6" cy="105.4" r="1" class="st4"/></g><g><path d="M761,96.6c-0.5,0.1-0.9,0.5-0.8,1.1c0.1,0.5,0.5,0.9,1.1,0.8c0.5-0.1,0.9-0.5,0.8-1.1 C762,96.9,761.5,96.5,761,96.6z" class="st4"/></g><g><path d="M754.5,110.9c-0.5,0.1-0.9,0.5-0.8,1.1c0.1,0.5,0.5,0.9,1.1,0.8c0.5-0.1,0.9-0.5,0.8-1.1 C755.5,111.2,755,110.9,754.5,110.9z" class="st4"/></g><g><circle cx="758.5" cy="92.8" r="1" class="st4"/></g><g><circle cx="752.5" cy="99.6" r="1" class="st4"/></g><g><circle cx="754.7" cy="88.8" r="1" class="st4"/></g><g><circle cx="760" cy="86.6" r="1" class="st4"/></g><g><circle cx="749" cy="83.1" r="1" class="st4"/></g><g><path d="M765.3,83.9c-0.5,0.1-0.9,0.5-0.8,1.1c0.1,0.5,0.5,0.9,1.1,0.8c0.5-0.1,0.9-0.5,0.8-1.1 C766.3,84.2,765.8,83.9,765.3,83.9z" class="st4"/></g><g><circle cx="766.9" cy="94.1" r="1" class="st4"/></g><g><circle cx="768.9" cy="103.3" r="1" class="st4"/></g><g><path d="M765.4,123.8c-0.5,0.1-0.9,0.5-0.8,1.1c0.1,0.5,0.5,0.9,1.1,0.8c0.5-0.1,0.9-0.5,0.8-1.1 C766.4,124.1,765.9,123.8,765.4,123.8z" class="st4"/></g><g><path d="M771.2,123.2c-0.5,0.1-0.9,0.5-0.8,1.1c0.1,0.5,0.5,0.9,1.1,0.8c0.5-0.1,0.9-0.5,0.8-1.1 C772.2,123.5,771.7,123.2,771.2,123.2z" class="st4"/></g><g><path d="M778.8,120.6c-0.5,0.1-0.9,0.5-0.8,1.1c0.1,0.5,0.5,0.9,1.1,0.8c0.5-0.1,0.9-0.5,0.8-1.1 C779.8,120.9,779.3,120.5,778.8,120.6z" class="st4"/></g><g><path d="M778.4,105c-0.5,0.1-0.9,0.5-0.8,1.1s0.5,0.9,1.1,0.8c0.5-0.1,0.9-0.5,0.8-1.1S779,104.9,778.4,105z" class="st4"/></g><g><circle cx="783.5" cy="99.3" r="1" class="st4"/></g><g><circle cx="784.2" cy="114.2" r="1" class="st4"/></g><g><path d="M786.6,107c-0.5,0.1-0.9,0.5-0.8,1.1c0.1,0.5,0.5,0.9,1.1,0.8c0.5-0.1,0.9-0.5,0.8-1.1 C787.7,107.3,787.2,106.9,786.6,107z" class="st4"/></g></g></g></g><circle cx="857.5" cy="225.8" r="3" class="st49"/><circle cx="873.9" cy="190.4" r="3" class="st49"/><circle cx="882.8" cy="212.2" r="3" class="st49"/><circle cx="890.8" cy="236.2" r="3" class="st49"/><circle cx="893.9" cy="260.3" r="3" class="st49"/><circle cx="893.9" cy="286.5" r="3" class="st49"/><circle cx="887.7" cy="312.7" r="3" class="st49"/><circle cx="874.8" cy="334.1" r="3" class="st49"/><circle cx="845.6" cy="247.6" r="3" class="st49"/><circle cx="829.6" cy="266.7" r="3" class="st49"/><circle cx="808" cy="283" r="3" class="st49"/><circle cx="779.1" cy="285.9" r="3" class="st49"/><circle cx="714.7" cy="352.1" r="3" class="st49"/><circle cx="728.5" cy="330.5" r="3" class="st49"/><circle cx="749.7" cy="312.2" r="3" class="st49"/><circle cx="774.8" cy="333.4" r="3" class="st49"/><circle cx="797.5" cy="343.7" r="3" class="st49"/><circle cx="822.6" cy="350.6" r="3" class="st49"/></g></svg>