<svg xmlns="http://www.w3.org/2000/svg" xmlns:xlink="http://www.w3.org/1999/xlink" id="Layer_1" x="0" y="0" version="1.1" viewBox="0 0 220 170" xml:space="preserve" style="enable-background:new 0 0 220 170"><style type="text/css">.st0{fill:#79abd3}.st1{fill:#31225c}.st2{fill:#de7252}</style><g id="Group_27"><g id="Path_276"><path d="M109.5,6.7c-43.2,0-78.2,35-78.2,78.2s35,78.2,78.2,78.2s78.2-35,78.2-78.2l0,0l0,0 C187.7,41.8,152.7,6.8,109.5,6.7z" class="st0"/><path d="M109.5,164.7L109.5,164.7c-44,0-79.7-35.7-79.7-79.7c0-21.1,8.4-41.4,23.3-56.4S88.3,5.2,109.5,5.2l0,0 c44,0.5,79.3,36.6,78.8,80.6C187.9,129.2,152.9,164.2,109.5,164.7z M109.5,8.2C67.1,8.2,32.8,42.6,32.8,85s34.3,76.7,76.7,76.7 s76.7-34.3,76.7-76.7l0,0C186.2,42.6,151.9,8.3,109.5,8.2z" class="st1"/></g><g id="Path_277"><path d="M108.5,18.4c5.6,0,10.2,4.6,10.2,10.2s-4.6,10.2-10.2,10.2s-10.2-4.6-10.2-10.2 C98.3,22.9,102.8,18.4,108.5,18.4L108.5,18.4z" class="st2"/><path d="M108.5,40.2L108.5,40.2c-6.4,0-11.7-5.2-11.7-11.7s5.2-11.7,11.7-11.7l0,0l0,0c6.4,0,11.7,5.2,11.7,11.7 C120.1,35,114.9,40.2,108.5,40.2z M108.5,19.9c-4.8,0-8.7,3.9-8.7,8.7s3.9,8.7,8.7,8.7l0,0c4.8,0,8.7-3.9,8.7-8.7 S113.2,19.9,108.5,19.9z" class="st1"/></g><g id="Path_278"><path d="M154.3,50.5l-18.9,4.2l-4.9,1c-3,0.5-5.3,0.9-7.5,1.2c-1.7,0.2-3,1.7-3,3.4l0.1,30.4c0,1.2,0,2.4,0.2,3.6 l5.7,53c0.3,2.6-1.5,4.9-4.1,5.2s-4.9-1.5-5.2-4.1l0,0v-0.1l-4.7-44.1c-0.1-0.9-0.9-1.5-1.7-1.4l0,0H110c-1.5,0.3-3.1,0.3-4.6,0 c-0.9-0.2-1.7,0.4-1.8,1.3l0,0v0.1l-5.8,44.9c-0.3,2.5-2.7,4.3-5.2,4s-4.3-2.7-4-5.2l6.8-52.3c0.2-1.5,0.3-2.9,0.2-4.4 c0-0.1,0-0.2,0-0.4l-0.1-29.9v-1.1c0-1.7-1.2-3.1-2.8-3.4L90.8,56l-29.5-5.6c-2.5-0.4-4.2-2.7-4-5.2c0.3-2.5,2.6-4.4,5.2-4.1h0.3 l24,4.6l0,0h0.1l0.7,0.2l2,0.4l3,0.6c4.4,0.9,8.9,1.4,13.3,1.6c0.7,0,2.6,0,3.3,0h0.3c6.5-0.2,12.9-0.9,19.2-2.2l4.9-0.9l18.8-4.1 c2.5-0.6,4.9,1,5.5,3.4c0,0.1,0.1,0.2,0.1,0.3C158.4,47.6,156.7,50,154.3,50.5z" class="st2"/><path d="M93.1,154.6c-0.3,0-0.5,0-0.8-0.1c-3.4-0.4-5.7-3.5-5.3-6.9l0,0l6.8-52.3C94,94,94,92.6,94,91.2v-0.4l-0.1-31 c0-1-0.7-1.8-1.6-2c-0.6-0.1-1.2-0.2-1.9-0.4L61,51.8c-3.2-0.6-5.5-3.5-5.2-6.8c0.4-3.4,3.4-5.8,6.8-5.4l0,0c0.1,0,0.3,0,0.4,0.1 l24.2,4.7c0.2,0.1,0.4,0.1,0.6,0.2l5.1,1c4.3,0.8,8.7,1.4,13.1,1.6c0.7,0,2.5,0,3.2,0h0.3c6.4-0.2,12.7-0.9,18.9-2.2l4.9-0.9 l18.5-4.2c3.3-0.8,6.6,1.3,7.4,4.6c0,0,0,0,0,0.1s0.1,0.3,0.1,0.4c0.4,3.3-1.7,6.3-4.9,7l-18.9,4.2l-4.9,1c-3,0.5-5.4,0.9-7.6,1.2 c-1,0.1-1.7,1-1.7,2l0.1,30.4c0,1.2,0,2.3,0.1,3.5l5.7,53c0.4,3.4-2,6.4-5.4,6.8c-3.4,0.4-6.4-2-6.8-5.4v-0.2l-4.8-44.2 c0,0,0-0.1-0.1-0.1l0,0l0,0c-1.7,0.3-3.5,0.3-5.2,0c0,0-0.1,0-0.1,0.1L99,149.2C98.9,152.3,96.2,154.6,93.1,154.6L93.1,154.6z M61.9,42.6c-1.6,0-2.9,1.2-3.1,2.8c-0.1,1.7,1,3.2,2.7,3.5L91,54.5l1.9,0.4c2.3,0.5,4,2.5,4,4.9v1.1L97,91.1 c0.1,1.5,0,3.1-0.2,4.6L89.9,148c-0.1,1.7,1.1,3.3,2.9,3.4c1.6,0.1,3.1-1,3.4-2.6l5.9-45c0.3-1.7,1.9-2.8,3.6-2.5l0,0 c1.3,0.3,2.7,0.3,4,0h0.3c1.7-0.2,3.2,1,3.4,2.7l0,0l4.7,44.1v0.1c0.3,1.7,2,2.9,3.7,2.5c1.6-0.3,2.7-1.7,2.6-3.3l-5.7-53 c-0.1-1.3-0.2-2.5-0.2-3.8l-0.1-30.4c0-2.5,1.8-4.6,4.3-4.9c2.2-0.3,4.5-0.7,7.5-1.2l4.8-1l19-4.1l0,0c1.7-0.4,2.8-1.9,2.6-3.7 c0,0,0-0.1,0-0.2c-0.4-1.7-2.1-2.8-3.8-2.4l0,0L134.2,47l-5,0.9c-6.4,1.3-12.9,2-19.4,2.2h-0.3c-0.8,0-2.7,0-3.4-0.1 c-4.6-0.2-9.1-0.8-13.6-1.6l-5.1-1l-0.7-0.2h-0.2l-24-4.6h-0.2L61.9,42.6z" class="st1"/></g></g></svg>