<svg xmlns="http://www.w3.org/2000/svg" id="Layer_1" data-name="Layer 1" viewBox="0 0 163.18 162.35"><defs><style>.cls-1{fill:#79abd3}.cls-2{fill:#31225c}.cls-3{fill:#de7252}</style></defs><g id="Group_27" data-name="Group 27"><g id="Path_276" data-name="Path 276"><path d="M81.11,2.92a78.23,78.23,0,1,0,78.22,78.23h0A78.31,78.31,0,0,0,81.11,2.92Z" class="cls-1"/><path d="M81.11,160.87h0A79.73,79.73,0,0,1,24.73,24.77,79.2,79.2,0,0,1,81.11,1.42h0a79.73,79.73,0,0,1,0,159.45Zm0-156.45a76.73,76.73,0,1,0,76.72,76.73A76.81,76.81,0,0,0,81.11,4.42Z" class="cls-2"/></g><g id="Path_277" data-name="Path 277"><path d="M80.05,14.56A10.17,10.17,0,1,1,69.87,24.73,10.17,10.17,0,0,1,80.05,14.56Z" class="cls-3"/><path d="M80.05,36.4h0a11.67,11.67,0,1,1,0-23.34h0a11.67,11.67,0,0,1,0,23.34Zm0-20.34a8.67,8.67,0,1,0,0,17.34h0a8.67,8.67,0,0,0,0-17.34Z" class="cls-2"/></g><g id="Path_278" data-name="Path 278"><path d="M125.85,46.67l-18.91,4.2-4.88,1c-3,.51-5.34.9-7.5,1.21a3.49,3.49,0,0,0-3,3.43l.06,30.42a30.87,30.87,0,0,0,.15,3.6l5.69,53a4.65,4.65,0,0,1-9.24,1.12h0a.5.5,0,0,0,0-.12l-4.74-44.14A1.57,1.57,0,0,0,81.74,99h-.13A11.87,11.87,0,0,1,77,99a1.59,1.59,0,0,0-1.85,1.26h0s0,.06,0,.09l-5.83,44.91A4.65,4.65,0,1,1,60.1,144l6.78-52.3a27.22,27.22,0,0,0,.21-4.42c0-.11,0-.24,0-.36L67,57V55.91a3.48,3.48,0,0,0-2.81-3.4l-1.89-.39L32.83,46.54a4.78,4.78,0,0,1-4-5.17A4.65,4.65,0,0,1,34,37.31l.31,0,24,4.63h0l.14,0,.72.16,2,.42,3,.62a95.24,95.24,0,0,0,13.35,1.63c.7,0,2.56,0,3.32,0h.29a116.9,116.9,0,0,0,19.21-2.2l4.89-.86L124,37.56A4.64,4.64,0,0,1,129.53,41c0,.11.05.21.07.32A4.78,4.78,0,0,1,125.85,46.67Z" class="cls-3"/><path d="M64.72,150.79a5.49,5.49,0,0,1-.8-.06,6.15,6.15,0,0,1-5.31-6.89l6.78-52.31a25.21,25.21,0,0,0,.2-4.16V87l-.06-31a2,2,0,0,0-1.6-2c-.59-.11-1.2-.24-1.91-.39L32.55,48a6.29,6.29,0,0,1-5.17-6.79,6.15,6.15,0,0,1,6.83-5.4,3,3,0,0,1,.43.06l24.22,4.67c.2.06.42.1.63.15l5.1,1a93.27,93.27,0,0,0,13.12,1.6c.66,0,2.48,0,3.25,0h.29a116.18,116.18,0,0,0,18.92-2.17l4.92-.87,18.54-4.25A6.15,6.15,0,0,1,131,40.7c0,.14.06.28.09.42a6.31,6.31,0,0,1-4.92,7l-18.88,4.19-4.92,1c-3,.52-5.4.91-7.59,1.22a2,2,0,0,0-1.7,2l.06,30.41a30.61,30.61,0,0,0,.14,3.46l5.69,53a6.15,6.15,0,0,1-5.38,6.83,6.16,6.16,0,0,1-6.84-5.37l0-.16L82,100.53a.07.07,0,0,0-.08-.07h0a13.42,13.42,0,0,1-5.17,0,.09.09,0,0,0-.08.07l-5.83,44.91a6.16,6.16,0,0,1-6.09,5.37Zm-31.24-112a3.15,3.15,0,0,0-3.12,2.77,3.28,3.28,0,0,0,2.72,3.52L62.6,50.65l1.89.38a5,5,0,0,1,4,4.88V57l.06,30.29a27.59,27.59,0,0,1-.22,4.61l-6.79,52.3a3.16,3.16,0,0,0,6.26.82L73.69,100A3.09,3.09,0,0,1,77.3,97.5a10.31,10.31,0,0,0,4,0l.28,0A3.08,3.08,0,0,1,85,100.21l4.74,44.14a.59.59,0,0,1,0,.14,3.16,3.16,0,0,0,6.26-.8l-5.7-53a34.14,34.14,0,0,1-.15-3.77l-.06-30.4a5,5,0,0,1,4.27-4.93c2.16-.31,4.53-.69,7.46-1.2l4.85-1,18.87-4.19h0a3.29,3.29,0,0,0,2.57-3.65s0-.11,0-.19A3.15,3.15,0,0,0,124.3,39l-18.62,4.27-5,.87A116.93,116.93,0,0,1,81.3,46.39H81c-.77,0-2.67,0-3.4-.06A95.13,95.13,0,0,1,64,44.68l-5.11-1-.69-.16-.16,0-24-4.63-.21,0Z" class="cls-2"/></g></g></svg>