<?xml version="1.0" encoding="utf-8"?>
<!-- Generator: Adobe Illustrator 25.4.1, SVG Export Plug-In . SVG Version: 6.00 Build 0)  -->
<svg version="1.1" id="Layer_1" xmlns="http://www.w3.org/2000/svg" xmlns:xlink="http://www.w3.org/1999/xlink" x="0px" y="0px"
	 viewBox="0 0 220 170" style="enable-background:new 0 0 220 170;" xml:space="preserve">
<style type="text/css">
	.st0{fill:#92B9DC;}
	.st1{fill:#31225C;}
	.st2{fill:#E58966;}
</style>
<g id="Group_24">
	<g id="Rectangle_52">
		<rect x="3.5" y="20.3" class="st0" width="60" height="60"/>
		<path class="st1" d="M63.5,80.3h-60v-60h60V80.3z M6.5,77.3h54v-54h-54V77.3z"/>
	</g>
	<g id="Rectangle_53">
		<rect x="79.5" y="20.3" class="st0" width="60" height="60"/>
		<path class="st1" d="M139.5,80.3h-60v-60h60V80.3z M82.5,77.3h54v-54h-54V77.3z"/>
	</g>
	<g id="Rectangle_54">
		<rect x="156.5" y="20.3" class="st0" width="60" height="60"/>
		<path class="st1" d="M216.5,80.3h-60v-60h60V80.3z M159.5,77.3h54v-54h-54V77.3z"/>
	</g>
	<g id="Rectangle_55">
		<rect x="3.5" y="94.3" class="st2" width="213" height="51"/>
		<path class="st1" d="M216.5,145.3H3.5v-51h213V145.3z M6.5,142.3h207v-45H6.5V142.3z"/>
	</g>
</g>
</svg>
