<svg xmlns="http://www.w3.org/2000/svg" viewBox="0 0 148.704 145.99"><g transform="translate(-622.65 -219.357)"><g transform="translate(637.015 241.849)" fill="#92b9dc" stroke="#31225c" stroke-width="2.5"><rect width="94.485" height="94.485" stroke="none"/><rect x="1" y="1" width="92.485" height="92.485" fill="none"/></g><g transform="translate(736.266 229.154) rotate(68)" fill="#fff" stroke-linejoin="round"><path d="M 54.78840637207031 117.9412994384766 L 48.74309921264648 117.9412994384766 C 45.44247055053711 117.9412994384766 42.20503997802734 117.0586318969727 39.38079071044922 115.3887252807617 C 36.63728332519531 113.7665557861328 34.34780883789062 111.4488525390625 32.75986862182617 108.6861419677734 L 32.72796249389648 108.6305999755859 L 32.689208984375 108.5796051025391 L 3.198423147201538 69.7535400390625 C 1.790684580802917 67.90004730224609 1.010007739067078 65.38345336914062 1.000223159790039 62.66732788085938 C 0.9904077053070068 59.94415664672852 1.75691545009613 57.36948013305664 3.15856146812439 55.41758728027344 C 4.539161682128906 53.49540328979492 6.349223136901855 52.43677139282227 8.25523853302002 52.43677139282227 C 10.02888488769531 52.43677139282227 11.71863842010498 53.37549591064453 13.01325416564941 55.08003616333008 L 28.52477645874023 75.501708984375 L 30.32110023498535 77.86666870117188 L 30.32110023498535 74.8968505859375 L 30.32110023498535 8.309696197509766 C 30.32110023498535 4.279111385345459 33.60022354125977 1.000003576278687 37.63080596923828 1.000003576278687 C 41.66139221191406 1.000003576278687 44.94049835205078 4.279111385345459 44.94049835205078 8.309696197509766 L 44.94049835205078 60.87698745727539 L 46.94049835205078 60.87698745727539 L 46.94049835205078 46.03680419921875 C 46.94049835205078 42.05485153198242 50.1800537109375 38.8152961730957 54.16200637817383 38.8152961730957 C 58.14394760131836 38.8152961730957 61.38349914550781 42.05485153198242 61.38349914550781 46.03680419921875 L 61.38349914550781 60.67620468139648 L 63.38349914550781 60.67620468139648 L 63.38349914550781 50.99040222167969 C 63.38349914550781 46.95981979370117 66.66262054443359 43.68069458007812 70.69320678710938 43.68069458007812 C 74.72379302978516 43.68069458007812 78.00289916992188 46.95981979370117 78.00289916992188 50.99040222167969 L 78.00289916992188 61.27204895019531 L 80.00289916992188 61.27204895019531 L 80.00289916992188 54.91980361938477 C 80.00289916992188 51.42815780639648 82.84355926513672 48.58749771118164 86.335205078125 48.58749771118164 C 89.82683563232422 48.58749771118164 92.66750335693359 51.42815780639648 92.66750335693359 54.91980361938477 L 92.66750335693359 79.54289245605469 C 92.66750335693359 79.75222015380859 92.65715789794922 79.96346282958984 92.63677978515625 80.1707763671875 L 92.63219451904297 80.21742248535156 L 92.63198852539062 80.2642822265625 C 92.60982513427734 85.35560607910156 91.59388732910156 90.29184722900391 89.61241149902344 94.93588256835938 C 87.69765472412109 99.42354583740234 84.96588134765625 103.4527587890625 81.49301147460938 106.91162109375 C 78.01942443847656 110.3711700439453 73.97845458984375 113.0867691040039 69.48233032226562 114.9829864501953 C 64.82786560058594 116.9459762573242 59.88413238525391 117.9412994384766 54.78840637207031 117.9412994384766 Z" stroke="none"/><path d="M 54.78839874267578 116.9412994384766 C 59.74991607666016 116.9412994384766 64.56291961669922 115.9724197387695 69.09373474121094 114.0615844726562 C 73.47091674804688 112.2155151367188 77.40522003173828 109.571533203125 80.78733062744141 106.2030868530273 C 84.16878509521484 102.8352813720703 86.82851409912109 98.91241455078125 88.69263458251953 94.54343414306641 C 90.62146759033203 90.02278137207031 91.61042022705078 85.21711730957031 91.63200378417969 80.25993347167969 C 91.63226318359375 80.19750213623047 91.63546752929688 80.13511657714844 91.64158630371094 80.07298278808594 C 91.65878295898438 79.89797973632812 91.66750335693359 79.71963500976562 91.66750335693359 79.54290008544922 L 91.66750335693359 54.9197998046875 C 91.66750335693359 51.97956466674805 89.27543640136719 49.58750152587891 86.33519744873047 49.58750152587891 C 83.39496612548828 49.58750152587891 81.00289916992188 51.97956466674805 81.00289916992188 54.9197998046875 L 81.00289916992188 61.27204895019531 C 81.00289916992188 62.37661743164062 80.10746765136719 63.27204895019531 79.00289916992188 63.27204895019531 C 77.89833068847656 63.27204895019531 77.00289916992188 62.37661743164062 77.00289916992188 61.27204895019531 L 77.00289916992188 50.99039840698242 C 77.00289916992188 47.51121520996094 74.17238616943359 44.68069839477539 70.69319915771484 44.68069839477539 C 67.21401977539062 44.68069839477539 64.38349914550781 47.51121520996094 64.38349914550781 50.99039840698242 L 64.38349914550781 60.67620086669922 C 64.38349914550781 61.78076553344727 63.48806762695312 62.67620086669922 62.38349914550781 62.67620086669922 C 61.27893447875977 62.67620086669922 60.38349914550781 61.78076553344727 60.38349914550781 60.67620086669922 L 60.38349914550781 46.03680038452148 C 60.38349914550781 42.60625076293945 57.59254837036133 39.81529998779297 54.1619987487793 39.81529998779297 C 50.73144912719727 39.81529998779297 47.94049835205078 42.60625076293945 47.94049835205078 46.03680038452148 L 47.94049835205078 60.87698364257812 C 47.94049835205078 61.98154830932617 47.04506683349609 62.87698364257812 45.94049835205078 62.87698364257812 C 44.83593368530273 62.87698364257812 43.94049835205078 61.98154830932617 43.94049835205078 60.87698364257812 L 43.94049835205078 8.309700012207031 C 43.94049835205078 4.830516338348389 41.10998153686523 1.999999761581421 37.63079833984375 1.999999761581421 C 34.15161514282227 1.999999761581421 31.32110023498535 4.830516338348389 31.32110023498535 8.309700012207031 L 31.32110023498535 74.8968505859375 C 31.32110023498535 75.75546264648438 30.77306747436523 76.51828002929688 29.9593334197998 76.79228210449219 C 29.14558792114258 77.06627655029297 28.24778175354004 76.79031372070312 27.72843360900879 76.1065673828125 L 12.21689987182617 55.68486785888672 C 11.1158332824707 54.23514938354492 9.708883285522461 53.436767578125 8.255233764648438 53.436767578125 C 6.679999828338623 53.436767578125 5.158400058746338 54.34743118286133 3.970833301544189 56.0008659362793 C 2.690999984741211 57.78313446044922 1.99115002155304 60.14938354492188 2.000216722488403 62.66373443603516 C 2.009216785430908 65.16401672363281 2.717583417892456 67.46710205078125 3.994766712188721 69.148681640625 L 33.48554992675781 107.9747314453125 C 33.53715133666992 108.0426635742188 33.5843505859375 108.1138305664062 33.62686538696289 108.1877975463867 C 35.1289176940918 110.8011016845703 37.29458236694336 112.9934844970703 39.88975143432617 114.5279312133789 C 42.55996704101562 116.1067657470703 45.62141799926758 116.9412994384766 48.74309921264648 116.9412994384766 L 54.78839874267578 116.9412994384766 M 54.78839874267578 118.9412994384766 L 48.74309921264648 118.9412994384766 C 41.53513336181641 118.9412994384766 35.24440002441406 115.0154800415039 31.89288330078125 109.1844482421875 L 2.402100086212158 70.3583984375 C -0.778499960899353 66.17070007324219 -0.8036999702453613 59.22090148925781 2.34630012512207 54.83430099487305 C 5.496300220489502 50.44860458374023 10.62899971008301 50.28749847412109 13.80959987640381 54.47520065307617 L 29.32110023498535 74.8968505859375 L 29.32110023498535 8.309700012207031 C 29.32110023498535 3.72059965133667 33.04169845581055 -2.807617249800387e-07 37.63079833984375 -2.807617249800387e-07 C 42.22079849243164 -2.807617249800387e-07 45.94049835205078 3.72059965133667 45.94049835205078 8.309700012207031 L 45.94049835205078 60.87698364257812 L 45.94049835205078 46.03680038452148 C 45.94049835205078 41.49629974365234 49.62150192260742 37.81529998779297 54.1619987487793 37.81529998779297 C 58.70249938964844 37.81529998779297 62.38349914550781 41.49629974365234 62.38349914550781 46.03680038452148 L 62.38349914550781 60.67620086669922 L 62.38349914550781 50.99039840698242 C 62.38349914550781 46.40039825439453 66.10410308837891 42.68069839477539 70.69319915771484 42.68069839477539 C 75.28230285644531 42.68069839477539 79.00289916992188 46.40039825439453 79.00289916992188 50.99039840698242 L 79.00289916992188 61.27204895019531 L 79.00289916992188 54.9197998046875 C 79.00289916992188 50.87070083618164 82.28610229492188 47.58750152587891 86.33519744873047 47.58750152587891 C 90.38430023193359 47.58750152587891 93.66750335693359 50.87070083618164 93.66750335693359 54.9197998046875 L 93.66750335693359 79.54290008544922 C 93.66750335693359 79.78781890869141 93.65544891357422 80.02989959716797 93.63198089599609 80.26863098144531 C 93.53893280029297 101.642463684082 76.18408203125 118.9412994384766 54.78839874267578 118.9412994384766 Z" stroke-width="1" stroke="#31225c" fill="#31225c"/></g><g transform="translate(622.65 319.131) rotate(-34)" fill="#e58966" stroke="#31225c" stroke-linejoin="round" stroke-width="2.5"><rect width="21.732" height="55.746" rx="4" stroke="none"/><rect x="1" y="1" width="19.732" height="53.746" rx="3" fill="none"/></g><g transform="matrix(0.985, 0.174, -0.174, 0.985, 694.181, 215.475)"><g transform="matrix(0.966, -0.259, 0.259, 0.966, 0, 4.781)" fill="#e58966" stroke="#31225c" stroke-width="2.5"><rect width="9.485" height="31.418" rx="4.742" stroke="none"/><rect x="1" y="1" width="7.485" height="29.418" rx="3.742" fill="none"/></g><g transform="matrix(0.966, 0.259, -0.259, 0.966, 26.98, 0)" fill="#e58966" stroke="#31225c" stroke-width="2.5"><rect width="9.485" height="31.418" rx="4.742" stroke="none"/><rect x="1" y="1" width="7.485" height="29.418" rx="3.742" fill="none"/></g><g transform="translate(57.955 12.827) rotate(60)" fill="#e58966" stroke="#31225c" stroke-width="2.5"><rect width="9.485" height="31.418" rx="4.742" stroke="none"/><rect x="1" y="1" width="7.485" height="29.418" rx="3.742" fill="none"/></g></g></g></svg>