<svg id="Layer_1" data-name="Layer 1" xmlns="http://www.w3.org/2000/svg" viewBox="0 0 166.9 162.35"><defs><style>.cls-1{fill:#79abd3;}.cls-2{fill:#31225c;}.cls-3{fill:#a94830;}.cls-4{fill:#131131;}.cls-5{fill:#de7252;}.cls-6{fill:#fff;}</style></defs><g id="Group_31" data-name="Group 31"><g id="Icon_feather-github" data-name="Icon feather-github"><path class="cls-1" d="M111.36,161.18V131.84a25.54,25.54,0,0,0-7.12-19.79c23.81-2.66,48.83-11.68,48.83-53.09A41.24,41.24,0,0,0,141.7,30.53,38.41,38.41,0,0,0,141,1.94s-8.95-2.66-29.65,11.22a101.46,101.46,0,0,0-53.08,0C37.58-.72,28.63,1.94,28.63,1.94A38.46,38.46,0,0,0,28,30.53,41.23,41.23,0,0,0,16.58,59.19c0,41.1,25,50.13,48.83,53.08a25.55,25.55,0,0,0-7.13,19.57v29.35Z"/><path class="cls-2" d="M111.36,162.69H58.28a1.51,1.51,0,0,1-1.5-1.5v-29.3a27.15,27.15,0,0,1,5.67-18.5c-22.64-3.27-47.37-13-47.37-54.2a42.52,42.52,0,0,1,11.15-29,39.73,39.73,0,0,1,1-28.82,1.5,1.5,0,0,1,1-.85c.39-.12,9.69-2.65,30.34,11a103.15,103.15,0,0,1,52.54,0c20.65-13.68,30-11.15,30.35-11a1.47,1.47,0,0,1,.95.84,39.79,39.79,0,0,1,1,28.84A42.52,42.52,0,0,1,154.57,59c0,41.67-24.71,51.23-47.35,54.23a27.07,27.07,0,0,1,5.64,18.7v29.3A1.5,1.5,0,0,1,111.36,162.69Zm-51.58-3h50.08V131.84s0-.08,0-.12a24.1,24.1,0,0,0-6.71-18.63,1.48,1.48,0,0,1-.33-1.55,1.5,1.5,0,0,1,1.24-1c22.12-2.46,47.5-10.56,47.5-51.59a39.54,39.54,0,0,0-11-27.39,1.52,1.52,0,0,1-.32-1.56A36.75,36.75,0,0,0,140,3.28c-2.33-.21-11.12,0-27.75,11.13a1.52,1.52,0,0,1-1.23.2,100,100,0,0,0-52.3,0,1.52,1.52,0,0,1-1.23-.2C40.84,3.28,32.06,3.07,29.7,3.29A36.7,36.7,0,0,0,29.36,30,1.52,1.52,0,0,1,29,31.56a39.51,39.51,0,0,0-11,27.62c0,40.28,24,48.69,47.52,51.6a1.5,1.5,0,0,1,.89,2.54,24.09,24.09,0,0,0-6.71,18.42v27.95Z"/></g><g id="Path_286" data-name="Path 286"><path class="cls-2" d="M41.59,139c-14.59,0-21.25-8.45-26.85-15.57-3.64-4.61-6.78-8.6-11.41-9.76a1.5,1.5,0,0,1,.73-2.91c5.62,1.41,9.22,6,13,10.82,7.09,9,15.12,19.19,39.26,12a1.5,1.5,0,1,1,.86,2.87A54.61,54.61,0,0,1,41.59,139Z"/></g><g id="Path_287" data-name="Path 287"><path class="cls-3" d="M32.58,148.05,58,161.11l-.2-17.65"/><path class="cls-4" d="M58,162.61a1.49,1.49,0,0,1-.68-.17L31.89,149.39a1.5,1.5,0,0,1,1.38-2.67l23.19,11.91-.17-15.15a1.5,1.5,0,1,1,3,0l.2,17.64a1.51,1.51,0,0,1-1.5,1.52Z"/></g><g id="Path_288" data-name="Path 288"><path class="cls-5" d="M24.67,111.58l7.62,35.8L143,122.18l20.67-43.44Z"/><path class="cls-2" d="M32.29,148.88a1.45,1.45,0,0,1-.81-.24,1.47,1.47,0,0,1-.66-.95l-7.62-35.8a1.5,1.5,0,0,1,1.12-1.77l139-32.84a1.5,1.5,0,0,1,1.51.52,1.47,1.47,0,0,1,.19,1.58l-20.67,43.44a1.48,1.48,0,0,1-1,.82L32.62,148.84A1.24,1.24,0,0,1,32.29,148.88ZM26.44,112.7l7,32.88,108.48-24.7,19-40Z"/></g><g id="Group_30" data-name="Group 30"><g id="Path_289" data-name="Path 289"><path class="cls-6" d="M61.13,131a9.74,9.74,0,1,1,7.28-11.69v0a9.58,9.58,0,0,1-7,11.6Zm-3.61-15.7a6.38,6.38,0,1,0,2.84,12.43h0a6.12,6.12,0,0,0,4.72-7.26c0-.1,0-.2-.08-.3a6.22,6.22,0,0,0-7.32-4.91l-.16,0Z"/></g><g id="Path_290" data-name="Path 290"><path class="cls-6" d="M84.82,116.58c-.88.86-2,1.33-4.63,1.92l-1.09.25,1.59,7-3.4.77L73.1,108.16l4.54-1c2.43-.56,3.7-.61,4.89-.23a5.56,5.56,0,0,1,3.58,4.25A5.79,5.79,0,0,1,84.82,116.58Zm-6.43-6.2-1.14.26,1.11,4.86,1-.22c3.05-.7,3.71-1.71,3.34-3.3C82.25,110,81,109.78,78.39,110.38Z"/></g><g id="Path_291" data-name="Path 291"><path class="cls-6" d="M96.32,122.39l-4.19-18.33,9.85-2.25.74,3.25-6.45,1.47,1,4.32,6.17-1.41.75,3.25L98,114.1l1,4.27,6.46-1.48.74,3.26Z"/></g><g id="Path_292" data-name="Path 292"><path class="cls-6" d="M125.26,115.42l-10.71-11.57,3,13.33-3.4.77L110,99.61l3.87-.88,10.64,11.62-3-13.35,3.4-.78,4.19,18.34Z"/></g></g></g></svg>