<svg xmlns="http://www.w3.org/2000/svg" xmlns:xlink="http://www.w3.org/1999/xlink" id="Layer_1" x="0" y="0" version="1.1" viewBox="0 0 220 170" xml:space="preserve" style="enable-background:new 0 0 220 170"><style type="text/css">.st0{fill:#79abd3}.st1{fill:#31225c}.st2{fill:#a94830}.st3{fill:#131131}.st4{fill:#de7252}.st5{fill:#fff}</style><g id="Group_31"><g id="Icon_feather-github"><path d="M137.9,165v-29.3c0.6-7.3-2-14.5-7.1-19.8c23.8-2.7,48.8-11.7,48.8-53.1c0-10.6-4.1-20.8-11.4-28.4 c3.5-9.3,3.2-19.5-0.7-28.6c0,0-8.9-2.7-29.7,11.2c-17.4-4.7-35.7-4.7-53.1,0C64.1,3.1,55.2,5.8,55.2,5.8 c-3.9,9.1-4.1,19.3-0.6,28.6c-7.4,7.7-11.5,18-11.4,28.7c0,41.1,25,50.1,48.8,53.1c-5,5.2-7.6,12.3-7.1,19.6V165H137.9z" class="st0"/><path d="M137.9,166.5H84.8c-0.8,0-1.5-0.7-1.5-1.5v-29.3c-0.4-6.7,1.6-13.2,5.7-18.5c-22.6-3.3-47.4-13-47.4-54.2 c-0.1-10.7,3.9-21.1,11.1-29c-3.3-9.4-2.9-19.7,1-28.8c0.2-0.4,0.6-0.7,1-0.8c0.4-0.1,9.7-2.7,30.3,11c17.2-4.5,35.3-4.5,52.5,0 c20.6-13.7,30-11.1,30.4-11c0.4,0.1,0.8,0.4,0.9,0.8c3.9,9.1,4.3,19.4,1,28.8C177,41.9,181,52.1,181,62.8 c0,41.7-24.7,51.2-47.3,54.2c4.1,5.3,6.2,12,5.6,18.7V165C139.4,165.9,138.7,166.5,137.9,166.5z M86.3,163.5h50.1v-27.9v-0.1 c0.5-6.9-1.9-13.7-6.7-18.6c-0.4-0.4-0.5-1-0.3-1.6c0.2-0.5,0.7-0.9,1.2-1c22.1-2.5,47.5-10.6,47.5-51.6c0-10.2-3.9-20-11-27.4 c-0.4-0.4-0.5-1-0.3-1.6c3.3-8.6,3.2-18.2-0.2-26.7c-2.3-0.2-11.1,0-27.8,11.1c-0.4,0.2-0.8,0.3-1.2,0.2 c-17.1-4.6-35.2-4.6-52.3,0c-0.4,0.1-0.9,0-1.2-0.2c-16.7-11-25.5-11.2-27.8-11c-3.5,8.5-3.6,18.1-0.3,26.7c0.2,0.5,0,1.2-0.4,1.6 c-7.1,7.4-11.1,17.3-11,27.6c0,40.3,24,48.7,47.5,51.6c0.8,0.1,1.4,0.8,1.3,1.7c0,0.3-0.2,0.6-0.4,0.9c-4.7,4.9-7.2,11.6-6.7,18.4 V163.5L86.3,163.5z" class="st1"/></g><g id="Path_286"><path d="M68.1,142.8c-14.6,0-21.2-8.4-26.8-15.6c-3.6-4.6-6.8-8.6-11.4-9.8c-0.8-0.2-1.3-1-1.1-1.8 c0.2-0.8,1-1.3,1.8-1.1c5.6,1.4,9.2,6,13,10.8c7.1,9,15.1,19.2,39.3,12c0.8-0.3,1.6,0.1,1.9,0.9c0.3,0.8-0.1,1.6-0.9,1.9h-0.1 C78.7,141.9,73.4,142.7,68.1,142.8z" class="st1"/></g><g id="Path_287"><path d="M59.1,151.9L84.5,165l-0.2-17.6" class="st2"/><path d="M84.6,166.4c-0.2,0-0.5-0.1-0.7-0.2l-25.4-13.1c-0.7-0.4-1-1.3-0.6-2s1.3-1,2-0.6l23.1,12l-0.2-15.1 c0-0.8,0.7-1.5,1.5-1.5s1.5,0.7,1.5,1.5L86,165C86,165.8,85.4,166.5,84.6,166.4C84.5,166.5,84.5,166.5,84.6,166.4L84.6,166.4z" class="st3"/></g><g id="Path_288"><path d="M51.2,115.4l7.6,35.8L169.6,126l20.7-43.4L51.2,115.4z" class="st4"/><path d="M58.8,152.7c-0.3,0-0.6-0.1-0.8-0.2c-0.3-0.2-0.6-0.6-0.7-0.9l-7.6-35.8c-0.2-0.8,0.3-1.6,1.1-1.8l139-32.8 c0.6-0.1,1.1,0.1,1.5,0.5s0.4,1.1,0.2,1.6l-20.7,43.4c-0.2,0.4-0.6,0.7-1,0.8L59.2,152.7C59.1,152.7,59,152.7,58.8,152.7z M53,116.5l7,32.9l108.5-24.7l19-40L53,116.5z" class="st1"/></g><g id="Group_30"><g id="Path_289"><path d="M87.7,134.8c-5.2,1.2-10.5-2-11.7-7.3c-1.2-5.2,2-10.5,7.3-11.7s10.5,2,11.7,7.3l0,0l0,0 c1.3,5.1-1.9,10.3-7,11.6l0,0L87.7,134.8z M84.1,119.1c-3.5,0.7-5.7,4-5.1,7.4c0.7,3.5,4,5.7,7.4,5.1c0.2,0,0.3-0.1,0.5-0.1l0,0 c3.3-0.7,5.4-3.9,4.7-7.3l0,0c0-0.1,0-0.2-0.1-0.3c-0.7-3.4-3.9-5.6-7.3-4.9l0,0L84.1,119.1L84.1,119.1z" class="st5"/></g><g id="Path_290"><path d="M111.4,120.4c-0.9,0.9-2,1.3-4.6,1.9l-1.1,0.2l1.6,7l-3.4,0.8L99.7,112l4.5-1c2.4-0.6,3.7-0.6,4.9-0.2 c1.9,0.7,3.2,2.3,3.6,4.2C113.2,116.9,112.7,118.9,111.4,120.4z M104.9,114.2l-1.1,0.3l1.1,4.9l1-0.2c3.1-0.7,3.7-1.7,3.3-3.3 C108.8,113.8,107.6,113.6,104.9,114.2z" class="st5"/></g><g id="Path_291"><path d="M122.9,126.2l-4.2-18.3l9.8-2.2l0.7,3.2l-6.4,1.5l1,4.3l6.2-1.4l0.8,3.2l-6.2,1.4l1,4.3l6.5-1.5l0.7,3.3 L122.9,126.2z" class="st5"/></g><g id="Path_292"><path d="M151.8,119.2l-10.7-11.6l3,13.3l-3.4,0.8l-4.2-18.3l3.9-0.9l10.6,11.6l-3-13.3l3.4-0.8l4.2,18.3L151.8,119.2 z" class="st5"/></g></g></g></svg>