<svg xmlns="http://www.w3.org/2000/svg" viewBox="0 0 565.49 505.9"><defs><style>.cls-1{fill:#4d3c8c}</style></defs><g id="Layer_2" data-name="Layer 2"><g id="Layer_1-2" data-name="Layer 1"><g id="Layer_5" data-name="Layer 5"><path d="M555.5,4A22.67,22.67,0,0,0,537.6.58c-14.6,3.3-25.3,17.9-34,28.9-9.6,12.1-32.8-2.4-46.3,5.1-18.1,10-37,37.8-56.6,34.8-17.3-2.7-35.6,5.4-51.7,13.3-24.8,12.3-38.4,34.8-40.6,62s-4.7,58.1-26.3,75.5c-13,10.5-33.5,12.2-49.7,10.5s-19.6-.6-39.7-4.3c-37.5-6.8-71.3-23.4-110.5-10.3-31.8,10.6-41.3,46.3-36.3,75.3,4.7,26.6,17.7,51.1,18.2,78.7.5,34.8-12.7,73.7-44,93.6A226.89,226.89,0,0,0,0,477.88v26.6s33.1,16.5,81.6-63,84.7-148.7,153.9-168.4c0,0-30.1,65.6-12.4,119.6a55.73,55.73,0,0,1,10.5-9.5c20.7-13.8,47.7-9.2,70.7-2,24.7,7.7,53.5,19.2,79.6,7.1,44.7-20.7,38.5-85.2,42.3-124.6,3.5-35.8,35.3-69.4,61.1-96.5,25.4-26.8,28.2-17.1,46.5-49C548.3,92.68,582.3,21.28,555.5,4Z" class="cls-1"/></g></g></g></svg>