<svg xmlns="http://www.w3.org/2000/svg" xmlns:xlink="http://www.w3.org/1999/xlink" id="Layer_1" x="0" y="0" version="1.1" viewBox="0 0 627.1 639.3" xml:space="preserve" style="enable-background:new 0 0 627.1 639.3"><style type="text/css">.st0{fill:#a5def8}.st1{fill:url(#SVGID_1_)}.st2{fill:#fff}.st3{fill:#fad779}.st4{fill:#f27a51}.st5{fill:#1b72a2}.st7{fill:#a6ddf8}.st9{fill:#42bbe0}.st10{fill:#d8eff7}.st11{fill:#00a2c5}</style><g><ellipse cx="402.5" cy="121.6" class="st0" rx="44.2" ry="44.2"/><linearGradient id="SVGID_1_" x1="354.221" x2="450.711" y1="271.616" y2="271.616" gradientTransform="matrix(1 0 0 1 0 -150)" gradientUnits="userSpaceOnUse"><stop offset=".04" style="stop-color:#1f1143"/><stop offset=".96" style="stop-color:#15103a"/></linearGradient><path d="M402.5,169.8c-0.8,0-1.7,0-2.5-0.1c-26.6-1.4-47-24-45.6-50.6s24-47,50.6-45.6c26.6,1.4,47,24,45.6,50.6 C449.2,149.7,428.1,169.8,402.5,169.8z M402.4,81.4c-22.3,0-40.4,18.1-40.4,40.3c0,22.3,18.1,40.4,40.3,40.4s40.4-18.1,40.4-40.3 c0-21.5-16.8-39.2-38.2-40.3C403.8,81.4,403.1,81.4,402.4,81.4z" class="st1"/><path d="M476.4,164.8C406,231.2,347.7,269.6,347.7,269.6l10.9,45.9c0.5,2.2-0.1,4.6-1.6,6.3l-50.8,55.6 c-0.6,0.7-1.7,0.7-2.3,0.1c-0.3-0.2-0.4-0.5-0.5-0.9c-2.5-12.1-14.4-56.6-62.2-109.5s-90.8-69.3-102.6-73c-0.9-0.3-1.4-1.2-1.1-2.1 c0.1-0.3,0.3-0.6,0.6-0.8l60.5-44.8c1.8-1.4,4.2-1.7,6.4-1l44.6,15.5c0,0,44.1-54.2,117.3-117.4c50.8-43.7,105.8-41,134.6-35.3 c12.9,2.5,22.7,13.3,23.9,26.4C528.1,63.8,525.1,118.8,476.4,164.8z" class="st2"/><path d="M260.4,307.4c-68.1,61.7-107.6,62.2-121.9,59.3c-4.1-0.9-7.2-4.4-7.6-8.6c-1.5-14.8,3-54,69.9-115.8 c0.9-0.8,2.2-0.8,3.1,0.1l0,0l56.7,61.9C261.4,305.2,261.3,306.5,260.4,307.4C260.5,307.3,260.4,307.4,260.4,307.4z" class="st3"/><path d="M149.1,371.7c-3.8,0-7.7-0.3-11.4-1.1c-2.8-0.6-5.3-2.1-7.2-4.1c-2-2.2-3.3-5.1-3.6-8.1 c-1.8-18.3,5-58,71.2-119.2c1.2-1.1,2.8-1.7,4.5-1.6c1.6,0.1,3.2,0.8,4.3,2c10.3,8.6,20.1,17.7,29.4,27.5 c9.7,10.3,27.3,34.5,27.3,34.5c2.3,2.5,2.1,6.5-0.4,8.8l0,0C241.9,329.6,191,371.4,149.1,371.7z M202.2,246.5 c-64.7,60.2-68.6,97.8-67.3,111.2c0.1,1.3,0.7,2.5,1.5,3.4s1.8,1.5,3,1.7c13.1,2.6,50.8,2.3,116.9-57.1L202.2,246.5z" class="st4"/><path d="M248.2,291.6c-38.7,35.1-61.1,35.3-69.3,33.7c-1.1-0.2-2.1-0.8-2.8-1.6c-0.8-0.9-1.3-2-1.5-3.3 c-0.8-8.4,1.7-30.7,39.7-65.8c0.5-0.5,1.3-0.4,1.7,0.1l0,0l32.2,35.2C248.8,290.4,248.7,291.1,248.2,291.6z" class="st2"/><path d="M184,330.2c-2.3,0-4.5-0.2-6.7-0.6c-1.9-0.4-3.7-1.4-5-2.9c-1.4-1.5-2.3-3.5-2.5-5.5 c-1.1-10.7,2.8-33.9,41-69.1c1-0.9,2.4-1.4,3.8-1.4s2.7,0.7,3.7,1.7l32.1,35.1c2,2.1,1.8,5.5-0.3,7.4l0,0 C218,323.9,196.5,330.1,184,330.2z M214.9,259.2c-35,33-37.9,53.9-37.2,61.1c0,0.3,0.2,0.7,0.4,0.9c0.2,0.2,0.5,0.4,0.8,0.5 c7,1.4,28.2,0.6,64.4-31.5c0,0-7-9.7-13.3-16.5C224,266.9,214.9,259.2,214.9,259.2z M244.6,288.9L244.6,288.9z M216.2,257.9 L216.2,257.9z" class="st4"/><ellipse cx="402.6" cy="121.3" class="st0" rx="44.2" ry="44.2"/><ellipse cx="402.6" cy="121.3" class="st5" rx="28.1" ry="28.1"/><linearGradient id="SVGID_00000110467192701925502550000017591604286437588404_" x1="370.4" x2="434.7" y1="271.35" y2="271.35" gradientTransform="matrix(1 0 0 1 0 -150)" gradientUnits="userSpaceOnUse"><stop offset=".04" style="stop-color:#1f1143"/><stop offset=".96" style="stop-color:#15103a"/></linearGradient><path style="fill:url(#SVGID_00000110467192701925502550000017591604286437588404_)" d="M402.6,153.5c-17.8,0-32.2-14.4-32.2-32.1 c0-17.8,14.4-32.2,32.1-32.2c17.8,0,32.2,14.4,32.2,32.1c0,9.1-3.8,17.8-10.6,23.9C418.3,150.5,410.6,153.5,402.6,153.5z M402.6,97.2c-13.3,0-24.1,10.8-24.1,24.1s10.8,24.1,24.1,24.1c13.3,0,24.1-10.8,24.1-24.1c0-6-2.2-11.7-6.2-16.2 C416,100,409.4,97.1,402.6,97.2L402.6,97.2z"/><ellipse cx="400.3" cy="109" class="st7" rx="11" ry="6" transform="matrix(0.9664 -0.2571 0.2571 0.9664 -14.5753 106.5799)"/><path d="M407,136.1c-6.4,1.9-13.4,0.1-18.1-4.7c3,8.3,12.2,12.6,20.5,9.6c7.6-2.8,12-10.8,10.2-18.7 C418.2,128.8,413.4,134.1,407,136.1z" class="st7"/><path d="M521.3,34.9c0.4,3.8,0.6,8.1,0.7,12.8l-37.8-38c5.5,0.5,11.1,1.3,16.5,2.4C511.9,14.2,520.3,23.5,521.3,34.9z" class="st7"/><linearGradient id="SVGID_00000029011934170451565220000004711401301134164875_" x1="133.382" x2="530.104" y1="341.439" y2="341.439" gradientTransform="matrix(1 0 0 1 0 -150)" gradientUnits="userSpaceOnUse"><stop offset=".04" style="stop-color:#1f1143"/><stop offset=".96" style="stop-color:#15103a"/></linearGradient><path style="fill:url(#SVGID_00000029011934170451565220000004711401301134164875_)" d="M529.4,34.2C528,19.3,517,7,502.3,4.2 c-29.2-5.8-85.8-8.7-138,36.3c-64.4,55.7-106.9,104.9-116,115.7l-42-14.6c-3.4-1.2-7.2-0.6-10.1,1.5L135.7,188 c-2.5,1.9-3.1,5.4-1.2,8c0.7,1,1.7,1.7,2.9,2c11.8,3.7,53.9,19.8,100.9,71.8s58.7,95.5,61.2,107.6c0.4,2.1,2,3.8,4.1,4.3 c0.5,0.1,1,0.2,1.5,0.2c1.6,0,3.1-0.7,4.2-1.8l50.7-55.6c2.4-2.7,3.4-6.4,2.6-9.9l-10.3-43.2c11.6-8,65-45.2,127-103.7 C529.3,120.4,532.1,63.8,529.4,34.2z M423.9,16c14.4-4.5,29.4-6.8,44.5-6.9c2.4,0,4.7,1,6.4,2.7l18,18.1c0.8,0.8,0.8,2.1,0,2.8 c0,0,0,0-0.1,0.1l-28.7,26c-0.9,0.8-2.2,0.7-3-0.1l-37.7-40.5c-0.5-0.6-0.5-1.4,0.1-2C423.5,16.2,423.7,16,423.9,16z M354.1,60.3 c5-4.5,10.2-9,15.5-13.6c12.1-10.6,25.9-19.2,40.7-25.6c2-0.8,4.3-0.3,5.8,1.3L454.9,64c0.8,0.9,0.8,2.3-0.1,3.2l0,0l-20,18.1 c-17.6-15.8-44.2-16.5-62.5-1.5L354,63.7C353.1,62.7,353.1,61.2,354.1,60.3L354.1,60.3z M442.7,123.3c-1.1,22.2-20,39.2-42.2,38.1 s-39.2-20-38.1-42.2c1.1-21.3,18.7-38.1,40.1-38.1c0.7,0,1.4,0,2.1,0.1C426.8,82.3,443.9,101.1,442.7,123.3L442.7,123.3z M256.5,159.1c10.3-12.1,41.2-47.2,87.1-89.3c1.5-1.4,3.8-1.3,5.2,0.2l0,0l17.6,19.4c-15.3,17.4-16,43.2-1.8,61.5l-63.3,57.8 c-1,0.9-2.5,0.8-3.4-0.1l0,0l-41.3-45.8C255.6,161.7,255.6,160.1,256.5,159.1z M201.1,149.7c0.8-0.6,1.8-0.7,2.7-0.4l41.2,14.4 c1.6,0.5,3,1.5,4.1,2.7l19,21.1c1.6,1.8,1.5,4.6-0.3,6.3l-30.5,28.5c-1.9,1.8-4.9,1.8-6.9,0c-23.2-21.5-53.2-38.2-66.5-45.1 L201.1,149.7z M220.8,237.7c-1,0.9-2.5,0.9-3.5,0c-29.8-26.3-55.4-38.9-69.4-44.5c-1.1-0.5-1.7-1.8-1.2-2.9c0.2-0.4,0.4-0.7,0.7-1 l9.2-6.9c10.2,5.2,45.2,23.7,70,47.2c0.7,0.6,0.7,1.7,0.1,2.4l-0.1,0.1L220.8,237.7z M227,246.6c-1-1-1.1-2.6-0.1-3.7l0.1-0.1 l46.1-43.1c1.8-1.7,4.6-1.6,6.3,0.2c0,0,0,0,0.1,0.1l13.8,15.3l-49,45.1c-1.1,1-2.7,0.9-3.7-0.1C236.1,255.6,231,250.5,227,246.6 L227,246.6z M262.1,285.9c-4.2-5.5-7.8-10.2-12.6-15.7c-0.9-1.1-0.9-2.7,0.2-3.7l49-45.1l14.5,16.1c1.7,1.8,1.5,4.7-0.3,6.3 l-47,42.5c-1.1,0.9-2.7,0.8-3.7-0.2C262.1,286,262.1,285.9,262.1,285.9L262.1,285.9z M309.1,368.4c-0.8,0.9-2.2,1-3.1,0.2 c-0.3-0.3-0.5-0.6-0.7-1c-4-14.2-13.5-39.9-35.4-71c-0.8-1.1-0.6-2.5,0.4-3.4l6.9-6.3c0.7-0.6,1.7-0.6,2.3,0.1 c0.1,0.1,0.1,0.1,0.1,0.2c6.6,10,27.3,42.8,35.8,74.1L309.1,368.4z M354.7,316.5c0.2,0.9,0,1.9-0.7,2.6l-32.2,35.3 c-9.2-30.3-27.7-59.9-34.8-70.7c-1.4-2.1-1-4.8,0.8-6.5l30.4-27.5c1.8-1.7,4.7-1.5,6.3,0.3l17.7,19.6c1.1,1.2,1.9,2.7,2.3,4.3 L354.7,316.5z M450,183.5c-47.5,42.4-86.5,70.3-99.8,79.5c-1.1,0.8-2.7,0.6-3.6-0.4L306.5,218c-0.9-1-0.8-2.5,0.2-3.4l0,0 l63.3-57.8c8.3,7.6,18.9,12.1,30.1,12.6c0.8,0,1.7,0.1,2.5,0.1c10.8,0,21.3-3.7,29.8-10.4l17.8,19.1 C451.7,179.7,451.6,182.1,450,183.5C450.1,183.5,450,183.5,450,183.5L450,183.5z M504.3,122c-8,14.9-18.3,28.3-30.7,39.8 c-4.4,4.2-8.7,8.2-13,12.1c-1,0.9-2.5,0.8-3.4-0.1l-18.8-20.2c15.9-17.5,16.7-44,1.9-62.4l20-18.1c0.9-0.8,2.3-0.8,3.1,0.1l40,43 C505,117.7,505.3,120.1,504.3,122z M510.5,108.9c-0.3,0.7-1.1,1-1.8,0.7c-0.2-0.1-0.3-0.2-0.5-0.3l-38.8-41.6 c-0.8-0.9-0.8-2.2,0.1-3l0,0l29.1-26.3c0.8-0.7,2-0.7,2.8,0.1L518.8,56c1.9,1.9,2.9,4.6,2.6,7.3C520.2,78.9,516.5,94.3,510.5,108.9 z M484.2,9.7c5.5,0.5,11.1,1.3,16.5,2.3c11.2,2.2,19.6,11.5,20.6,22.8c0.4,3.8,0.6,8.1,0.7,12.8L484.2,9.7z"/><path d="M423.9,16c14.4-4.5,29.4-6.8,44.5-6.9c2.4,0,4.7,1,6.4,2.7l18,18.1c0.8,0.8,0.8,2.1,0,2.8c0,0,0,0-0.1,0.1 l-28.7,26c-0.9,0.8-2.2,0.7-3-0.1l-37.7-40.5c-0.5-0.6-0.5-1.5,0.1-2C423.5,16.2,423.7,16.1,423.9,16z" class="st9"/><path d="M354.1,60.3c5-4.5,10.2-9,15.5-13.6c12.1-10.6,25.9-19.2,40.7-25.6c2-0.8,4.3-0.3,5.8,1.3L454.9,64 c0.8,0.9,0.8,2.3-0.1,3.2l0,0l-20,18.1c-17.6-15.8-44.2-16.4-62.5-1.5L354,63.7C353.1,62.7,353.1,61.2,354.1,60.3L354.1,60.3z" class="st9"/><path d="M256.5,159.1c10.3-12.1,41.2-47.2,87.1-89.3c1.5-1.4,3.8-1.3,5.2,0.2l0,0l17.6,19.4 c-15.3,17.4-16,43.2-1.8,61.5l-63.2,57.7c-1,0.9-2.5,0.8-3.4-0.2l0,0l-41.3-45.8C255.6,161.7,255.6,160.1,256.5,159.1z" class="st9"/><path d="M201,149.7c0.8-0.6,1.8-0.7,2.7-0.4l41.3,14.4c1.6,0.5,3,1.5,4.1,2.7l19,21.1c1.6,1.8,1.5,4.6-0.3,6.3 l-30.5,28.5c-1.9,1.8-4.9,1.8-6.8,0c-23.2-21.5-53.2-38.2-66.5-45.1L201,149.7z" class="st9"/><path d="M220.7,237.7c-1,0.9-2.5,0.9-3.5,0c-29.7-26.3-55.3-38.9-69.4-44.5c-1.1-0.5-1.7-1.8-1.2-2.9 c0.2-0.4,0.4-0.7,0.7-1l9.2-6.9c10.2,5.2,45.2,23.7,70,47.2c0.7,0.6,0.7,1.7,0.1,2.4c0,0,0,0-0.1,0.1L220.7,237.7z" class="st10"/><path d="M226.9,246.6c-1-1-1.1-2.6-0.1-3.6l0.1-0.1l46.1-43.1c1.8-1.7,4.6-1.6,6.3,0.2c0,0,0,0,0.1,0.1l13.8,15.3 l-49,45.1c-1.1,1-2.7,0.9-3.7-0.1C236.1,255.6,231,250.5,226.9,246.6z" class="st9"/><path d="M262.1,285.9c-4.2-5.5-7.8-10.2-12.6-15.7c-0.9-1.1-0.9-2.7,0.2-3.7l49-45.1l14.5,16.1 c1.7,1.8,1.5,4.7-0.3,6.3l-47,42.5c-1.1,0.9-2.7,0.8-3.6-0.3C262.1,286,262.1,285.9,262.1,285.9z" class="st9"/><path d="M309,368.4c-0.8,0.9-2.2,1-3.1,0.1c-0.3-0.3-0.5-0.7-0.7-1.1c-4-14.2-13.5-39.9-35.4-71 c-0.8-1.1-0.6-2.5,0.4-3.4l6.9-6.3c0.7-0.6,1.7-0.6,2.3,0.1c0.1,0.1,0.1,0.1,0.1,0.2c6.6,10,27.3,42.8,35.8,74.1L309,368.4z" class="st9"/><path d="M354.6,316.5c0.2,0.9,0,1.9-0.7,2.6l-32.1,35.3c-9.2-30.3-27.7-59.9-34.8-70.7c-1.4-2.1-1-4.8,0.8-6.5 l30.4-27.5c1.8-1.7,4.6-1.5,6.3,0.3l0,0l17.7,19.6c1.1,1.2,1.9,2.7,2.3,4.3L354.6,316.5z" class="st9"/><path d="M450,183.5c-47.5,42.4-86.5,70.2-99.8,79.5c-1.1,0.8-2.7,0.6-3.6-0.4L306.5,218c-0.9-1-0.8-2.5,0.2-3.4 l63.3-57.8c8.3,7.6,18.9,12.1,30.1,12.6c0.8,0,1.7,0.1,2.5,0.1c10.8,0,21.3-3.7,29.8-10.4l17.8,19.1 C451.7,179.7,451.6,182,450,183.5C450.1,183.5,450,183.5,450,183.5z" class="st9"/><path d="M504.3,122c-8,14.9-18.3,28.3-30.7,39.8c-4.4,4.2-8.7,8.2-13,12.1c-1,0.9-2.5,0.8-3.4-0.1l-18.8-20.2 c15.9-17.5,16.7-44,1.9-62.4l20-18.1c0.9-0.8,2.3-0.8,3.1,0.1l40,43C505,117.7,505.3,120.1,504.3,122z" class="st9"/><path d="M510.5,108.9c-0.3,0.7-1.1,1-1.8,0.7c-0.2-0.1-0.3-0.2-0.5-0.3l-38.8-41.6c-0.8-0.9-0.8-2.2,0.1-3l0,0 l29.1-26.4c0.8-0.7,2-0.7,2.8,0.1L518.8,56c1.9,1.9,2.8,4.6,2.6,7.3C520.2,79,516.5,94.4,510.5,108.9z" class="st9"/><path d="M255.9,158.9c19-21.2,57.8-62.4,86-87.8c1.5-1.3,4.1-4.4,7.7-0.3c4.4,4.9,9.1,10.2,9.1,10.2 s-44.4,36.9-70.6,65.5c-4.2,4.6-11.9,16.5-6.2,29.1c5.7,12.6,16.1,33.1,16.1,33.1s-31.1-34.3-41-45.4 C255.9,162,254.8,160,255.9,158.9z" class="st0"/><path d="M350,263.4c23-16.7,70.4-52.6,98.6-78.1c1.4-1.3,4.8-3.8,1.1-7.8c-4.4-4.8-9.2-9.8-9.2-9.8 s-43.6,41.7-74.8,64.8c-5,3.7-17.6,10.2-29.6,3.2c-12-6.9-29.2-17.3-29.2-17.3s28.9,32.4,38.9,43.4 C346.9,263,348.8,264.3,350,263.4z" class="st11"/><ellipse cx="458.7" cy="22.1" class="st0" rx="18.3" ry="7.5" transform="matrix(0.9887 -0.1498 0.1498 0.9887 1.8658 68.962)"/><ellipse cx="400.6" cy="42.9" class="st0" rx="18.3" ry="7.5" transform="matrix(0.9295 -0.3688 0.3688 0.9295 12.4156 150.7617)"/><path d="M252,170c-1.5-3.2-4.3-5.6-7.7-6.7c-5.9-2-40.3-14-40.3-14s-1.8-0.8-4.3,1L163.8,177l12.7,7 c0,0,16-15.2,29.6-17.1C219.7,165.2,229.5,163.5,252,170z" class="st0"/><path d="M340.2,267.3c2.1,1.6,3.5,3.8,4.3,6.4c1.6,6,10.2,42.5,10.2,42.5s0.6,1.7-1.6,4.1l-31.3,34.2l-5-14.4 c0,0,17.3-14.6,20.4-28C340.3,298.7,344.5,290.3,340.2,267.3z" class="st11"/><circle cx="440.4" cy="69.7" r="3.1" class="st5"/><circle cx="454.1" cy="88.4" r="3.1" class="st5"/><circle cx="485.3" cy="62.9" r="3.1" class="st5"/><circle cx="495.7" cy="53.2" r="3.1" class="st5"/><circle cx="469.1" cy="42.7" r="3.1" class="st5"/><circle cx="479.5" cy="33" r="3.1" class="st5"/><linearGradient id="SVGID_00000099631805953844524280000006912703324878695090_" x1="430.319" x2="436.519" y1="326.2" y2="326.2" gradientTransform="matrix(1 0 0 1 0 -150)" gradientUnits="userSpaceOnUse"><stop offset=".04" style="stop-color:#1f1143"/><stop offset=".96" style="stop-color:#15103a"/></linearGradient><circle style="fill:url(#SVGID_00000099631805953844524280000006912703324878695090_)" cx="433.4" cy="176.2" r="3.1"/><circle cx="349.2" cy="86.8" r="3.1" class="st5"/><circle cx="370.4" cy="65.7" r="3.1" class="st5"/><ellipse cx="348.8" cy="192.7" class="st5" rx="3.1" ry="3.1"/><circle cx="365.9" cy="178.7" r="3.1" class="st5"/><circle cx="332.1" cy="207.5" r="3.1" class="st5"/><circle cx="326.2" cy="165.5" r="3.1" class="st5"/><circle cx="343.3" cy="151.5" r="3.1" class="st5"/><circle cx="309.5" cy="180.3" r="3.1" class="st5"/><circle cx="269.7" cy="224" r="3.1" class="st5"/><circle cx="253" cy="238.8" r="3.1" class="st5"/><circle cx="287.6" cy="245.3" r="3.1" class="st5"/><circle cx="270.9" cy="260" r="3.1" class="st5"/><circle cx="303.3" cy="287.6" r="3.1" class="st5"/><circle cx="314.1" cy="305.4" r="3.1" class="st5"/><circle cx="322.8" cy="327.1" r="3.1" class="st5"/><circle cx="232.3" cy="205.2" r="3.1" class="st5"/><circle cx="214.4" cy="189.5" r="3.1" class="st5"/><circle cx="193.3" cy="177" r="3.1" class="st5"/><path d="M493.6,105.5l9.9,10.6c0,0,2.6,2.1,0.6,6.6c-2.7,6.1-16.7,26.6-30.5,39.1l-13,12.1c-1,0.8-2.5,0.7-3.4-0.1 c-1.9-1.5-10.6-10.9-10.6-10.9s26.4-26.4,33.7-36.6C487.8,116,488,115.6,493.6,105.5z" class="st11"/><path d="M497.7,98c0,0,10.5-22.8,8-55l13.1,13c0,0,2.7,1.5,2.9,7.3c0.2,5.5-4.6,31.4-11.3,45.8 c-0.4,0.7-1.3,0.9-2,0.5c-0.2-0.1-0.3-0.2-0.4-0.4C503,104.1,497.7,98,497.7,98z" class="st11"/></g></svg>