<svg xmlns="http://www.w3.org/2000/svg" xmlns:xlink="http://www.w3.org/1999/xlink" viewBox="0 0 436.66 412.35"><defs><style>.cls-1{fill:#a6dff9}.cls-2{fill:url(#linear-gradient)}.cls-3{fill:#fff}.cls-4{fill:#fbd879}.cls-5{fill:#f37b51}.cls-6{fill:#1d72a3}.cls-7{fill:url(#linear-gradient-2)}.cls-8{fill:#a8def9}.cls-9{fill:url(#linear-gradient-3)}.cls-10{fill:#44bde1}.cls-11{fill:#d9f0f8}.cls-12{fill:#05a4c6}.cls-13{fill:url(#linear-gradient-4)}</style><linearGradient id="linear-gradient" x1="246.31" x2="350.74" y1="452.48" y2="452.48" gradientTransform="matrix(1, 0, 0, -1, 0, 582.9)" gradientUnits="userSpaceOnUse"><stop offset=".04" stop-color="#201143"/><stop offset=".96" stop-color="#16113a"/></linearGradient><linearGradient id="linear-gradient-2" x1="263.92" x2="333.52" y1="452.88" y2="452.88" xlink:href="#linear-gradient"/><linearGradient id="linear-gradient-3" x1="7.38" x2="436.66" y1="376.72" y2="376.72" xlink:href="#linear-gradient"/><linearGradient id="linear-gradient-4" x1="328.7" x2="335.41" y1="393.35" y2="393.35" xlink:href="#linear-gradient"/></defs><g id="Layer_2" data-name="Layer 2"><g id="Layer_1-2" data-name="Layer 1"><g id="Layer_4" data-name="Layer 4"><circle cx="298.56" cy="130.33" r="47.9" class="cls-1" transform="translate(-17.55 51.59) rotate(-9.6)"/><path d="M298.57,182.65a24.37,24.37,0,0,1-2.7-.1,50.77,50.77,0,1,1,2.7.1Zm-.1-95.8a41.27,41.27,0,1,0,2.3,0A17.65,17.65,0,0,1,298.47,86.85Z" class="cls-2"/><path d="M378.57,177.25c-76.1,71.8-139.3,113.4-139.3,113.4l11.8,49.7a7.45,7.45,0,0,1-1.8,6.8l-54.9,60.2a1.8,1.8,0,0,1-3.1-.8c-2.7-13.1-15.6-61.3-67.3-118.5s-98.3-75-111.1-79a1.82,1.82,0,0,1-.5-3.2l65.5-48.5a7.45,7.45,0,0,1,6.9-1.1l48.3,16.8s47.8-58.6,127-127.1c54.9-47.4,114.4-44.5,145.6-38.4a32.18,32.18,0,0,1,25.8,28.6C434.47,68,431.27,127.45,378.57,177.25Z" class="cls-3"/><path d="M144.87,331.55c-73.7,66.8-116.5,67.3-132,64.2a11,11,0,0,1-5.4-3.1,11.68,11.68,0,0,1-2.8-6.2c-1.6-16,3.3-58.4,75.7-125.3a2.36,2.36,0,0,1,3.3.1l61.3,67A2.36,2.36,0,0,1,144.87,331.55Z" class="cls-4"/><path d="M24.37,401.15a63.57,63.57,0,0,1-12.4-1.1,15.24,15.24,0,0,1-7.8-4.5,14.81,14.81,0,0,1-3.9-8.7c-2-19.8,5.4-62.8,77.1-129a7.17,7.17,0,0,1,4.8-1.8,6.32,6.32,0,0,1,4.6,2.2,360.44,360.44,0,0,1,31.8,29.7c10.5,11.1,29.5,37.3,29.5,37.3a6.47,6.47,0,0,1,1.7,4.8,6.94,6.94,0,0,1-2.2,4.7h0C124.77,355.55,69.67,400.85,24.37,401.15Zm57.5-135.5c-70,65.2-74.3,105.8-72.8,120.3a5.8,5.8,0,0,0,1.7,3.7,6,6,0,0,0,3.2,1.8c14.1,2.8,55,2.5,126.5-61.8Z" class="cls-5"/><path d="M131.57,314.45c-41.8,37.9-66.2,38.2-74.9,36.5a6.19,6.19,0,0,1-3.1-1.8,7,7,0,0,1-1.6-3.5c-.9-9.1,1.8-33.2,43-71.2a1.3,1.3,0,0,1,1.9.1l34.8,38.1A1.19,1.19,0,0,1,131.57,314.45Z" class="cls-3"/><path d="M62.07,356.15a36.84,36.84,0,0,1-7.3-.7,10.06,10.06,0,0,1-5.4-3.1,10.64,10.64,0,0,1-2.7-6c-1.2-11.6,3.1-36.7,44.4-74.8a5.8,5.8,0,0,1,8.1.3L134,310a5.65,5.65,0,0,1,1.5,4.1,5.83,5.83,0,0,1-1.9,4C99,349.35,75.57,356.05,62.07,356.15Zm33.5-76.8c-37.8,35.7-41,58.3-40.2,66.2a1.39,1.39,0,0,0,.5,1,1.93,1.93,0,0,0,.9.5c7.6,1.5,30.6.6,69.7-34.1,0,0-7.5-10.4-14.4-17.9C105.37,287.75,95.57,279.35,95.57,279.35Z" class="cls-5"/><circle cx="298.66" cy="130.04" r="47.9" class="cls-1" transform="translate(-17.5 51.61) rotate(-9.6)"/><circle cx="298.66" cy="130.04" r="30.5" class="cls-6"/><path d="M298.77,164.85a35,35,0,0,1-25.9-11.5,34.8,34.8,0,1,1,25.9,11.5Zm-.1-60.8a26.1,26.1,0,0,0-26.1,24.7,25.56,25.56,0,0,0,6.7,18.8,26.14,26.14,0,0,0,45.5-16.1,25.56,25.56,0,0,0-6.7-18.8A25.89,25.89,0,0,0,298.67,104.05Z" class="cls-7"/><ellipse cx="296.3" cy="116.86" class="cls-8" rx="11.9" ry="6.5" transform="translate(-20.09 80.14) rotate(-14.9)"/><path d="M303.37,146.15a19.8,19.8,0,0,1-19.6-5.1,17.3,17.3,0,0,0,33.1-9.9A19.27,19.27,0,0,1,303.37,146.15Z" class="cls-8"/><path d="M427.17,36.65c.4,4.1.7,8.8.7,13.8L387,9.35a153.12,153.12,0,0,1,17.9,2.6A27.51,27.51,0,0,1,427.17,36.65Z" class="cls-8"/><path d="M435.87,35.85a36.21,36.21,0,0,0-29.3-32.4c-31.5-6.2-92.9-9.4-149.3,39.3-69.7,60.2-115.7,113.6-125.6,125.2l-45.4-15.8a11.53,11.53,0,0,0-10.9,1.7l-65.5,48.5a6.1,6.1,0,0,0-2.4,6,5.94,5.94,0,0,0,4.2,4.8c12.8,4,58.3,21.5,109.1,77.8s63.5,103.4,66.2,116.5a6,6,0,0,0,4.4,4.7,4.4,4.4,0,0,0,1.6.2,5.91,5.91,0,0,0,4.5-2l54.9-60.2a12,12,0,0,0,2.8-10.7l-11.1-46.8c12.6-8.6,70.4-48.9,137.4-112.2C435.77,129.15,438.87,67.85,435.87,35.85Zm-114.1-19.7A164.93,164.93,0,0,1,370,8.65a9.85,9.85,0,0,1,6.9,2.9l19.5,19.6a2.12,2.12,0,0,1-.1,3.1l-31.1,28.2a2.33,2.33,0,0,1-3.2-.1l-40.8-43.8A1.41,1.41,0,0,1,321.77,16.15Zm-75.5,47.9c5.4-4.9,11-9.8,16.7-14.7a168.61,168.61,0,0,1,44-27.7,5.7,5.7,0,0,1,6.3,1.4l42.1,45.1a2.38,2.38,0,0,1-.1,3.4l-21.7,19.6a52.1,52.1,0,0,0-67.7-1.5l-19.8-21.8A2.69,2.69,0,0,1,246.27,64.05Zm95.9,68.3a43.58,43.58,0,1,1-43.6-45.6,17.7,17.7,0,0,1,2.3.1,43.46,43.46,0,0,1,30.1,14.3A42.44,42.44,0,0,1,342.17,132.35Zm-201.6,38.7c11.1-13.1,44.6-51.1,94.3-96.6a4,4,0,0,1,5.7.3l19,21a52.21,52.21,0,0,0-2,66.5l-68.5,62.5a2.57,2.57,0,0,1-3.7-.2L140.67,175A2.91,2.91,0,0,1,140.57,171.05Zm-60-10.2a3,3,0,0,1,2.9-.4l44.6,15.6a10.93,10.93,0,0,1,4.4,2.9l20.6,22.8a4.86,4.86,0,0,1-.3,6.8l-33,30.9a5.41,5.41,0,0,1-7.4,0c-25.1-23.2-57.6-41.3-72-48.8Zm21.3,95.2a2.66,2.66,0,0,1-3.7,0c-32.1-28.4-59.9-42.1-75.1-48.2a2.42,2.42,0,0,1-.5-4.2l10-7.4c11.1,5.6,48.9,25.6,75.7,51.1a1.78,1.78,0,0,1,0,2.6Zm6.7,9.7a2.87,2.87,0,0,1,0-4.1l49.9-46.6a4.8,4.8,0,0,1,6.9.3l14.9,16.5-53,48.8a2.83,2.83,0,0,1-4-.1C118.47,275.55,113,270,108.57,265.75Zm38.1,42.5c-4.6-6-8.5-11-13.7-17a2.93,2.93,0,0,1,.2-4l53-48.8,15.7,17.4a4.86,4.86,0,0,1-.3,6.8l-50.8,46A2.78,2.78,0,0,1,146.67,308.25Zm50.8,89.3a2.39,2.39,0,0,1-4.1-1c-4.3-15.3-14.7-43.2-38.3-76.8a2.9,2.9,0,0,1,.4-3.7l7.5-6.8a1.83,1.83,0,0,1,2.7.3c7.2,10.8,29.6,46.3,38.8,80.2Zm49.3-56.2a3.11,3.11,0,0,1-.7,2.8l-34.8,38.2c-10-32.8-30-64.9-37.7-76.5a5.37,5.37,0,0,1,.9-7l32.9-29.8a4.86,4.86,0,0,1,6.8.3l19.2,21.2a11.23,11.23,0,0,1,2.5,4.7Zm103.3-143.9c-51.4,45.9-93.6,76.1-108,86a3.06,3.06,0,0,1-3.9-.5l-43.4-48.1a2.57,2.57,0,0,1,.2-3.7l68.5-62.6a52.18,52.18,0,0,0,32.6,13.7c.9,0,1.8.1,2.7.1a52,52,0,0,0,32.2-11.2l19.3,20.7A3.87,3.87,0,0,1,350.07,197.45Zm58.7-66.5a168.09,168.09,0,0,1-33.2,43.1c-4.8,4.5-9.5,8.8-14.1,13.1a2.57,2.57,0,0,1-3.7-.2l-20.4-21.8a52.16,52.16,0,0,0,2-67.6l21.7-19.7a2.48,2.48,0,0,1,3.4.1l43.3,46.5A5.5,5.5,0,0,1,408.77,131Zm6.7-14.2a1.57,1.57,0,0,1-2.5.5l-42-45a2.36,2.36,0,0,1,.1-3.3l31.5-28.5a2.17,2.17,0,0,1,3,.1l18.9,19a9.53,9.53,0,0,1,2.8,7.8A163.16,163.16,0,0,1,415.47,116.75ZM387.07,9.35A153.12,153.12,0,0,1,405,12a27.62,27.62,0,0,1,22.3,24.7c.4,4.1.7,8.8.7,13.8Z" class="cls-9"/><path d="M321.67,16.15a164.93,164.93,0,0,1,48.2-7.5,9.85,9.85,0,0,1,6.9,2.9l19.5,19.6a2.12,2.12,0,0,1-.1,3.1l-31.1,28.2a2.33,2.33,0,0,1-3.2-.1l-40.8-43.8A1.46,1.46,0,0,1,321.67,16.15Z" class="cls-10"/><path d="M246.27,64.05c5.4-4.9,11-9.8,16.7-14.7a168.61,168.61,0,0,1,44-27.7,5.7,5.7,0,0,1,6.3,1.4l42.1,45.1a2.38,2.38,0,0,1-.1,3.4l-21.7,19.6a52.1,52.1,0,0,0-67.7-1.5l-19.8-21.8A2.69,2.69,0,0,1,246.27,64.05Z" class="cls-10"/><path d="M140.57,171.05c11.1-13.1,44.6-51.1,94.3-96.6a4,4,0,0,1,5.7.3l19,21a52.21,52.21,0,0,0-2,66.5l-68.5,62.5a2.57,2.57,0,0,1-3.7-.2L140.67,175A2.91,2.91,0,0,1,140.57,171.05Z" class="cls-10"/><path d="M80.47,160.85a3,3,0,0,1,2.9-.4l44.6,15.6a10.93,10.93,0,0,1,4.4,2.9l20.6,22.8a4.86,4.86,0,0,1-.3,6.8l-33,30.9a5.41,5.41,0,0,1-7.4,0c-25.1-23.2-57.6-41.3-72-48.8Z" class="cls-10"/><path d="M101.87,256.05a2.66,2.66,0,0,1-3.7,0c-32.1-28.4-59.9-42.1-75.1-48.2a2.42,2.42,0,0,1-.5-4.2l10-7.4c11.1,5.6,48.9,25.6,75.7,51.1a1.78,1.78,0,0,1,0,2.6Z" class="cls-11"/><path d="M108.57,265.75a2.87,2.87,0,0,1,0-4.1l49.9-46.6a4.8,4.8,0,0,1,6.9.3l14.9,16.5-53,48.8a2.83,2.83,0,0,1-4-.1C118.47,275.55,113,270.05,108.57,265.75Z" class="cls-10"/><path d="M146.57,308.25c-4.6-6-8.5-11-13.7-17a2.93,2.93,0,0,1,.2-4l53-48.8,15.7,17.4a4.86,4.86,0,0,1-.3,6.8l-50.8,46A2.8,2.8,0,0,1,146.57,308.25Z" class="cls-10"/><path d="M197.37,397.55a2.39,2.39,0,0,1-4.1-1c-4.3-15.3-14.7-43.2-38.3-76.8a2.9,2.9,0,0,1,.4-3.7l7.5-6.8a1.83,1.83,0,0,1,2.7.3c7.2,10.8,29.6,46.3,38.8,80.2Z" class="cls-10"/><path d="M246.77,341.35a3.11,3.11,0,0,1-.7,2.8l-34.8,38.2c-10-32.8-30-64.9-37.7-76.5a5.37,5.37,0,0,1,.9-7l32.9-29.8a4.86,4.86,0,0,1,6.8.3l19.2,21.2a11.23,11.23,0,0,1,2.5,4.7Z" class="cls-10"/><path d="M350.07,197.45c-51.4,45.9-93.6,76.1-108,86a3.06,3.06,0,0,1-3.9-.5l-43.4-48.1a2.57,2.57,0,0,1,.2-3.7l68.5-62.6a52.18,52.18,0,0,0,32.6,13.7c.9,0,1.8.1,2.7.1a52,52,0,0,0,32.2-11.2l19.3,20.7A4,4,0,0,1,350.07,197.45Z" class="cls-10"/><path d="M408.77,131a168.09,168.09,0,0,1-33.2,43.1c-4.8,4.5-9.5,8.8-14.1,13.1a2.57,2.57,0,0,1-3.7-.2l-20.4-21.8a52.16,52.16,0,0,0,2-67.6l21.7-19.7a2.48,2.48,0,0,1,3.4.1l43.3,46.5A5.5,5.5,0,0,1,408.77,131Z" class="cls-10"/><path d="M415.47,116.75a1.57,1.57,0,0,1-2.5.5l-42-45a2.36,2.36,0,0,1,.1-3.3l31.5-28.5a2.17,2.17,0,0,1,3,.1l18.9,19a9.53,9.53,0,0,1,2.8,7.8A165.49,165.49,0,0,1,415.47,116.75Z" class="cls-10"/><path d="M139.87,170.85c20.5-22.9,62.6-67.5,93.1-95,1.6-1.4,4.4-4.7,8.3-.4,4.7,5.3,9.8,11.1,9.8,11.1s-47.8,39.9-76.2,70.9c-4.5,5-12.9,17.8-6.7,31.5s17.4,35.8,17.4,35.8-33.7-37.1-44.3-49.1C139.87,174.25,138.77,172.05,139.87,170.85Z" class="cls-1"/><path d="M241.77,283.85c24.9-18.1,76.2-56.9,106.7-84.5,1.6-1.4,5.2-4.1,1.2-8.4-4.8-5.2-10-10.6-10-10.6s-47.2,45.1-81,70.2c-5.4,4-19.1,11-32.1,3.5s-31.6-18.8-31.6-18.8,31.3,35.1,42.1,46.9C238.37,283.55,240.47,284.85,241.77,283.85Z" class="cls-12"/><ellipse cx="358.8" cy="25.27" class="cls-1" rx="19.8" ry="8.1" transform="translate(0.16 52.69) rotate(-8.4)"/><ellipse cx="296.58" cy="45.34" class="cls-1" rx="19.8" ry="8.1" transform="translate(4.19 112.58) rotate(-21.64)"/><path d="M135.77,182.85a14.05,14.05,0,0,0-8.3-7.2c-6.4-2.2-43.6-15.1-43.6-15.1s-2-.9-4.6,1.1-38.8,28.9-38.8,28.9l13.7,7.6s17.3-16.5,32-18.5S111.37,175.85,135.77,182.85Z" class="cls-1"/><path d="M231.17,288.15a13.83,13.83,0,0,1,4.6,6.9c1.7,6.5,11.1,46,11.1,46s.7,1.8-1.7,4.4l-33.9,37-5.5-15.6s18.7-15.8,22.1-30.3S235.77,313.05,231.17,288.15Z" class="cls-12"/><circle cx="339.57" cy="74.25" r="3.4" class="cls-6"/><circle cx="354.37" cy="94.45" r="3.4" class="cls-6"/><circle cx="388.17" cy="66.85" r="3.4" class="cls-6"/><circle cx="399.47" cy="56.45" r="3.4" class="cls-6"/><circle cx="370.67" cy="45.05" r="3.4" class="cls-6"/><circle cx="381.97" cy="34.65" r="3.4" class="cls-6"/><circle cx="332.07" cy="189.55" r="3.4" class="cls-13"/><circle cx="240.87" cy="92.75" r="3.4" class="cls-6"/><circle cx="263.87" cy="69.95" r="3.4" class="cls-6"/><circle cx="240.47" cy="207.45" r="3.4" class="cls-6" transform="translate(-2.82 411.59) rotate(-80.78)"/><circle cx="258.97" cy="192.25" r="3.4" class="cls-6"/><circle cx="222.47" cy="223.45" r="3.4" class="cls-6"/><circle cx="215.97" cy="178.05" r="3.4" class="cls-6"/><circle cx="234.47" cy="162.85" r="3.4" class="cls-6"/><circle cx="197.97" cy="194.05" r="3.4" class="cls-6"/><circle cx="154.87" cy="241.25" r="3.4" class="cls-6"/><circle cx="136.77" cy="257.25" r="3.4" class="cls-6"/><circle cx="174.27" cy="264.35" r="3.4" class="cls-6"/><circle cx="156.17" cy="280.35" r="3.4" class="cls-6"/><circle cx="191.27" cy="310.05" r="3.4" class="cls-6"/><circle cx="202.97" cy="329.45" r="3.4" class="cls-6"/><circle cx="212.37" cy="352.85" r="3.4" class="cls-6"/><circle cx="114.37" cy="220.95" r="3.4" class="cls-6"/><circle cx="95.07" cy="203.95" r="3.4" class="cls-6"/><circle cx="72.17" cy="190.45" r="3.4" class="cls-6"/><path d="M397.17,113.05l10.7,11.5s2.9,2.2.7,7.2c-2.9,6.5-18.1,28.8-33,42.3l-14.1,13.1a2.88,2.88,0,0,1-3.7-.2c-2.1-1.6-11.5-11.8-11.5-11.8s28.6-28.6,36.5-39.6C390.87,124.45,391.17,124,397.17,113.05Z" class="cls-12"/><path d="M401.57,105s11.4-24.6,8.7-59.5l14.2,14s2.9,1.6,3.1,7.9c.2,5.9-4.9,34-12.2,49.5a1.54,1.54,0,0,1-2.6.1C407.27,111.55,401.57,105,401.57,105Z" class="cls-12"/></g></g></g></svg>