<svg xmlns="http://www.w3.org/2000/svg" xmlns:xlink="http://www.w3.org/1999/xlink" id="Layer_1" x="0" y="0" version="1.1" viewBox="0 0 220 170" xml:space="preserve" style="enable-background:new 0 0 220 170"><style type="text/css">.st0{fill:#92b9dc}.st1{fill:#31225c}.st2{fill:#e58966}</style><g id="Group_24"><g id="Rectangle_52"><rect width="60" height="60" x="3.5" y="20.3" class="st0"/><path d="M63.5,80.3h-60v-60h60V80.3z M6.5,77.3h54v-54h-54V77.3z" class="st1"/></g><g id="Rectangle_53"><rect width="60" height="60" x="79.5" y="20.3" class="st0"/><path d="M139.5,80.3h-60v-60h60V80.3z M82.5,77.3h54v-54h-54V77.3z" class="st1"/></g><g id="Rectangle_54"><rect width="60" height="60" x="156.5" y="20.3" class="st0"/><path d="M216.5,80.3h-60v-60h60V80.3z M159.5,77.3h54v-54h-54V77.3z" class="st1"/></g><g id="Rectangle_55"><rect width="213" height="51" x="3.5" y="94.3" class="st2"/><path d="M216.5,145.3H3.5v-51h213V145.3z M6.5,142.3h207v-45H6.5V142.3z" class="st1"/></g></g></svg>