<svg xmlns="http://www.w3.org/2000/svg" xmlns:xlink="http://www.w3.org/1999/xlink" viewBox="0 0 162 150"><defs><clipPath id="a"><rect width="52.518" height="51.873" fill="#31225c" stroke="rgba(0,0,0,0)" stroke-width="1"/></clipPath><clipPath id="b"><rect width="43.971" height="54.267" fill="#31225c" stroke="rgba(0,0,0,0)" stroke-width="1"/></clipPath><clipPath id="c"><rect width="64.927" height="45.682" fill="#31225c" stroke="rgba(0,0,0,0)" stroke-width="1"/></clipPath></defs><g transform="translate(-1011.145 -506.906)"><g transform="translate(1027.59 506.906)"><g transform="translate(-0.445)" fill="#e58966" stroke="#31225c" stroke-width="2.5"><rect width="69" height="73" stroke="none"/><rect x="1.25" y="1.25" width="66.5" height="70.5" fill="none"/></g><g transform="translate(7.904 10.462)"><g clip-path="url(#a)"><path d="M51.6,3.766A4.37,4.37,0,0,0,48.753.923,20.2,20.2,0,0,0,42.633,0a23.431,23.431,0,0,0-3.15.217A35.064,35.064,0,0,0,23.568,7.26a2.136,2.136,0,0,0-1.412-1.032A18.786,18.786,0,0,0,10.224,7.912,19.708,19.708,0,0,0,1.587,15.39,12.194,12.194,0,0,0,.066,19.337a.784.784,0,0,1-.018.091A3.026,3.026,0,0,0,2.6,22.976a.308.308,0,0,0,.127.018A11.289,11.289,0,0,0,5.1,23.03a11.889,11.889,0,0,1,4.707.38,2.16,2.16,0,0,0,.8.163,3.516,3.516,0,0,0,.435-.036,10.106,10.106,0,0,0-.235,3.712,5.361,5.361,0,0,0,.344,1.3l-3.513.815a1.1,1.1,0,0,0-.779,1.43L8.25,34.781a1.587,1.587,0,0,0-.4,1.249,9.8,9.8,0,0,0,3.06,5.558,9.868,9.868,0,0,0,5.558,3.042h.163a1.6,1.6,0,0,0,1.123-.453.918.918,0,0,0,.29.163l3.8,1.412a.946.946,0,0,0,.38.072.96.96,0,0,0,.507-.127,1.121,1.121,0,0,0,.543-.706l.815-3.549a5.684,5.684,0,0,0,1.267.326,8.13,8.13,0,0,0,1.159.072,9.561,9.561,0,0,0,1.865-.181,1.829,1.829,0,0,0,.127.416,11.836,11.836,0,0,1,.38,4.707,10.162,10.162,0,0,0,.036,2.372c0,.036.018.091.018.127a3.013,3.013,0,0,0,2.969,2.589,3.289,3.289,0,0,0,.579-.054c.036,0,.054-.018.091-.018a12.244,12.244,0,0,0,3.947-1.539,19.925,19.925,0,0,0,7.478-8.636,18.893,18.893,0,0,0,1.666-11.932,2.174,2.174,0,0,0-.344-.779,35.353,35.353,0,0,0,6.989-15.9A21.573,21.573,0,0,0,51.6,3.766M4.864,18.7H4.756a10.573,10.573,0,0,1,.561-1.1,15.468,15.468,0,0,1,6.735-5.758,15.454,15.454,0,0,1,7.894-1.557,35.15,35.15,0,0,0-7.622,9.8,2.28,2.28,0,0,0-.905-.688A15.336,15.336,0,0,0,4.864,18.7m5.3,14.992-.887-2.517,2.643-.616a1.047,1.047,0,0,0,.253-.091c.29.435.634.905,1.014,1.394.072.091.163.2.235.29Zm5.54,7.369a8.816,8.816,0,0,1-2.535-1.811,8.754,8.754,0,0,1-1.811-2.517L15.492,34.8a1.682,1.682,0,0,1,.181-.091c.344.362.706.724,1.068,1.1.344.344.67.67,1.014.978-.036.054-.054.109-.091.163Zm6.319-.4-.6,2.607-2.625-.978c-.018,0-.018,0-.036-.018l1.539-3.241c.127.109.272.217.4.326.507.4,1,.742,1.43,1.05a.635.635,0,0,0-.109.253M25.9,37.443c-1.05-.145-3.675-2.3-6.1-4.707s-4.581-5.033-4.726-6.084a6.718,6.718,0,0,1,.416-2.969c1.177-3.513,4.545-7.912,9.017-11.642a38.134,38.134,0,0,1,7.985-5.16,32.942,32.942,0,0,0,5.577,7.369,32.871,32.871,0,0,0,7.622,5.7,37.6,37.6,0,0,1-5.2,8.057c-3.712,4.472-8.111,7.84-11.624,9.035a7.77,7.77,0,0,1-2.39.453c-.2-.018-.38-.018-.579-.054m8.4,9.089a10.572,10.572,0,0,1-1.1.561v-.109a15.544,15.544,0,0,0-.688-6.536c-.036-.072-.054-.127-.091-.2a34.615,34.615,0,0,0,9.234-7.025A16.567,16.567,0,0,1,40.062,39.8,15.469,15.469,0,0,1,34.3,46.532M47.992,12.457a22.921,22.921,0,0,1-1.068,4.436,29.551,29.551,0,0,1-6.536-4.961,30.39,30.39,0,0,1-4.852-6.3,25.191,25.191,0,0,1,4.508-1.1,20.454,20.454,0,0,1,2.571-.181,15.536,15.536,0,0,1,4.816.724,16.7,16.7,0,0,1,.561,7.387" transform="translate(0)" fill="#31225c" stroke="rgba(0,0,0,0)" stroke-width="1"/><path d="M135.691,94.248a7.233,7.233,0,1,0-5.106-2.118,7.207,7.207,0,0,0,5.106,2.118M133.663,85a2.861,2.861,0,1,1,0,4.056,2.866,2.866,0,0,1,0-4.056" transform="translate(-105.207 -65.352)" fill="#31225c" stroke="rgba(0,0,0,0)" stroke-width="1"/><path d="M16.506,229.853l-5.595,5.015a1.09,1.09,0,0,0,1.448,1.63l5.595-5.015a1.09,1.09,0,0,0-1.448-1.63" transform="translate(-8.636 -188.011)" fill="#31225c" stroke="rgba(0,0,0,0)" stroke-width="1"/><path d="M58.409,245.517a1.089,1.089,0,0,0-1.34.76L55.784,251a1.089,1.089,0,0,0,.76,1.34,1.583,1.583,0,0,0,.29.036,1.1,1.1,0,0,0,1.05-.8l1.286-4.726a1.073,1.073,0,0,0-.76-1.34" transform="translate(-45.651 -201.031)" fill="#31225c" stroke="rgba(0,0,0,0)" stroke-width="1"/><path d="M7.912,210.852a1.08,1.08,0,0,0-1.3-.8L1.919,211.2a1.08,1.08,0,0,0-.8,1.3,1.1,1.1,0,0,0,1.05.833,1.221,1.221,0,0,0,.253-.036L7.1,212.156a1.061,1.061,0,0,0,.815-1.3" transform="translate(-0.893 -171.997)" fill="#31225c" stroke="rgba(0,0,0,0)" stroke-width="1"/></g></g></g><g transform="translate(1101.828 550.133)"><g transform="translate(0.316 -0.228)" fill="#92b9dc" stroke="#31225c" stroke-width="2.5"><rect width="71" height="72" stroke="none"/><rect x="1.25" y="1.25" width="68.5" height="69.5" fill="none"/></g><g transform="translate(13.233 8.714)"><g clip-path="url(#b)"><path d="M57.209,4.645a8.864,8.864,0,1,1-8.864,8.864,8.875,8.875,0,0,1,8.864-8.864m0-4.645A13.509,13.509,0,1,0,70.717,13.509,13.509,13.509,0,0,0,57.209,0" transform="translate(-35.243)" fill="#31225c" stroke="rgba(0,0,0,0)" stroke-width="1"/><path d="M29.982,155.49a18.149,18.149,0,0,1,6.154,6.445,23.681,23.681,0,0,1,2.884,7.645A99.181,99.181,0,0,1,22.2,170.934,102.923,102.923,0,0,1,5.074,169.6a23.724,23.724,0,0,1,2.9-7.645,17.986,17.986,0,0,1,6.154-6.445,22.909,22.909,0,0,0,7.935,1.393,23.361,23.361,0,0,0,7.916-1.413m.135-5.09a18.547,18.547,0,0,1-16.1,0C5.867,153.613.1,164.005.1,173.295a98.3,98.3,0,0,0,22.14,2.264,97.98,97.98,0,0,0,21.811-2.264c-.019-9.29-5.787-19.682-13.934-22.9" transform="translate(-0.081 -121.293)" fill="#31225c" stroke="rgba(0,0,0,0)" stroke-width="1"/></g></g></g><g transform="translate(1011.145 586.313)"><g transform="translate(0 -0.407)" fill="#fff" stroke="#31225c" stroke-width="2.5"><rect width="85" height="71" stroke="none"/><rect x="1.25" y="1.25" width="82.5" height="68.5" fill="none"/></g><g transform="translate(10.125 12.417)"><g transform="translate(0)" clip-path="url(#c)"><path d="M29.843.885a2.112,2.112,0,0,1,2.19-.83L87.514,12.8a2.148,2.148,0,0,1,1.572,1.5,2.119,2.119,0,0,1-.583,2.1L77.378,26.983l-.388,16.139a2.127,2.127,0,0,1-1.112,1.872,2.024,2.024,0,0,1-1.007.247,2.147,2.147,0,0,1-1.165-.353L64.293,39.5l-5.968,5.6a2.132,2.132,0,0,1-1.466.583,1.616,1.616,0,0,1-.283-.018,2.131,2.131,0,0,1-1.536-.989L29.755,3.233A2.075,2.075,0,0,1,29.843.885M43.475,7.029l31.59,16.316,7.663-7.293ZM72.769,39.184l.388-8.176-5.7,5.509ZM57.319,40.226l14.5-13.791L38.337,9.148Z" transform="translate(-29.433 0)" fill="#31225c" stroke="rgba(0,0,0,0)" stroke-width="1"/><path d="M.172,158.172a1.42,1.42,0,0,1,1.925-.565l11.866,6.516a1.421,1.421,0,0,1-.671,2.666,1.317,1.317,0,0,1-.671-.177l-11.866-6.5a1.436,1.436,0,0,1-.583-1.942" transform="translate(50.228 -129.636)" fill="#31225c" stroke="rgba(0,0,0,0)" stroke-width="1"/><path d="M31.691,192.909a1.406,1.406,0,0,1,1.907-.583l6.145,3.284a1.406,1.406,0,0,1-.671,2.649,1.5,1.5,0,0,1-.671-.159l-6.127-3.267a1.426,1.426,0,0,1-.583-1.925" transform="translate(18.867 -158.227)" fill="#31225c" stroke="rgba(0,0,0,0)" stroke-width="1"/><path d="M60.072,222.515l1.942.971a1.406,1.406,0,0,1-.636,2.666,1.655,1.655,0,0,1-.636-.141L58.8,225.04a1.4,1.4,0,0,1-.636-1.889,1.431,1.431,0,0,1,1.907-.636" transform="translate(-8.119 -183.101)" fill="#31225c" stroke="rgba(0,0,0,0)" stroke-width="1"/></g></g></g></g></svg>