<svg xmlns="http://www.w3.org/2000/svg" id="Layer_1" data-name="Layer 1" viewBox="0 0 116.4 162.35"><defs><style>.cls-1{fill:#fff}.cls-2{fill:#31225c}.cls-3{isolation:isolate}</style></defs><g id="Group_332" data-name="Group 332"><g id="Subtraction_15" data-name="Subtraction 15"><path d="M112,143.47H3.83V17.9H81.32L112,49.07v94.4Z" class="cls-1"/><path d="M112,145H2.33V16.4H81.94l31.51,32.05V145ZM5.33,142H110.45V49.68L80.69,19.4H5.33Z" class="cls-2"/></g><g id="_" class="cls-3"><g class="cls-3"><path d="M28.65,85l15,6.05v4.69L24.05,86.66V83.17l19.57-9v4.69Z" class="cls-2"/><path d="M51.47,103.39h-3.8L62.21,65.56H66Z" class="cls-2"/><path d="M86.45,84.84,70.64,78.65V74.1l20.43,9.05v3.49L70.64,95.71v-4.6Z" class="cls-2"/></g></g><g id="Path_380" data-name="Path 380"><polygon points="111.29 52.88 78.07 52.88 78.07 17.9 81.07 17.9 81.07 49.88 111.29 49.88 111.29 52.88" class="cls-2"/></g></g></svg>