<svg xmlns="http://www.w3.org/2000/svg" xmlns:xlink="http://www.w3.org/1999/xlink" viewBox="0 0 300 174"><path fill="#ffeea5" d="M0 174v-53.664h.013a100.849 100.849 0 0 1 3.034-22.953 105.509 105.509 0 0 1 8.74-22.894 117.088 117.088 0 0 1 13.83-20.717 132.464 132.464 0 0 1 18.317-18.05 148.754 148.754 0 0 1 22.2-14.893 163.5 163.5 0 0 1 25.48-11.245 175.293 175.293 0 0 1 28.156-7.106 185.649 185.649 0 0 1 60.46 0 175.317 175.317 0 0 1 28.156 7.106 163.576 163.576 0 0 1 25.48 11.245 148.846 148.846 0 0 1 22.2 14.893 132.5 132.5 0 0 1 18.316 18.05 117.089 117.089 0 0 1 13.83 20.717 105.523 105.523 0 0 1 8.74 22.894 100.8 100.8 0 0 1 3.034 22.953H300V174Z"/><path fill="#d05151" d="M293 167v-47.4l-.012-.752a91.42 91.42 0 0 0-2.859-21.2 96.451 96.451 0 0 0-8.251-21.181 108.559 108.559 0 0 0-13.1-19.231 124.774 124.774 0 0 0-17.409-16.814 142.1 142.1 0 0 0-21.16-13.913 157.862 157.862 0 0 0-24.337-10.527 170.459 170.459 0 0 0-26.93-6.662 181.309 181.309 0 0 0-57.882 0 170.444 170.444 0 0 0-26.93 6.662 157.788 157.788 0 0 0-24.338 10.531 142.007 142.007 0 0 0-21.16 13.913A124.731 124.731 0 0 0 31.223 57.24a108.563 108.563 0 0 0-13.1 19.231 96.439 96.439 0 0 0-8.251 21.181 91.463 91.463 0 0 0-2.859 21.2l-.013.753V167h286m3 3H4v-51.2h.013a94.414 94.414 0 0 1 2.953-21.9 99.439 99.439 0 0 1 8.507-21.841A111.568 111.568 0 0 1 28.934 55.3a127.739 127.739 0 0 1 17.829-17.22A145.019 145.019 0 0 1 68.37 23.872a160.795 160.795 0 0 1 24.8-10.728 173.445 173.445 0 0 1 27.406-6.78 184.309 184.309 0 0 1 58.848 0 173.469 173.469 0 0 1 27.406 6.78 160.868 160.868 0 0 1 24.8 10.728 145.106 145.106 0 0 1 21.608 14.208 127.773 127.773 0 0 1 17.827 17.22 111.567 111.567 0 0 1 13.461 19.765 99.456 99.456 0 0 1 8.507 21.841 94.368 94.368 0 0 1 2.953 21.9H296Z"/><path fill="#d05151" d="M65.32 107.319a10.512 10.512 0 0 1-.96 4.7 8.391 8.391 0 0 1-2.62 3.14 11.24 11.24 0 0 1-3.88 1.76 19.5 19.5 0 0 1-4.78.56v6.36h-8.52v-26.68h8.52a19.5 19.5 0 0 1 4.78.56 11.24 11.24 0 0 1 3.88 1.76 8.391 8.391 0 0 1 2.62 3.14 10.512 10.512 0 0 1 .96 4.7Zm-3.88 0a7.277 7.277 0 0 0-.62-3.12 5.656 5.656 0 0 0-1.74-2.16 7.8 7.8 0 0 0-2.66-1.26 12.659 12.659 0 0 0-3.34-.42h-4.52v20.28h1.04v-6.36h3.48a12.659 12.659 0 0 0 3.34-.42 7.8 7.8 0 0 0 2.66-1.26 5.656 5.656 0 0 0 1.74-2.16 7.277 7.277 0 0 0 .62-3.12Zm-1.12 0a6.224 6.224 0 0 1-.6 2.88 4.895 4.895 0 0 1-1.6 1.84 6.744 6.744 0 0 1-2.3.98 12.154 12.154 0 0 1-2.74.3H49.6v-12h3.48a12.154 12.154 0 0 1 2.74.3 6.744 6.744 0 0 1 2.3.98 4.895 4.895 0 0 1 1.6 1.84 6.224 6.224 0 0 1 .6 2.88Zm-7.24 2.96h.36a3.217 3.217 0 0 0 2.42-.78 3.041 3.041 0 0 0 .74-2.18 3.041 3.041 0 0 0-.74-2.18 3.217 3.217 0 0 0-2.42-.78h-.36Zm14.24-13.12h9.04v26.68h-9.04Zm5.04 23.48v-20.28h-1.04v20.28Zm13.88-16.48h-7.36l2.72-7h17.08l-9.28 19.68h8.76l-2.68 7H76.96Zm7.16 16.48.4-.96h-9.72l9.12-19.32h-9.52l-.36.96h8.24l-9.12 19.32Zm12.76-16.48H98.8l2.72-7h17.08l-9.28 19.68h8.76l-2.68 7H96.88Zm7.16 16.48.4-.96H104l9.12-19.32h-9.52l-.36.96h8.24l-9.12 19.32Zm14-23.48h6.4l10.12 26.68h-8.4l-.88-2.4h-8.08l-.88 2.4h-8.4Zm5 18.4-1.8-4.68-1.8 4.68Zm-9.16 5.08.76-2h13.2l.76 2H139l-7.72-20.28h-1.52l-7.72 20.28Zm7.36-19.32 6.24 16.36h-12.48Zm25.44 2.84h-4.92v-7h18.64v7h-4.92v19.68h-8.8Zm4.92 16.48v-19.32h5.72v-.96h-12.48v.96h5.72v19.32Zm8.4-10.12a13.633 13.633 0 0 1 1.1-5.44 14.123 14.123 0 0 1 3-4.46 14.123 14.123 0 0 1 4.46-3 13.633 13.633 0 0 1 5.44-1.1 13.633 13.633 0 0 1 5.44 1.1 14.123 14.123 0 0 1 4.46 3 14.123 14.123 0 0 1 3 4.46 13.633 13.633 0 0 1 1.1 5.44 13.633 13.633 0 0 1-1.1 5.44 14.123 14.123 0 0 1-3 4.46 14.123 14.123 0 0 1-4.46 3 13.633 13.633 0 0 1-5.44 1.1 13.633 13.633 0 0 1-5.44-1.1 14.123 14.123 0 0 1-4.46-3 14.123 14.123 0 0 1-3-4.46 13.633 13.633 0 0 1-1.1-5.44Zm3.76 0a9.965 9.965 0 0 0 .8 3.98 10.342 10.342 0 0 0 2.2 3.26 10.342 10.342 0 0 0 3.26 2.2 9.965 9.965 0 0 0 3.98.8 9.965 9.965 0 0 0 3.98-.8 10.342 10.342 0 0 0 3.26-2.2 10.342 10.342 0 0 0 2.2-3.26 9.965 9.965 0 0 0 .8-3.98 9.965 9.965 0 0 0-.8-3.98 10.342 10.342 0 0 0-2.2-3.26 10.342 10.342 0 0 0-3.26-2.2 9.965 9.965 0 0 0-3.98-.8 9.965 9.965 0 0 0-3.98.8 10.342 10.342 0 0 0-3.26 2.2 10.342 10.342 0 0 0-2.2 3.26 9.965 9.965 0 0 0-.8 3.98Zm4.64 0a5.444 5.444 0 0 0 .44 2.18 5.662 5.662 0 0 0 1.2 1.78 5.662 5.662 0 0 0 1.78 1.2 5.444 5.444 0 0 0 2.18.44 5.444 5.444 0 0 0 2.18-.44 5.662 5.662 0 0 0 1.78-1.2 5.662 5.662 0 0 0 1.2-1.78 5.444 5.444 0 0 0 .44-2.18 5.444 5.444 0 0 0-.44-2.18 5.662 5.662 0 0 0-1.2-1.78 5.662 5.662 0 0 0-1.78-1.2 5.444 5.444 0 0 0-2.18-.44 5.444 5.444 0 0 0-2.18.44 5.662 5.662 0 0 0-1.78 1.2 5.662 5.662 0 0 0-1.2 1.78 5.444 5.444 0 0 0-.44 2.18Zm5.6 9.2a8.9 8.9 0 0 1-3.58-.72 9.353 9.353 0 0 1-2.92-1.98 9.353 9.353 0 0 1-1.98-2.92 8.9 8.9 0 0 1-.72-3.58 8.9 8.9 0 0 1 .72-3.58 9.353 9.353 0 0 1 1.98-2.92 9.353 9.353 0 0 1 2.92-1.98 8.9 8.9 0 0 1 3.58-.72 8.9 8.9 0 0 1 3.58.72 9.353 9.353 0 0 1 2.92 1.98 9.353 9.353 0 0 1 1.98 2.92 8.9 8.9 0 0 1 .72 3.58 8.9 8.9 0 0 1-.72 3.58 9.353 9.353 0 0 1-1.98 2.92 9.353 9.353 0 0 1-2.92 1.98 8.9 8.9 0 0 1-3.58.72Zm12.6-22.56h9.04l3.08 9.32 3.08-9.32h5.84l3.08 9.32 3.08-9.32h9.04l-8.8 26.68h-6.64l-2.68-8.08-2.68 8.08h-6.64Zm12.8 23.48 5.32-16.76 5.32 16.76h1l6.68-20.28h-1.08l-6.08 18.44-5.84-18.44-5.84 18.44-6.08-18.44H201l6.68 20.28Zm24.04-23.48h7l7.36 10.28v-10.28h8.36v26.68h-7.04l-7.32-10.24v10.24h-8.36Zm4.76 23.48v-18.48l13.2 18.48h1.04v-20.28h-1.04v18.48l-13.2-18.48h-1.04v20.28Z"/><path fill="#a54141" d="M123.855 138.005v.764q0 .472-.185.6t-1.359.663a15.7 15.7 0 0 0-2.252 1.269 4.649 4.649 0 0 1 .758-.9q.343-.292.927-.73a3.9 3.9 0 0 0-1.4-.2 9.332 9.332 0 0 0-3 .55 11.524 11.524 0 0 0-2.74 1.314q-1.129.764-1.129 1.28 0 .27.343.444a3.582 3.582 0 0 0 1.1.27q.758.1 1.892.129t2.8.034a8.13 8.13 0 0 1 1.561.09.4.4 0 0 1 .348.416 1.636 1.636 0 0 1-.41.949 1.62 1.62 0 0 1-1.084.635q-1.044.168-1.662.286a11.85 11.85 0 0 0-1.466.4 13.589 13.589 0 0 0-1.881.809 10.583 10.583 0 0 0-2.4 1.64 2.261 2.261 0 0 0-.865 1.471.947.947 0 0 0 .618.859 4.068 4.068 0 0 0 1.774.309q3.987 0 8.12-3.583a6.035 6.035 0 0 1-.241 1.937 3.81 3.81 0 0 1-1.073 1.6 7.113 7.113 0 0 1-1.985 1.216 14.935 14.935 0 0 1-2.83.932 13.038 13.038 0 0 1-2.881.348 4.264 4.264 0 0 1-2.582-.751 2.338 2.338 0 0 1-1.022-1.982 3.638 3.638 0 0 1 .494-1.786 5.9 5.9 0 0 1 1.516-1.7 11.06 11.06 0 0 1 2.589-1.477 17.562 17.562 0 0 1 3.611-1.044q.292-.056.292-.18t-.343-.163q-.343-.028-1.258-.039t-1.612-.079a8.1 8.1 0 0 1-1.471-.292 2.265 2.265 0 0 1-1.23-.865 2.336 2.336 0 0 1-.432-1.37 3.339 3.339 0 0 1 .7-1.943 6.689 6.689 0 0 1 1.965-1.763 11.314 11.314 0 0 1 3.072-1.263 15.4 15.4 0 0 1 3.948-.477 7.151 7.151 0 0 1 1.724.14q.489.14.567.371a3.1 3.1 0 0 1 .074.862Zm-.685 10.927v-.27q2.9-3.055 3.987-4.279.247-1.381 1.19-1.381a1.136 1.136 0 0 1 .505.135l.067.213a1.263 1.263 0 0 0-.045.382 3.591 3.591 0 0 0 .163.792q.163.578.253.971a4 4 0 0 1 .09.887 3.159 3.159 0 0 1-.337 1.421 4.825 4.825 0 0 1-.977 1.3 10.615 10.615 0 0 1-1.651 1.275 4.125 4.125 0 0 0 .64.067 2.521 2.521 0 0 0 .994-.23 6.245 6.245 0 0 0 1.089-.618q.556-.387 1.3-1.005v.752a16.75 16.75 0 0 1-2.573 2.132 3.819 3.819 0 0 1-1.955.724 2.726 2.726 0 0 1-1.954-.9 2.414 2.414 0 0 1-.656-1.032 5.5 5.5 0 0 1-.13-1.336Zm4.189-1.718-.2-1.64q-.7.786-2.976 3.021a1.9 1.9 0 0 1 .921.393 6.2 6.2 0 0 1 .7.955 2.722 2.722 0 0 0 1.174-.859 2.422 2.422 0 0 0 .41-1.488q0-.112-.006-.2t-.023-.182Zm6.974-4.425h.483a6.245 6.245 0 0 1 1.078-1.51 1.582 1.582 0 0 1 1.1-.444q.618 0 .618.281a2.245 2.245 0 0 1-.483.73 9.71 9.71 0 0 0-.73 1l.679.079q.3.034.466.056a17.673 17.673 0 0 1-1.606 2.437l-.528-.039-.432-.034-.533-.039q-.606.977-1.016 1.746a9.761 9.761 0 0 0-.629 1.408 3.75 3.75 0 0 0-.219 1.213q0 .775.618.775a2.237 2.237 0 0 0 1.117-.455q.691-.455 1.847-1.4v.752q-3.031 3.293-4.48 3.293a.985.985 0 0 1-.814-.393 1.587 1.587 0 0 1-.309-1.011 3.481 3.481 0 0 1 .174-.988q.174-.573.623-1.729-.157.135-.3.264l-.258.236q-.118.107-.253.225t-.27.241v-.775a17.4 17.4 0 0 0 2.853-3.47q-.168-.011-.314-.017t-.348-.006a4.008 4.008 0 0 0-.988.09q-.135.034-.253.073a.63.63 0 0 1-.163.039q-.045 0-.045-.067a2.473 2.473 0 0 1 .46-1.112 4.1 4.1 0 0 1 .7-.932 1.732 1.732 0 0 1 .809-.41 6.5 6.5 0 0 1 1.346-.107Zm3.4 9.411a.427.427 0 0 1-.323-.145.573.573 0 0 1-.135-.4 2.157 2.157 0 0 1 .241-.724 3.772 3.772 0 0 1 .606-.932 1.031 1.031 0 0 1 .758-.41q.483 0 .483.573a1.9 1.9 0 0 1-.258.814 3.246 3.246 0 0 1-.64.865 1.1 1.1 0 0 1-.729.359Zm15.838-9.917a12.83 12.83 0 0 1 1.685.157q.505.1.505.4a.2.2 0 0 1-.084.185.788.788 0 0 1-.275.079q-.191.028-.449.073-.382.067-1.258.264t-.966.2q-.438 0-.438-.55a5.123 5.123 0 0 1 .209-1.268 6.881 6.881 0 0 1 .562-1.443 2.694 2.694 0 0 1 .747-.949 5.863 5.863 0 0 1 1.432-.657 16.135 16.135 0 0 1 2.179-.562 11.861 11.861 0 0 1 2.207-.23 1.534 1.534 0 0 1 .747.14.786.786 0 0 1 .343.382q.1.241.337.983a5 5 0 0 1 .225 1.561 3.352 3.352 0 0 1-.494 1.842 5.453 5.453 0 0 1-1.37 1.426q-.876.651-3.06 2.016t-3.4 2.184q-.112.079-.46.3a4.89 4.89 0 0 0-.618.455 4.07 4.07 0 0 0-.55.606q1.5-.146 4.762-.82.887-.191 1.724-.421a6.259 6.259 0 0 1 1.005-.23.248.248 0 0 1 .282.279 2.193 2.193 0 0 1-.118.635 3.784 3.784 0 0 1-.343.764 2.851 2.851 0 0 1-.528.668q-1.485 1.381-5.73 1.381a2.226 2.226 0 0 1-1.472-.349 2.374 2.374 0 0 1-.472-.91 3.593 3.593 0 0 1-.246-1.044 2.738 2.738 0 0 1 .573-1.432 9.591 9.591 0 0 1 1.572-1.743 13.305 13.305 0 0 1 2.2-1.589q3.664-2.086 3.887-2.244a6.06 6.06 0 0 0 1.286-1.134 1.669 1.669 0 0 0 .466-.921.56.56 0 0 0-.253-.489 1.247 1.247 0 0 0-.713-.174 7.248 7.248 0 0 0-1.758.264 11.49 11.49 0 0 0-2.078.764 7.966 7.966 0 0 0-1.802 1.151Zm16.542-3.167a1.485 1.485 0 0 1 .769.769 3.986 3.986 0 0 1 .241 1.578 10.464 10.464 0 0 1-.635 3.414 13.616 13.616 0 0 1-1.774 3.437 11.058 11.058 0 0 1-2.614 2.651 5.152 5.152 0 0 1-2.7 1.168 2.666 2.666 0 0 1-1.539-.494 3.407 3.407 0 0 1-1.146-1.409 5.016 5.016 0 0 1-.427-2.139 8.051 8.051 0 0 1 .938-3.588 13.882 13.882 0 0 1 2.381-3.4 11.654 11.654 0 0 1 3.01-2.336 4.041 4.041 0 0 1 2.69-.573.955.955 0 0 1 .807.922Zm-2.583 2.2.393-.82a13.266 13.266 0 0 0-1.168.663 9.316 9.316 0 0 0-1.162.921 12.852 12.852 0 0 0-1.375 1.495 13.07 13.07 0 0 0-1.763 2.892 6.292 6.292 0 0 0-.6 2.375q0 1.4.943 1.4a3.489 3.489 0 0 0 1.544-.584 12.735 12.735 0 0 0 2.133-1.603 12.02 12.02 0 0 0 1.892-2.212 11.425 11.425 0 0 0 1.247-2.415 6.14 6.14 0 0 0 .432-2.033 1.317 1.317 0 0 0-.236-.837.729.729 0 0 0-.6-.3 1.274 1.274 0 0 0-.713.258 9.932 9.932 0 0 0-.966.802Zm12.657-2.2a1.485 1.485 0 0 1 .769.769 3.986 3.986 0 0 1 .241 1.578 10.464 10.464 0 0 1-.635 3.414 13.616 13.616 0 0 1-1.774 3.437 11.058 11.058 0 0 1-2.611 2.65 5.152 5.152 0 0 1-2.706 1.169 2.666 2.666 0 0 1-1.539-.494 3.407 3.407 0 0 1-1.146-1.409 5.016 5.016 0 0 1-.427-2.139 8.051 8.051 0 0 1 .941-3.59 13.882 13.882 0 0 1 2.381-3.4 11.654 11.654 0 0 1 3.01-2.336 4.041 4.041 0 0 1 2.69-.573.955.955 0 0 1 .806.924Zm-2.583 2.2.393-.82a13.266 13.266 0 0 0-1.168.663 9.316 9.316 0 0 0-1.162.921 12.852 12.852 0 0 0-1.376 1.495 13.07 13.07 0 0 0-1.763 2.892 6.292 6.292 0 0 0-.6 2.375q0 1.4.943 1.4a3.489 3.489 0 0 0 1.544-.584 12.735 12.735 0 0 0 2.134-1.603 12.02 12.02 0 0 0 1.892-2.212 11.425 11.425 0 0 0 1.247-2.415 6.14 6.14 0 0 0 .432-2.033 1.317 1.317 0 0 0-.236-.837.729.729 0 0 0-.6-.3 1.274 1.274 0 0 0-.713.258 9.932 9.932 0 0 0-.971.802Zm8.288-2.751q1.932.09 2.965.09 1.516 0 2.9-.067a15.621 15.621 0 0 1-.938 1.735 2.461 2.461 0 0 1-.623.769 13.4 13.4 0 0 1-2.19.09q-1.752 0-2.5-.022a7.894 7.894 0 0 0-2.021 2.673 10.859 10.859 0 0 1 3.145-.719 2.826 2.826 0 0 1 2.117.775 3.066 3.066 0 0 1 .753 2.235 5.058 5.058 0 0 1-1.21 3.313 8.026 8.026 0 0 1-3.077 2.263 9.578 9.578 0 0 1-3.813.8 2.708 2.708 0 0 1-1.578-.345 1.494 1.494 0 0 1-.466-1.269 1.692 1.692 0 0 1 .2-.87 2.038 2.038 0 0 1 .674-.646 4.364 4.364 0 0 1 2.415-.752q.135 0 .135.09 0 .045-.084.09a.489.489 0 0 1-.1.045q-1.426.528-1.426.831t.943.292a6.877 6.877 0 0 0 2.887-.692 9.514 9.514 0 0 0 2.516-1.634q1.016-.943 1.016-1.539a.794.794 0 0 0-.421-.708 2.324 2.324 0 0 0-1.211-.257 6.854 6.854 0 0 0-1.387.129q-.623.129-1.409.348a5.424 5.424 0 0 1-.977.219.5.5 0 0 1-.505-.326q-.135-.27-.264-.533a3.489 3.489 0 0 1-.213-.55 2.22 2.22 0 0 1-.1-.477q.68-2.426 3.847-5.38Z"/><g transform="rotate(-16 49.4165 6.4008)"><path fill="#d05151" d="m97.032 99.902 48.365-50.616c16.217 11.977 26.57 30.2 26.57 50.616Z"/><path fill="#fff" d="m97.032 99.902 42.489-44.936c14.247 10.633 23.342 26.813 23.342 44.936Z"/><path fill="#fff" d="m123.338 71.954 10.235-10.64a8.46 8.46 0 1 1-10.235 10.64Z"/><path fill="#d05151" d="M118.221 99.826a9.094 9.094 0 0 1-.476-2.916 8.566 8.566 0 0 1 8.369-8.75 8.566 8.566 0 0 1 8.369 8.75 9.094 9.094 0 0 1-.476 2.916Zm5.116-27.872 10.235-10.64a8.46 8.46 0 1 1-10.235 10.64Z"/><circle cx="8.369" cy="8.369" r="8.369" fill="#d05151" transform="translate(138.387 79.06)"/></g></svg>